<svg version="1.1" id="Layer_1" xmlns="http://www.w3.org/2000/svg" xmlns:xlink="http://www.w3.org/1999/xlink" x="0px" y="0px"
	 width="100%" viewBox="0 0 4406 2475" enable-background="new 0 0 4406 2475" xml:space="preserve">
<path fill="#FFFFFF" opacity="1.000000" stroke="none" 
	d="
M4408.000000,107.999985 
	C4408.000000,897.808167 4408.000000,1687.616333 4408.000000,2478.000000 
	C4079.938477,2478.000000 3751.876465,2478.000000 3422.904541,2477.272949 
	C3419.647217,2473.080811 3417.794678,2469.116211 3414.877197,2466.226318 
	C3375.418213,2427.131836 3335.690674,2388.308105 3296.272949,2349.171875 
	C3252.813477,2306.023438 3209.611816,2262.615479 3166.271973,2219.346436 
	C3163.515625,2216.594727 3160.535645,2214.067139 3157.100830,2210.923828 
	C3154.013428,2213.668213 3151.470215,2215.708984 3149.176514,2217.999756 
	C3091.242432,2275.857910 3033.320068,2333.728027 2975.474609,2391.674561 
	C2973.227295,2393.925537 2971.755371,2396.950439 2969.282227,2399.681641 
	C2967.785156,2399.719482 2966.927979,2399.690186 2965.991699,2398.992188 
	C2964.989990,2396.963379 2964.257080,2395.414307 2963.117188,2394.271484 
	C2943.355469,2374.463135 2923.553711,2354.694824 2903.716064,2334.962402 
	C2902.612549,2333.864746 2901.124268,2333.154053 2899.683838,2332.173828 
	C2898.044434,2333.566650 2896.715088,2334.545898 2895.559326,2335.699463 
	C2850.532471,2380.647705 2805.502441,2425.593018 2760.570068,2470.635254 
	C2758.582764,2472.627441 2757.502686,2475.524414 2756.000000,2478.000000 
	C1838.000000,2478.000000 920.000000,2478.000000 2.936802,2476.964600 
	C5.872683,2475.922852 7.871760,2475.910889 9.870839,2475.910889 
	C341.066315,2475.911865 672.261780,2475.921387 1003.457275,2475.842285 
	C1008.362549,2475.841064 1013.267578,2474.737305 1018.840759,2474.204590 
	C1021.925049,2474.102051 1024.341309,2473.942871 1026.757446,2473.783691 
	C1026.364990,2471.628662 1026.504272,2469.156006 1025.452881,2467.394287 
	C1023.950073,2464.876221 1021.726257,2462.717529 1019.550232,2460.683594 
	C998.959900,2441.437500 978.247925,2422.320557 957.722046,2403.006348 
	C950.779785,2396.473877 944.436646,2389.306396 937.517639,2382.747314 
	C928.850586,2374.531250 919.813354,2366.706787 911.062256,2358.577393 
	C908.201050,2355.919434 905.588623,2352.955566 903.116577,2349.924316 
	C896.443420,2341.740967 889.295776,2334.124268 880.421204,2328.210449 
	C875.765930,2325.108154 871.097107,2321.857422 867.070984,2318.008057 
	C845.674988,2297.551514 824.419556,2276.946533 803.265869,2256.239258 
	C798.780762,2251.848877 794.996338,2246.750732 790.750671,2242.104980 
	C787.607544,2238.665771 784.754517,2234.555176 780.872620,2232.275879 
	C770.602661,2226.245605 763.194275,2217.477539 755.513550,2208.750244 
	C748.501221,2200.782715 748.141357,2200.866455 755.370117,2193.568848 
	C764.748047,2184.101562 774.204712,2174.712158 783.627441,2165.289307 
	C796.819031,2152.097168 810.071289,2138.964844 823.181091,2125.691895 
	C832.218445,2116.541992 832.088257,2111.427490 822.999207,2102.060791 
	C822.303284,2101.343750 821.587646,2100.645508 820.880920,2099.938965 
	C768.584167,2047.642456 716.288818,1995.344727 663.985168,1943.055176 
	C662.102295,1941.172852 660.431335,1938.524536 658.143188,1937.734619 
	C654.883362,1936.609131 651.030212,1936.182251 647.639282,1936.736084 
	C644.065063,1937.319824 643.933167,1940.925903 643.656128,1944.575684 
	C633.504639,1954.786987 623.744263,1964.465332 613.636963,1973.625000 
	C607.513733,1973.335815 605.104980,1976.940063 603.931152,1982.709473 
	C601.652283,1985.928833 599.963806,1988.803467 597.710571,1991.131348 
	C590.219666,1998.870361 582.649170,2006.542480 574.850647,2013.968872 
	C571.612793,2017.052246 567.721802,2019.449585 563.330811,2022.101318 
	C560.933533,2022.112061 559.333313,2022.180298 556.979919,2022.194824 
	C554.215393,2022.044800 552.204041,2021.948608 550.164734,2021.219971 
	C550.136780,2019.741333 550.136780,2018.894897 550.606873,2017.644531 
	C549.949890,2015.069702 549.319641,2012.339355 547.611755,2010.823120 
	C539.205139,2003.361084 530.126038,1996.626221 522.007019,1988.877197 
	C508.026337,1975.533691 494.580750,1961.629517 480.910278,1947.961060 
	C479.496185,1946.546997 478.123413,1945.088013 476.656464,1943.730957 
	C468.515167,1936.200195 463.264984,1936.163940 455.147186,1943.960449 
	C448.177124,1950.654419 441.471161,1957.622681 434.594727,1964.415161 
	C432.707031,1966.279785 430.684967,1968.021362 428.622986,1969.694092 
	C420.205780,1976.521851 411.283051,1982.805420 403.409271,1990.207031 
	C389.213043,2003.552002 375.626556,2017.546265 361.809021,2031.292969 
	C359.449646,2033.640259 357.231140,2036.128540 354.904846,2038.509888 
	C352.169800,2041.309570 349.540466,2044.238281 346.598572,2046.805420 
	C337.418030,2054.816162 328.310211,2062.927002 319.014160,2070.793701 
	C293.174103,2092.660156 271.219574,2118.645020 245.200073,2140.680664 
	C209.724274,2170.724365 180.588486,2207.625488 144.363510,2237.262451 
	C125.882019,2252.383057 110.104752,2270.821777 93.257179,2287.910889 
	C91.046898,2290.152832 89.742760,2293.288086 87.942322,2296.639404 
	C86.585991,2298.833008 85.306274,2300.396973 83.729111,2301.517578 
	C80.184013,2299.688477 80.098320,2299.711426 80.001144,2302.492676 
	C79.989983,2302.992188 79.983002,2303.991211 79.948891,2304.437988 
	C79.914780,2304.885010 79.914246,2305.781250 79.226715,2305.831055 
	C76.409584,2306.641113 74.279984,2307.401611 71.433868,2308.205078 
	C66.614822,2310.274658 65.990280,2313.984131 65.308838,2318.081543 
	C58.596119,2320.877930 55.165409,2325.574707 54.010399,2332.009766 
	C54.000458,2332.000000 54.014965,2332.019531 53.347401,2331.997314 
	C51.789936,2331.989990 50.900032,2332.004883 49.355141,2332.015137 
	C46.422916,2332.395508 42.955009,2331.943115 45.686958,2336.497314 
	C44.972794,2337.948975 44.468048,2338.900879 43.276089,2339.959961 
	C32.910645,2348.163818 23.448618,2356.448730 15.595160,2366.454834 
	C13.728025,2368.833496 10.609483,2370.230469 7.308138,2372.039795 
	C5.033172,2372.000488 3.516586,2372.000244 2.000000,2372.000000 
	C2.000000,1725.938232 2.000000,1079.876343 2.696132,432.952332 
	C6.464811,434.539703 9.804130,436.721741 12.569806,439.479156 
	C52.216980,479.008087 91.808960,518.592529 131.324051,558.253479 
	C133.888474,560.827393 135.718170,564.133240 138.541061,567.988220 
	C144.348236,563.190735 148.638733,560.192627 152.287125,556.551208 
	C217.858246,491.104523 283.351532,425.579865 348.862823,360.073242 
	C350.747925,358.188232 352.649445,356.319672 354.541077,354.441162 
	C357.412567,351.589630 360.319489,351.449951 363.259155,354.331238 
	C364.925018,355.964020 366.589081,357.598755 368.238647,359.247955 
	C389.920013,380.925049 411.640930,402.562897 433.236938,424.324738 
	C436.901306,428.017242 440.567627,431.121399 446.589111,430.879578 
	C449.163940,429.999695 451.694763,429.116333 453.405273,427.410431 
	C504.261810,376.690460 555.043274,325.895142 605.794922,275.070190 
	C607.314026,273.548920 608.386475,271.581726 609.954773,269.427338 
	C607.641235,268.027252 605.963440,267.011932 603.940308,265.414154 
	C577.509033,238.760529 551.423218,212.689346 525.366760,185.771744 
	C525.318542,184.366074 525.240845,183.806839 525.809814,183.120682 
	C546.112122,163.163712 565.792480,143.358185 585.409973,123.490570 
	C592.409058,116.402229 599.256042,109.163658 606.740967,101.912094 
	C607.913147,101.195015 608.516907,100.559509 609.120667,99.924011 
	C608.151978,99.269974 607.183289,98.615936 605.866760,97.387138 
	C602.981262,94.185295 600.481506,91.520317 597.900085,88.936996 
	C572.536560,63.555000 547.149231,38.196857 521.799988,12.800605 
	C518.813538,9.808602 514.894592,7.228227 516.000000,2.000000 
	C1472.728516,2.000000 2429.457031,2.000000 3387.091309,2.762410 
	C3387.414062,7.996315 3389.885498,10.931324 3392.838135,13.831503 
	C3402.063965,22.892015 3410.773682,32.521023 3420.442871,41.071064 
	C3426.231689,46.189732 3433.439697,49.703465 3440.585449,54.244415 
	C3444.128662,57.697411 3447.096436,60.844631 3450.127441,64.698265 
	C3451.738037,70.168610 3455.092041,72.256004 3460.582031,72.324783 
	C3464.095703,75.744080 3467.034912,78.869453 3469.993652,82.740303 
	C3470.604248,89.527603 3474.150879,92.113747 3479.995117,92.009460 
	C3480.000000,91.999695 3479.980469,92.008453 3479.998535,92.752617 
	C3480.607422,99.546532 3484.167725,102.115738 3490.429688,102.241257 
	C3491.386475,102.860847 3491.761475,103.371544 3491.998047,104.733307 
	C3493.003906,107.429405 3493.480713,110.140854 3495.067627,111.219551 
	C3502.448730,116.237091 3508.798828,122.144257 3514.397949,129.142136 
	C3518.697510,134.515854 3524.098633,139.003235 3528.959229,143.934570 
	C3532.556396,147.583542 3536.608154,150.171829 3542.041016,150.721222 
	C3542.530029,152.307312 3542.720215,153.431305 3543.379150,154.075714 
	C3565.023926,175.243103 3586.748779,196.328629 3608.369141,217.520798 
	C3613.107422,222.165451 3617.468018,227.193802 3622.056152,231.994202 
	C3626.405518,236.544998 3630.074707,242.446030 3635.369141,245.249496 
	C3646.819336,251.312668 3652.758545,262.465607 3661.702881,270.748596 
	C3664.737549,273.559082 3664.447998,276.564880 3661.586914,279.424774 
	C3659.937500,281.073792 3658.311279,282.746307 3656.662109,284.395660 
	C3634.986084,306.075958 3613.281006,327.727325 3591.641846,349.444305 
	C3581.550537,359.571594 3581.591064,364.353394 3591.543945,374.494141 
	C3592.244141,375.207581 3592.956543,375.909088 3593.663330,376.616089 
	C3645.502197,428.455261 3697.340820,480.294464 3749.180664,532.132935 
	C3750.594238,533.546631 3751.954590,535.020630 3753.439697,536.355347 
	C3759.001221,541.354004 3764.913574,541.617920 3770.226318,536.637146 
	C3782.533447,525.097595 3794.870361,513.576294 3806.806152,501.657806 
	C3818.094971,490.385773 3828.756592,478.487579 3839.966064,467.133331 
	C3844.088623,462.957489 3848.990234,459.551056 3853.471924,455.847229 
	C3856.043213,457.124054 3858.077148,457.688873 3859.536377,458.929810 
	C3870.378418,468.150879 3881.487549,477.105927 3891.780029,486.913849 
	C3906.973877,501.392548 3921.498779,516.570496 3936.429443,531.328674 
	C3945.282227,540.079346 3950.560059,540.090881 3959.347412,531.564087 
	C3966.281982,524.835205 3972.990479,517.873291 3979.900146,511.118011 
	C3981.773193,509.286438 3983.788818,506.975433 3986.125977,506.364105 
	C3992.340820,504.738312 3996.303711,500.380951 4000.695557,496.292206 
	C4032.522705,466.663879 4060.977295,433.693756 4094.508301,405.613312 
	C4122.700195,382.004608 4147.018555,353.958527 4174.753418,329.496796 
	C4201.941406,305.517883 4226.444824,278.496216 4252.144043,252.827911 
	C4254.260742,250.713486 4256.181641,248.013016 4258.764160,246.821716 
	C4271.566895,240.915970 4279.323242,229.092484 4289.764160,220.451263 
	C4301.452637,210.777344 4310.893555,198.419250 4321.596191,187.507614 
	C4325.517578,183.509903 4329.793457,179.367447 4334.724121,176.970749 
	C4341.760742,173.550323 4346.340332,168.365845 4350.010742,161.885071 
	C4353.679199,155.408569 4358.270020,150.184952 4365.382324,146.868393 
	C4370.045410,144.694046 4373.952148,140.656265 4377.807129,137.036484 
	C4387.984863,127.478935 4397.950195,117.694153 4408.000000,107.999985 
z"/>
<path fill="#FFECB2" opacity="1.000000" stroke="none" 
	d="
M550.192688,2021.852295 
	C552.204041,2021.948608 554.215393,2022.044800 556.792175,2022.671875 
	C556.886719,2024.131958 556.415833,2025.061157 555.497986,2026.341797 
	C553.898010,2029.762573 556.173950,2029.637817 558.052124,2030.005371 
	C558.068115,2030.112183 558.076294,2030.328247 558.017761,2030.990234 
	C555.669067,2034.446045 553.591431,2037.451538 551.055420,2040.001099 
	C529.225708,2061.946289 507.308136,2083.804443 485.432343,2105.704102 
	C482.909637,2108.229492 480.482178,2110.850342 477.585999,2113.869385 
	C480.409698,2116.916260 482.546448,2119.379395 484.845795,2121.680176 
	C538.727051,2175.589844 592.625488,2229.482666 646.522278,2283.376953 
	C647.934326,2284.788818 649.374146,2286.173340 650.781494,2287.589844 
	C653.744812,2290.572510 656.599426,2290.243896 659.420227,2287.371094 
	C661.052429,2285.709229 662.733521,2284.095215 664.380920,2282.447998 
	C687.212280,2259.621094 709.999939,2236.749756 732.931885,2214.024414 
	C735.408325,2211.570312 738.718689,2209.957520 742.355591,2208.011230 
	C745.176514,2209.511963 747.513855,2210.711670 749.352783,2212.441162 
	C758.321777,2220.876465 767.157776,2229.453613 776.097229,2238.668457 
	C777.383484,2243.214600 779.801270,2245.659912 784.614502,2246.275879 
	C791.481934,2253.052246 797.750854,2259.521240 804.094604,2266.702637 
	C805.171387,2271.689453 808.445862,2272.082520 812.593140,2272.297363 
	C824.752869,2284.037598 836.391785,2295.407471 847.859131,2306.947754 
	C856.034851,2315.175293 863.980225,2323.631592 872.126953,2332.675537 
	C874.153503,2334.225830 876.081421,2335.086426 878.696289,2336.032227 
	C885.660583,2340.122070 891.564758,2344.471924 894.119812,2352.651367 
	C896.112061,2354.886475 898.058472,2356.438477 900.532715,2358.238770 
	C902.042786,2359.658203 903.025024,2360.829102 904.084839,2362.711914 
	C905.177795,2367.688477 908.444031,2368.089355 912.596313,2368.288086 
	C922.133057,2377.720947 931.075134,2386.855469 940.094482,2396.632812 
	C941.450745,2398.176758 942.729736,2399.078613 944.602539,2400.280029 
	C954.138428,2409.716553 963.080505,2418.853271 972.098694,2428.632324 
	C973.453003,2430.176270 974.731140,2431.078369 976.711853,2432.062012 
	C980.007751,2433.525635 983.105591,2434.397705 985.107849,2436.377686 
	C994.244080,2445.411865 1003.072937,2454.756836 1012.068115,2464.649414 
	C1014.093445,2467.517578 1016.062988,2469.726807 1018.055664,2472.489746 
	C1018.110107,2473.411621 1018.141357,2473.779785 1018.172668,2474.147949 
	C1013.267578,2474.737305 1008.362549,2475.841064 1003.457275,2475.842285 
	C672.261780,2475.921387 341.066315,2475.911865 9.870839,2475.910889 
	C7.871760,2475.910889 5.872683,2475.922852 2.936802,2475.964600 
	C2.000000,2444.624756 2.000000,2413.249756 2.639049,2380.851562 
	C4.196824,2378.562012 5.115550,2377.295654 6.525152,2375.700684 
	C7.366181,2374.274414 7.716334,2373.176514 8.066502,2372.078857 
	C10.609483,2370.230469 13.728025,2368.833496 15.595160,2366.454834 
	C23.448618,2356.448730 32.910645,2348.163818 43.630135,2340.475586 
	C49.094940,2342.155762 49.524307,2339.049805 50.007164,2336.004883 
	C50.000465,2336.000000 50.013309,2336.009766 50.655190,2335.929199 
	C52.203053,2334.572266 53.109032,2333.295898 54.014988,2332.019531 
	C54.014965,2332.019531 54.000458,2332.000000 54.783089,2332.014404 
	C65.075142,2330.415039 67.206642,2328.036133 68.277588,2317.638916 
	C68.868317,2316.677002 69.376152,2316.313232 70.339050,2316.539062 
	C71.474251,2316.827637 72.275276,2316.694824 73.076294,2316.562256 
	C72.094231,2315.670410 71.112167,2314.778809 70.379395,2313.323730 
	C71.135918,2311.227783 71.643150,2309.694824 72.150375,2308.162109 
	C74.279984,2307.401611 76.409584,2306.641113 79.551117,2306.329102 
	C83.643745,2308.288574 83.611588,2305.878174 84.753738,2304.015137 
	C88.253708,2302.394043 91.424004,2301.223877 93.735153,2299.113037 
	C117.731529,2277.197266 139.697235,2253.282715 164.241226,2231.749756 
	C201.385513,2199.162109 233.718399,2161.306641 271.507660,2129.150635 
	C285.400970,2117.328369 297.506500,2103.411621 310.515808,2090.539307 
	C313.090698,2087.991455 316.124115,2085.913574 318.851746,2083.511963 
	C330.017181,2073.681641 342.352081,2065.340820 352.771332,2054.483643 
	C374.655090,2031.680664 397.276978,2009.583252 419.745819,1987.347778 
	C423.233337,1983.896484 427.399963,1981.081665 431.461578,1978.275024 
	C435.319366,1975.609253 439.376862,1973.277832 440.283997,1967.397949 
	C445.720123,1961.867188 450.858246,1956.928711 456.736847,1951.984375 
	C462.820404,1949.944946 468.156403,1947.852661 474.592194,1950.299316 
	C480.785339,1956.401001 486.386353,1962.203369 492.006805,1968.746826 
	C491.943909,1973.728638 494.810547,1974.079590 498.587616,1974.310181 
	C508.129211,1983.732300 517.077332,1992.856689 526.119507,2002.663818 
	C532.962402,2009.241577 539.669617,2015.185791 546.512573,2020.969604 
	C547.373108,2021.697144 548.948486,2021.578857 550.192688,2021.852295 
z"/>
<path fill="#FFECB2" opacity="1.000000" stroke="none" 
	d="
M3396.000000,2.000035 
	C3733.333252,2.000000 4070.666748,2.000000 4408.000000,2.000000 
	C4408.000000,33.508194 4408.000000,64.816780 4407.315430,97.150253 
	C4399.570312,104.659454 4392.502441,111.136948 4385.449707,117.630249 
	C4377.639160,124.820602 4369.896484,132.085480 4362.020996,139.203644 
	C4356.613281,144.090897 4350.859375,148.603043 4345.567383,153.607681 
	C4338.868164,159.942734 4332.590820,166.722351 4325.938965,173.109329 
	C4300.059082,197.957870 4275.914551,224.520187 4248.121582,247.508591 
	C4228.997070,263.327515 4212.870605,282.717590 4194.372070,299.364716 
	C4179.094727,313.113007 4164.784180,327.824371 4148.922363,341.091614 
	C4121.731934,363.835266 4098.746582,391.240814 4071.486572,414.289673 
	C4049.184082,433.146973 4029.965820,455.614044 4008.908691,475.993927 
	C3991.759766,492.591248 3973.936035,508.492676 3956.360596,524.646912 
	C3951.820557,528.819824 3948.234619,529.363159 3942.807129,526.305725 
	C3939.969482,524.707214 3937.441162,522.411316 3935.103760,520.096436 
	C3921.379395,506.503510 3907.866943,492.694885 3894.017578,479.231689 
	C3890.272217,475.590485 3885.467041,473.066803 3881.395264,469.728638 
	C3873.507324,463.262329 3865.794922,456.581909 3857.936523,449.369507 
	C3856.583496,447.189178 3855.303955,445.629608 3854.298584,443.461365 
	C3881.198730,415.994171 3907.824707,389.135620 3934.318848,362.409943 
	C3932.909912,360.416626 3932.441406,359.502777 3931.750488,358.811005 
	C3876.165527,303.177094 3820.581787,247.542465 3764.934570,191.971161 
	C3759.481689,186.525726 3758.540527,186.587524 3752.751709,192.349792 
	C3727.953125,217.033890 3703.178467,241.743179 3678.610840,266.655945 
	C3676.283447,269.016144 3675.458252,272.857880 3673.453613,275.703552 
	C3671.990723,274.256439 3671.010010,273.117432 3669.738281,271.375427 
	C3664.958984,265.846283 3660.470703,260.920105 3656.471680,255.614044 
	C3655.360107,246.995468 3649.213623,243.941742 3641.399414,242.035187 
	C3639.859863,241.305817 3638.915283,240.653046 3637.891602,239.363266 
	C3636.540527,237.837769 3635.268799,236.949295 3633.557861,235.824036 
	C3632.570801,235.174850 3632.177979,234.647064 3631.883057,233.326172 
	C3629.883789,231.103638 3627.941895,229.558853 3626.000000,228.007019 
	C3626.000000,228.000000 3625.990234,227.995361 3625.980957,227.266220 
	C3622.070801,216.039963 3613.900635,210.130402 3603.311035,205.982910 
	C3593.747803,197.251785 3584.869141,188.623459 3575.980469,179.261063 
	C3573.890381,171.484619 3570.073975,166.379471 3561.438965,165.728134 
	C3558.571533,162.957062 3556.274170,160.474075 3553.968750,157.241882 
	C3553.896973,151.154633 3550.592529,149.806442 3546.003906,150.015701 
	C3545.999023,149.997742 3545.960938,150.001480 3545.898682,149.303101 
	C3542.544434,142.102280 3537.107910,138.799866 3529.422852,137.697021 
	C3525.897461,134.267761 3522.948730,131.132797 3519.987549,127.269760 
	C3519.625000,121.541939 3517.009033,118.666328 3511.564941,117.800980 
	C3510.587158,117.160423 3510.200439,116.637299 3509.900635,115.292557 
	C3508.264160,109.843330 3504.940186,107.726654 3499.573242,107.785995 
	C3498.599365,107.152405 3498.212891,106.633224 3497.913330,105.311829 
	C3497.238281,103.466637 3496.867920,102.072578 3495.987061,101.186569 
	C3477.245605,82.339462 3458.584961,63.406960 3439.506592,44.905273 
	C3436.716797,42.199581 3431.885986,41.598572 3427.999756,40.010891 
	C3428.000000,39.998062 3427.974365,40.006752 3427.909180,39.318588 
	C3425.866699,36.078194 3424.105713,33.316837 3421.872559,31.012709 
	C3415.018311,23.939840 3407.860352,17.158438 3401.090576,10.008024 
	C3398.955811,7.753223 3397.672852,4.692122 3396.000000,2.000035 
z"/>
<path fill="#D3D3D3" opacity="1.000000" stroke="none" 
	d="
M446.162720,430.492676 
	C440.567627,431.121399 436.901306,428.017242 433.236938,424.324738 
	C411.640930,402.562897 389.920013,380.925049 368.238647,359.247955 
	C366.589081,357.598755 364.925018,355.964020 363.259155,354.331238 
	C360.319489,351.449951 357.412567,351.589630 354.541077,354.441162 
	C352.649445,356.319672 350.747925,358.188232 348.862823,360.073242 
	C283.351532,425.579865 217.858246,491.104523 152.287125,556.551208 
	C148.638733,560.192627 144.348236,563.190735 138.541061,567.988220 
	C135.718170,564.133240 133.888474,560.827393 131.324051,558.253479 
	C91.808960,518.592529 52.216980,479.008087 12.569806,439.479156 
	C9.804130,436.721741 6.464811,434.539703 2.696132,432.045044 
	C2.000000,432.000000 2.000000,431.000000 2.580557,429.899628 
	C3.438914,424.846130 3.958317,420.893066 3.959566,416.939850 
	C4.003253,278.626556 3.998171,140.313278 4.000000,2.000000 
	C174.041794,2.000000 344.083588,2.000000 515.062683,2.000000 
	C514.894592,7.228227 518.813538,9.808602 521.799988,12.800605 
	C547.149231,38.196857 572.536560,63.555000 597.900085,88.936996 
	C600.481506,91.520317 602.981262,94.185295 605.818787,98.058701 
	C606.136597,100.201241 606.154541,101.097458 606.172485,101.993675 
	C599.256042,109.163658 592.409058,116.402229 585.409973,123.490570 
	C565.792480,143.358185 546.112122,163.163712 525.396118,182.767197 
	C521.143311,180.271210 517.566895,178.389923 514.819641,175.670837 
	C493.263824,154.336273 471.887726,132.820267 450.409088,111.407501 
	C443.278473,104.298790 442.848602,104.250496 436.068207,111.022430 
	C385.603851,161.423767 335.169159,211.854919 284.768890,262.320374 
	C278.349762,268.747803 278.394196,269.322540 284.970520,275.944031 
	C299.766663,290.841705 314.647919,305.654816 329.495544,320.501343 
	C337.508545,328.513733 345.429443,336.621368 353.573212,344.498627 
	C358.451111,349.216888 359.354431,349.083008 364.355469,344.570557 
	C366.085358,343.009644 367.671234,341.289032 369.320953,339.639404 
	C417.634033,291.328735 465.918671,242.989487 514.323792,194.771240 
	C517.525269,191.582062 521.644836,189.314438 525.337341,186.618164 
	C551.423218,212.689346 577.509033,238.760529 603.872925,266.148682 
	C601.848389,270.954376 600.057556,274.952515 597.167114,277.855896 
	C549.449341,325.787537 501.580933,373.569061 453.799957,421.437866 
	C451.020294,424.222656 448.697906,427.463867 446.162720,430.492676 
z"/>
<path fill="#D3D3D3" opacity="1.000000" stroke="none" 
	d="
M2969.922363,2399.614746 
	C2971.755371,2396.950439 2973.227295,2393.925537 2975.474609,2391.674561 
	C3033.320068,2333.728027 3091.242432,2275.857910 3149.176514,2217.999756 
	C3151.470215,2215.708984 3154.013428,2213.668213 3157.100830,2210.923828 
	C3160.535645,2214.067139 3163.515625,2216.594727 3166.271973,2219.346436 
	C3209.611816,2262.615479 3252.813477,2306.023438 3296.272949,2349.171875 
	C3335.690674,2388.308105 3375.418213,2427.131836 3414.877197,2466.226318 
	C3417.794678,2469.116211 3419.647217,2473.080811 3421.997314,2477.272949 
	C3296.624756,2478.000000 3171.249756,2478.000000 3044.887939,2477.308105 
	C3041.671387,2473.815186 3039.681641,2470.775635 3037.173096,2468.251465 
	C3017.124268,2448.077881 2996.953125,2428.025146 2976.889893,2407.865967 
	C2974.359131,2405.322998 2972.234863,2402.375000 2969.922363,2399.614746 
z"/>
<path fill="#D3D3D3" opacity="1.000000" stroke="none" 
	d="
M2756.937256,2478.000000 
	C2757.502686,2475.524414 2758.582764,2472.627441 2760.570068,2470.635254 
	C2805.502441,2425.593018 2850.532471,2380.647705 2895.559326,2335.699463 
	C2896.715088,2334.545898 2898.044434,2333.566650 2899.683838,2332.173828 
	C2901.124268,2333.154053 2902.612549,2333.864746 2903.716064,2334.962402 
	C2923.553711,2354.694824 2943.355469,2374.463135 2963.117188,2394.271484 
	C2964.257080,2395.414307 2964.989990,2396.963379 2965.733643,2399.643066 
	C2963.073242,2403.610840 2960.661133,2406.328613 2958.098633,2408.895508 
	C2938.014893,2429.012451 2917.851318,2449.050049 2897.865234,2469.263428 
	C2895.442871,2471.713623 2893.932861,2475.065918 2892.000000,2478.000000 
	C2847.291504,2478.000000 2802.583008,2478.000000 2756.937256,2478.000000 
z"/>
<path fill="#FDF5DC" opacity="1.000000" stroke="none" 
	d="
M3858.009766,449.990234 
	C3865.794922,456.581909 3873.507324,463.262329 3881.395264,469.728638 
	C3885.467041,473.066803 3890.272217,475.590485 3894.017578,479.231689 
	C3907.866943,492.694885 3921.379395,506.503510 3935.103760,520.096436 
	C3937.441162,522.411316 3939.969482,524.707214 3942.807129,526.305725 
	C3948.234619,529.363159 3951.820557,528.819824 3956.360596,524.646912 
	C3973.936035,508.492676 3991.759766,492.591248 4008.908691,475.993927 
	C4029.965820,455.614044 4049.184082,433.146973 4071.486572,414.289673 
	C4098.746582,391.240814 4121.731934,363.835266 4148.922363,341.091614 
	C4164.784180,327.824371 4179.094727,313.113007 4194.372070,299.364716 
	C4212.870605,282.717590 4228.997070,263.327515 4248.121582,247.508591 
	C4275.914551,224.520187 4300.059082,197.957870 4325.938965,173.109329 
	C4332.590820,166.722351 4338.868164,159.942734 4345.567383,153.607681 
	C4350.859375,148.603043 4356.613281,144.090897 4362.020996,139.203644 
	C4369.896484,132.085480 4377.639160,124.820602 4385.449707,117.630249 
	C4392.502441,111.136948 4399.570312,104.659454 4407.315430,98.087570 
	C4408.000000,100.777779 4408.000000,103.555557 4408.000000,107.166656 
	C4397.950195,117.694153 4387.984863,127.478935 4377.807129,137.036484 
	C4373.952148,140.656265 4370.045410,144.694046 4365.382324,146.868393 
	C4358.270020,150.184952 4353.679199,155.408569 4350.010742,161.885071 
	C4346.340332,168.365845 4341.760742,173.550323 4334.724121,176.970749 
	C4329.793457,179.367447 4325.517578,183.509903 4321.596191,187.507614 
	C4310.893555,198.419250 4301.452637,210.777344 4289.764160,220.451263 
	C4279.323242,229.092484 4271.566895,240.915970 4258.764160,246.821716 
	C4256.181641,248.013016 4254.260742,250.713486 4252.144043,252.827911 
	C4226.444824,278.496216 4201.941406,305.517883 4174.753418,329.496796 
	C4147.018555,353.958527 4122.700195,382.004608 4094.508301,405.613312 
	C4060.977295,433.693756 4032.522705,466.663879 4000.695557,496.292206 
	C3996.303711,500.380951 3992.340820,504.738312 3986.125977,506.364105 
	C3983.788818,506.975433 3981.773193,509.286438 3979.900146,511.118011 
	C3972.990479,517.873291 3966.281982,524.835205 3959.347412,531.564087 
	C3950.560059,540.090881 3945.282227,540.079346 3936.429443,531.328674 
	C3921.498779,516.570496 3906.973877,501.392548 3891.780029,486.913849 
	C3881.487549,477.105927 3870.378418,468.150879 3859.536377,458.929810 
	C3858.077148,457.688873 3856.043213,457.124054 3853.471924,455.847229 
	C3848.990234,459.551056 3844.088623,462.957489 3839.966064,467.133331 
	C3828.756592,478.487579 3818.094971,490.385773 3806.806152,501.657806 
	C3794.870361,513.576294 3782.533447,525.097595 3770.226318,536.637146 
	C3764.913574,541.617920 3759.001221,541.354004 3753.439697,536.355347 
	C3751.954590,535.020630 3750.594238,533.546631 3749.180664,532.132935 
	C3697.340820,480.294464 3645.502197,428.455261 3593.663330,376.616089 
	C3592.956543,375.909088 3592.244141,375.207581 3591.543945,374.494141 
	C3581.591064,364.353394 3581.550537,359.571594 3591.641846,349.444305 
	C3613.281006,327.727325 3634.986084,306.075958 3656.662109,284.395660 
	C3658.311279,282.746307 3659.937500,281.073792 3661.586914,279.424774 
	C3664.447998,276.564880 3664.737549,273.559082 3661.702881,270.748596 
	C3652.758545,262.465607 3646.819336,251.312668 3635.369141,245.249496 
	C3630.074707,242.446030 3626.405518,236.544998 3622.056152,231.994202 
	C3617.468018,227.193802 3613.107422,222.165451 3608.369141,217.520798 
	C3586.748779,196.328629 3565.023926,175.243103 3543.379150,154.075714 
	C3542.720215,153.431305 3542.530029,152.307312 3542.056641,150.707306 
	C3541.992188,150.007736 3542.009766,149.986572 3542.668457,149.991440 
	C3544.205078,149.998032 3545.083008,149.999756 3545.960938,150.001480 
	C3545.960938,150.001480 3545.999023,149.997742 3546.276123,150.587677 
	C3549.027588,153.448822 3551.502197,155.720001 3553.976562,157.991135 
	C3556.274170,160.474075 3558.571533,162.957062 3561.723633,166.322342 
	C3567.049072,171.468079 3571.519775,175.731537 3575.990234,179.995056 
	C3584.869141,188.623459 3593.747803,197.251785 3603.387695,206.664154 
	C3611.429443,214.297241 3618.709961,221.146271 3625.990234,227.995331 
	C3625.990234,227.995361 3626.000000,228.000000 3626.067627,228.683533 
	C3628.070312,230.912689 3630.005127,232.458313 3631.940186,234.003906 
	C3632.177979,234.647064 3632.570801,235.174850 3633.642578,236.456055 
	C3635.434570,238.216660 3636.702637,239.108475 3637.970703,240.000305 
	C3638.915283,240.653046 3639.859863,241.305817 3641.476562,242.709625 
	C3646.760010,247.638443 3651.371094,251.816223 3655.982422,255.993988 
	C3660.470703,260.920105 3664.958984,265.846283 3669.656738,272.081604 
	C3667.085449,277.418549 3664.824463,281.958740 3661.439941,285.391205 
	C3638.836670,308.316650 3615.972168,330.984436 3593.241455,353.784760 
	C3586.725586,360.320770 3586.654785,362.830933 3592.694336,369.590485 
	C3594.209473,371.286224 3596.229492,372.530823 3598.311523,374.579102 
	C3627.574463,404.252411 3656.540283,433.332336 3685.530518,462.388000 
	C3686.212891,463.071960 3687.169189,463.482483 3688.256348,464.581024 
	C3690.336426,466.761871 3692.158447,468.382141 3694.279785,470.596741 
	C3705.108154,481.837189 3715.559570,492.561584 3726.190918,503.104706 
	C3734.679932,511.523560 3743.387939,519.721680 3752.295898,528.628052 
	C3754.376709,531.056091 3755.955566,533.159241 3757.992676,534.625244 
	C3761.041748,536.819092 3763.392090,536.181519 3764.533203,532.064331 
	C3765.026367,532.047913 3766.012695,532.009216 3766.697266,531.940186 
	C3771.217773,530.631958 3773.647705,528.202698 3774.320312,523.430969 
	C3787.757080,509.893250 3800.893311,496.955505 3814.706055,483.945770 
	C3816.928223,481.926178 3818.473877,479.978607 3820.589600,477.745667 
	C3823.449463,474.979431 3825.739502,472.498535 3828.666504,469.931671 
	C3830.208740,468.573669 3831.114258,467.301697 3832.546387,465.778931 
	C3834.058838,464.358582 3835.044189,463.189026 3836.712402,461.947205 
	C3841.219482,460.627197 3843.649658,458.201660 3844.563721,453.771790 
	C3846.729004,452.330658 3848.349854,451.152954 3850.774414,449.983887 
	C3853.721924,449.991730 3855.865967,449.990997 3858.009766,449.990234 
z"/>
<path fill="#B4B4B4" opacity="1.000000" stroke="none" 
	d="
M2892.937256,2478.000000 
	C2893.932861,2475.065918 2895.442871,2471.713623 2897.865234,2469.263428 
	C2917.851318,2449.050049 2938.014893,2429.012451 2958.098633,2408.895508 
	C2960.661133,2406.328613 2963.073242,2403.610840 2965.812988,2400.312012 
	C2966.927979,2399.690186 2967.785156,2399.719482 2969.282227,2399.681641 
	C2972.234863,2402.375000 2974.359131,2405.322998 2976.889893,2407.865967 
	C2996.953125,2428.025146 3017.124268,2448.077881 3037.173096,2468.251465 
	C3039.681641,2470.775635 3041.671387,2473.815186 3043.950684,2477.308105 
	C2993.958252,2478.000000 2943.916260,2478.000000 2892.937256,2478.000000 
z"/>
<path fill="#B4B4B4" opacity="1.000000" stroke="none" 
	d="
M3.000000,2.000000 
	C3.998171,140.313278 4.003253,278.626556 3.959566,416.939850 
	C3.958317,420.893066 3.438914,424.846130 2.580557,429.399628 
	C2.000000,287.333344 2.000000,144.666672 3.000000,2.000000 
z"/>
<path fill="#FDF5DC" opacity="1.000000" stroke="none" 
	d="
M3440.009766,53.938663 
	C3433.439697,49.703465 3426.231689,46.189732 3420.442871,41.071064 
	C3410.773682,32.521023 3402.063965,22.892015 3392.838135,13.831503 
	C3389.885498,10.931324 3387.414062,7.996315 3387.998535,2.762410 
	C3388.888916,2.000000 3389.777832,2.000000 3391.339844,2.730553 
	C3393.123779,5.751035 3393.748535,8.508170 3395.426270,10.252424 
	C3404.130127,19.300341 3413.035400,28.159479 3422.047119,36.901928 
	C3423.582275,38.391117 3425.976807,38.994225 3427.974365,40.006737 
	C3427.974365,40.006752 3428.000000,39.998062 3428.297363,40.613953 
	C3430.576904,42.912704 3432.781738,44.399059 3434.483398,46.329060 
	C3436.547607,48.669800 3438.186768,51.385307 3440.009766,53.938663 
z"/>
<path fill="#FFF4D7" opacity="1.000000" stroke="none" 
	d="
M3427.909180,39.318573 
	C3425.976807,38.994225 3423.582275,38.391117 3422.047119,36.901928 
	C3413.035400,28.159479 3404.130127,19.300341 3395.426270,10.252424 
	C3393.748535,8.508170 3393.123779,5.751035 3392.006592,2.730553 
	C3392.888916,2.000000 3393.777832,2.000000 3395.333496,2.000035 
	C3397.672852,4.692122 3398.955811,7.753223 3401.090576,10.008024 
	C3407.860352,17.158438 3415.018311,23.939840 3421.872559,31.012709 
	C3424.105713,33.316837 3425.866699,36.078194 3427.909180,39.318573 
z"/>
<path fill="#FFF4D7" opacity="1.000000" stroke="none" 
	d="
M7.308122,2372.039795 
	C7.716334,2373.176514 7.366181,2374.274414 5.852428,2375.687988 
	C3.792552,2376.002686 2.896276,2376.001465 2.000000,2376.000000 
	C2.000000,2375.111084 2.000000,2374.222168 2.000000,2372.666504 
	C3.516586,2372.000244 5.033172,2372.000488 7.308122,2372.039795 
z"/>
<path fill="#FFF1CC" opacity="1.000000" stroke="none" 
	d="
M2.000000,2376.666504 
	C2.896276,2376.001465 3.792552,2376.002686 5.361553,2376.016602 
	C5.115550,2377.295654 4.196824,2378.562012 2.639049,2379.914062 
	C2.000000,2379.111084 2.000000,2378.222168 2.000000,2376.666504 
z"/>
<path fill="#FFECB2" opacity="1.000000" stroke="none" 
	d="
M613.983826,1974.143555 
	C623.744263,1964.465332 633.504639,1954.786987 644.314331,1944.580322 
	C646.242249,1944.036133 647.120850,1944.020508 648.498535,1944.560547 
	C651.998230,1945.412476 654.998962,1945.708618 658.594666,1946.300415 
	C660.186340,1947.470093 661.236572,1948.290771 662.172180,1949.225952 
	C712.658020,1999.693726 763.138672,2050.166504 813.591309,2100.667480 
	C815.214050,2102.291992 816.537231,2104.215820 818.012207,2106.769043 
	C818.690552,2111.026855 819.356750,2114.515381 819.719971,2118.604980 
	C809.895569,2128.849365 800.405640,2138.524170 790.845032,2148.128174 
	C777.519470,2161.513916 764.161011,2174.866943 750.765259,2188.182129 
	C748.657288,2190.277344 746.278870,2192.100342 743.370239,2194.122070 
	C741.773438,2195.510498 740.831848,2196.826416 739.296143,2197.837891 
	C724.337585,2184.277588 710.514282,2170.517822 695.524048,2157.836182 
	C674.531921,2140.076660 655.482300,2120.006592 635.777466,2100.745361 
	C620.323914,2085.639648 605.144348,2070.254150 589.822937,2055.012939 
	C587.705627,2052.906738 585.454163,2050.935791 583.296814,2048.868896 
	C576.860352,2042.701904 570.440002,2036.518188 564.005615,2029.520264 
	C564.041321,2026.519165 564.084534,2024.338989 564.127808,2022.158936 
	C567.721802,2019.449585 571.612793,2017.052246 574.850647,2013.968872 
	C582.649170,2006.542480 590.219666,1998.870361 597.710571,1991.131348 
	C599.963806,1988.803467 601.652283,1985.928833 604.572876,1982.622803 
	C608.358765,1979.341675 611.171265,1976.742676 613.983826,1974.143555 
z"/>
<path fill="#B4B4B4" opacity="1.000000" stroke="none" 
	d="
M525.366760,185.771759 
	C521.644836,189.314438 517.525269,191.582062 514.323792,194.771240 
	C465.918671,242.989487 417.634033,291.328735 369.320953,339.639404 
	C367.671234,341.289032 366.085358,343.009644 364.355469,344.570557 
	C359.354431,349.083008 358.451111,349.216888 353.573212,344.498627 
	C345.429443,336.621368 337.508545,328.513733 329.495544,320.501343 
	C314.647919,305.654816 299.766663,290.841705 284.970520,275.944031 
	C278.394196,269.322540 278.349762,268.747803 284.768890,262.320374 
	C335.169159,211.854919 385.603851,161.423767 436.068207,111.022430 
	C442.848602,104.250496 443.278473,104.298790 450.409088,111.407501 
	C471.887726,132.820267 493.263824,154.336273 514.819641,175.670837 
	C517.566895,178.389923 521.143311,180.271210 524.749390,182.894104 
	C525.240845,183.806839 525.318542,184.366074 525.366760,185.771759 
z"/>
<path fill="#FFF4D7" opacity="1.000000" stroke="none" 
	d="
M647.999512,1944.004883 
	C647.120850,1944.020508 646.242249,1944.036133 644.705383,1944.047241 
	C643.933167,1940.925903 644.065063,1937.319824 647.639282,1936.736084 
	C651.030212,1936.182251 654.883362,1936.609131 658.143188,1937.734619 
	C660.431335,1938.524536 662.102295,1941.172852 663.985168,1943.055176 
	C716.288818,1995.344727 768.584167,2047.642456 820.880920,2099.938965 
	C821.587646,2100.645508 822.303284,2101.343750 822.999207,2102.060791 
	C832.088257,2111.427490 832.218445,2116.541992 823.181091,2125.691895 
	C810.071289,2138.964844 796.819031,2152.097168 783.627441,2165.289307 
	C774.204712,2174.712158 764.748047,2184.101562 755.370117,2193.568848 
	C748.141357,2200.866455 748.501221,2200.782715 755.513550,2208.750244 
	C763.194275,2217.477539 770.602661,2226.245605 780.872620,2232.275879 
	C784.754517,2234.555176 787.607544,2238.665771 790.750671,2242.104980 
	C794.996338,2246.750732 798.780762,2251.848877 803.265869,2256.239258 
	C824.419556,2276.946533 845.674988,2297.551514 867.070984,2318.008057 
	C871.097107,2321.857422 875.765930,2325.108154 880.421204,2328.210449 
	C889.295776,2334.124268 896.443420,2341.740967 903.116577,2349.924316 
	C905.588623,2352.955566 908.201050,2355.919434 911.062256,2358.577393 
	C919.813354,2366.706787 928.850586,2374.531250 937.517639,2382.747314 
	C944.436646,2389.306396 950.779785,2396.473877 957.722046,2403.006348 
	C978.247925,2422.320557 998.959900,2441.437500 1019.550232,2460.683594 
	C1021.726257,2462.717529 1023.950073,2464.876221 1025.452881,2467.394287 
	C1026.504272,2469.156006 1026.364990,2471.628662 1026.757446,2473.783691 
	C1024.341309,2473.942871 1021.925049,2474.102051 1018.840759,2474.204590 
	C1018.141357,2473.779785 1018.110107,2473.411621 1018.041016,2471.768311 
	C1017.982788,2466.504639 1016.101868,2464.229980 1012.012207,2463.990234 
	C1003.072937,2454.756836 994.244080,2445.411865 985.107849,2436.377686 
	C983.105591,2434.397705 980.007751,2433.525635 976.627075,2431.423828 
	C974.567322,2429.799561 973.294922,2428.894775 972.022522,2427.990234 
	C963.080505,2418.853271 954.138428,2409.716553 944.518494,2399.641602 
	C942.566162,2397.798828 941.291748,2396.894531 940.017334,2395.990234 
	C931.075134,2386.855469 922.133057,2377.720947 912.311707,2367.694824 
	C908.957397,2365.202393 906.482300,2363.601074 904.007202,2362.000000 
	C903.025024,2360.829102 902.042786,2359.658203 900.464966,2357.561523 
	C897.937622,2355.080078 896.005859,2353.524170 894.074036,2351.968262 
	C891.564758,2344.471924 885.660583,2340.122070 878.411011,2335.461914 
	C875.635193,2333.865723 873.831726,2332.925781 872.028320,2331.985840 
	C863.980225,2323.631592 856.034851,2315.175293 847.859131,2306.947754 
	C836.391785,2295.407471 824.752869,2284.037598 812.309937,2271.702637 
	C808.961609,2269.203613 806.490723,2267.596924 804.019836,2265.990234 
	C797.750854,2259.521240 791.481934,2253.052246 784.543579,2245.593262 
	C782.635010,2240.772705 780.205933,2238.349854 776.040771,2237.980469 
	C767.157776,2229.453613 758.321777,2220.876465 749.352783,2212.441162 
	C747.513855,2210.711670 745.176514,2209.511963 742.421875,2207.228271 
	C741.775696,2204.291504 741.776367,2202.194824 742.342651,2199.703125 
	C743.280762,2197.555420 743.653137,2195.802490 744.025513,2194.049316 
	C746.278870,2192.100342 748.657288,2190.277344 750.765259,2188.182129 
	C764.161011,2174.866943 777.519470,2161.513916 790.845032,2148.128174 
	C800.405640,2138.524170 809.895569,2128.849365 820.320862,2118.297852 
	C825.016052,2111.583984 824.943359,2111.327148 818.000000,2106.000000 
	C816.537231,2104.215820 815.214050,2102.291992 813.591309,2100.667480 
	C763.138672,2050.166504 712.658020,1999.693726 662.172180,1949.225952 
	C661.236572,1948.290771 660.186340,1947.470093 658.278381,1945.682861 
	C654.490784,1941.498901 651.406982,1940.770264 647.999512,1944.004883 
z"/>
<path fill="#FDF5DC" opacity="1.000000" stroke="none" 
	d="
M455.996338,1951.990234 
	C450.858246,1956.928711 445.720123,1961.867188 439.585327,1967.468628 
	C428.856110,1973.847168 419.989807,1980.543091 412.086304,1988.745361 
	C396.850922,2004.556885 381.134216,2019.905273 365.579590,2035.408203 
	C352.187439,2048.755615 339.452118,2062.828857 323.572418,2073.440186 
	C320.825623,2075.275879 317.959442,2077.097900 315.680695,2079.443359 
	C288.377838,2107.544922 259.909973,2134.407959 230.670090,2160.482666 
	C222.240326,2168.000000 214.720322,2176.527588 206.586838,2184.388672 
	C169.347809,2220.379395 132.057892,2256.317383 94.697586,2292.181885 
	C92.901573,2293.906006 90.264427,2294.753906 88.018936,2296.009766 
	C89.742760,2293.288086 91.046898,2290.152832 93.257179,2287.910889 
	C110.104752,2270.821777 125.882019,2252.383057 144.363510,2237.262451 
	C180.588486,2207.625488 209.724274,2170.724365 245.200073,2140.680664 
	C271.219574,2118.645020 293.174103,2092.660156 319.014160,2070.793701 
	C328.310211,2062.927002 337.418030,2054.816162 346.598572,2046.805420 
	C349.540466,2044.238281 352.169800,2041.309570 354.904846,2038.509888 
	C357.231140,2036.128540 359.449646,2033.640259 361.809021,2031.292969 
	C375.626556,2017.546265 389.213043,2003.552002 403.409271,1990.207031 
	C411.283051,1982.805420 420.205780,1976.521851 428.622986,1969.694092 
	C430.684967,1968.021362 432.707031,1966.279785 434.594727,1964.415161 
	C441.471161,1957.622681 448.177124,1950.654419 455.147186,1943.960449 
	C463.264984,1936.163940 468.515167,1936.200195 476.656464,1943.730957 
	C478.123413,1945.088013 479.496185,1946.546997 480.910278,1947.961060 
	C494.580750,1961.629517 508.026337,1975.533691 522.007019,1988.877197 
	C530.126038,1996.626221 539.205139,2003.361084 547.611755,2010.823120 
	C549.319641,2012.339355 549.949890,2015.069702 549.987549,2017.357422 
	C545.081238,2013.801758 541.056152,2010.317505 537.509155,2006.400269 
	C534.312012,2002.869263 530.612915,2001.481689 526.025513,2001.980957 
	C517.077332,1992.856689 508.129211,1983.732300 498.332214,1973.744507 
	C495.651367,1971.255981 493.819366,1969.630981 491.987366,1968.005859 
	C486.386353,1962.203369 480.785339,1956.401001 474.282074,1949.667969 
	C466.468201,1942.475586 464.819977,1942.374512 458.918793,1948.128418 
	C457.775970,1949.242676 456.962006,1950.694214 455.996338,1951.990234 
z"/>
<path fill="#FFF1CC" opacity="1.000000" stroke="none" 
	d="
M87.942322,2296.639404 
	C90.264427,2294.753906 92.901573,2293.906006 94.697586,2292.181885 
	C132.057892,2256.317383 169.347809,2220.379395 206.586838,2184.388672 
	C214.720322,2176.527588 222.240326,2168.000000 230.670090,2160.482666 
	C259.909973,2134.407959 288.377838,2107.544922 315.680695,2079.443359 
	C317.959442,2077.097900 320.825623,2075.275879 323.572418,2073.440186 
	C339.452118,2062.828857 352.187439,2048.755615 365.579590,2035.408203 
	C381.134216,2019.905273 396.850922,2004.556885 412.086304,1988.745361 
	C419.989807,1980.543091 428.856110,1973.847168 439.287292,1968.060791 
	C439.376862,1973.277832 435.319366,1975.609253 431.461578,1978.275024 
	C427.399963,1981.081665 423.233337,1983.896484 419.745819,1987.347778 
	C397.276978,2009.583252 374.655090,2031.680664 352.771332,2054.483643 
	C342.352081,2065.340820 330.017181,2073.681641 318.851746,2083.511963 
	C316.124115,2085.913574 313.090698,2087.991455 310.515808,2090.539307 
	C297.506500,2103.411621 285.400970,2117.328369 271.507660,2129.150635 
	C233.718399,2161.306641 201.385513,2199.162109 164.241226,2231.749756 
	C139.697235,2253.282715 117.731529,2277.197266 93.735153,2299.113037 
	C91.424004,2301.223877 88.253708,2302.394043 84.743378,2304.002930 
	C84.004486,2304.004639 83.997185,2303.997803 83.998520,2303.498535 
	C83.999855,2302.999023 84.000137,2302.000000 84.003143,2301.995850 
	C84.006157,2301.991699 84.026649,2301.960938 84.026604,2301.960938 
	C85.306274,2300.396973 86.585991,2298.833008 87.942322,2296.639404 
z"/>
<path fill="#FDF5DC" opacity="1.000000" stroke="none" 
	d="
M446.589111,430.879578 
	C448.697906,427.463867 451.020294,424.222656 453.799957,421.437866 
	C501.580933,373.569061 549.449341,325.787537 597.167114,277.855896 
	C600.057556,274.952515 601.848389,270.954376 604.218262,266.731140 
	C605.963440,267.011932 607.641235,268.027252 609.954773,269.427338 
	C608.386475,271.581726 607.314026,273.548920 605.794922,275.070190 
	C555.043274,325.895142 504.261810,376.690460 453.405273,427.410431 
	C451.694763,429.116333 449.163940,429.999695 446.589111,430.879578 
z"/>
<path fill="#FFF4D7" opacity="1.000000" stroke="none" 
	d="
M3440.585449,54.244446 
	C3438.186768,51.385307 3436.547607,48.669800 3434.483398,46.329060 
	C3432.781738,44.399059 3430.576904,42.912704 3428.297119,40.626781 
	C3431.885986,41.598572 3436.716797,42.199581 3439.506592,44.905273 
	C3458.584961,63.406960 3477.245605,82.339462 3495.987061,101.186569 
	C3496.867920,102.072578 3497.238281,103.466637 3497.275879,105.263062 
	C3495.130615,105.266861 3493.555664,104.631752 3491.980469,103.996643 
	C3491.761475,103.371544 3491.386475,102.860847 3490.151367,101.651833 
	C3486.291748,97.895561 3483.136230,94.952019 3479.980469,92.008461 
	C3479.980469,92.008453 3480.000000,91.999695 3479.721436,91.418686 
	C3476.286621,87.890121 3473.130127,84.942566 3469.973633,81.994919 
	C3467.034912,78.869453 3464.095703,75.744080 3460.296387,71.722343 
	C3456.311768,68.547928 3453.187988,66.269867 3450.063965,63.991829 
	C3447.096436,60.844631 3444.128662,57.697411 3440.585449,54.244446 
z"/>
<path fill="#FDF5DC" opacity="1.000000" stroke="none" 
	d="
M3491.998047,104.733307 
	C3493.555664,104.631752 3495.130615,105.266861 3497.343262,105.950745 
	C3498.212891,106.633224 3498.599365,107.152405 3499.860352,108.382629 
	C3503.710693,111.471725 3506.840332,113.735229 3509.969727,115.998764 
	C3510.200439,116.637299 3510.587158,117.160423 3511.627930,118.467323 
	C3514.750488,122.243607 3517.375244,125.120743 3520.000000,127.997849 
	C3522.948730,131.132797 3525.897461,134.267761 3529.711426,138.298035 
	C3534.387695,142.791092 3538.198730,146.388870 3542.009766,149.986603 
	C3542.009766,149.986572 3541.992188,150.007736 3541.976562,150.021667 
	C3536.608154,150.171829 3532.556396,147.583542 3528.959229,143.934570 
	C3524.098633,139.003235 3518.697510,134.515854 3514.397949,129.142136 
	C3508.798828,122.144257 3502.448730,116.237091 3495.067627,111.219551 
	C3493.480713,110.140854 3493.003906,107.429405 3491.998047,104.733307 
z"/>
<path fill="#FFF1CC" opacity="1.000000" stroke="none" 
	d="
M526.119507,2002.663818 
	C530.612915,2001.481689 534.312012,2002.869263 537.509155,2006.400269 
	C541.056152,2010.317505 545.081238,2013.801758 549.517456,2017.761597 
	C550.136780,2018.894897 550.136780,2019.741333 550.164734,2021.219971 
	C548.948486,2021.578857 547.373108,2021.697144 546.512573,2020.969604 
	C539.669617,2015.185791 532.962402,2009.241577 526.119507,2002.663818 
z"/>
<path fill="#FFF1CC" opacity="1.000000" stroke="none" 
	d="
M68.073807,2318.068359 
	C67.206642,2328.036133 65.075142,2330.415039 54.793030,2332.024170 
	C55.165409,2325.574707 58.596119,2320.877930 65.827606,2318.094727 
	C67.382492,2318.040039 67.728149,2318.054199 68.073807,2318.068359 
z"/>
<path fill="#FFF4D7" opacity="1.000000" stroke="none" 
	d="
M563.330750,2022.101318 
	C564.084534,2024.338989 564.041321,2026.519165 563.262817,2029.456909 
	C561.043884,2030.252563 559.560059,2030.290405 558.076294,2030.328247 
	C558.076294,2030.328247 558.068115,2030.112183 558.000000,2029.417480 
	C557.269531,2027.811890 556.607239,2026.901123 555.944946,2025.990234 
	C556.415833,2025.061157 556.886719,2024.131958 557.545349,2022.725586 
	C559.333313,2022.180298 560.933533,2022.112061 563.330750,2022.101318 
z"/>
<path fill="#FFF1CC" opacity="1.000000" stroke="none" 
	d="
M613.636963,1973.625000 
	C611.171265,1976.742676 608.358765,1979.341675 604.904541,1982.027588 
	C605.104980,1976.940063 607.513733,1973.335815 613.636963,1973.625000 
z"/>
<path fill="#FDF5DC" opacity="1.000000" stroke="none" 
	d="
M3469.993408,82.740387 
	C3473.130127,84.942566 3476.286621,87.890121 3479.716553,91.428452 
	C3474.150879,92.113747 3470.604248,89.527603 3469.993408,82.740387 
z"/>
<path fill="#FDF5DC" opacity="1.000000" stroke="none" 
	d="
M3479.998535,92.752625 
	C3483.136230,94.952019 3486.291748,97.895561 3489.725586,101.428528 
	C3484.167725,102.115738 3480.607422,99.546532 3479.998535,92.752625 
z"/>
<path fill="#FDF5DC" opacity="1.000000" stroke="none" 
	d="
M3450.127441,64.698242 
	C3453.187988,66.269867 3456.311768,68.547928 3459.721436,71.428421 
	C3455.092041,72.256004 3451.738037,70.168610 3450.127441,64.698242 
z"/>
<path fill="#FDF5DC" opacity="1.000000" stroke="none" 
	d="
M68.277588,2317.638916 
	C67.728149,2318.054199 67.382492,2318.040039 66.518066,2318.012939 
	C65.990280,2313.984131 66.614822,2310.274658 71.433876,2308.205078 
	C71.643150,2309.694824 71.135918,2311.227783 70.332184,2313.881348 
	C70.025421,2315.374023 70.015152,2315.746094 70.004883,2316.118164 
	C69.376152,2316.313232 68.868317,2316.677002 68.277588,2317.638916 
z"/>
<path fill="#FFF1CC" opacity="1.000000" stroke="none" 
	d="
M50.013863,2336.009766 
	C49.524307,2339.049805 49.094940,2342.155762 44.317345,2340.368652 
	C44.468048,2338.900879 44.972794,2337.948975 46.374405,2336.498535 
	C48.185463,2336.003418 49.099663,2336.006592 50.013863,2336.009766 
z"/>
<path fill="#FDF5DC" opacity="1.000000" stroke="none" 
	d="
M50.007164,2336.004883 
	C49.099663,2336.006592 48.185463,2336.003418 46.583817,2335.999023 
	C42.955009,2331.943115 46.422916,2332.395508 49.355175,2332.679688 
	C50.011234,2334.235840 50.012272,2335.122803 50.013309,2336.009766 
	C50.013309,2336.009766 50.000465,2336.000000 50.007164,2336.004883 
z"/>
<path fill="#FFF1CC" opacity="1.000000" stroke="none" 
	d="
M50.655190,2335.929199 
	C50.012272,2335.122803 50.011234,2334.235840 50.010162,2332.684082 
	C50.900032,2332.004883 51.789936,2331.989990 53.347424,2331.997314 
	C53.109032,2333.295898 52.203053,2334.572266 50.655190,2335.929199 
z"/>
<path fill="#FDF5DC" opacity="1.000000" stroke="none" 
	d="
M606.740967,101.912094 
	C606.154541,101.097458 606.136597,100.201241 606.166626,98.633461 
	C607.183289,98.615936 608.151978,99.269974 609.120667,99.924011 
	C608.516907,100.559509 607.913147,101.195015 606.740967,101.912094 
z"/>
<path fill="#FFF1CC" opacity="1.000000" stroke="none" 
	d="
M84.014847,2304.017090 
	C83.611588,2305.878174 83.643745,2308.288574 80.238647,2306.279297 
	C79.914246,2305.781250 79.914780,2304.885010 80.619362,2304.442871 
	C82.215027,2303.999756 83.106102,2303.998779 83.997185,2303.997803 
	C83.997185,2303.997803 84.004486,2304.004639 84.014847,2304.017090 
z"/>
<path fill="#FFF1CC" opacity="1.000000" stroke="none" 
	d="
M80.012306,2301.993408 
	C80.098320,2299.711426 80.184013,2299.688477 83.729156,2301.517578 
	C84.026649,2301.960938 84.006157,2301.991699 83.337799,2301.994629 
	C81.783722,2301.996094 80.898018,2301.994629 80.012306,2301.993408 
z"/>
<path fill="#FFF4D7" opacity="1.000000" stroke="none" 
	d="
M80.001144,2302.492676 
	C80.898018,2301.994629 81.783722,2301.996094 83.334785,2301.998535 
	C84.000137,2302.000000 83.999855,2302.999023 83.998520,2303.498535 
	C83.106102,2303.998779 82.215027,2303.999756 80.653473,2303.995850 
	C79.983002,2303.991211 79.989983,2302.992188 80.001144,2302.492676 
z"/>
<path fill="#FFDF7D" opacity="1.000000" stroke="none" 
	d="
M558.017761,2030.990234 
	C559.560059,2030.290405 561.043884,2030.252563 563.270447,2030.277832 
	C570.440002,2036.518188 576.860352,2042.701904 583.296814,2048.868896 
	C585.454163,2050.935791 587.705627,2052.906738 589.822937,2055.012939 
	C605.144348,2070.254150 620.323914,2085.639648 635.777466,2100.745361 
	C655.482300,2120.006592 674.531921,2140.076660 695.524048,2157.836182 
	C710.514282,2170.517822 724.337585,2184.277588 739.510071,2198.252930 
	C740.681580,2199.506836 741.167847,2199.882080 741.777100,2200.097900 
	C741.776367,2202.194824 741.775696,2204.291504 741.708618,2207.171387 
	C738.718689,2209.957520 735.408325,2211.570312 732.931885,2214.024414 
	C709.999939,2236.749756 687.212280,2259.621094 664.380920,2282.447998 
	C662.733521,2284.095215 661.052429,2285.709229 659.420227,2287.371094 
	C656.599426,2290.243896 653.744812,2290.572510 650.781494,2287.589844 
	C649.374146,2286.173340 647.934326,2284.788818 646.522278,2283.376953 
	C592.625488,2229.482666 538.727051,2175.589844 484.845795,2121.680176 
	C482.546448,2119.379395 480.409698,2116.916260 477.585999,2113.869385 
	C480.482178,2110.850342 482.909637,2108.229492 485.432343,2105.704102 
	C507.308136,2083.804443 529.225708,2061.946289 551.055420,2040.001099 
	C553.591431,2037.451538 555.669067,2034.446045 558.017761,2030.990234 
z"/>
<path fill="#FFF1CC" opacity="1.000000" stroke="none" 
	d="
M456.736877,1951.984375 
	C456.962006,1950.694214 457.775970,1949.242676 458.918793,1948.128418 
	C464.819977,1942.374512 466.468201,1942.475586 473.689941,1949.368774 
	C468.156403,1947.852661 462.820404,1949.944946 456.736877,1951.984375 
z"/>
<path fill="#FFF1CC" opacity="1.000000" stroke="none" 
	d="
M776.097290,2238.668457 
	C780.205933,2238.349854 782.635010,2240.772705 783.945007,2245.285645 
	C779.801270,2245.659912 777.383484,2243.214600 776.097290,2238.668457 
z"/>
<path fill="#FFF1CC" opacity="1.000000" stroke="none" 
	d="
M804.094604,2266.702637 
	C806.490723,2267.596924 808.961609,2269.203613 811.715698,2271.405273 
	C808.445862,2272.082520 805.171387,2271.689453 804.094604,2266.702637 
z"/>
<path fill="#FFF1CC" opacity="1.000000" stroke="none" 
	d="
M904.084839,2362.711914 
	C906.482300,2363.601074 908.957397,2365.202393 911.717041,2367.396973 
	C908.444031,2368.089355 905.177795,2367.688477 904.084839,2362.711914 
z"/>
<path fill="#FFF1CC" opacity="1.000000" stroke="none" 
	d="
M1012.068115,2464.649414 
	C1016.101868,2464.229980 1017.982788,2466.504639 1018.017883,2471.214600 
	C1016.062988,2469.726807 1014.093445,2467.517578 1012.068115,2464.649414 
z"/>
<path fill="#FFF1CC" opacity="1.000000" stroke="none" 
	d="
M894.119812,2352.651367 
	C896.005859,2353.524170 897.937622,2355.080078 899.937134,2357.312988 
	C898.058472,2356.438477 896.112061,2354.886475 894.119812,2352.651367 
z"/>
<path fill="#FFF1CC" opacity="1.000000" stroke="none" 
	d="
M492.006836,1968.746826 
	C493.819366,1969.630981 495.651367,1971.255981 497.738770,1973.446777 
	C494.810547,1974.079590 491.943909,1973.728638 492.006836,1968.746826 
z"/>
<path fill="#FFF1CC" opacity="1.000000" stroke="none" 
	d="
M872.126892,2332.675537 
	C873.831726,2332.925781 875.635193,2333.865723 877.723999,2335.376221 
	C876.081421,2335.086426 874.153503,2334.225830 872.126892,2332.675537 
z"/>
<path fill="#FFF1CC" opacity="1.000000" stroke="none" 
	d="
M70.339050,2316.539062 
	C70.015152,2315.746094 70.025421,2315.374023 70.082893,2314.444580 
	C71.112167,2314.778809 72.094231,2315.670410 73.076294,2316.562256 
	C72.275276,2316.694824 71.474251,2316.827637 70.339050,2316.539062 
z"/>
<path fill="#FFF1CC" opacity="1.000000" stroke="none" 
	d="
M940.094543,2396.632812 
	C941.291748,2396.894531 942.566162,2397.798828 943.924683,2399.341797 
	C942.729736,2399.078613 941.450745,2398.176758 940.094543,2396.632812 
z"/>
<path fill="#FFF1CC" opacity="1.000000" stroke="none" 
	d="
M972.098694,2428.632324 
	C973.294922,2428.894775 974.567322,2429.799561 975.924438,2431.342285 
	C974.731140,2431.078369 973.453003,2430.176270 972.098694,2428.632324 
z"/>
<path fill="#FFF1CC" opacity="1.000000" stroke="none" 
	d="
M555.497925,2026.341797 
	C556.607239,2026.901123 557.269531,2027.811890 557.984009,2029.310547 
	C556.173950,2029.637817 553.898010,2029.762573 555.497925,2026.341797 
z"/>
<path fill="#FFDF7D" opacity="1.000000" stroke="none" 
	d="
M3673.935547,276.011658 
	C3675.458252,272.857880 3676.283447,269.016144 3678.610840,266.655945 
	C3703.178467,241.743179 3727.953125,217.033890 3752.751709,192.349792 
	C3758.540527,186.587524 3759.481689,186.525726 3764.934570,191.971161 
	C3820.581787,247.542465 3876.165527,303.177094 3931.750488,358.811005 
	C3932.441406,359.502777 3932.909912,360.416626 3934.318848,362.409943 
	C3907.824707,389.135620 3881.198730,415.994171 3853.627441,443.446106 
	C3851.788086,444.047333 3850.894043,444.055115 3849.720703,443.449188 
	C3843.576660,437.475647 3837.638184,432.193481 3831.861084,426.740204 
	C3818.335693,413.973328 3804.880127,401.132416 3791.410645,388.306244 
	C3776.977295,374.562317 3762.501953,360.861633 3748.149414,347.033661 
	C3726.128174,325.817017 3704.231689,304.470612 3682.172363,283.293732 
	C3679.875732,281.088562 3676.836426,279.656830 3674.107422,277.400757 
	C3674.073486,276.935150 3673.935547,276.011627 3673.935547,276.011658 
z"/>
<path fill="#FFF1CC" opacity="1.000000" stroke="none" 
	d="
M3673.453613,275.703522 
	C3673.935547,276.011627 3674.073486,276.935150 3673.785156,278.005676 
	C3649.408447,303.300690 3625.322021,327.527130 3601.230469,351.748535 
	C3593.388672,359.632599 3593.417480,359.612915 3597.621826,370.048889 
	C3598.094727,371.222870 3597.901611,372.665039 3598.017334,373.982910 
	C3596.229492,372.530823 3594.209473,371.286224 3592.694336,369.590485 
	C3586.654785,362.830933 3586.725586,360.320770 3593.241455,353.784760 
	C3615.972168,330.984436 3638.836670,308.316650 3661.439941,285.391205 
	C3664.824463,281.958740 3667.085449,277.418549 3669.947754,272.684631 
	C3671.010010,273.117432 3671.990723,274.256439 3673.453613,275.703522 
z"/>
<path fill="#FFF4D7" opacity="1.000000" stroke="none" 
	d="
M3625.980957,227.266190 
	C3618.709961,221.146271 3611.429443,214.297241 3604.072021,206.766953 
	C3613.900635,210.130402 3622.070801,216.039963 3625.980957,227.266190 
z"/>
<path fill="#FFF4D7" opacity="1.000000" stroke="none" 
	d="
M3656.471680,255.614059 
	C3651.371094,251.816223 3646.760010,247.638443 3642.071289,242.786240 
	C3649.213623,243.941742 3655.360107,246.995468 3656.471680,255.614059 
z"/>
<path fill="#FFF4D7" opacity="1.000000" stroke="none" 
	d="
M3542.668457,149.991486 
	C3538.198730,146.388870 3534.387695,142.791092 3530.288574,138.592316 
	C3537.107910,138.799866 3542.544434,142.102280 3545.898682,149.303101 
	C3545.083008,149.999756 3544.205078,149.998032 3542.668457,149.991486 
z"/>
<path fill="#FFF4D7" opacity="1.000000" stroke="none" 
	d="
M3575.980469,179.260986 
	C3571.519775,175.731537 3567.049072,171.468079 3562.293701,166.610428 
	C3570.073975,166.379471 3573.890381,171.484619 3575.980469,179.260986 
z"/>
<path fill="#FFF4D7" opacity="1.000000" stroke="none" 
	d="
M3509.900635,115.292526 
	C3506.840332,113.735229 3503.710693,111.471725 3500.294189,108.611588 
	C3504.940186,107.726654 3508.264160,109.843330 3509.900635,115.292526 
z"/>
<path fill="#FFF4D7" opacity="1.000000" stroke="none" 
	d="
M3519.987549,127.269791 
	C3517.375244,125.120743 3514.750488,122.243607 3512.062988,118.700119 
	C3517.009033,118.666328 3519.625000,121.541939 3519.987549,127.269791 
z"/>
<path fill="#FFF1CC" opacity="1.000000" stroke="none" 
	d="
M3849.999512,444.062897 
	C3850.894043,444.055115 3851.788086,444.047333 3853.353516,444.054779 
	C3855.303955,445.629608 3856.583496,447.189178 3857.936523,449.369507 
	C3855.865967,449.990997 3853.721924,449.991730 3850.782959,449.244629 
	C3849.991699,447.018799 3849.995605,445.540863 3849.999512,444.062897 
z"/>
<path fill="#FFF4D7" opacity="1.000000" stroke="none" 
	d="
M3553.968750,157.241913 
	C3551.502197,155.720001 3549.027588,153.448822 3546.280762,150.605652 
	C3550.592529,149.806442 3553.896973,151.154633 3553.968750,157.241913 
z"/>
<path fill="#FFF4D7" opacity="1.000000" stroke="none" 
	d="
M3631.883057,233.326172 
	C3630.005127,232.458313 3628.070312,230.912689 3626.067627,228.690567 
	C3627.941895,229.558853 3629.883789,231.103638 3631.883057,233.326172 
z"/>
<path fill="#FFF4D7" opacity="1.000000" stroke="none" 
	d="
M3637.891602,239.363281 
	C3636.702637,239.108475 3635.434570,238.216660 3634.082031,236.692841 
	C3635.268799,236.949295 3636.540527,237.837769 3637.891602,239.363281 
z"/>
<path fill="#FFECB2" opacity="1.000000" stroke="none" 
	d="
M3849.720703,443.449188 
	C3849.995605,445.540863 3849.991699,447.018799 3849.979248,449.236023 
	C3848.349854,451.152954 3846.729004,452.330658 3843.875244,453.828918 
	C3838.785400,455.383972 3836.335693,457.801117 3836.029297,462.019409 
	C3835.044189,463.189026 3834.058838,464.358582 3831.902344,465.852295 
	C3829.830811,467.456848 3828.929932,468.737213 3828.029297,470.017639 
	C3825.739502,472.498535 3823.449463,474.979431 3819.906738,477.804382 
	C3817.112549,480.104858 3815.570801,482.061249 3814.029297,484.017700 
	C3800.893311,496.955505 3787.757080,509.893250 3773.631836,523.489258 
	C3768.785156,525.378601 3766.343018,527.803406 3766.012695,532.009216 
	C3766.012695,532.009216 3765.026367,532.047913 3763.816406,531.963623 
	C3759.070557,530.592163 3755.534668,529.304932 3751.999023,528.017700 
	C3743.387939,519.721680 3734.679932,511.523560 3726.190918,503.104706 
	C3715.559570,492.561584 3705.108154,481.837189 3694.271240,469.854248 
	C3694.060303,464.251953 3691.198730,463.911011 3687.997803,464.020447 
	C3687.169189,463.482483 3686.212891,463.071960 3685.530518,462.388000 
	C3656.540283,433.332336 3627.574463,404.252411 3598.311523,374.579102 
	C3597.901611,372.665039 3598.094727,371.222870 3597.621826,370.048889 
	C3593.417480,359.612915 3593.388672,359.632599 3601.230469,351.748535 
	C3625.322021,327.527130 3649.408447,303.300690 3673.819336,278.471252 
	C3676.836426,279.656830 3679.875732,281.088562 3682.172363,283.293732 
	C3704.231689,304.470612 3726.128174,325.817017 3748.149414,347.033661 
	C3762.501953,360.861633 3776.977295,374.562317 3791.410645,388.306244 
	C3804.880127,401.132416 3818.335693,413.973328 3831.861084,426.740204 
	C3837.638184,432.193481 3843.576660,437.475647 3849.720703,443.449188 
z"/>
<path fill="#FFF1CC" opacity="1.000000" stroke="none" 
	d="
M3752.295898,528.627991 
	C3755.534668,529.304932 3759.070557,530.592163 3763.322998,531.980103 
	C3763.392090,536.181519 3761.041748,536.819092 3757.992676,534.625244 
	C3755.955566,533.159241 3754.376709,531.056091 3752.295898,528.627991 
z"/>
<path fill="#FFF1CC" opacity="1.000000" stroke="none" 
	d="
M3766.697266,531.940186 
	C3766.343018,527.803406 3768.785156,525.378601 3773.331055,524.089233 
	C3773.647705,528.202698 3771.217773,530.631958 3766.697266,531.940186 
z"/>
<path fill="#FFF1CC" opacity="1.000000" stroke="none" 
	d="
M3836.712402,461.947144 
	C3836.335693,457.801117 3838.785400,455.383972 3843.331055,454.092346 
	C3843.649658,458.201660 3841.219482,460.627197 3836.712402,461.947144 
z"/>
<path fill="#FFF1CC" opacity="1.000000" stroke="none" 
	d="
M3814.705811,483.945679 
	C3815.570801,482.061249 3817.112549,480.104858 3819.336914,478.089752 
	C3818.473877,479.978607 3816.928223,481.926178 3814.705811,483.945679 
z"/>
<path fill="#FFF1CC" opacity="1.000000" stroke="none" 
	d="
M3688.256348,464.581055 
	C3691.198730,463.911011 3694.060303,464.251953 3693.971924,469.259979 
	C3692.158447,468.382141 3690.336426,466.761871 3688.256348,464.581055 
z"/>
<path fill="#FFF1CC" opacity="1.000000" stroke="none" 
	d="
M3828.666504,469.931641 
	C3828.929932,468.737213 3829.830811,467.456848 3831.375488,466.103088 
	C3831.114258,467.301697 3830.208740,468.573669 3828.666504,469.931641 
z"/>
<path fill="#FFF1CC" opacity="1.000000" stroke="none" 
	d="
M818.012207,2106.769043 
	C824.943359,2111.327148 825.016052,2111.583984 820.623779,2117.696777 
	C819.356750,2114.515381 818.690552,2111.026855 818.012207,2106.769043 
z"/>
<path fill="#FFF1CC" opacity="1.000000" stroke="none" 
	d="
M648.498535,1944.560547 
	C651.406982,1940.770264 654.490784,1941.498901 657.683350,1945.387329 
	C654.998962,1945.708618 651.998230,1945.412476 648.498535,1944.560547 
z"/>
<path fill="#FFF1CC" opacity="1.000000" stroke="none" 
	d="
M742.342712,2199.703125 
	C741.167847,2199.882080 740.681580,2199.506836 740.104248,2198.557129 
	C740.831848,2196.826416 741.773438,2195.510498 743.370239,2194.122070 
	C743.653137,2195.802490 743.280762,2197.555420 742.342712,2199.703125 
z"/>
</svg>