<?xml version="1.0" encoding="utf-8"?>
<!-- Generator: Adobe Illustrator 28.2.0, SVG Export Plug-In . SVG Version: 6.00 Build 0)  -->
<svg version="1.1" id="Layer_1" xmlns="http://www.w3.org/2000/svg" xmlns:xlink="http://www.w3.org/1999/xlink" x="0px" y="0px"
	 viewBox="0 0 512 512" style="enable-background:new 0 0 512 512;" xml:space="preserve">
<style type="text/css">
	.st0{fill:none;stroke:#000000;stroke-miterlimit:10;}
	.st1{fill:#FFFFFF;}
</style>
<g>
	<g>
		<path d="M137.9,509.4c5.7,2.4,12.3,0.4,15.7-4.9l151.5-240.7c2.4-3.9,2.6-8.8,0.4-12.8c-2.2-4-6.5-6.5-11.1-6.5H193.3l37.6-149.3
			c1.5-6-1.6-12.3-7.3-14.7c-5.7-2.4-12.3-0.4-15.7,4.9L56.5,326.1c-2.4,3.9-2.6,8.8-0.4,12.8c2.2,4,6.5,6.5,11.1,6.5h101.1
			l-37.6,149.3C129.1,500.7,132.2,507,137.9,509.4L137.9,509.4z M90,320.2l97-154L164.8,254c-1,3.8-0.1,7.8,2.3,10.8
			c2.4,3.1,6.1,4.9,10,4.9h94.5l-97,154l22.1-87.8c1-3.8,0.1-7.8-2.3-10.8c-2.4-3.1-6.1-4.9-10-4.9H90z"/>
	</g>
	<g>
		<g>
			<path class="st0" d="M261.2,501.2c6.6,2.8,14.3,0.4,18.2-5.7L455.2,216c2.8-4.5,3-10.2,0.4-14.9c-2.6-4.7-7.5-7.6-12.8-7.6H325.4
				l43.7-173.3c1.8-7-1.8-14.2-8.4-17.1c-6.6-2.8-14.3-0.4-18.2,5.7L166.6,288.4c-2.8,4.5-3,10.2-0.4,14.9c2.6,4.7,7.5,7.6,12.8,7.6
				h117.4l-43.7,173.3C250.9,491.1,254.5,498.3,261.2,501.2L261.2,501.2z M205.5,281.5l112.6-178.9l-25.7,102
				c-1.1,4.4-0.1,9,2.7,12.6c2.8,3.6,7,5.6,11.6,5.6h109.7L303.7,401.7l25.7-102c1.1-4.4,0.1-9-2.7-12.6c-2.8-3.6-7-5.6-11.6-5.6
				H205.5z"/>
		</g>
		<polyline class="st1" points="321,79.7 180.8,293.7 316.1,300.3 278.9,446.3 434,217.4 330.2,208.2 310.9,204 346,56.4 		"/>
		<g>
			<path d="M261.2,501.2c6.6,2.8,14.3,0.4,18.2-5.7L455.2,216c2.8-4.5,3-10.2,0.4-14.9c-2.6-4.7-7.5-7.6-12.8-7.6H325.4l43.7-173.3
				c1.8-7-1.8-14.2-8.4-17.1c-6.6-2.8-14.3-0.4-18.2,5.7L166.6,288.4c-2.8,4.5-3,10.2-0.4,14.9c2.6,4.7,7.5,7.6,12.8,7.6h117.4
				l-43.7,173.3C250.9,491.1,254.5,498.3,261.2,501.2L261.2,501.2z M205.5,281.5l112.6-178.9l-25.7,102c-1.1,4.4-0.1,9,2.7,12.6
				c2.8,3.6,7,5.6,11.6,5.6h109.7L303.7,401.7l25.7-102c1.1-4.4,0.1-9-2.7-12.6c-2.8-3.6-7-5.6-11.6-5.6H205.5z"/>
		</g>
	</g>
</g>
</svg>
