<svg id="Layer_1" data-name="Layer 1" xmlns="http://www.w3.org/2000/svg" viewBox="0 0 270.19 120.67"><defs><style>.cls-1{fill:none;stroke:#ffab03;stroke-miterlimit:10;stroke-width:4.03px;}.cls-2{fill:#57585b;}.cls-3{fill:#ffab03;}</style></defs><path class="cls-1" d="M258.14,44.81l-27.2-25.76-9.51-9c-3.54-3.36-7.65-5-11.75-4.75L28.59,17.24c-7.36.48-13.35,7-16,16.21a40.53,40.53,0,0,0-1.44,14l2.66,40.34A40.23,40.23,0,0,0,17,101.41c3.87,8.78,10.67,14.45,18,14l181.09-11.94c4.1-.27,7.95-2.47,11-6.26L235.42,87,259,57.9C261.77,54.48,261.34,47.84,258.14,44.81Z"/><path class="cls-2" d="M166.62,8.67C161,7.13,13.72,9.91,12.56,14.59a181.16,181.16,0,0,0-5.33,42.5A176.91,176.91,0,0,0,12.79,99c1.19,4.64,148.47,7.4,154,5.87a316.25,316.25,0,0,0,48-17.45,276,276,0,0,0,42.3-24.7c4.43-3.14,4.41-8.7,0-11.85a279.81,279.81,0,0,0-42.27-24.72A316.15,316.15,0,0,0,166.62,8.67Z"/><path class="cls-1" d="M35.06,115.38l181.09-11.94c4.1-.27,7.95-2.47,11-6.26L235.42,87,259,57.9c2.77-3.42,2.34-10.06-.86-13.09l-27.2-25.76-9.51-9c-3.54-3.36-7.65-5-11.75-4.75"/><path class="cls-3" d="M176.37,84.41c-.82-17.4-.83-35,0-52.44.82,17.4.82,35,0,52.44Z"/><path class="cls-3" d="M39.83,38.7H50.12c2.94,0,5.12.68,6.55,2s2.14,3.45,2.14,6.31q0,7-5.67,8.29l6.08,11.84H56.94L51,55.69H41.87V67.16h-2ZM50.16,53.81q6.53,0,6.53-6.62a6.86,6.86,0,0,0-1.61-5,6.79,6.79,0,0,0-5-1.61H41.87V53.81Z"/><path class="cls-3" d="M68.2,66a8.16,8.16,0,0,1-3.41-4.65,28.49,28.49,0,0,1-1-8.33,27.8,27.8,0,0,1,1-8.35,8.7,8.7,0,0,1,3.43-4.77,11.76,11.76,0,0,1,6.52-1.57,11.74,11.74,0,0,1,6.49,1.57,8.74,8.74,0,0,1,3.47,4.79,27.94,27.94,0,0,1,1.06,8.45,27.78,27.78,0,0,1-1,8.41,8,8,0,0,1-3.39,4.54,12.77,12.77,0,0,1-6.57,1.42A12.38,12.38,0,0,1,68.2,66Zm12-1.57a6.67,6.67,0,0,0,2.68-3.92,27.49,27.49,0,0,0,.77-7.37,28.45,28.45,0,0,0-.79-7.49,7.21,7.21,0,0,0-2.74-4.14,9.19,9.19,0,0,0-5.32-1.35,9.43,9.43,0,0,0-5.37,1.33,7.07,7.07,0,0,0-2.74,4.1A28,28,0,0,0,65.88,53a27.27,27.27,0,0,0,.81,7.49,6.76,6.76,0,0,0,2.74,3.94,10,10,0,0,0,5.39,1.23A9.72,9.72,0,0,0,80.18,64.44Z"/><path class="cls-3" d="M92.13,66.91l-1.47-.16.2-1.88a72.12,72.12,0,0,0,8.49.74q6.78,0,6.78-6.58a6.07,6.07,0,0,0-.53-2.79,4,4,0,0,0-2-1.64,20.2,20.2,0,0,0-4.31-1.12A24.11,24.11,0,0,1,94,52.05a5.54,5.54,0,0,1-2.71-2.32,8.52,8.52,0,0,1-.86-4.17,6.72,6.72,0,0,1,2.19-5.49q2.17-1.82,6.75-1.82a61.17,61.17,0,0,1,8.25.7l-.21,1.88a78.54,78.54,0,0,0-8-.7q-6.86,0-6.86,5.31a7.36,7.36,0,0,0,.51,3.14,3.68,3.68,0,0,0,2,1.64,31,31,0,0,0,5,1.3,20.78,20.78,0,0,1,4.81,1.37,5.38,5.38,0,0,1,2.51,2.18,7.58,7.58,0,0,1,.8,3.76q0,4.41-2.12,6.53c-1.42,1.42-3.64,2.12-6.66,2.12A62,62,0,0,1,92.13,66.91Z"/><path class="cls-3" d="M128.58,58.91h-13.1L113,67.16h-2l8.41-28.46h5.18L133,67.16h-2Zm-5.47-18.37H121L116,57h12Z"/><path class="cls-3" d="M137.68,66.91l-1.47-.16.21-1.88a72,72,0,0,0,8.49.74q6.78,0,6.78-6.58a6.07,6.07,0,0,0-.53-2.79,4,4,0,0,0-2-1.64,20.2,20.2,0,0,0-4.31-1.12,24.11,24.11,0,0,1-5.29-1.43,5.54,5.54,0,0,1-2.71-2.32,8.52,8.52,0,0,1-.86-4.17,6.75,6.75,0,0,1,2.18-5.49q2.19-1.82,6.76-1.82a61.17,61.17,0,0,1,8.25.7L153,40.83a78.54,78.54,0,0,0-8-.7q-6.86,0-6.86,5.31a7.36,7.36,0,0,0,.51,3.14,3.69,3.69,0,0,0,2,1.64,31.48,31.48,0,0,0,5,1.3,20.78,20.78,0,0,1,4.81,1.37A5.38,5.38,0,0,1,153,55.07a7.58,7.58,0,0,1,.8,3.76q0,4.41-2.12,6.53c-1.42,1.42-3.64,2.12-6.66,2.12A62.28,62.28,0,0,1,137.68,66.91Z"/></svg>