<?xml version="1.0" encoding="utf-8"?>
<!-- Generator: Adobe Illustrator 27.3.1, SVG Export Plug-In . SVG Version: 6.00 Build 0)  -->
<svg version="1.1" id="Layer_1" xmlns="http://www.w3.org/2000/svg" xmlns:xlink="http://www.w3.org/1999/xlink" x="0px" y="0px"
	 viewBox="0 0 665.6 523.2" style="enable-background:new 0 0 665.6 523.2;" xml:space="preserve">
<style type="text/css">
	.st0{fill-rule:evenodd;clip-rule:evenodd;fill:#9FB2D9;}
	.st1{fill-rule:evenodd;clip-rule:evenodd;fill:#E1E8F6;}
	.st2{fill-rule:evenodd;clip-rule:evenodd;fill:#B4C5E6;}
	.st3{fill-rule:evenodd;clip-rule:evenodd;fill:#C0CDEA;}
	.st4{fill-rule:evenodd;clip-rule:evenodd;fill:#00000F;}
	.st5{fill-rule:evenodd;clip-rule:evenodd;fill:#3B405F;}
	.st6{fill:#00000F;}
	.st7{fill:#3B405F;}
	.st8{fill-rule:evenodd;clip-rule:evenodd;fill:#101537;}
	.st9{fill:#F8BD7A;}
	.st10{fill:#FFFFFF;}
	.st11{fill:#E4E1E8;}
	.st12{fill-rule:evenodd;clip-rule:evenodd;fill:#D64C47;}
	.st13{fill-rule:evenodd;clip-rule:evenodd;fill:#FFFFFF;}
	.st14{enable-background:new    ;}
	.st15{fill-rule:evenodd;clip-rule:evenodd;fill:#070725;}
	.st16{fill:#101537;}
	.st17{fill:#D58750;}
	.st18{fill:#B56B41;}
	.st19{fill-rule:evenodd;clip-rule:evenodd;fill:#E4E1E8;}
	.st20{fill:#070725;}
	.st21{fill:#AEABBA;}
	.st22{fill-rule:evenodd;clip-rule:evenodd;fill:#B56B41;}
	.st23{fill-rule:evenodd;clip-rule:evenodd;fill:#ED7862;}
	.st24{fill-rule:evenodd;clip-rule:evenodd;fill:#F5AC83;}
	.st25{fill-rule:evenodd;clip-rule:evenodd;fill:#181D3B;}
	.st26{fill-rule:evenodd;clip-rule:evenodd;fill:#F8BD7A;}
	.st27{fill:#EE5050;}
	.st28{fill:#D95050;}
	.st29{fill-rule:evenodd;clip-rule:evenodd;fill:#707386;}
	.st30{fill-rule:evenodd;clip-rule:evenodd;fill:#EE5050;}
	.st31{fill-rule:evenodd;clip-rule:evenodd;fill:#D95050;}
	.st32{fill-rule:evenodd;clip-rule:evenodd;fill:#05A677;}
	.st33{fill-rule:evenodd;clip-rule:evenodd;fill:#4A9075;}
	.st34{fill-rule:evenodd;clip-rule:evenodd;fill:#1B7154;}
</style>
<path class="st0" d="M338.3,99.6c0.1-0.6-0.3-1.1-0.9-1.1c-0.6-0.1-1.1,0.3-1.1,0.9c0,0.1,0,0.1,0,0.2v2.5h-2.4
	c-0.6,0.1-1,0.6-0.9,1.1c0,0.4,0.4,0.9,0.9,0.9h2.4v2.5c0.1,0.6,0.6,1,1.1,0.9c0.4,0,0.9-0.4,0.9-0.9v-2.5h2.4
	c0.6,0.1,1.1-0.3,1.1-0.9c0.1-0.6-0.3-1.1-0.9-1.1c-0.1,0-0.1,0-0.2,0h-2.4L338.3,99.6L338.3,99.6z"/>
<path class="st1" d="M123.2,400.7h-60C30.8,400.8,4.6,427,4.5,459.4l0,0c0.1,32.4,26.3,58.6,58.7,58.7h507.4
	c52.3,0,95.1-42.8,95.1-95.1l0,0c0-52.3-42.8-95.1-95.1-95.1l0,0c-22.2-0.1-40.1-18-40.2-40.2l0,0c0.1-22.2,18-40.1,40.2-40.2h48.3
	c23.1-0.1,41.7-18.7,41.8-41.8l0,0c0-23-18.7-41.6-41.8-41.7h-61.2c-9,0-16.2-7.3-16.3-16.3l0,0c0-9,7.3-16.2,16.3-16.3h10.8
	c6.2,0,11.2-5,11.2-11.2l0,0c0-6.2-5-11.2-11.2-11.2h-70.8c-14.9,0-16.6,17.6-54.2,17.6h-87.3c-8.1,0-14.6,6.6-14.6,14.7l0,0
	c0,8.1,6.6,14.6,14.6,14.7h14.1c11.7,0,21.2,9.5,21.2,21.2l0,0c0,11.7-9.5,21.2-21.2,21.2h-42.4c-57.2,0-65.3,14.9-75.3,44.7
	s-62,32.1-62,32.1h-71.2c-17.7,0-32,14.3-32,32l0,0c0,17.7,14.3,32,32,32h3.7c17,0,30.7,13.8,30.8,30.8l0,0
	C153.9,386.9,140.2,400.7,123.2,400.7z M600.1,131.5c-6.2,0-11.2-5-11.2-11.2c-0.1-6.3,5-11.3,11.2-11.3s11.2,5,11.2,11.2l0,0
	C611.3,126.4,606.3,131.5,600.1,131.5z"/>
<path class="st0" d="M195.1,460.8c0,0-21.7-11.2-17.7-38.6s-12.8-36.1-17.1-44.3c-4.3-8.2,5.3-21.3,4.2-32.9
	c-1.1-11.6-14.4-14.6-8.2-30.4c6.2-15.8,1-21.8-7.2-38.8s3.9-42.8,9.7-42.7c5.8,0.1-1.3,6.2,3.8,17.5c5.1,11.3,26.5,14.7,33.2,24.1
	s-5.1,21.9,2.6,34.6s30.4,8.8,36.5,21.1c6.1,12.3-8.3,27.1-4.2,40.1c4.2,12.9,19.6,20.3,26,30.6s18.6,30.3-1.2,54
	S195.1,460.8,195.1,460.8z"/>
<path class="st2" d="M116.2,223.6c-0.2-0.8,0.2-1.7,1-2c0.8-0.2,1.6,0.1,1.9,0.9L219.9,484l-3.8-1L116.2,223.6z"/>
<path class="st2" d="M177.1,433c-0.1-1.1-0.2-2.2-0.2-3.4l58.9,33.1l-5.2-13.5c0-0.1,0-0.1-0.1-0.2l-2.7-7l-49.9-28
	c0-1.1,0-2.2-0.1-3.3l48.4,27.2l-4.7-12.2l-46.1-25.9c-0.6-1.5-1.2-3-2-4.4l46.5,26.1l-2.3-6.1c0-0.1-0.1-0.1-0.1-0.2l-10.2-26.6
	l-46.1-25.9c0.3-0.9,0.6-1.8,0.8-2.8l43.7,24.6l-5.1-13.3l-36.3-20.4c0.2-1,0.3-2,0.3-3.1l34.4,19.4l-3.8-10c0,0,0-0.1-0.1-0.1
	l-11.2-29l-27-15.1c0.3-0.9,0.6-1.9,0.9-2.7l24.5,13.8l-9.8-25.3c0,0,0-0.1-0.1-0.1l-16.1-41.8c-0.2-0.7,0.2-1.5,0.9-1.8
	c0.7-0.2,1.4,0.1,1.7,0.8l14.6,38l8.4-28.5c0.9,0.4,1.7,0.9,2.6,1.3l-9.2,31.6l11,28.5v0.1l10.2,26.4l16-34.4
	c0.9,0.3,1.8,0.6,2.7,0.8l-17.3,37.1l3.9,10.1l21.1-45c0.9,0.3,1.8,0.6,2.7,1l-22.1,47l0.3,0.2c0.7,0.4,0.9,1.2,0.5,1.9l0,0
	c-0.1,0.2-0.3,0.4-0.4,0.5l5.7,14.8c0,0,0,0.1,0.1,0.1l9.2,24l15.7-33.3c0.6,0.8,1.3,1.7,2,2.5L220.4,415l2.4,6.2l17.4-37
	c0.7,0.7,1.4,1.4,2.2,2l-18.2,38.5l6.1,15.8v0.1l1.7,4.4l22.2-47.3c0.7,0.8,1.3,1.6,1.9,2.5l-22.8,48.5l6.4,16.6v0.1l0,0
	c-1.1,0.4-2.2,0.6-3.4,0.9L177.1,433z"/>
<path class="st3" d="M185,518.3c-6-4.6-12.1-6.8-15.3-9.8c-6.5-6-2.1-20.9-6.8-30.9c-4.7-10-17.7-8.5-17.1-24.8s-6.2-19.9-19-32.5
	s-10.2-39.8-5-41.5s0.9,6,9,14.5s28.6,4.7,37.6,11s2.5,21.3,13.4,30.3s30.2-1.9,39.6,7.3c9.4,9.2,1.2,27.1,9.1,37.4
	s24.1,11.9,33.3,19.2c5.2,4.1,12.9,10.3,16.9,19.9L185,518.3z"/>
<path class="st1" d="M228.4,518.3l-13-15.1l-49.8-8.5c0-0.9-0.1-1.8-0.1-2.8l47.2,8l-8.9-10.3l-39.3-6.7c-0.2-1-0.4-1.9-0.7-2.9
	l37.2,6.3l-6.7-7.8l-0.1-0.1l-19.3-22.3l-29.1-5c0-1,0-1.9-0.1-2.8l26.5,4.5l-17-19.6l-0.1-0.1l-27.9-32.4c-0.4-0.6-0.2-1.5,0.4-1.9
	c0.5-0.3,1.1-0.3,1.6,0.1l25.4,29.5l-1.7-28.4l2.7,0.4l1.9,31.4l19.1,22.2l0.1,0.1l17.6,20.5l3.4-36.1l2.7-0.1l-3.6,39.1l6.7,7.8
	l4.6-47.3c0.9,0,1.8,0,2.7,0l-4.8,49.4l0.4,0.1c0.7,0.1,1.2,0.8,1.1,1.5l0,0c0,0.2-0.1,0.4-0.2,0.6l9.9,11.5l0.1,0.1l14.8,17.2
	L228.4,518.3z M233.4,518.3l3.2-33.6c0.8,0.6,1.7,1.1,2.5,1.6l-3.1,32H233.4z M240.7,518.3l2.9-29.8c0.9,0.4,1.7,0.8,2.6,1.1
	l-2.8,28.6L240.7,518.3L240.7,518.3z M258.4,518.3l2.1-22.2c0.9,0.5,1.7,1.1,2.5,1.6l-2,20.5L258.4,518.3z"/>
<path class="st3" d="M631.2,286"/>
<path class="st0" d="M643.6,338.2c0-0.6-0.5-1.1-1.1-1.1s-1.1,0.5-1.1,1.1v2.7h-2.7c-0.6,0-1.1,0.5-1.1,1.1s0.5,1.1,1.1,1.1l0,0h2.7
	v2.7c0,0.6,0.5,1.1,1.1,1.1s1.1-0.5,1.1-1.1v-2.7h2.7c0.6,0,1.1-0.5,1.1-1.1s-0.5-1.1-1.1-1.1h-2.7V338.2z"/>
<path class="st4" d="M386.5,299.6h-76.4c-2.8,0-5.1,2.2-5.1,5.1l0,0c0,2.8,2.2,5.1,5.1,5.1h76.4c2.8,0,5.1-2.2,5.1-5.1l0,0
	C391.6,301.9,389.3,299.6,386.5,299.6z"/>
<path class="st5" d="M383.9,263.7h-35.4c-0.3,0-0.6,0.2-0.6,0.6l-6.3,44.9c0,0.2,0.1,0.4,0.3,0.6h0.1h48.3c0.2,0,0.4-0.2,0.4-0.4
	v-0.1l-6.3-44.9C384.4,263.9,384.1,263.7,383.9,263.7z"/>
<path class="st5" d="M405,299.6h-76.4c-2.8,0-5.1,2.2-5.1,5.1l0,0c0,2.8,2.2,5.1,5.1,5.1H405c2.8,0,5.1-2.2,5.1-5.1l0,0
	C410.1,301.9,407.8,299.6,405,299.6z"/>
<path class="st6" d="M274.2,164.6h169.4c1.5,0,2.6,1.1,2.6,2.6v113.2c0,1.5-1.1,2.6-2.6,2.6H274.2c-1.5,0-2.6-1.1-2.6-2.6l0,0V167.2
	C271.5,165.7,272.7,164.6,274.2,164.6L274.2,164.6z"/>
<path class="st7" d="M282.4,164.6h169.4c1.5,0,2.6,1.1,2.6,2.6l0,0v113.3c0,1.5-1.1,2.6-2.6,2.6H282.4c-1.5,0-2.6-1.1-2.6-2.6V167.2
	C279.8,165.7,281.1,164.6,282.4,164.6z"/>
<path class="st8" d="M450.4,166.3H283.9c-0.9,0-1.7,0.8-1.7,1.7v102.1c0,0.7,0.4,1.1,1.1,1.1h167.8c0.7,0,1.1-0.4,1.1-1.1V168
	C452.2,167.1,451.4,166.3,450.4,166.3L450.4,166.3z"/>
<rect x="287" y="171.1" class="st9" width="160.1" height="95.1"/>
<path class="st8" d="M352.3,287.7l-1.7,11.9H343l2.4-16.5h41.8l0.6,4.2H353C352.6,287.1,352.4,287.4,352.3,287.7z"/>
<rect x="287" y="171.1" class="st10" width="160.7" height="5.5"/>
<rect x="288" y="172.4" class="st11" width="40.4" height="3.1"/>
<path class="st12" d="M326.4,174.6c0.3,0,0.7-0.3,0.7-0.7c0-0.3-0.3-0.7-0.7-0.7s-0.7,0.3-0.7,0.7l0,0
	C325.8,174.3,326.1,174.6,326.4,174.6z"/>
<path class="st12" d="M324.4,174.6c0.3,0,0.7-0.3,0.7-0.7c0-0.3-0.3-0.7-0.7-0.7c-0.3,0-0.7,0.3-0.7,0.7l0,0
	C323.7,174.3,324,174.6,324.4,174.6z"/>
<path class="st12" d="M322.3,174.6c0.3,0,0.7-0.3,0.7-0.7c0-0.3-0.3-0.7-0.7-0.7s-0.7,0.3-0.7,0.7l0,0
	C321.6,174.3,321.9,174.6,322.3,174.6z"/>
<rect x="330.4" y="172.4" class="st11" width="40.4" height="3.1"/>
<path class="st12" d="M368.8,174.6c0.3,0,0.7-0.4,0.6-0.8c0-0.3-0.3-0.6-0.6-0.6s-0.8,0.2-0.8,0.6s0.2,0.8,0.6,0.8
	C368.7,174.6,368.7,174.6,368.8,174.6z"/>
<path class="st12" d="M366.6,174.6c0.3,0,0.7-0.4,0.6-0.8c0-0.3-0.3-0.6-0.6-0.6s-0.8,0.2-0.8,0.6s0.2,0.8,0.6,0.8
	C366.5,174.6,366.6,174.6,366.6,174.6z"/>
<path class="st12" d="M364.6,174.6c0.3,0,0.7-0.3,0.7-0.7c0-0.3-0.3-0.7-0.7-0.7c-0.3,0-0.7,0.3-0.7,0.7l0,0
	C363.8,174.3,364.2,174.6,364.6,174.6z"/>
<path class="st13" d="M310,255.1h114.2c0.4,0,0.9,0.3,0.9,0.9l0,0c0,0.4-0.3,0.9-0.9,0.9H310c-0.4,0-0.9-0.3-0.9-0.9l0,0
	C309.1,255.5,309.6,255.1,310,255.1z"/>
<g class="st14">
	<path class="st10" d="M330,246.4v-13.9h-25.1V226l26.4-37.5h5.8V226h7.8v6.5h-7.8v13.9H330z M330,226.1V200l-18.1,26.1H330z"/>
	<path class="st10" d="M352.2,217.9c0-6.8,0.7-12.4,2.1-16.5s3.5-7.4,6.3-9.7s6.3-3.4,10.5-3.4c3.1,0,5.8,0.6,8.2,1.9
		c2.3,1.3,4.3,3.1,5.8,5.4c1.5,2.4,2.7,5.2,3.6,8.6c0.9,3.4,1.3,7.9,1.3,13.7c0,6.8-0.7,12.3-2.1,16.4c-1.4,4.2-3.5,7.4-6.3,9.7
		s-6.3,3.4-10.5,3.4c-5.6,0-10-2-13.1-6C354.1,236.6,352.2,228.8,352.2,217.9z M359.5,217.9c0,9.5,1.1,15.8,3.3,19
		c2.2,3.1,5,4.7,8.2,4.7c3.3,0,6-1.6,8.2-4.7c2.2-3.2,3.3-9.5,3.3-19s-1.1-15.9-3.3-19s-5-4.7-8.3-4.7s-5.9,1.4-7.8,4.1
		C360.7,201.9,359.5,208.4,359.5,217.9z"/>
	<path class="st10" d="M420,246.4v-13.9h-25.1V226l26.4-37.5h5.8V226h7.8v6.5h-7.8v13.9H420z M420,226.1V200l-18.1,26.1H420z"/>
</g>
<path class="st8" d="M366,294.6h99.2c5.6,0,10.1,4.5,10.1,10.1l0,0c0,5.6-4.5,10.1-10.1,10.1h-99.3c-5.6,0-10.1-4.5-10.1-10.1l0,0
	C355.8,299,360.3,294.6,366,294.6z"/>
<path class="st15" d="M347,294.6h46c5.6,0,10.1,4.5,10.1,10.1l0,0c0,5.6-4.5,10.1-10.1,10.1h-46c-5.6,0-10.1-4.5-10.1-10.1l0,0
	C336.9,299,341.4,294.6,347,294.6z"/>
<path class="st16" d="M295.7,311.1h307.9c3.1,0,5.6,2.6,5.6,5.6v26.4c0,3.1-2.6,5.6-5.6,5.6H295.7c-3.1,0-5.6-2.6-5.6-5.6v-26.4
	C290,313.5,292.6,311.1,295.7,311.1z"/>
<path class="st4" d="M295.5,311.1h308.3c3,0.1,5.5,2.6,5.5,5.6V327c0,3-2.5,5.5-5.5,5.6H295.5c-3-0.1-5.5-2.6-5.5-5.6v-10.3
	C290,313.6,292.5,311.1,295.5,311.1z"/>
<path class="st6" d="M211.1,311.5h85.2c3.3,0,5.8,2.6,5.8,5.8v194.1c0,3.3-2.6,5.8-5.8,5.8h-85.2c-3.3,0-5.8-2.6-5.8-5.8v-194
	C205.3,314.1,207.8,311.5,211.1,311.5z"/>
<path class="st16" d="M295.2,311.5h76.3c2.9,0,5.3,2.4,5.3,5.3v195.3c0,2.9-2.4,5.3-5.3,5.3h-76.3c-2.9,0-5.3-2.4-5.3-5.3V316.8
	C290,313.9,292.3,311.5,295.2,311.5z"/>
<path class="st17" d="M291.9,304.7h330.5c1,0,1.9,0.9,1.9,1.9v9c0,1-0.9,1.9-1.9,1.9H291.9c-1,0-1.9-0.9-1.9-1.9v-9
	C290,305.5,290.9,304.7,291.9,304.7z"/>
<path class="st18" d="M197.2,304.7h94.3c1,0,1.9,0.9,1.9,1.9v9c0,1-0.9,1.9-1.9,1.9h-94.3c-1,0-1.9-0.9-1.9-1.9v-9
	C195.3,305.5,196.2,304.7,197.2,304.7z"/>
<path class="st10" d="M300.8,324h65c2.4,0,4.4,1.9,4.4,4.4v50.4c0,2.4-1.9,4.4-4.4,4.4h-65c-2.4,0-4.4-1.9-4.4-4.4v-50.4
	C296.4,325.9,298.5,324,300.8,324z"/>
<path class="st19" d="M370.2,379.3h-64.1c-1.7,0-3.1-0.9-3.9-2.5c-0.3-0.6-0.4-1.2-0.4-1.9v-50.4c0-0.2,0-0.4,0-0.7h-0.9
	c-2.4,0-4.4,1.9-4.4,4.4v50.4c0,2.4,1.9,4.4,4.4,4.4h65C368,383.1,369.9,381.5,370.2,379.3z"/>
<path class="st20" d="M317.7,327.5h31.4c0.9,0,1.7,0.8,1.7,1.7v0.6c0,0.9-0.8,1.7-1.7,1.7h-31.4c-0.9,0-1.7-0.8-1.7-1.7v-0.6
	C316,328.1,316.8,327.5,317.7,327.5z"/>
<path class="st10" d="M300.8,386.2h65c2.4,0,4.4,1.9,4.4,4.4V441c0,2.4-1.9,4.4-4.4,4.4h-65c-2.4,0-4.4-1.9-4.4-4.4v-50.4
	C296.4,388.2,298.5,386.2,300.8,386.2z"/>
<path class="st19" d="M370.2,441.7h-64.1c-1.7,0-3.1-0.9-3.9-2.5c-0.3-0.6-0.4-1.2-0.4-1.9v-50.4c0-0.2,0-0.4,0-0.7h-0.9
	c-2.4,0-4.4,1.9-4.4,4.4V441c0,2.4,1.9,4.4,4.4,4.4h65C368.1,445.4,369.9,443.8,370.2,441.7z"/>
<path class="st20" d="M317.7,389.7h31.4c0.9,0,1.7,0.8,1.7,1.7v0.6c0,0.9-0.8,1.7-1.7,1.7h-31.4c-0.9,0-1.7-0.8-1.7-1.7v-0.6
	C316,390.5,316.8,389.7,317.7,389.7z"/>
<path class="st10" d="M300.8,448.5h65c2.4,0,4.4,1.9,4.4,4.4v50.4c0,2.4-1.9,4.4-4.4,4.4h-65c-2.4,0-4.4-1.9-4.4-4.4v-50.4
	C296.4,450.4,298.5,448.5,300.8,448.5z"/>
<path class="st19" d="M370.2,503.9h-64.1c-1.7,0-3.1-0.9-3.9-2.5c-0.3-0.6-0.4-1.2-0.4-1.9v-50.4c0-0.2,0-0.4,0-0.7h-0.9
	c-2.4,0-4.4,2-4.4,4.4v50.4c0,2.4,1.9,4.4,4.4,4.4h65C368.1,507.6,369.9,506,370.2,503.9z"/>
<path class="st20" d="M317.7,452h31.4c0.9,0,1.7,0.8,1.7,1.7v0.6c0,0.9-0.8,1.7-1.7,1.7h-31.4c-0.9,0-1.7-0.8-1.7-1.7v-0.6
	C316,452.7,316.8,452,317.7,452z"/>
<path class="st21" d="M545.8,311.5h11.8c0.3,0,0.6,0.2,0.6,0.6v207.2c0,0.3-0.2,0.6-0.6,0.6h-11.8c-0.3,0-0.6-0.2-0.6-0.6V312.1
	C545.3,311.7,545.5,311.5,545.8,311.5z"/>
<path class="st10" d="M553.7,311.5h3.7c1.5,0,2.6,1.1,2.6,2.6v203c0,1.5-1.1,2.6-2.6,2.6h-3.7c-1.5,0-2.6-1.1-2.6-2.6v-203
	C551.1,312.6,552.3,311.5,553.7,311.5z"/>
<path class="st21" d="M600.9,311.5h11.8c0.3,0,0.6,0.2,0.6,0.6v207.2c0,0.3-0.2,0.6-0.6,0.6h-11.8c-0.3,0-0.6-0.2-0.6-0.6V312.1
	C600.3,311.7,600.6,311.5,600.9,311.5z"/>
<path class="st10" d="M608.9,311.5h3.7c1.5,0,2.6,1.1,2.6,2.6v203c0,1.5-1.1,2.6-2.6,2.6h-3.7c-1.5,0-2.6-1.1-2.6-2.6v-203
	C606.2,312.6,607.4,311.5,608.9,311.5z"/>
<path class="st22" d="M430.5,304.7h191.9c1,0,1.9,0.9,1.9,1.9v9c0,1-0.9,1.9-1.9,1.9H443.1C439.4,312.6,435.2,308.4,430.5,304.7z"/>
<path class="st23" d="M500.3,249l2.5,4c0,0,0.9,4.9-0.4,8.2c-1.3,3.3,15.9,7,15.9,7l13.5-10.9l3-3.7c0,0-6.3-6.9-6.7-9.9
	C527.6,240.7,500.3,249,500.3,249z"/>
<path class="st24" d="M470.3,287.5c0,0-9.1,7.3-12.2,7.9c-3.1,0.6-17-5.8-19.8-6.5s-9-0.8-13.4-0.8s-9,1.7-11.3,6.5h9.3
	c2.5,0,11,6.9,19.1,12.5s14.7,10.2,20.1,9.7c5.4-0.6,24-14.5,24-14.5L470.3,287.5z"/>
<path class="st23" d="M441.9,307c8.2,5.6,14.7,10.2,20.1,9.7c5.4-0.6,24-14.5,24-14.5l-15.7-14.7c0,0-2.1,1.7-4.6,3.5
	c6.6,10.6,3.6,15-4.2,18.2c-6.2,2.5-22-6.2-32-11C433,300.6,437.5,304,441.9,307z"/>
<path class="st15" d="M544.5,373.3c0,0-47.1-0.4-52.8,0.1c-5.7,0.6-11.5,6.6-10.4,16.1s14.2,83.1,14.2,83.1c0.6,0.4,1.2,0.7,1.9,0.9
	c1,0.2,9.4,1.6,9.4,1.6l0.6-6.9l-4.9-71.6l43.3-7.9L544.5,373.3z"/>
<path class="st12" d="M507.3,468.2c0.7,0.2,1.2,0.8,1.5,1.6c0.7,3.5,1.1,7,1.2,10.6c-0.1,1.1-3,3.4-8,5.5
	c-4.9,2.1-23.8,7.6-23.8,7.6l-0.2-0.7c-0.6-0.3-1-0.9-1.2-1.6c-0.4-1.8-0.1-3.6,0.8-5.2c1-1.5,7.1-5.6,8.2-6.5s6.6-8.5,7.1-9.1
	c1.9-1.6,4.7-1.8,6.9-0.4C503.1,471.8,507,471.1,507.3,468.2z"/>
<path class="st13" d="M477.9,492.7c0,0,18.9-7,23-8.4c3.3-1.3,6.3-3.1,9-5.4c0.3,0.2,0.7,0.4,0.8,0.9c0.1,0.6,0.2,2.5,0.3,2.9
	c0,1.3-0.9,2.7-2.1,3.1c-2,0.9-28.4,10.1-29.6,10.6c-1.2,0.4-1.7-2.8-1.7-2.8S477.5,492.9,477.9,492.7z"/>
<path class="st25" d="M573.6,344.1c0,0-125.7,14.5-132.5,16.1c-6.9,1.6-12.7,9.7-10,20.8c2.7,11.1,30.8,100.7,30.8,100.7
	c0.8,0.4,1.6,0.7,2.4,0.8c1.2,0.1,11.6,0.4,11.6,0.4l4-4.2l-22.5-80l91.9-4.6C575,389.9,578.4,358.6,573.6,344.1z"/>
<path class="st26" d="M485.2,353.6c0,0,10,7.4,16.1,5.1c6.1-2.4,35-52.6,35-52.6l-13.9-50.2c-6.9,0.4-13.7,1.3-20.3,2.8l-2.1,1.9
	c0,0-8.2,1.3-12.8,6.6c-4.6,5.3-19.9,18.8-20.4,19.9s13.3,16.4,16.8,18.8c0.9,0.3,1.9,0.1,2.7-0.4l1.7-1.3c0,0,3.7,19.3,3.7,25.2
	v5.7c0,0-1.9,14.8-3.5,16.2C486.6,352.5,485.2,353.6,485.2,353.6z"/>
<path class="st13" d="M530.1,363.2c2.4,0,4.3-1.9,4.3-4.3s-1.9-4.3-4.3-4.3h-37.2c-8.6-0.1-16.1-6.1-18-14.5
	c-2.7,1.1-5.3,2.4-7.7,3.7c3.5,11.3,13.9,19.1,25.7,19.2h37.2V363.2z"/>
<rect x="530.4" y="396.5" class="st20" width="10.7" height="87.8"/>
<rect x="516.1" y="367.1" class="st6" width="10.4" height="23.8"/>
<rect x="588.1" y="367.1" class="st6" width="10.4" height="23.8"/>
<path class="st7" d="M530.4,394.5h10.7c3.4,0,6.2,2.8,6.2,6.2l0,0v11.5c0,3.4-2.8,6.2-6.2,6.2l0,0h-10.7c-3.4,0-6.2-2.8-6.2-6.2l0,0
	v-11.5C524.2,397.3,526.9,394.5,530.4,394.5z"/>
<path class="st20" d="M521.8,392.6h27.6c1,0,1.8,0.8,1.8,1.8v14.4c0,1-0.8,1.8-1.8,1.8h-27.6c-1,0-1.8-0.8-1.8-1.8v-14.4
	C520,393.4,520.8,392.6,521.8,392.6z"/>
<path class="st27" d="M453.7,385.9h86.6c3.3,0,6,2.7,6,6v6.7c0,3.3-2.7,6-6,6h-86.6c-3.3,0-6-2.7-6-6v-6.7
	C447.7,388.4,450.4,385.9,453.7,385.9z"/>
<path class="st28" d="M516.7,385.9h86.6c3.3,0,6,2.7,6,6v6.7c0,3.3-2.7,6-6,6h-86.6c-3.3,0-6-2.7-6-6v-6.7
	C510.7,388.6,513.4,385.9,516.7,385.9z"/>
<path class="st7" d="M530.4,478.7h10.7c3.4,0,6.2,2.8,6.2,6.2l0,0v11.5c0,3.4-2.8,6.2-6.2,6.2l0,0h-10.7c-3.4,0-6.2-2.8-6.2-6.2l0,0
	v-11.5C524.2,481.5,526.9,478.7,530.4,478.7z"/>
<path class="st20" d="M522.6,490.1h26.1c1.5,0,2.6,1.1,2.6,2.6v20.8c0,1.5-1.1,2.6-2.6,2.6h-26.1c-1.5,0-2.6-1.1-2.6-2.6v-20.8
	C520,491.2,521.2,490.1,522.6,490.1z"/>
<path class="st29" d="M564.1,509.6L564.1,509.6c0,4.3-3.5,7.6-7.6,7.6h-41.3c-4.3,0-7.6-3.5-7.6-7.6l0,0c0-4.3,3.5-7.6,7.6-7.6h41.3
	C560.6,502,563.9,505.4,564.1,509.6z"/>
<path class="st8" d="M604.3,517.3L604.3,517.3c0,4.3-3.5,7.6-7.6,7.6H491.5c-4.3,0-7.6-3.5-7.6-7.6l0,0c0-4.3,3.5-7.6,7.6-7.6h105.1
	C600.8,509.6,604.3,513,604.3,517.3z"/>
<path class="st4" d="M538.5,517.3L538.5,517.3c0,4.3-3.5,7.6-7.6,7.6h-56c-4.3,0-7.6-3.5-7.6-7.6l0,0c0-4.3,3.5-7.6,7.6-7.6h56
	C535,509.6,538.5,513,538.5,517.3z"/>
<path class="st13" d="M514.5,335c2.4-0.1,4.3,1.7,4.4,4c0.1,2.4-1.7,4.3-4,4.4c-0.1,0-0.3,0-0.4,0h-37.3c-10.2,0-18.4,8.3-18.4,18.4
	v33.5c0.1,2.4-1.7,4.3-4,4.4c-2.4,0.1-4.3-1.7-4.4-4c0-0.1,0-0.3,0-0.4v-33.5c0-14.8,12-26.8,27-27h37.2L514.5,335L514.5,335z"/>
<path class="st30" d="M597,290.1c-0.1-25.5-20.7-46.2-46.2-46.2h-6.2c-25.5,0.1-46.2,20.7-46.2,46.2v68.7c0,6.5,5.3,11.8,11.9,11.9
	h74.9c6.5,0,11.8-5.3,11.9-11.9v-68.7L597,290.1L597,290.1z"/>
<path class="st31" d="M609.3,290.1c-0.1-25.5-20.7-46.2-46.2-46.2h-6.2c-25.5,0.1-46.2,20.7-46.2,46.2v68.7
	c0,6.5,5.3,11.9,11.9,11.9h74.8c6.5,0,11.8-5.3,11.9-11.9V290.1L609.3,290.1L609.3,290.1z"/>
<path class="st12" d="M478.8,475.5c1,0,2,0.6,2.6,1.3c1,1.3,4.6,10.7,4.8,12s-3.7,4.9-10.9,8.9c-7.2,3.9-35,16.3-35,16.3l-0.6-0.8
	c-0.9-0.1-1.8-0.7-2.4-1.5c-1.1-1.9-1.2-4.4-0.2-6.4c1.2-2,9.5-8.9,11.1-10.2c1.6-1.3,8-12.1,8.5-12.9s4.6-3.8,10.6-2.6
	C473.3,480.9,479.2,479,478.8,475.5z"/>
<path class="st13" d="M439.9,513.3c0,0,27.5-13.9,33.5-16.8c6.1-2.9,12.6-9.1,12.6-9.1s1.1,0.1,1.5,0.8c0.4,1.1,0.9,2.1,1.2,3.3
	c0.2,0.4,0.4,2.7-2.5,4.4c-2.9,1.7-41.4,20.6-43.2,21.3c-1.8,0.8-3.4-2.8-3.4-2.8S439.2,513.7,439.9,513.3z"/>
<path class="st24" d="M492.3,192.4l4.5-1c10.7-2.5,21.3,4.2,23.9,14.8l4.9,21.3c2.5,10.7-4.2,21.3-14.8,23.9l-4.5,1
	c-10.7,2.5-21.3-4.2-23.9-14.8l-4.9-21.3C474.9,205.6,481.5,194.9,492.3,192.4z"/>
<path class="st23" d="M521.3,208.6l4.4,18.9c2.5,10.7-4.2,21.3-14.8,23.9l-4.5,1c-4.3,1-8.8,0.6-12.7-1.2c0.6,0.2,4.3,1.7,5.2-1.1
	c0.9-3-4.3-12.6-4.3-12.6c-0.2-0.4-0.1-0.9,0.1-1.2c2.1-3.7,2.8-8,2-12.2c-1.2-6.4,7-10.9,7-10.9l-19.2,5.2v3.9
	c-1.3-2.6-3.9-4.4-6.9-4.8l-0.2-1.1c-1.1-4.8-0.4-9.9,2-14.3C485.8,202.8,506.7,205.5,521.3,208.6z"/>
<path class="st8" d="M485.8,228.2c0,0-1.7-0.2-2.4-2.7s-0.8-3.3-0.8-3.3c-1.5-2.1-2.5-4.6-2.9-7.2c0,0-11.3-1.6-13.6-12.1
	c-2.2-10.6,7.5-21.6,9-22.7s7.5-3.1,15,0.2c0,0,1.3,0.8,3.8-0.2s16.4-4.9,23.1-5.2c6.7-0.2,11,6.7,14.3,15.2c0.3-2,1.8-3.7,3.8-4.2
	c3.4-0.7,1.6,5.6-0.9,7.9c0,0,5.7,3,6.9,9.1c1.1,6.2-1,33.5-6.2,38.9s-18.2,7.7-22.3,8.8c-4.1,1.1-12.4-3.4-15.7-14.7
	c0,0,1.7-5.7,0.2-10.3s-2.6-8.1-4.4-8.8c-1.8-0.6-6.1,3.9-6.4,6c-0.1,1.6,0,3.3,0.4,4.8C486.6,228.1,486.1,228.2,485.8,228.2z"/>
<path class="st15" d="M485.8,228.2c0,0-1.7-0.2-2.4-2.7s-0.8-3.3-0.8-3.3c-1.5-2.1-2.5-4.6-2.9-7.2c0,0-11.3-1.6-13.6-12.1
	c-2.2-10.6,7.5-21.6,9-22.7c0,0-10.7,11.7,1.1,17.6s29.2,9.8,40.7,9.1c11.5-0.7,19.5-20.6,19.5-20.6c1.3,1.2-0.2,5.8-2.2,7.5
	c0,0,5.7,3,6.9,9.1c1.1,6.2-1,33.5-6.2,38.9s-18.2,7.7-22.3,8.8c-4.1,1.1-12.4-3.4-15.7-14.7c0,0,1.7-5.7,0.2-10.3s-2.6-8.1-4.4-8.8
	c-1.8-0.6-6.1,3.9-6.4,6c-0.1,1.6,0,3.3,0.4,4.8C486.6,228.1,486.2,228.2,485.8,228.2z"/>
<path class="st0" d="M642.9,402.4c0-0.7-0.6-1.2-1.2-1.2s-1.2,0.6-1.2,1.2v3h-3c-0.7,0.1-1.2,0.7-1.1,1.5c0.1,0.7,0.6,1.1,1.1,1.1h3
	v3c0,0.7,0.6,1.2,1.2,1.2s1.2-0.6,1.2-1.2v-3h3c0.7,0.1,1.3-0.4,1.5-1.1c0.1-0.7-0.4-1.3-1.1-1.5c-0.1,0-0.1,0-0.2,0h-3v-3H642.9z"
	/>
<path class="st0" d="M566,136.8c0.1-0.7-0.4-1.3-1.1-1.5c-0.7-0.1-1.3,0.4-1.5,1.1c0,0.1,0,0.1,0,0.2v3.1h-3c-0.7,0-1.2,0.6-1.2,1.2
	s0.6,1.2,1.2,1.2l0,0h3v3.1c0.1,0.7,0.7,1.2,1.5,1.1c0.7-0.1,1.1-0.6,1.1-1.1v-3h3c0.7,0,1.2-0.6,1.2-1.2c0-0.7-0.6-1.2-1.2-1.2h-3
	V136.8z"/>
<path class="st0" d="M420.9,88.8c0-0.7-0.6-1.2-1.2-1.2s-1.2,0.6-1.2,1.2v3h-3c-0.7,0-1.2,0.6-1.2,1.2c0,0.7,0.6,1.2,1.2,1.2l0,0h3
	v3c0,0.7,0.6,1.2,1.2,1.2s1.2-0.6,1.2-1.2l0,0v-3h3c0.7,0,1.2-0.6,1.2-1.2c0-0.7-0.6-1.2-1.2-1.2h-3V88.8z"/>
<path class="st0" d="M62.3,344.3c-0.1-0.7-0.7-1.2-1.5-1.1c-0.7,0.1-1.1,0.6-1.1,1.1v3h-3c-0.7,0.1-1.2,0.7-1.1,1.5
	c0.1,0.7,0.6,1.1,1.1,1.1h2.9v3c0.1,0.7,0.7,1.2,1.5,1.1c0.7-0.1,1.1-0.6,1.1-1.1v-3h3c0.7-0.1,1.2-0.7,1.1-1.5
	c-0.1-0.7-0.6-1.1-1.1-1.1h-3L62.3,344.3z"/>
<path class="st0" d="M187.2,178.9c0-0.7-0.6-1.2-1.2-1.2s-1.2,0.6-1.2,1.2l0,0v3h-3c-0.7,0-1.2,0.6-1.2,1.2c0,0.7,0.6,1.2,1.2,1.2
	l0,0h3v3c0,0.7,0.6,1.2,1.2,1.2s1.2-0.6,1.2-1.2l0,0v-3h3c0.7,0,1.2-0.6,1.2-1.2c0-0.7-0.6-1.2-1.2-1.2l0,0h-3V178.9z"/>
<path class="st0" d="M40.5,466.3c0-0.7-0.6-1.2-1.2-1.2s-1.2,0.6-1.2,1.2v3h-3c-0.7,0.1-1.2,0.7-1.1,1.5c0.1,0.7,0.6,1.1,1.1,1.1h3
	v3c0,0.7,0.6,1.2,1.2,1.2s1.2-0.6,1.2-1.2v-3h3c0.7-0.1,1.2-0.7,1.1-1.5c-0.1-0.7-0.6-1.1-1.1-1.1h-3V466.3z"/>
<path class="st32" d="M236.6,368.5c18.2-9.7,22.8,11.3,15.7,28.7c-7.1,17.4-43.3,75.9-45.3,99.2c-0.7,9-2.4,8-3.8,1.7
	C196.2,466.6,211.7,381.7,236.6,368.5z"/>
<path class="st33" d="M198.2,288.7c-20.9-18.8-33.8,7.5-30.2,32.8c3.6,25.4,32.2,114.7,27.1,146c-2,12.1,0.6,11.3,4.5,3.5
	C219.3,431.8,226.8,314.5,198.2,288.7z"/>
<path class="st34" d="M194.6,476.3c0.4,1.1,1.5,0.6,2.8-1.3c21.7-72.3-12.1-180.4-12.2-180.7c-0.2-0.6-0.8-0.9-1.5-0.8
	c-0.6,0.2-0.9,0.8-0.8,1.5C183,295.1,217.3,404.7,194.6,476.3z"/>
<path class="st32" d="M189,368.1c-18-7.8-20.8,12.5-12.8,28.5s46.8,68.9,50.3,90.8c1.4,8.5,2.9,7.4,3.8,1.3
	C234.7,458.3,213.7,378.9,189,368.1z"/>
<polygon class="st5" points="181.1,476.3 219.9,476.3 230,485.4 221.6,517.3 200.4,517.3 179.2,517.3 171,485.4 "/>
<path class="st7" d="M171,464.4h59.1c1.8,0,3.3,1.5,3.3,3.3v14.6c0,1.8-1.5,3.3-3.3,3.3H171c-1.8,0-3.3-1.5-3.3-3.3v-14.6
	C167.7,465.8,169.2,464.4,171,464.4z"/>
<polygon class="st8" points="230,485.4 228.3,492 172.7,492 171,485.4 "/>
<path class="st4" d="M-251.2-107.1h-5.5c-2.3,0-4.2-1.8-4.2-4.1l0,0l0,0c0-2.3,1.9-4.1,4.1-4.1h5.5c2.3,0,4.1,1.9,4.1,4.1l0,0
	C-247.1-109-248.9-107.1-251.2-107.1z"/>
<path class="st4" d="M-240.5-107h787.9c3,0,5.4-1.9,5.4-4.1l0,0c0-2.3-2.5-4.1-5.4-4.1h-787.9c-3,0-5.4,1.9-5.4,4.1l0,0
	C-246-108.9-243.5-107-240.5-107z"/>
</svg>
