<?xml version="1.0" encoding="utf-8"?>
<!-- Generator: Adobe Illustrator 27.3.1, SVG Export Plug-In . SVG Version: 6.00 Build 0)  -->
<svg version="1.1" id="Layer_1" xmlns="http://www.w3.org/2000/svg" xmlns:xlink="http://www.w3.org/1999/xlink" x="0px" y="0px"
	 viewBox="0 0 863.4 526.6" style="enable-background:new 0 0 863.4 526.6;" xml:space="preserve">
<style type="text/css">
	.st0{opacity:6.000000e-02;}
	.st1{fill:none;}
	.st2{fill-rule:evenodd;clip-rule:evenodd;fill:#231F20;}
	.st3{fill-rule:evenodd;clip-rule:evenodd;fill:#9FB2D9;}
	.st4{fill-rule:evenodd;clip-rule:evenodd;fill:#E1E8F6;}
	.st5{fill-rule:evenodd;clip-rule:evenodd;fill:#B4C5E6;}
	.st6{fill-rule:evenodd;clip-rule:evenodd;fill:#C0CDEA;}
	.st7{fill-rule:evenodd;clip-rule:evenodd;fill:#00000F;}
	.st8{fill-rule:evenodd;clip-rule:evenodd;fill:#3B405F;}
	.st9{fill:#00000F;}
	.st10{fill:#3B405F;}
	.st11{fill-rule:evenodd;clip-rule:evenodd;fill:#101537;}
	.st12{fill:#F8BD7A;}
	.st13{fill:#FFFFFF;}
	.st14{fill:#E4E1E8;}
	.st15{fill-rule:evenodd;clip-rule:evenodd;fill:#D64C47;}
	.st16{fill-rule:evenodd;clip-rule:evenodd;fill:#FFFFFF;}
	.st17{enable-background:new    ;}
	.st18{fill-rule:evenodd;clip-rule:evenodd;fill:#070725;}
	.st19{fill:#101537;}
	.st20{fill:#D58750;}
	.st21{fill:#B56B41;}
	.st22{fill-rule:evenodd;clip-rule:evenodd;fill:#E4E1E8;}
	.st23{fill:#070725;}
	.st24{fill:#AEABBA;}
	.st25{fill-rule:evenodd;clip-rule:evenodd;fill:#B56B41;}
	.st26{fill-rule:evenodd;clip-rule:evenodd;fill:#ED7862;}
	.st27{fill-rule:evenodd;clip-rule:evenodd;fill:#F5AC83;}
	.st28{fill-rule:evenodd;clip-rule:evenodd;fill:#181D3B;}
	.st29{fill-rule:evenodd;clip-rule:evenodd;fill:#F8BD7A;}
	.st30{fill:#EE5050;}
	.st31{fill:#D95050;}
	.st32{fill-rule:evenodd;clip-rule:evenodd;fill:#707386;}
	.st33{fill-rule:evenodd;clip-rule:evenodd;fill:#EE5050;}
	.st34{fill-rule:evenodd;clip-rule:evenodd;fill:#D95050;}
	.st35{fill-rule:evenodd;clip-rule:evenodd;fill:#05A677;}
	.st36{fill-rule:evenodd;clip-rule:evenodd;fill:#4A9075;}
	.st37{fill-rule:evenodd;clip-rule:evenodd;fill:#1B7154;}
	.st38{fill:none;stroke:#FFAB03;stroke-width:4.03;stroke-miterlimit:10;}
	.st39{fill:#57585B;}
	.st40{fill:#FFAB03;}
</style>
<g class="st0">
	<g>
		<g>
			<g>
				<g>
					<g>
						<rect x="273.5" y="25.6" class="st1" width="15" height="13.4"/>
					</g>
					<rect x="280" y="35.6" class="st2" width="1.5" height="2.5"/>
					<rect x="280" y="31.1" class="st2" width="1.5" height="2.5"/>
					<rect x="280" y="26.7" class="st2" width="1.5" height="2.5"/>
				</g>
			</g>
			<g>
				<g>
					<g>
						<rect x="273.5" y="39.1" class="st1" width="15" height="13.4"/>
					</g>
					<rect x="280" y="49.1" class="st2" width="1.5" height="2.5"/>
					<rect x="280" y="44.6" class="st2" width="1.5" height="2.5"/>
					<rect x="280" y="40.1" class="st2" width="1.5" height="2.5"/>
				</g>
			</g>
			<g>
				<g>
					<g>
						<rect x="273.5" y="52.5" class="st1" width="15" height="13.4"/>
					</g>
					<rect x="280" y="62.5" class="st2" width="1.5" height="2.5"/>
					<rect x="280" y="58" class="st2" width="1.5" height="2.5"/>
					<rect x="280" y="53.6" class="st2" width="1.5" height="2.5"/>
				</g>
			</g>
			<g>
				<g>
					<g>
						<rect x="273.5" y="66" class="st1" width="15" height="13.4"/>
					</g>
					<rect x="280" y="75.9" class="st2" width="1.5" height="2.5"/>
					<rect x="280" y="71.5" class="st2" width="1.5" height="2.5"/>
					<rect x="280" y="67" class="st2" width="1.5" height="2.5"/>
				</g>
			</g>
			<g>
				<g>
					<g>
						<rect x="273.5" y="79.4" class="st1" width="15" height="13.4"/>
					</g>
					<rect x="280" y="89.4" class="st2" width="1.5" height="2.5"/>
					<rect x="280" y="84.9" class="st2" width="1.5" height="2.5"/>
					<rect x="280" y="80.5" class="st2" width="1.5" height="2.5"/>
				</g>
			</g>
			<g>
				<g>
					<g>
						<rect x="273.5" y="92.9" class="st1" width="15" height="13.4"/>
					</g>
					<rect x="280" y="102.8" class="st2" width="1.5" height="2.5"/>
					<rect x="280" y="98.4" class="st2" width="1.5" height="2.5"/>
					<rect x="280" y="93.9" class="st2" width="1.5" height="2.5"/>
				</g>
			</g>
			<g>
				<g>
					<g>
						<rect x="273.5" y="106.3" class="st1" width="15" height="13.4"/>
					</g>
					<rect x="280" y="116.3" class="st2" width="1.5" height="2.5"/>
					<rect x="280" y="111.8" class="st2" width="1.5" height="2.5"/>
					<rect x="280" y="107.4" class="st2" width="1.5" height="2.5"/>
				</g>
			</g>
			<g>
				<g>
					<g>
						<rect x="273.5" y="119.8" class="st1" width="15" height="13.4"/>
					</g>
					<rect x="280" y="129.7" class="st2" width="1.5" height="2.5"/>
					<rect x="280" y="125.3" class="st2" width="1.5" height="2.5"/>
					<rect x="280" y="120.8" class="st2" width="1.5" height="2.5"/>
				</g>
			</g>
			<g>
				<g>
					<g>
						<rect x="273.5" y="133.2" class="st1" width="15" height="13.4"/>
					</g>
					<rect x="280" y="143.2" class="st2" width="1.5" height="2.5"/>
					<rect x="280" y="138.7" class="st2" width="1.5" height="2.5"/>
					<rect x="280" y="134.3" class="st2" width="1.5" height="2.5"/>
				</g>
			</g>
			<g>
				<g>
					<g>
						<rect x="273.5" y="146.7" class="st1" width="15" height="13.4"/>
					</g>
					<rect x="280" y="156.6" class="st2" width="1.5" height="2.5"/>
					<rect x="280" y="152.2" class="st2" width="1.5" height="2.5"/>
					<rect x="280" y="147.7" class="st2" width="1.5" height="2.5"/>
				</g>
			</g>
			<g>
				<g>
					<g>
						<rect x="273.5" y="160.1" class="st1" width="15" height="13.4"/>
					</g>
					<rect x="280" y="170.1" class="st2" width="1.5" height="2.5"/>
					<rect x="280" y="165.6" class="st2" width="1.5" height="2.5"/>
					<rect x="280" y="161.1" class="st2" width="1.5" height="2.5"/>
				</g>
			</g>
			<g>
				<g>
					<g>
						<rect x="273.5" y="173.6" class="st1" width="15" height="13.4"/>
					</g>
					<rect x="280" y="183.5" class="st2" width="1.5" height="2.5"/>
					<rect x="280" y="179.1" class="st2" width="1.5" height="2.5"/>
					<rect x="280" y="174.6" class="st2" width="1.5" height="2.5"/>
				</g>
			</g>
			<g>
				<g>
					<g>
						<rect x="273.5" y="187" class="st1" width="15" height="13.4"/>
					</g>
					<rect x="280" y="197" class="st2" width="1.5" height="2.5"/>
					<rect x="280" y="192.5" class="st2" width="1.5" height="2.5"/>
					<rect x="280" y="188" class="st2" width="1.5" height="2.5"/>
				</g>
			</g>
			<g>
				<g>
					<g>
						<rect x="273.5" y="200.5" class="st1" width="15" height="13.4"/>
					</g>
					<rect x="280" y="210.4" class="st2" width="1.5" height="2.5"/>
					<rect x="280" y="206" class="st2" width="1.5" height="2.5"/>
					<rect x="280" y="201.5" class="st2" width="1.5" height="2.5"/>
				</g>
			</g>
			<g>
				<g>
					<g>
						<rect x="273.5" y="213.9" class="st1" width="15" height="13.4"/>
					</g>
					<rect x="280" y="223.9" class="st2" width="1.5" height="2.5"/>
					<rect x="280" y="219.4" class="st2" width="1.5" height="2.5"/>
					<rect x="280" y="214.9" class="st2" width="1.5" height="2.5"/>
				</g>
			</g>
			<g>
				<g>
					<g>
						<rect x="273.5" y="227.4" class="st1" width="15" height="13.4"/>
					</g>
					<rect x="280" y="237.3" class="st2" width="1.5" height="2.5"/>
					<rect x="280" y="232.9" class="st2" width="1.5" height="2.5"/>
					<rect x="280" y="228.4" class="st2" width="1.5" height="2.5"/>
				</g>
			</g>
			<g>
				<g>
					<g>
						<rect x="273.5" y="240.8" class="st1" width="15" height="13.4"/>
					</g>
					<rect x="280" y="250.8" class="st2" width="1.5" height="2.5"/>
					<rect x="280" y="246.3" class="st2" width="1.5" height="2.5"/>
					<rect x="280" y="241.8" class="st2" width="1.5" height="2.5"/>
				</g>
			</g>
			<g>
				<g>
					<g>
						<rect x="273.5" y="254.3" class="st1" width="15" height="13.4"/>
					</g>
					<rect x="280" y="264.2" class="st2" width="1.5" height="2.5"/>
					<rect x="280" y="259.7" class="st2" width="1.5" height="2.5"/>
					<rect x="280" y="255.3" class="st2" width="1.5" height="2.5"/>
				</g>
			</g>
			<g>
				<g>
					<g>
						<rect x="273.5" y="267.7" class="st1" width="15" height="13.4"/>
					</g>
					<rect x="280" y="277.7" class="st2" width="1.5" height="2.5"/>
					<rect x="280" y="273.2" class="st2" width="1.5" height="2.5"/>
					<rect x="280" y="268.7" class="st2" width="1.5" height="2.5"/>
				</g>
			</g>
			<g>
				<g>
					<g>
						<rect x="273.5" y="281.2" class="st1" width="15" height="13.4"/>
					</g>
					<rect x="280" y="291.1" class="st2" width="1.5" height="2.5"/>
					<rect x="280" y="286.6" class="st2" width="1.5" height="2.5"/>
					<rect x="280" y="282.2" class="st2" width="1.5" height="2.5"/>
				</g>
			</g>
			<g>
				<g>
					<g>
						<rect x="273.5" y="294.6" class="st1" width="15" height="13.4"/>
					</g>
					<rect x="280" y="304.6" class="st2" width="1.5" height="2.5"/>
					<rect x="280" y="300.1" class="st2" width="1.5" height="2.5"/>
					<rect x="280" y="295.6" class="st2" width="1.5" height="2.5"/>
				</g>
			</g>
			<g>
				<g>
					<g>
						<rect x="273.5" y="308.1" class="st1" width="15" height="13.4"/>
					</g>
					<rect x="280" y="318" class="st2" width="1.5" height="2.5"/>
					<rect x="280" y="313.5" class="st2" width="1.5" height="2.5"/>
					<rect x="280" y="309.1" class="st2" width="1.5" height="2.5"/>
				</g>
			</g>
			<g>
				<g>
					<g>
						<rect x="273.5" y="321.5" class="st1" width="15" height="13.4"/>
					</g>
					<rect x="280" y="331.5" class="st2" width="1.5" height="2.5"/>
					<rect x="280" y="327" class="st2" width="1.5" height="2.5"/>
					<rect x="280" y="322.5" class="st2" width="1.5" height="2.5"/>
				</g>
			</g>
			<g>
				<g>
					<g>
						<rect x="273.5" y="335" class="st1" width="15" height="13.4"/>
					</g>
					<rect x="280" y="344.9" class="st2" width="1.5" height="2.5"/>
					<rect x="280" y="340.4" class="st2" width="1.5" height="2.5"/>
					<rect x="280" y="336" class="st2" width="1.5" height="2.5"/>
				</g>
			</g>
			<g>
				<g>
					<g>
						<rect x="273.5" y="348.4" class="st1" width="15" height="13.4"/>
					</g>
					<rect x="280" y="358.4" class="st2" width="1.5" height="2.5"/>
					<rect x="280" y="353.9" class="st2" width="1.5" height="2.5"/>
					<rect x="280" y="349.4" class="st2" width="1.5" height="2.5"/>
				</g>
			</g>
			<g>
				<g>
					<g>
						<rect x="273.5" y="361.9" class="st1" width="15" height="13.4"/>
					</g>
					<rect x="280" y="371.8" class="st2" width="1.5" height="2.5"/>
					<rect x="280" y="367.3" class="st2" width="1.5" height="2.5"/>
					<rect x="280" y="362.9" class="st2" width="1.5" height="2.5"/>
				</g>
			</g>
			<g>
				<g>
					<g>
						<rect x="273.5" y="375.3" class="st1" width="15" height="13.4"/>
					</g>
					<rect x="280" y="385.3" class="st2" width="1.5" height="2.5"/>
					<rect x="280" y="380.8" class="st2" width="1.5" height="2.5"/>
					<rect x="280" y="376.3" class="st2" width="1.5" height="2.5"/>
				</g>
			</g>
			<g>
				<g>
					<g>
						<rect x="273.5" y="388.8" class="st1" width="15" height="13.4"/>
					</g>
					<rect x="280" y="398.7" class="st2" width="1.5" height="2.5"/>
					<rect x="280" y="394.2" class="st2" width="1.5" height="2.5"/>
					<rect x="280" y="389.8" class="st2" width="1.5" height="2.5"/>
				</g>
			</g>
			<g>
				<g>
					<g>
						<rect x="273.5" y="402.2" class="st1" width="15" height="13.4"/>
					</g>
					<rect x="280" y="412.2" class="st2" width="1.5" height="2.5"/>
					<rect x="280" y="407.7" class="st2" width="1.5" height="2.5"/>
					<rect x="280" y="403.2" class="st2" width="1.5" height="2.5"/>
				</g>
			</g>
			<g>
				<g>
					<g>
						<rect x="273.5" y="415.6" class="st1" width="15" height="13.4"/>
					</g>
					<rect x="280" y="425.6" class="st2" width="1.5" height="2.5"/>
					<rect x="280" y="421.1" class="st2" width="1.5" height="2.5"/>
					<rect x="280" y="416.7" class="st2" width="1.5" height="2.5"/>
				</g>
			</g>
			<g>
				<g>
					<g>
						<rect x="273.5" y="429.1" class="st1" width="15" height="13.4"/>
					</g>
					<rect x="280" y="439.1" class="st2" width="1.5" height="2.5"/>
					<rect x="280" y="434.6" class="st2" width="1.5" height="2.5"/>
					<rect x="280" y="430.1" class="st2" width="1.5" height="2.5"/>
				</g>
			</g>
			<g>
				<g>
					<g>
						<rect x="273.5" y="442.5" class="st1" width="15" height="13.4"/>
					</g>
					<rect x="280" y="452.5" class="st2" width="1.5" height="2.5"/>
					<rect x="280" y="448" class="st2" width="1.5" height="2.5"/>
					<rect x="280" y="443.6" class="st2" width="1.5" height="2.5"/>
				</g>
			</g>
			<g>
				<g>
					<g>
						<rect x="273.5" y="456" class="st1" width="15" height="13.4"/>
					</g>
					<rect x="280" y="466" class="st2" width="1.5" height="2.5"/>
					<rect x="280" y="461.5" class="st2" width="1.5" height="2.5"/>
					<rect x="280" y="457" class="st2" width="1.5" height="2.5"/>
				</g>
			</g>
			<g>
				<g>
					<g>
						<rect x="273.5" y="469.4" class="st1" width="15" height="13.4"/>
					</g>
					<rect x="280" y="479.4" class="st2" width="1.5" height="2.5"/>
					<rect x="280" y="474.9" class="st2" width="1.5" height="2.5"/>
					<rect x="280" y="470.5" class="st2" width="1.5" height="2.5"/>
				</g>
			</g>
		</g>
	</g>
</g>
<path class="st3" d="M536.1,99.6c0.1-0.6-0.3-1.1-0.9-1.1c-0.6-0.1-1.1,0.3-1.1,0.9c0,0.1,0,0.1,0,0.2v2.5h-2.4
	c-0.6,0.1-1,0.6-0.9,1.1c0,0.4,0.4,0.9,0.9,0.9h2.4v2.5c0.1,0.6,0.6,1,1.1,0.9c0.4,0,0.9-0.4,0.9-0.9v-2.5h2.4
	c0.6,0.1,1.1-0.3,1.1-0.9c0.1-0.6-0.3-1.1-0.9-1.1c-0.1,0-0.1,0-0.2,0h-2.4V99.6z"/>
<path class="st4" d="M321,400.7h-60c-32.4,0.1-58.6,26.3-58.7,58.7l0,0c0.1,32.4,26.3,58.6,58.7,58.7h507.4
	c52.3,0,95.1-42.8,95.1-95.1l0,0c0-52.3-42.8-95.1-95.1-95.1l0,0c-22.2-0.1-40.1-18-40.2-40.2l0,0c0.1-22.2,18-40.1,40.2-40.2h48.3
	c23.1-0.1,41.7-18.7,41.8-41.8l0,0c0-23-18.7-41.6-41.8-41.7h-61.2c-9,0-16.2-7.3-16.3-16.3l0,0c0-9,7.3-16.2,16.3-16.3h10.8
	c6.2,0,11.2-5,11.2-11.2l0,0c0-6.2-5-11.2-11.2-11.2h-70.8c-14.9,0-16.6,17.6-54.2,17.6H554c-8.1,0-14.6,6.6-14.6,14.7l0,0
	c0,8.1,6.6,14.6,14.6,14.7h14.1c11.7,0,21.2,9.5,21.2,21.2l0,0c0,11.7-9.5,21.2-21.2,21.2h-42.4c-57.2,0-65.3,14.9-75.3,44.7
	s-62,32.1-62,32.1h-71.2c-17.7,0-32,14.3-32,32l0,0c0,17.7,14.3,32,32,32h3.7c17,0,30.7,13.8,30.8,30.8l0,0
	C351.7,386.9,338,400.7,321,400.7z M797.9,131.5c-6.2,0-11.2-5-11.2-11.2c-0.1-6.3,5-11.3,11.2-11.3s11.2,5,11.2,11.2l0,0
	C809.1,126.4,804.1,131.5,797.9,131.5z"/>
<path class="st3" d="M392.9,460.8c0,0-21.7-11.2-17.7-38.6s-12.8-36.1-17.1-44.3c-4.3-8.2,5.3-21.3,4.2-32.9
	c-1.1-11.6-14.4-14.6-8.2-30.4c6.2-15.8,1-21.8-7.2-38.8c-8.2-17,3.9-42.8,9.7-42.7c5.8,0.1-1.3,6.2,3.8,17.5
	c5.1,11.3,26.5,14.7,33.2,24.1c6.7,9.4-5.1,21.9,2.6,34.6s30.4,8.8,36.5,21.1c6.1,12.3-8.3,27.1-4.2,40.1
	c4.2,12.9,19.6,20.3,26,30.6s18.6,30.3-1.2,54S392.9,460.8,392.9,460.8z"/>
<path class="st5" d="M314,223.6c-0.2-0.8,0.2-1.7,1-2c0.8-0.2,1.6,0.1,1.9,0.9L417.7,484l-3.8-1L314,223.6z"/>
<path class="st5" d="M374.9,433c-0.1-1.1-0.2-2.2-0.2-3.4l58.9,33.1l-5.2-13.5c0-0.1,0-0.1-0.1-0.2l-2.7-7l-49.9-28
	c0-1.1,0-2.2-0.1-3.3l48.4,27.2l-4.7-12.2l-46.1-25.9c-0.6-1.5-1.2-3-2-4.4l46.5,26.1l-2.3-6.1c0-0.1-0.1-0.1-0.1-0.2l-10.2-26.6
	L359,362.7c0.3-0.9,0.6-1.8,0.8-2.8l43.7,24.6l-5.1-13.3l-36.3-20.4c0.2-1,0.3-2,0.3-3.1l34.4,19.4l-3.8-10c0,0,0-0.1-0.1-0.1
	l-11.2-29l-27-15.1c0.3-0.9,0.6-1.9,0.9-2.7l24.5,13.8l-9.8-25.3c0,0,0-0.1-0.1-0.1l-16.1-41.8c-0.2-0.7,0.2-1.5,0.9-1.8
	c0.7-0.2,1.4,0.1,1.7,0.8l14.6,38l8.4-28.5c0.9,0.4,1.7,0.9,2.6,1.3l-9.2,31.6l11,28.5v0.1l10.2,26.4l16-34.4
	c0.9,0.3,1.8,0.6,2.7,0.8l-17.3,37.1l3.9,10.1l21.1-45c0.9,0.3,1.8,0.6,2.7,1l-22.1,47l0.3,0.2c0.7,0.4,0.9,1.2,0.5,1.9l0,0
	c-0.1,0.2-0.3,0.4-0.4,0.5l5.7,14.8c0,0,0,0.1,0.1,0.1l9.2,24l15.7-33.3c0.6,0.8,1.3,1.7,2,2.5L418.2,415l2.4,6.2l17.4-37
	c0.7,0.7,1.4,1.4,2.2,2L422,424.7l6.1,15.8v0.1l1.7,4.4l22.2-47.3c0.7,0.8,1.3,1.6,1.9,2.5l-22.8,48.5l6.4,16.6v0.1l0,0
	c-1.1,0.4-2.2,0.6-3.4,0.9L374.9,433z"/>
<path class="st6" d="M382.8,518.3c-6-4.6-12.1-6.8-15.3-9.8c-6.5-6-2.1-20.9-6.8-30.9c-4.7-10-17.7-8.5-17.1-24.8
	c0.6-16.3-6.2-19.9-19-32.5c-12.8-12.6-10.2-39.8-5-41.5c5.2-1.7,0.9,6,9,14.5s28.6,4.7,37.6,11s2.5,21.3,13.4,30.3
	s30.2-1.9,39.6,7.3c9.4,9.2,1.2,27.1,9.1,37.4s24.1,11.9,33.3,19.2c5.2,4.1,12.9,10.3,16.9,19.9L382.8,518.3z"/>
<path class="st4" d="M426.2,518.3l-13-15.1l-49.8-8.5c0-0.9-0.1-1.8-0.1-2.8l47.2,8l-8.9-10.3l-39.3-6.7c-0.2-1-0.4-1.9-0.7-2.9
	l37.2,6.3l-6.7-7.8l-0.1-0.1l-19.3-22.3l-29.1-5c0-1,0-1.9-0.1-2.8l26.5,4.5l-17-19.6l-0.1-0.1L325,400.7c-0.4-0.6-0.2-1.5,0.4-1.9
	c0.5-0.3,1.1-0.3,1.6,0.1l25.4,29.5l-1.7-28.4l2.7,0.4l1.9,31.4l19.1,22.2l0.1,0.1l17.6,20.5l3.4-36.1l2.7-0.1l-3.6,39.1l6.7,7.8
	l4.6-47.3c0.9,0,1.8,0,2.7,0l-4.8,49.4l0.4,0.1c0.7,0.1,1.2,0.8,1.1,1.5l0,0c0,0.2-0.1,0.4-0.2,0.6l9.9,11.5l0.1,0.1l14.8,17.2
	L426.2,518.3z M431.2,518.3l3.2-33.6c0.8,0.6,1.7,1.1,2.5,1.6l-3.1,32H431.2z M438.5,518.3l2.9-29.8c0.9,0.4,1.7,0.8,2.6,1.1
	l-2.8,28.6L438.5,518.3L438.5,518.3z M456.2,518.3l2.1-22.2c0.9,0.5,1.7,1.1,2.5,1.6l-2,20.5L456.2,518.3z"/>
<path class="st7" d="M48.6,526.5h-5.5c-2.3,0-4.2-1.8-4.2-4.1l0,0l0,0c0-2.3,1.9-4.1,4.1-4.1h5.5c2.3,0,4.1,1.9,4.1,4.1l0,0
	C52.7,524.6,50.9,526.5,48.6,526.5z"/>
<path class="st7" d="M59.3,526.6h787.9c3,0,5.4-1.9,5.4-4.1l0,0c0-2.3-2.5-4.1-5.4-4.1H59.3c-3,0-5.4,1.9-5.4,4.1l0,0
	C53.8,524.7,56.3,526.6,59.3,526.6z"/>
<path class="st6" d="M829,286"/>
<path class="st3" d="M841.4,338.2c0-0.6-0.5-1.1-1.1-1.1s-1.1,0.5-1.1,1.1v2.7h-2.7c-0.6,0-1.1,0.5-1.1,1.1s0.5,1.1,1.1,1.1l0,0h2.7
	v2.7c0,0.6,0.5,1.1,1.1,1.1s1.1-0.5,1.1-1.1v-2.7h2.7c0.6,0,1.1-0.5,1.1-1.1s-0.5-1.1-1.1-1.1h-2.7V338.2z"/>
<path class="st7" d="M584.3,299.6h-76.4c-2.8,0-5.1,2.2-5.1,5.1l0,0c0,2.8,2.2,5.1,5.1,5.1h76.4c2.8,0,5.1-2.2,5.1-5.1l0,0
	C589.4,301.9,587.1,299.6,584.3,299.6z"/>
<path class="st8" d="M581.7,263.7h-35.4c-0.3,0-0.6,0.2-0.6,0.6l-6.3,44.9c0,0.2,0.1,0.4,0.3,0.6h0.1h48.3c0.2,0,0.4-0.2,0.4-0.4
	v-0.1l-6.3-44.9C582.2,263.9,581.9,263.7,581.7,263.7z"/>
<path class="st8" d="M602.8,299.6h-76.4c-2.8,0-5.1,2.2-5.1,5.1l0,0c0,2.8,2.2,5.1,5.1,5.1h76.4c2.8,0,5.1-2.2,5.1-5.1l0,0
	C607.9,301.9,605.6,299.6,602.8,299.6z"/>
<path class="st9" d="M472,164.6h169.4c1.5,0,2.6,1.1,2.6,2.6v113.2c0,1.5-1.1,2.6-2.6,2.6H472c-1.5,0-2.6-1.1-2.6-2.6l0,0V167.2
	C469.3,165.7,470.5,164.6,472,164.6L472,164.6z"/>
<path class="st10" d="M480.2,164.6h169.4c1.5,0,2.6,1.1,2.6,2.6l0,0v113.3c0,1.5-1.1,2.6-2.6,2.6H480.2c-1.5,0-2.6-1.1-2.6-2.6
	V167.2C477.6,165.7,478.9,164.6,480.2,164.6z"/>
<path class="st11" d="M648.2,166.3H481.7c-0.9,0-1.7,0.8-1.7,1.7v102.1c0,0.7,0.4,1.1,1.1,1.1h167.8c0.7,0,1.1-0.4,1.1-1.1V168
	C650,167.1,649.2,166.3,648.2,166.3L648.2,166.3z"/>
<rect x="484.8" y="171.1" class="st12" width="160.1" height="95.1"/>
<path class="st11" d="M550.1,287.7l-1.7,11.9h-7.6l2.4-16.5H585l0.6,4.2h-34.8C550.4,287.1,550.2,287.4,550.1,287.7z"/>
<rect x="484.8" y="171.1" class="st13" width="160.7" height="5.5"/>
<rect x="485.8" y="172.4" class="st14" width="40.4" height="3.1"/>
<path class="st15" d="M524.2,174.6c0.3,0,0.7-0.3,0.7-0.7c0-0.3-0.3-0.7-0.7-0.7s-0.7,0.3-0.7,0.7l0,0
	C523.6,174.3,523.9,174.6,524.2,174.6z"/>
<path class="st15" d="M522.2,174.6c0.3,0,0.7-0.3,0.7-0.7c0-0.3-0.3-0.7-0.7-0.7c-0.3,0-0.7,0.3-0.7,0.7l0,0
	C521.5,174.3,521.8,174.6,522.2,174.6z"/>
<path class="st15" d="M520.1,174.6c0.3,0,0.7-0.3,0.7-0.7c0-0.3-0.3-0.7-0.7-0.7s-0.7,0.3-0.7,0.7l0,0
	C519.4,174.3,519.7,174.6,520.1,174.6z"/>
<rect x="528.2" y="172.4" class="st14" width="40.4" height="3.1"/>
<path class="st15" d="M566.6,174.6c0.3,0,0.7-0.4,0.6-0.8c0-0.3-0.3-0.6-0.6-0.6c-0.3,0-0.8,0.2-0.8,0.6s0.2,0.8,0.6,0.8
	C566.5,174.6,566.5,174.6,566.6,174.6z"/>
<path class="st15" d="M564.4,174.6c0.3,0,0.7-0.4,0.6-0.8c0-0.3-0.3-0.6-0.6-0.6c-0.3,0-0.8,0.2-0.8,0.6s0.2,0.8,0.6,0.8
	C564.3,174.6,564.4,174.6,564.4,174.6z"/>
<path class="st15" d="M562.4,174.6c0.3,0,0.7-0.3,0.7-0.7c0-0.3-0.3-0.7-0.7-0.7c-0.3,0-0.7,0.3-0.7,0.7l0,0
	C561.6,174.3,562,174.6,562.4,174.6z"/>
<path class="st16" d="M507.8,255.1H622c0.4,0,0.9,0.3,0.9,0.9l0,0c0,0.4-0.3,0.9-0.9,0.9H507.8c-0.4,0-0.9-0.3-0.9-0.9l0,0
	C506.9,255.5,507.4,255.1,507.8,255.1z"/>
<g class="st17">
	<path class="st13" d="M527.8,246.4v-13.9h-25.1v-6.5l26.4-37.5h5.8v37.5h7.8v6.5h-7.8v13.9H527.8z M527.8,226.1V200l-18.1,26.1
		H527.8z"/>
	<path class="st13" d="M550,217.9c0-6.8,0.7-12.4,2.1-16.5s3.5-7.4,6.3-9.7c2.8-2.3,6.3-3.4,10.5-3.4c3.1,0,5.8,0.6,8.2,1.9
		c2.3,1.3,4.3,3.1,5.8,5.4c1.5,2.4,2.7,5.2,3.6,8.6c0.9,3.4,1.3,7.9,1.3,13.7c0,6.8-0.7,12.3-2.1,16.4c-1.4,4.2-3.5,7.4-6.3,9.7
		c-2.8,2.3-6.3,3.4-10.5,3.4c-5.6,0-10-2-13.1-6C551.9,236.6,550,228.8,550,217.9z M557.3,217.9c0,9.5,1.1,15.8,3.3,19
		c2.2,3.1,5,4.7,8.2,4.7c3.3,0,6-1.6,8.2-4.7c2.2-3.2,3.3-9.5,3.3-19c0-9.5-1.1-15.9-3.3-19c-2.2-3.1-5-4.7-8.3-4.7
		c-3.3,0-5.9,1.4-7.8,4.1C558.5,201.9,557.3,208.4,557.3,217.9z"/>
	<path class="st13" d="M617.8,246.4v-13.9h-25.1v-6.5l26.4-37.5h5.8v37.5h7.8v6.5h-7.8v13.9H617.8z M617.8,226.1V200l-18.1,26.1
		H617.8z"/>
</g>
<path class="st11" d="M563.8,294.6H663c5.6,0,10.1,4.5,10.1,10.1l0,0c0,5.6-4.5,10.1-10.1,10.1h-99.3c-5.6,0-10.1-4.5-10.1-10.1l0,0
	C553.6,299,558.1,294.6,563.8,294.6z"/>
<path class="st18" d="M544.8,294.6h46c5.6,0,10.1,4.5,10.1,10.1l0,0c0,5.6-4.5,10.1-10.1,10.1h-46c-5.6,0-10.1-4.5-10.1-10.1l0,0
	C534.7,299,539.2,294.6,544.8,294.6z"/>
<path class="st19" d="M493.5,311.1h307.9c3.1,0,5.6,2.6,5.6,5.6v26.4c0,3.1-2.6,5.6-5.6,5.6H493.5c-3.1,0-5.6-2.6-5.6-5.6v-26.4
	C487.8,313.5,490.4,311.1,493.5,311.1z"/>
<path class="st7" d="M493.3,311.1h308.3c3,0.1,5.5,2.6,5.5,5.6V327c0,3-2.5,5.5-5.5,5.6H493.3c-3-0.1-5.5-2.6-5.5-5.6v-10.3
	C487.8,313.6,490.3,311.1,493.3,311.1z"/>
<path class="st9" d="M408.9,311.5h85.2c3.3,0,5.8,2.6,5.8,5.8v194.1c0,3.3-2.6,5.8-5.8,5.8h-85.2c-3.3,0-5.8-2.6-5.8-5.8V317.4
	C403.1,314.1,405.6,311.5,408.9,311.5z"/>
<path class="st19" d="M493,311.5h76.3c2.9,0,5.3,2.4,5.3,5.3v195.3c0,2.9-2.4,5.3-5.3,5.3H493c-2.9,0-5.3-2.4-5.3-5.3V316.8
	C487.8,313.9,490.1,311.5,493,311.5z"/>
<path class="st20" d="M489.7,304.7h330.5c1,0,1.9,0.9,1.9,1.9v9c0,1-0.9,1.9-1.9,1.9H489.7c-1,0-1.9-0.9-1.9-1.9v-9
	C487.8,305.5,488.7,304.7,489.7,304.7z"/>
<path class="st21" d="M395,304.7h94.3c1,0,1.9,0.9,1.9,1.9v9c0,1-0.9,1.9-1.9,1.9H395c-1,0-1.9-0.9-1.9-1.9v-9
	C393.1,305.5,394,304.7,395,304.7z"/>
<path class="st13" d="M498.6,324h65c2.4,0,4.4,1.9,4.4,4.4v50.4c0,2.4-1.9,4.4-4.4,4.4h-65c-2.4,0-4.4-1.9-4.4-4.4v-50.4
	C494.2,325.9,496.3,324,498.6,324z"/>
<path class="st22" d="M568,379.3h-64.1c-1.7,0-3.1-0.9-3.9-2.5c-0.3-0.6-0.4-1.2-0.4-1.9v-50.4c0-0.2,0-0.4,0-0.7h-0.9
	c-2.4,0-4.4,1.9-4.4,4.4v50.4c0,2.4,1.9,4.4,4.4,4.4h65C565.8,383.1,567.7,381.5,568,379.3z"/>
<path class="st23" d="M515.5,327.5h31.4c0.9,0,1.7,0.8,1.7,1.7v0.6c0,0.9-0.8,1.7-1.7,1.7h-31.4c-0.9,0-1.7-0.8-1.7-1.7v-0.6
	C513.8,328.1,514.6,327.5,515.5,327.5z"/>
<path class="st13" d="M498.6,386.2h65c2.4,0,4.4,1.9,4.4,4.4V441c0,2.4-1.9,4.4-4.4,4.4h-65c-2.4,0-4.4-1.9-4.4-4.4v-50.4
	C494.2,388.2,496.3,386.2,498.6,386.2z"/>
<path class="st22" d="M568,441.7h-64.1c-1.7,0-3.1-0.9-3.9-2.5c-0.3-0.6-0.4-1.2-0.4-1.9v-50.4c0-0.2,0-0.4,0-0.7h-0.9
	c-2.4,0-4.4,1.9-4.4,4.4V441c0,2.4,1.9,4.4,4.4,4.4h65C565.9,445.4,567.7,443.8,568,441.7z"/>
<path class="st23" d="M515.5,389.7h31.4c0.9,0,1.7,0.8,1.7,1.7v0.6c0,0.9-0.8,1.7-1.7,1.7h-31.4c-0.9,0-1.7-0.8-1.7-1.7v-0.6
	C513.8,390.5,514.6,389.7,515.5,389.7z"/>
<path class="st13" d="M498.6,448.5h65c2.4,0,4.4,1.9,4.4,4.4v50.4c0,2.4-1.9,4.4-4.4,4.4h-65c-2.4,0-4.4-1.9-4.4-4.4v-50.4
	C494.2,450.4,496.3,448.5,498.6,448.5z"/>
<path class="st22" d="M568,503.9h-64.1c-1.7,0-3.1-0.9-3.9-2.5c-0.3-0.6-0.4-1.2-0.4-1.9v-50.4c0-0.2,0-0.4,0-0.7h-0.9
	c-2.4,0-4.4,2-4.4,4.4v50.4c0,2.4,1.9,4.4,4.4,4.4h65C565.9,507.6,567.7,506,568,503.9z"/>
<path class="st23" d="M515.5,452h31.4c0.9,0,1.7,0.8,1.7,1.7v0.6c0,0.9-0.8,1.7-1.7,1.7h-31.4c-0.9,0-1.7-0.8-1.7-1.7v-0.6
	C513.8,452.7,514.6,452,515.5,452z"/>
<path class="st24" d="M743.6,311.5h11.8c0.3,0,0.6,0.2,0.6,0.6v207.2c0,0.3-0.2,0.6-0.6,0.6h-11.8c-0.3,0-0.6-0.2-0.6-0.6V312.1
	C743.1,311.7,743.3,311.5,743.6,311.5z"/>
<path class="st13" d="M751.5,311.5h3.7c1.5,0,2.6,1.1,2.6,2.6v203c0,1.5-1.1,2.6-2.6,2.6h-3.7c-1.5,0-2.6-1.1-2.6-2.6v-203
	C748.9,312.6,750.1,311.5,751.5,311.5z"/>
<path class="st24" d="M798.7,311.5h11.8c0.3,0,0.6,0.2,0.6,0.6v207.2c0,0.3-0.2,0.6-0.6,0.6h-11.8c-0.3,0-0.6-0.2-0.6-0.6V312.1
	C798.1,311.7,798.4,311.5,798.7,311.5z"/>
<path class="st13" d="M806.7,311.5h3.7c1.5,0,2.6,1.1,2.6,2.6v203c0,1.5-1.1,2.6-2.6,2.6h-3.7c-1.5,0-2.6-1.1-2.6-2.6v-203
	C804,312.6,805.2,311.5,806.7,311.5z"/>
<path class="st25" d="M628.3,304.7h191.9c1,0,1.9,0.9,1.9,1.9v9c0,1-0.9,1.9-1.9,1.9H640.9C637.2,312.6,633,308.4,628.3,304.7z"/>
<path class="st26" d="M698.1,249l2.5,4c0,0,0.9,4.9-0.4,8.2c-1.3,3.3,15.9,7,15.9,7l13.5-10.9l3-3.7c0,0-6.3-6.9-6.7-9.9
	C725.4,240.7,698.1,249,698.1,249z"/>
<path class="st27" d="M668.1,287.5c0,0-9.1,7.3-12.2,7.9c-3.1,0.6-17-5.8-19.8-6.5c-2.8-0.7-9-0.8-13.4-0.8c-4.4,0-9,1.7-11.3,6.5
	h9.3c2.5,0,11,6.9,19.1,12.5s14.7,10.2,20.1,9.7c5.4-0.6,24-14.5,24-14.5L668.1,287.5z"/>
<path class="st26" d="M639.7,307c8.2,5.6,14.7,10.2,20.1,9.7c5.4-0.6,24-14.5,24-14.5l-15.7-14.7c0,0-2.1,1.7-4.6,3.5
	c6.6,10.6,3.6,15-4.2,18.2c-6.2,2.5-22-6.2-32-11C630.8,300.6,635.3,304,639.7,307z"/>
<path class="st18" d="M742.3,373.3c0,0-47.1-0.4-52.8,0.1c-5.7,0.6-11.5,6.6-10.4,16.1s14.2,83.1,14.2,83.1c0.6,0.4,1.2,0.7,1.9,0.9
	c1,0.2,9.4,1.6,9.4,1.6l0.6-6.9l-4.9-71.6l43.3-7.9L742.3,373.3z"/>
<path class="st15" d="M705.1,468.2c0.7,0.2,1.2,0.8,1.5,1.6c0.7,3.5,1.1,7,1.2,10.6c-0.1,1.1-3,3.4-8,5.5
	c-4.9,2.1-23.8,7.6-23.8,7.6l-0.2-0.7c-0.6-0.3-1-0.9-1.2-1.6c-0.4-1.8-0.1-3.6,0.8-5.2c1-1.5,7.1-5.6,8.2-6.5s6.6-8.5,7.1-9.1
	c1.9-1.6,4.7-1.8,6.9-0.4C700.9,471.8,704.8,471.1,705.1,468.2z"/>
<path class="st16" d="M675.7,492.7c0,0,18.9-7,23-8.4c3.3-1.3,6.3-3.1,9-5.4c0.3,0.2,0.7,0.4,0.8,0.9c0.1,0.6,0.2,2.5,0.3,2.9
	c0,1.3-0.9,2.7-2.1,3.1c-2,0.9-28.4,10.1-29.6,10.6c-1.2,0.4-1.7-2.8-1.7-2.8S675.3,492.9,675.7,492.7z"/>
<path class="st28" d="M771.4,344.1c0,0-125.7,14.5-132.5,16.1c-6.9,1.6-12.7,9.7-10,20.8c2.7,11.1,30.8,100.7,30.8,100.7
	c0.8,0.4,1.6,0.7,2.4,0.8c1.2,0.1,11.6,0.4,11.6,0.4l4-4.2l-22.5-80l91.9-4.6C772.8,389.9,776.2,358.6,771.4,344.1z"/>
<path class="st29" d="M683,353.6c0,0,10,7.4,16.1,5.1c6.1-2.4,35-52.6,35-52.6l-13.9-50.2c-6.9,0.4-13.7,1.3-20.3,2.8l-2.1,1.9
	c0,0-8.2,1.3-12.8,6.6c-4.6,5.3-19.9,18.8-20.4,19.9s13.3,16.4,16.8,18.8c0.9,0.3,1.9,0.1,2.7-0.4l1.7-1.3c0,0,3.7,19.3,3.7,25.2
	v5.7c0,0-1.9,14.8-3.5,16.2C684.4,352.5,683,353.6,683,353.6z"/>
<path class="st16" d="M727.9,363.2c2.4,0,4.3-1.9,4.3-4.3s-1.9-4.3-4.3-4.3h-37.2c-8.6-0.1-16.1-6.1-18-14.5
	c-2.7,1.1-5.3,2.4-7.7,3.7c3.5,11.3,13.9,19.1,25.7,19.2h37.2V363.2z"/>
<rect x="728.2" y="396.5" class="st23" width="10.7" height="87.8"/>
<rect x="713.9" y="367.1" class="st9" width="10.4" height="23.8"/>
<rect x="785.9" y="367.1" class="st9" width="10.4" height="23.8"/>
<path class="st10" d="M728.2,394.5h10.7c3.4,0,6.2,2.8,6.2,6.2l0,0v11.5c0,3.4-2.8,6.2-6.2,6.2l0,0h-10.7c-3.4,0-6.2-2.8-6.2-6.2
	l0,0v-11.5C722,397.3,724.7,394.5,728.2,394.5z"/>
<path class="st23" d="M719.6,392.6h27.6c1,0,1.8,0.8,1.8,1.8v14.4c0,1-0.8,1.8-1.8,1.8h-27.6c-1,0-1.8-0.8-1.8-1.8v-14.4
	C717.8,393.4,718.6,392.6,719.6,392.6z"/>
<path class="st30" d="M651.5,385.9h86.6c3.3,0,6,2.7,6,6v6.7c0,3.3-2.7,6-6,6h-86.6c-3.3,0-6-2.7-6-6v-6.7
	C645.5,388.4,648.2,385.9,651.5,385.9z"/>
<path class="st31" d="M714.5,385.9h86.6c3.3,0,6,2.7,6,6v6.7c0,3.3-2.7,6-6,6h-86.6c-3.3,0-6-2.7-6-6v-6.7
	C708.5,388.6,711.2,385.9,714.5,385.9z"/>
<path class="st10" d="M728.2,478.7h10.7c3.4,0,6.2,2.8,6.2,6.2l0,0v11.5c0,3.4-2.8,6.2-6.2,6.2l0,0h-10.7c-3.4,0-6.2-2.8-6.2-6.2
	l0,0v-11.5C722,481.5,724.7,478.7,728.2,478.7z"/>
<path class="st23" d="M720.4,490.1h26.1c1.5,0,2.6,1.1,2.6,2.6v20.8c0,1.5-1.1,2.6-2.6,2.6h-26.1c-1.5,0-2.6-1.1-2.6-2.6v-20.8
	C717.8,491.2,719,490.1,720.4,490.1z"/>
<path class="st32" d="M761.9,509.6L761.9,509.6c0,4.3-3.5,7.6-7.6,7.6h-41.3c-4.3,0-7.6-3.5-7.6-7.6l0,0c0-4.3,3.5-7.6,7.6-7.6h41.3
	C758.4,502,761.7,505.4,761.9,509.6z"/>
<path class="st11" d="M802.1,517.3L802.1,517.3c0,4.3-3.5,7.6-7.6,7.6H689.3c-4.3,0-7.6-3.5-7.6-7.6l0,0c0-4.3,3.5-7.6,7.6-7.6
	h105.1C798.6,509.6,802.1,513,802.1,517.3z"/>
<path class="st7" d="M736.3,517.3L736.3,517.3c0,4.3-3.5,7.6-7.6,7.6h-56c-4.3,0-7.6-3.5-7.6-7.6l0,0c0-4.3,3.5-7.6,7.6-7.6h56
	C732.8,509.6,736.3,513,736.3,517.3z"/>
<path class="st16" d="M712.3,335c2.4-0.1,4.3,1.7,4.4,4c0.1,2.4-1.7,4.3-4,4.4c-0.1,0-0.3,0-0.4,0H675c-10.2,0-18.4,8.3-18.4,18.4
	v33.5c0.1,2.4-1.7,4.3-4,4.4c-2.4,0.1-4.3-1.7-4.4-4c0-0.1,0-0.3,0-0.4v-33.5c0-14.8,12-26.8,27-27h37.2V335z"/>
<path class="st33" d="M794.8,290.1c-0.1-25.5-20.7-46.2-46.2-46.2h-6.2c-25.5,0.1-46.2,20.7-46.2,46.2v68.7
	c0,6.5,5.3,11.8,11.9,11.9H783c6.5,0,11.8-5.3,11.9-11.9v-68.7H794.8z"/>
<path class="st34" d="M807.1,290.1c-0.1-25.5-20.7-46.2-46.2-46.2h-6.2c-25.5,0.1-46.2,20.7-46.2,46.2v68.7
	c0,6.5,5.3,11.9,11.9,11.9h74.8c6.5,0,11.8-5.3,11.9-11.9v-68.7H807.1z"/>
<path class="st15" d="M676.6,475.5c1,0,2,0.6,2.6,1.3c1,1.3,4.6,10.7,4.8,12s-3.7,4.9-10.9,8.9c-7.2,3.9-35,16.3-35,16.3l-0.6-0.8
	c-0.9-0.1-1.8-0.7-2.4-1.5c-1.1-1.9-1.2-4.4-0.2-6.4c1.2-2,9.5-8.9,11.1-10.2c1.6-1.3,8-12.1,8.5-12.9s4.6-3.8,10.6-2.6
	C671.1,480.9,677,479,676.6,475.5z"/>
<path class="st16" d="M637.7,513.3c0,0,27.5-13.9,33.5-16.8c6.1-2.9,12.6-9.1,12.6-9.1s1.1,0.1,1.5,0.8c0.4,1.1,0.9,2.1,1.2,3.3
	c0.2,0.4,0.4,2.7-2.5,4.4c-2.9,1.7-41.4,20.6-43.2,21.3c-1.8,0.8-3.4-2.8-3.4-2.8S637,513.7,637.7,513.3z"/>
<path class="st27" d="M690.1,192.4l4.5-1c10.7-2.5,21.3,4.2,23.9,14.8l4.9,21.3c2.5,10.7-4.2,21.3-14.8,23.9l-4.5,1
	c-10.7,2.5-21.3-4.2-23.9-14.8l-4.9-21.3C672.7,205.6,679.3,194.9,690.1,192.4z"/>
<path class="st26" d="M719.1,208.6l4.4,18.9c2.5,10.7-4.2,21.3-14.8,23.9l-4.5,1c-4.3,1-8.8,0.6-12.7-1.2c0.6,0.2,4.3,1.7,5.2-1.1
	c0.9-3-4.3-12.6-4.3-12.6c-0.2-0.4-0.1-0.9,0.1-1.2c2.1-3.7,2.8-8,2-12.2c-1.2-6.4,7-10.9,7-10.9l-19.2,5.2v3.9
	c-1.3-2.6-3.9-4.4-6.9-4.8l-0.2-1.1c-1.1-4.8-0.4-9.9,2-14.3C683.6,202.8,704.5,205.5,719.1,208.6z"/>
<path class="st11" d="M683.6,228.2c0,0-1.7-0.2-2.4-2.7s-0.8-3.3-0.8-3.3c-1.5-2.1-2.5-4.6-2.9-7.2c0,0-11.3-1.6-13.6-12.1
	c-2.2-10.6,7.5-21.6,9-22.7s7.5-3.1,15,0.2c0,0,1.3,0.8,3.8-0.2c2.5-1,16.4-4.9,23.1-5.2c6.7-0.2,11,6.7,14.3,15.2
	c0.3-2,1.8-3.7,3.8-4.2c3.4-0.7,1.6,5.6-0.9,7.9c0,0,5.7,3,6.9,9.1c1.1,6.2-1,33.5-6.2,38.9c-5.2,5.4-18.2,7.7-22.3,8.8
	s-12.4-3.4-15.7-14.7c0,0,1.7-5.7,0.2-10.3c-1.5-4.6-2.6-8.1-4.4-8.8c-1.8-0.6-6.1,3.9-6.4,6c-0.1,1.6,0,3.3,0.4,4.8
	C684.4,228.1,683.9,228.2,683.6,228.2z"/>
<path class="st18" d="M683.6,228.2c0,0-1.7-0.2-2.4-2.7s-0.8-3.3-0.8-3.3c-1.5-2.1-2.5-4.6-2.9-7.2c0,0-11.3-1.6-13.6-12.1
	c-2.2-10.6,7.5-21.6,9-22.7c0,0-10.7,11.7,1.1,17.6s29.2,9.8,40.7,9.1c11.5-0.7,19.5-20.6,19.5-20.6c1.3,1.2-0.2,5.8-2.2,7.5
	c0,0,5.7,3,6.9,9.1c1.1,6.2-1,33.5-6.2,38.9s-18.2,7.7-22.3,8.8s-12.4-3.4-15.7-14.7c0,0,1.7-5.7,0.2-10.3c-1.5-4.6-2.6-8.1-4.4-8.8
	c-1.8-0.6-6.1,3.9-6.4,6c-0.1,1.6,0,3.3,0.4,4.8C684.4,228.1,684,228.2,683.6,228.2z"/>
<path class="st3" d="M840.7,402.4c0-0.7-0.6-1.2-1.2-1.2s-1.2,0.6-1.2,1.2v3h-3c-0.7,0.1-1.2,0.7-1.1,1.5c0.1,0.7,0.6,1.1,1.1,1.1h3
	v3c0,0.7,0.6,1.2,1.2,1.2s1.2-0.6,1.2-1.2v-3h3c0.7,0.1,1.3-0.4,1.5-1.1c0.1-0.7-0.4-1.3-1.1-1.5c-0.1,0-0.1,0-0.2,0h-3v-3H840.7z"
	/>
<path class="st3" d="M763.8,136.8c0.1-0.7-0.4-1.3-1.1-1.5c-0.7-0.1-1.3,0.4-1.5,1.1c0,0.1,0,0.1,0,0.2v3.1h-3
	c-0.7,0-1.2,0.6-1.2,1.2s0.6,1.2,1.2,1.2l0,0h3v3.1c0.1,0.7,0.7,1.2,1.5,1.1c0.7-0.1,1.1-0.6,1.1-1.1v-3h3c0.7,0,1.2-0.6,1.2-1.2
	c0-0.7-0.6-1.2-1.2-1.2h-3V136.8z"/>
<path class="st3" d="M618.7,88.8c0-0.7-0.6-1.2-1.2-1.2s-1.2,0.6-1.2,1.2v3h-3c-0.7,0-1.2,0.6-1.2,1.2c0,0.7,0.6,1.2,1.2,1.2l0,0h3
	v3c0,0.7,0.6,1.2,1.2,1.2s1.2-0.6,1.2-1.2l0,0v-3h3c0.7,0,1.2-0.6,1.2-1.2c0-0.7-0.6-1.2-1.2-1.2h-3V88.8z"/>
<path class="st3" d="M260.1,344.3c-0.1-0.7-0.7-1.2-1.5-1.1c-0.7,0.1-1.1,0.6-1.1,1.1v3h-3c-0.7,0.1-1.2,0.7-1.1,1.5
	c0.1,0.7,0.6,1.1,1.1,1.1h2.9v3c0.1,0.7,0.7,1.2,1.5,1.1c0.7-0.1,1.1-0.6,1.1-1.1v-3h3c0.7-0.1,1.2-0.7,1.1-1.5
	c-0.1-0.7-0.6-1.1-1.1-1.1h-3L260.1,344.3z"/>
<path class="st3" d="M385,178.9c0-0.7-0.6-1.2-1.2-1.2s-1.2,0.6-1.2,1.2l0,0v3h-3c-0.7,0-1.2,0.6-1.2,1.2c0,0.7,0.6,1.2,1.2,1.2l0,0
	h3v3c0,0.7,0.6,1.2,1.2,1.2s1.2-0.6,1.2-1.2l0,0v-3h3c0.7,0,1.2-0.6,1.2-1.2c0-0.7-0.6-1.2-1.2-1.2l0,0h-3V178.9z"/>
<path class="st3" d="M238.3,466.3c0-0.7-0.6-1.2-1.2-1.2s-1.2,0.6-1.2,1.2v3h-3c-0.7,0.1-1.2,0.7-1.1,1.5c0.1,0.7,0.6,1.1,1.1,1.1h3
	v3c0,0.7,0.6,1.2,1.2,1.2s1.2-0.6,1.2-1.2v-3h3c0.7-0.1,1.2-0.7,1.1-1.5c-0.1-0.7-0.6-1.1-1.1-1.1h-3V466.3z"/>
<path class="st3" d="M123.6,373.4c0-0.7-0.6-1.2-1.2-1.2c-0.7,0-1.2,0.6-1.2,1.2v3H118c-0.7-0.1-1.3,0.4-1.5,1.1
	c-0.1,0.7,0.4,1.3,1.1,1.5c0.1,0,0.1,0,0.2,0h3v3c0,0.7,0.6,1.2,1.2,1.2c0.7,0,1.2-0.6,1.2-1.2v-3h3c0.7-0.1,1.2-0.7,1.1-1.5
	c-0.1-0.7-0.6-1.1-1.1-1.1h-2.8V373.4z"/>
<path class="st35" d="M434.4,368.5c18.2-9.7,22.8,11.3,15.7,28.7c-7.1,17.4-43.3,75.9-45.3,99.2c-0.7,9-2.4,8-3.8,1.7
	C394,466.6,409.5,381.7,434.4,368.5z"/>
<path class="st36" d="M396,288.7c-20.9-18.8-33.8,7.5-30.2,32.8c3.6,25.4,32.2,114.7,27.1,146c-2,12.1,0.6,11.3,4.5,3.5
	C417.1,431.8,424.6,314.5,396,288.7z"/>
<path class="st37" d="M392.4,476.3c0.4,1.1,1.5,0.6,2.8-1.3c21.7-72.3-12.1-180.4-12.2-180.7c-0.2-0.6-0.8-0.9-1.5-0.8
	c-0.6,0.2-0.9,0.8-0.8,1.5C380.8,295.1,415.1,404.7,392.4,476.3z"/>
<path class="st35" d="M386.8,368.1c-18-7.8-20.8,12.5-12.8,28.5s46.8,68.9,50.3,90.8c1.4,8.5,2.9,7.4,3.8,1.3
	C432.5,458.3,411.5,378.9,386.8,368.1z"/>
<polygon class="st8" points="378.9,476.3 417.7,476.3 427.8,485.4 419.4,517.3 398.2,517.3 377,517.3 368.8,485.4 "/>
<path class="st10" d="M368.8,464.4h59.1c1.8,0,3.3,1.5,3.3,3.3v14.6c0,1.8-1.5,3.3-3.3,3.3h-59.1c-1.8,0-3.3-1.5-3.3-3.3v-14.6
	C365.5,465.8,367,464.4,368.8,464.4z"/>
<polygon class="st11" points="427.8,485.4 426.1,492 370.5,492 368.8,485.4 "/>
<path class="st38" d="M203.9,126.5l-16.5-15.7l-5.8-5.5c-2.1-2.1-4.6-3-7.2-2.9l-109.9,7.3c-4.5,0.3-8.1,4.3-9.7,9.8
	c-0.8,2.7-1.1,5.6-0.9,8.5l1.6,24.5c0.2,2.9,0.8,5.6,1.9,8.3c2.4,5.3,6.5,8.7,10.9,8.5l110-7.2c2.5-0.2,4.8-1.5,6.7-3.8l5-6.2
	l14.3-17.6C206.2,132.4,205.9,128.3,203.9,126.5z"/>
<path class="st39" d="M148.4,104.6c-3.4-1-92.9,0.7-93.5,3.6c-2.1,8.4-3.2,17.1-3.3,25.8c0.1,8.6,1.2,17.1,3.4,25.4
	c0.7,2.8,90.2,4.5,93.5,3.6c10-2.7,19.7-6.3,29.2-10.6c9-4.3,17.6-9.2,25.7-15c2.7-1.9,2.7-5.3,0-7.2c-8.1-5.8-16.7-10.7-25.7-15
	C168.2,110.9,158.4,107.3,148.4,104.6z"/>
<path class="st38" d="M68.5,169.4l110-7.2c2.5-0.2,4.8-1.5,6.7-3.8l5-6.2l14.3-17.7c1.7-2.1,1.4-6.1-0.5-8l-16.5-15.7l-5.8-5.5
	c-2.1-2.1-4.6-3-7.2-2.9"/>
<path class="st40" d="M154.3,150.6c-0.5-10.6-0.5-21.3,0-31.8C154.8,129.3,154.8,140,154.3,150.6z"/>
<g>
	<path class="st40" d="M69.5,126.3h6.2c1.8,0,3.2,0.4,4,1.3c0.9,0.9,1.3,2.1,1.3,3.8c0,2.6-1,4.3-3.1,4.9l3.2,6.8h-2.1l-3-6.4h-4.7
		v6.4h-1.9L69.5,126.3L69.5,126.3z M75.8,135c2.3,0,3.4-1.2,3.4-3.5c0-2.4-1.2-3.5-3.5-3.5h-4.4v7C71.4,135,75.8,135,75.8,135z"/>
	<path class="st40" d="M85.6,142.7c-0.8-0.4-1.3-1.1-1.6-2c-0.3-0.9-0.5-2.1-0.5-3.6c0-1.5,0.2-2.8,0.5-3.7c0.3-0.9,0.9-1.6,1.6-2.1
		c0.8-0.4,1.8-0.7,3-0.7c1.3,0,2.3,0.2,3,0.7c0.7,0.4,1.3,1.1,1.6,2.1c0.4,0.9,0.5,2.1,0.5,3.7c0,1.5-0.2,2.7-0.5,3.6
		c-0.3,0.9-0.9,1.6-1.6,2c-0.7,0.4-1.8,0.7-3.1,0.7C87.3,143.3,86.3,143.1,85.6,142.7z M90.7,141.3c0.5-0.3,0.8-0.8,1-1.5
		c0.2-0.7,0.3-1.6,0.3-2.8c0-1.3-0.1-2.2-0.3-2.9c-0.2-0.7-0.5-1.2-1-1.5c-0.5-0.3-1.2-0.4-2-0.4c-0.9,0-1.6,0.1-2,0.4
		c-0.4,0.3-0.8,0.8-1,1.5c-0.2,0.7-0.3,1.6-0.3,2.9c0,1.2,0.1,2.1,0.3,2.8c0.2,0.7,0.5,1.2,1,1.5c0.5,0.3,1.2,0.4,2.1,0.4
		C89.6,141.8,90.3,141.6,90.7,141.3z"/>
	<path class="st40" d="M97.1,142.9l-0.9-0.1l0.2-1.5c2.2,0.3,3.9,0.4,5,0.4c2.4,0,3.6-1.2,3.6-3.4c0-0.6-0.1-1.1-0.3-1.5
		c-0.2-0.4-0.6-0.7-1.1-0.9c-0.5-0.2-1.3-0.4-2.3-0.6c-1.3-0.3-2.4-0.6-3.1-1s-1.3-0.9-1.6-1.5c-0.4-0.6-0.5-1.4-0.5-2.4
		c0-3,1.8-4.5,5.4-4.5c1.3,0,2.9,0.2,5.1,0.5l-0.2,1.6c-2.3-0.3-3.9-0.4-4.8-0.4c-2.4,0-3.6,0.9-3.6,2.7c0,0.7,0.1,1.2,0.4,1.6
		c0.2,0.4,0.6,0.7,1.2,0.9c0.5,0.2,1.5,0.5,2.7,0.7c1.2,0.3,2.1,0.6,2.8,0.9c0.7,0.4,1.2,0.8,1.5,1.3c0.3,0.5,0.5,1.3,0.5,2.2
		c0,3.5-1.8,5.2-5.3,5.2C100.4,143.3,98.9,143.2,97.1,142.9z"/>
	<path class="st40" d="M109.9,142.4c-0.6-0.6-0.9-1.5-0.9-2.7c0-1.2,0.3-2,0.9-2.6c0.6-0.5,1.5-0.9,2.9-1l3.8-0.4v-1
		c0-1.5-0.7-2.3-2-2.3c-1.3,0-2.9,0.1-4.8,0.3l-0.1-1.4c1.8-0.4,3.3-0.5,4.7-0.5c1.4,0,2.4,0.3,3,0.9c0.6,0.6,0.9,1.6,0.9,3v6.2
		c0.1,0.6,0.5,1,1.4,1.1l-0.1,1.5c-1.3,0-2.2-0.3-2.9-1c-1.5,0.7-2.9,1-4.4,1C111.3,143.3,110.5,143,109.9,142.4z M116,141.2
		l0.5-0.2v-4l-3.6,0.4c-0.7,0.1-1.3,0.3-1.6,0.6c-0.3,0.4-0.5,0.9-0.5,1.6c0,1.5,0.6,2.2,1.8,2.2C113.8,141.8,114.9,141.6,116,141.2
		z"/>
	<path class="st40" d="M122.1,142.4c-0.6-0.6-0.9-1.5-0.9-2.7c0-1.2,0.3-2,0.9-2.6c0.6-0.5,1.5-0.9,2.9-1l3.8-0.4v-1
		c0-1.5-0.7-2.3-2-2.3c-1.3,0-2.9,0.1-4.8,0.3l-0.1-1.4c1.8-0.4,3.3-0.5,4.7-0.5s2.4,0.3,3,0.9s0.9,1.6,0.9,3v6.2
		c0.1,0.6,0.5,1,1.4,1.1l-0.1,1.5c-1.3,0-2.2-0.3-2.9-1c-1.5,0.7-2.9,1-4.4,1C123.5,143.3,122.7,143,122.1,142.4z M128.2,141.2
		l0.5-0.2v-4l-3.6,0.4c-0.7,0.1-1.3,0.3-1.6,0.6c-0.3,0.4-0.5,0.9-0.5,1.6c0,1.5,0.6,2.2,1.8,2.2C126,141.8,127.1,141.6,128.2,141.2
		z"/>
	<path class="st40" d="M134.6,142.9l-0.9-0.1l0.2-1.6c2.2,0.3,3.9,0.4,5,0.4c2.4,0,3.6-1.2,3.6-3.4c0-0.6-0.1-1.1-0.3-1.5
		c-0.2-0.4-0.6-0.7-1.1-0.9c-0.5-0.2-1.3-0.4-2.3-0.6c-1.3-0.3-2.4-0.6-3.1-1s-1.3-0.9-1.6-1.5c-0.4-0.6-0.5-1.4-0.5-2.4
		c0-3,1.8-4.5,5.4-4.5c1.3,0,2.9,0.2,5.1,0.5l-0.2,1.6c-2.3-0.3-3.9-0.4-4.8-0.4c-2.4,0-3.6,0.9-3.6,2.7c0,0.7,0.1,1.2,0.4,1.6
		c0.2,0.4,0.6,0.7,1.2,0.9c0.5,0.2,1.5,0.5,2.7,0.7c1.2,0.3,2.1,0.6,2.8,0.9c0.7,0.4,1.2,0.8,1.5,1.3s0.5,1.3,0.5,2.2
		c0,3.5-1.8,5.2-5.3,5.2C137.9,143.3,136.4,143.2,134.6,142.9z"/>
</g>
<g>
	<path d="M52.1,217l4-6.1h1.1v6.1h1.6v0.9h-1.6v1.9h-1v-1.9h-4V217z M53.1,217h3v-4.7L53.1,217z"/>
	<path d="M66.3,215.3c0,1.5-0.3,2.6-1,3.5c-0.6,0.7-1.3,1.1-2.2,1.1c-1.1,0-1.9-0.5-2.5-1.4c-0.5-0.8-0.7-1.9-0.7-3.1
		c0-1.4,0.3-2.6,1-3.4c0.6-0.8,1.3-1.2,2.2-1.2c1,0,1.8,0.5,2.4,1.5C66.1,213.1,66.3,214.1,66.3,215.3z M63.1,211.6
		c-0.6,0-1.1,0.3-1.5,1c-0.4,0.6-0.5,1.5-0.5,2.7c0,1.2,0.2,2.2,0.6,2.8c0.4,0.6,0.9,0.9,1.5,0.9c0.6,0,1.2-0.3,1.5-1
		c0.4-0.7,0.6-1.6,0.6-2.8c0-1.2-0.2-2.1-0.6-2.8C64.3,211.9,63.8,211.6,63.1,211.6z"/>
	<path d="M67.5,217l4-6.1h1.1v6.1h1.6v0.9h-1.6v1.9h-1v-1.9h-4V217z M68.6,217h3v-4.7L68.6,217z"/>
	<path d="M77.2,219.2C77.2,219.2,77.2,219.2,77.2,219.2c0,0.4-0.2,0.6-0.6,0.6c-0.4,0-0.6-0.2-0.6-0.6c0-0.4,0.2-0.6,0.6-0.6
		S77.2,218.8,77.2,219.2z"/>
	<path class="st39" d="M82.2,211.8v-0.9h6.7v0.9h-2.9v8h-1v-8H82.2z"/>
	<path class="st39" d="M95.6,219.8h-0.9V216c0-1.3-0.6-2-1.8-2c-0.3,0-0.6,0.1-1,0.2c-0.3,0.2-0.6,0.4-0.7,0.6v4.9h-0.9v-8.5
		l0.9-0.5v3.3c0.6-0.6,1.3-0.8,2-0.8c1.6,0,2.4,0.9,2.4,2.7V219.8z"/>
	<path class="st39" d="M102.4,219.8h-0.7l-0.1-0.7c-0.6,0.6-1.3,0.9-2.1,0.9c-0.6,0-1.2-0.2-1.5-0.5c-0.4-0.4-0.6-0.8-0.6-1.4
		c0-1.5,1.1-2.2,3.2-2.2h1v-0.1c0-1.1-0.5-1.7-1.6-1.7c-0.6,0-1.2,0.2-1.8,0.6l-0.3-0.5c0.6-0.6,1.4-0.9,2.4-0.9
		c0.7,0,1.3,0.2,1.7,0.7s0.6,1.1,0.6,2V219.8z M101.5,216.5h-0.9c-1.5,0-2.3,0.5-2.3,1.4c0,0.4,0.1,0.7,0.4,0.9
		c0.2,0.2,0.6,0.3,1,0.3c0.4,0,0.7-0.1,1.1-0.3c0.3-0.2,0.6-0.4,0.7-0.7V216.5z"/>
	<path class="st39" d="M106,214.2l0,4c0,0.7,0.3,1,0.8,1c0.3,0,0.6-0.1,0.9-0.2l0.3,0.5c-0.5,0.3-0.9,0.5-1.4,0.5
		c-0.5,0-0.9-0.2-1.1-0.5c-0.3-0.3-0.4-0.7-0.4-1.3v-4h-1v-0.8h1V212l0.9-0.5v1.9h1.9v0.8H106z"/>
	<path class="st39" d="M110.1,212.2c-0.4,0-0.6-0.2-0.6-0.6c0,0,0,0,0,0c0-0.2,0.1-0.4,0.2-0.5s0.3-0.2,0.5-0.2
		c0.5,0,0.7,0.3,0.7,0.9v1.5l-0.4,0.2v-1.2H110.1z"/>
	<path class="st39" d="M116.2,214.4c-0.5-0.2-1-0.4-1.5-0.4c-0.4,0-0.7,0.1-0.9,0.2c-0.2,0.2-0.3,0.4-0.3,0.7c0,0.3,0.1,0.5,0.3,0.7
		c0.2,0.2,0.6,0.3,1.1,0.5c0.8,0.2,1.3,0.5,1.6,0.8c0.3,0.3,0.4,0.7,0.4,1.2c0,0.6-0.2,1-0.6,1.3c-0.4,0.3-0.9,0.5-1.6,0.5
		c-0.9,0-1.6-0.2-2.2-0.7c0,0,0.1-0.1,0.1-0.2c0.1-0.1,0.1-0.2,0.2-0.3c0.5,0.3,1.1,0.4,1.8,0.4c1,0,1.5-0.4,1.5-1.1
		c0-0.3-0.1-0.5-0.3-0.7c-0.2-0.2-0.6-0.3-1.2-0.5c-1.3-0.4-2-1-2-1.9c0-0.5,0.2-0.9,0.6-1.2c0.4-0.3,0.9-0.5,1.5-0.5
		c0.7,0,1.4,0.2,1.9,0.6L116.2,214.4z"/>
	<path class="st39" d="M126.7,219.8H126l-0.1-0.7c-0.6,0.6-1.3,0.9-2.1,0.9c-0.6,0-1.2-0.2-1.5-0.5c-0.4-0.4-0.6-0.8-0.6-1.4
		c0-1.5,1.1-2.2,3.2-2.2h1v-0.1c0-1.1-0.5-1.7-1.6-1.7c-0.6,0-1.2,0.2-1.8,0.6l-0.3-0.5c0.6-0.6,1.4-0.9,2.4-0.9
		c0.7,0,1.3,0.2,1.7,0.7s0.6,1.1,0.6,2V219.8z M125.8,216.5H125c-1.5,0-2.3,0.5-2.3,1.4c0,0.4,0.1,0.7,0.4,0.9
		c0.2,0.2,0.6,0.3,1,0.3c0.4,0,0.7-0.1,1.1-0.3c0.3-0.2,0.6-0.4,0.7-0.7V216.5z"/>
	<path class="st39" d="M134.3,219.8h-0.9V216c0-1.3-0.6-2-1.7-2c-0.3,0-0.7,0.1-1,0.2c-0.3,0.2-0.6,0.4-0.8,0.6v4.9h-0.9v-6.4h0.8
		l0.1,0.7h0c0.6-0.6,1.2-0.8,2.1-0.8c1.6,0,2.4,0.9,2.4,2.7V219.8z"/>
	<path class="st39" d="M144.9,216.9h-4.5c0,0.7,0.3,1.2,0.7,1.6c0.4,0.4,1,0.6,1.7,0.6c0.6,0,1.1-0.2,1.7-0.5l0.3,0.6
		c-0.6,0.5-1.4,0.7-2.2,0.7c-1,0-1.8-0.3-2.4-1c-0.6-0.6-0.8-1.4-0.8-2.3c0-1,0.3-1.8,0.9-2.5c0.5-0.6,1.2-0.9,2-0.9
		c0.9,0,1.7,0.4,2.2,1.1c0.4,0.6,0.6,1.3,0.6,2.2V216.9z M140.3,216.1h3.6c0-0.7-0.2-1.2-0.5-1.6s-0.7-0.6-1.3-0.6
		c-0.5,0-0.9,0.2-1.3,0.6C140.6,215,140.4,215.5,140.3,216.1z"/>
	<path class="st39" d="M150.8,213.9l-0.8,0.5c-0.3-0.3-0.7-0.4-1-0.4c-0.5,0-1,0.3-1.4,0.8v4.9h-0.9v-6.4h0.8l0.1,0.7h0
		c0.6-0.6,1.1-0.8,1.7-0.8C149.9,213.2,150.5,213.5,150.8,213.9z"/>
	<path class="st39" d="M156.3,213.9l-0.8,0.5c-0.3-0.3-0.7-0.4-1-0.4c-0.5,0-1,0.3-1.4,0.8v4.9h-0.9v-6.4h0.8l0.1,0.7h0
		c0.6-0.6,1.1-0.8,1.7-0.8C155.4,213.2,155.9,213.5,156.3,213.9z"/>
	<path class="st39" d="M163.3,216.6c0,1-0.3,1.8-1,2.5c-0.6,0.6-1.3,0.9-2.1,0.9c-1,0-1.7-0.4-2.3-1.1c-0.5-0.6-0.7-1.4-0.7-2.2
		c0-1,0.3-1.9,0.9-2.5c0.6-0.6,1.3-0.9,2.1-0.9c1,0,1.8,0.4,2.3,1.1C163.1,215,163.3,215.7,163.3,216.6z M158.2,216.6
		c0,0.8,0.2,1.5,0.6,1.9c0.4,0.4,0.8,0.6,1.4,0.6c0.6,0,1.1-0.2,1.5-0.7c0.4-0.5,0.6-1.1,0.6-1.9c0-0.8-0.2-1.4-0.6-1.9
		c-0.4-0.4-0.8-0.7-1.4-0.7c-0.6,0-1.1,0.2-1.5,0.7C158.4,215.2,158.2,215.8,158.2,216.6z"/>
	<path class="st39" d="M169.2,213.9l-0.8,0.5c-0.3-0.3-0.7-0.4-1-0.4c-0.5,0-1,0.3-1.4,0.8v4.9h-0.9v-6.4h0.8l0.1,0.7h0
		c0.6-0.6,1.1-0.8,1.7-0.8C168.4,213.2,168.9,213.5,169.2,213.9z"/>
	<path class="st39" d="M171.9,219.2C171.9,219.2,171.9,219.2,171.9,219.2c0,0.4-0.2,0.6-0.6,0.6c-0.4,0-0.6-0.2-0.6-0.6
		c0-0.4,0.2-0.6,0.6-0.6S171.9,218.8,171.9,219.2z"/>
	<path d="M51.9,245.4v-0.9h6.7v0.9h-2.9v8h-1v-8H51.9z"/>
	<path d="M65.4,253.4h-0.9v-3.7c0-1.3-0.6-2-1.8-2c-0.3,0-0.6,0.1-1,0.2c-0.3,0.2-0.6,0.4-0.7,0.6v4.9H60v-8.5l0.9-0.5v3.3
		c0.6-0.6,1.3-0.8,2-0.8c1.6,0,2.4,0.9,2.4,2.7V253.4z"/>
	<path d="M72.7,250.5h-4.5c0,0.7,0.3,1.2,0.7,1.6c0.4,0.4,1,0.6,1.7,0.6c0.6,0,1.1-0.2,1.7-0.5l0.3,0.6c-0.6,0.5-1.4,0.7-2.2,0.7
		c-1,0-1.8-0.3-2.4-1c-0.6-0.6-0.8-1.4-0.8-2.3c0-1,0.3-1.8,0.9-2.5c0.5-0.6,1.2-0.9,2-0.9c0.9,0,1.7,0.4,2.2,1.1
		c0.4,0.6,0.6,1.3,0.6,2.2V250.5z M68.1,249.7h3.6c0-0.7-0.2-1.2-0.5-1.6s-0.7-0.6-1.3-0.6c-0.5,0-0.9,0.2-1.3,0.6
		C68.3,248.6,68.1,249.1,68.1,249.7z"/>
	<path d="M81.9,247.5l-0.8,0.5c-0.3-0.3-0.7-0.4-1-0.4c-0.5,0-1,0.3-1.4,0.8v4.9h-0.9V247h0.8l0.1,0.7h0c0.6-0.6,1.1-0.8,1.7-0.8
		C81.1,246.8,81.6,247.1,81.9,247.5z"/>
	<path d="M88.4,250.5h-4.5c0,0.7,0.3,1.2,0.7,1.6c0.4,0.4,1,0.6,1.7,0.6c0.6,0,1.1-0.2,1.7-0.5l0.3,0.6c-0.6,0.5-1.4,0.7-2.2,0.7
		c-1,0-1.8-0.3-2.4-1c-0.6-0.6-0.8-1.4-0.8-2.3c0-1,0.3-1.8,0.9-2.5c0.5-0.6,1.2-0.9,2-0.9c0.9,0,1.7,0.4,2.2,1.1
		c0.4,0.6,0.6,1.3,0.6,2.2V250.5z M83.9,249.7h3.6c0-0.7-0.2-1.2-0.5-1.6s-0.7-0.6-1.3-0.6c-0.5,0-0.9,0.2-1.3,0.6
		C84.1,248.6,83.9,249.1,83.9,249.7z"/>
	<path d="M94.8,247h0.7v8.9h-0.9v-3.3c-0.5,0.6-1.2,0.8-2,0.8c-0.9,0-1.6-0.3-2.2-1c-0.5-0.6-0.7-1.3-0.7-2.2c0-1.1,0.3-2,1-2.7
		c0.5-0.5,1.2-0.8,2-0.8c0.9,0,1.5,0.3,1.9,0.8L94.8,247z M94.6,251.6v-3c-0.1-0.3-0.4-0.5-0.7-0.7s-0.7-0.3-1-0.3
		c-0.6,0-1.1,0.2-1.5,0.7c-0.4,0.5-0.6,1.1-0.6,1.9c0,0.9,0.2,1.5,0.6,2c0.4,0.4,0.8,0.6,1.4,0.6c0.4,0,0.7-0.1,1.1-0.3
		C94.2,252.2,94.5,252,94.6,251.6z"/>
	<path d="M102.8,247v6.4h-0.7l-0.1-0.7l0,0c-0.6,0.6-1.3,0.9-2.1,0.9c-0.7,0-1.2-0.2-1.6-0.7c-0.4-0.5-0.6-1.1-0.6-2V247h0.9v3.6
		c0,1.4,0.5,2.1,1.5,2.1c0.3,0,0.6-0.1,1-0.2c0.3-0.2,0.6-0.4,0.8-0.6V247H102.8z"/>
	<path d="M110.2,250.5h-4.5c0,0.7,0.3,1.2,0.7,1.6c0.4,0.4,1,0.6,1.7,0.6c0.6,0,1.1-0.2,1.7-0.5l0.3,0.6c-0.6,0.5-1.4,0.7-2.2,0.7
		c-1,0-1.8-0.3-2.4-1c-0.6-0.6-0.8-1.4-0.8-2.3c0-1,0.3-1.8,0.9-2.5c0.5-0.6,1.2-0.9,2-0.9c0.9,0,1.7,0.4,2.2,1.1
		c0.4,0.6,0.6,1.3,0.6,2.2V250.5z M105.6,249.7h3.6c0-0.7-0.2-1.2-0.5-1.6s-0.7-0.6-1.3-0.6c-0.5,0-0.9,0.2-1.3,0.6
		C105.9,248.6,105.7,249.1,105.6,249.7z"/>
	<path d="M115.3,248c-0.5-0.2-1-0.4-1.5-0.4c-0.4,0-0.7,0.1-0.9,0.2c-0.2,0.2-0.3,0.4-0.3,0.7c0,0.3,0.1,0.5,0.3,0.7
		c0.2,0.2,0.6,0.3,1.1,0.5c0.8,0.2,1.3,0.5,1.6,0.8c0.3,0.3,0.4,0.7,0.4,1.2c0,0.6-0.2,1-0.6,1.3c-0.4,0.3-0.9,0.5-1.6,0.5
		c-0.9,0-1.6-0.2-2.2-0.7c0,0,0.1-0.1,0.1-0.2c0.1-0.1,0.1-0.2,0.2-0.3c0.5,0.3,1.1,0.4,1.8,0.4c1,0,1.5-0.4,1.5-1.1
		c0-0.3-0.1-0.5-0.3-0.7c-0.2-0.2-0.6-0.3-1.2-0.5c-1.3-0.4-2-1-2-1.9c0-0.5,0.2-0.9,0.6-1.2c0.4-0.3,0.9-0.5,1.5-0.5
		c0.7,0,1.4,0.2,1.9,0.6L115.3,248z"/>
	<path d="M119.2,247.8l0,4c0,0.7,0.3,1,0.8,1c0.3,0,0.6-0.1,0.9-0.2l0.3,0.5c-0.5,0.3-0.9,0.5-1.4,0.5c-0.5,0-0.9-0.2-1.1-0.5
		c-0.3-0.3-0.4-0.7-0.4-1.3v-4h-1V247h1v-1.4l0.9-0.5v1.9h1.9v0.8H119.2z"/>
	<path d="M128.1,250.5h-4.5c0,0.7,0.3,1.2,0.7,1.6c0.4,0.4,1,0.6,1.7,0.6c0.6,0,1.1-0.2,1.7-0.5l0.3,0.6c-0.6,0.5-1.4,0.7-2.2,0.7
		c-1,0-1.8-0.3-2.4-1c-0.6-0.6-0.8-1.4-0.8-2.3c0-1,0.3-1.8,0.9-2.5c0.5-0.6,1.2-0.9,2-0.9c0.9,0,1.7,0.4,2.2,1.1
		c0.4,0.6,0.6,1.3,0.6,2.2V250.5z M123.5,249.7h3.6c0-0.7-0.2-1.2-0.5-1.6s-0.7-0.6-1.3-0.6c-0.5,0-0.9,0.2-1.3,0.6
		C123.8,248.6,123.6,249.1,123.5,249.7z"/>
	<path d="M134.4,253.4l-0.2-0.7c-0.4,0.6-1.1,0.8-1.9,0.8c-0.9,0-1.7-0.3-2.2-1c-0.5-0.6-0.7-1.3-0.7-2.2c0-1.1,0.3-2,1-2.6
		c0.5-0.5,1.2-0.8,2-0.8c0.7,0,1.3,0.2,1.8,0.7v-2.7l0.9-0.5v9H134.4z M134.2,251.7v-3c-0.1-0.3-0.3-0.5-0.7-0.7
		c-0.3-0.2-0.7-0.3-1-0.3c-0.6,0-1.1,0.2-1.5,0.7c-0.4,0.5-0.6,1.1-0.6,1.9c0,0.9,0.2,1.5,0.6,2c0.4,0.4,0.8,0.6,1.4,0.6
		c0.4,0,0.7-0.1,1-0.3S134,252,134.2,251.7z"/>
	<path d="M140.8,244.5h1.1v5.5c0,1.8,0.7,2.6,2.1,2.6c1.4,0,2.1-0.9,2.1-2.6v-5.5h1.1v5.2c0,2.6-1.1,3.9-3.2,3.9s-3.2-1.3-3.2-3.9
		V244.5z"/>
	<path d="M149.7,253.4v-8.9c0.8-0.1,1.5-0.2,2.2-0.2c2.1,0,3.1,0.9,3.1,2.7c0,1.2-0.5,2-1.6,2.5l1.8,3.9h-1.1l-1.6-3.6l0,0
		c-0.2,0-0.4,0-0.6,0c-0.4,0-0.8,0-1.2-0.1v3.7H149.7z M150.7,245.2v3.6c0.3,0.1,0.7,0.1,1.1,0.1c1.4,0,2-0.6,2-1.9
		c0-1.2-0.7-1.9-2-1.9C151.4,245.2,151,245.2,150.7,245.2z"/>
	<path d="M157,253.4v-8.9h1v8h3.5v0.9H157z"/>
	<path d="M168.9,253.4h-1l-2.1-6.4h1l1.6,5.3l1.5-5.3h1.1l1.5,5.3l1.6-5.3h1l-2.1,6.4h-1l-1.5-5.2L168.9,253.4z"/>
	<path d="M181.1,253.4h-0.7l-0.1-0.7c-0.6,0.6-1.3,0.9-2.1,0.9c-0.6,0-1.2-0.2-1.5-0.5c-0.4-0.4-0.6-0.8-0.6-1.4
		c0-1.5,1.1-2.2,3.2-2.2h1v-0.1c0-1.1-0.5-1.7-1.6-1.7c-0.6,0-1.2,0.2-1.8,0.6l-0.3-0.5c0.6-0.6,1.4-0.9,2.4-0.9
		c0.7,0,1.3,0.2,1.7,0.7s0.6,1.1,0.6,2V253.4z M180.1,250.1h-0.9c-1.5,0-2.3,0.5-2.3,1.4c0,0.4,0.1,0.7,0.4,0.9
		c0.2,0.2,0.6,0.3,1,0.3c0.4,0,0.7-0.1,1.1-0.3c0.3-0.2,0.6-0.4,0.7-0.7V250.1z"/>
	<path d="M186.6,248c-0.5-0.2-1-0.4-1.5-0.4c-0.4,0-0.7,0.1-0.9,0.2c-0.2,0.2-0.3,0.4-0.3,0.7c0,0.3,0.1,0.5,0.3,0.7
		c0.2,0.2,0.6,0.3,1.1,0.5c0.8,0.2,1.3,0.5,1.6,0.8c0.3,0.3,0.4,0.7,0.4,1.2c0,0.6-0.2,1-0.6,1.3c-0.4,0.3-0.9,0.5-1.6,0.5
		c-0.9,0-1.6-0.2-2.2-0.7c0,0,0.1-0.1,0.1-0.2c0.1-0.1,0.1-0.2,0.2-0.3c0.5,0.3,1.1,0.4,1.8,0.4c1,0,1.5-0.4,1.5-1.1
		c0-0.3-0.1-0.5-0.3-0.7c-0.2-0.2-0.6-0.3-1.2-0.5c-1.3-0.4-2-1-2-1.9c0-0.5,0.2-0.9,0.6-1.2c0.4-0.3,0.9-0.5,1.5-0.5
		c0.7,0,1.4,0.2,1.9,0.6L186.6,248z"/>
	<path d="M197.7,253.4h-0.9v-3.7c0-1.3-0.6-2-1.7-2c-0.3,0-0.7,0.1-1,0.2c-0.3,0.2-0.6,0.4-0.8,0.6v4.9h-0.9V247h0.8l0.1,0.7h0
		c0.6-0.6,1.2-0.8,2.1-0.8c1.6,0,2.4,0.9,2.4,2.7V253.4z"/>
	<path d="M205.6,250.2c0,1-0.3,1.8-1,2.5c-0.6,0.6-1.3,0.9-2.1,0.9c-1,0-1.7-0.4-2.3-1.1c-0.5-0.6-0.7-1.4-0.7-2.2
		c0-1,0.3-1.9,0.9-2.5c0.6-0.6,1.3-0.9,2.1-0.9c1,0,1.8,0.4,2.3,1.1C205.3,248.6,205.6,249.3,205.6,250.2z M200.4,250.2
		c0,0.8,0.2,1.5,0.6,1.9c0.4,0.4,0.8,0.6,1.4,0.6c0.6,0,1.1-0.2,1.5-0.7c0.4-0.5,0.6-1.1,0.6-1.9c0-0.8-0.2-1.4-0.6-1.9
		c-0.4-0.4-0.8-0.7-1.4-0.7c-0.6,0-1.1,0.2-1.5,0.7C200.6,248.8,200.4,249.4,200.4,250.2z"/>
	<path d="M208.7,247.8l0,4c0,0.7,0.3,1,0.8,1c0.3,0,0.6-0.1,0.9-0.2l0.3,0.5c-0.5,0.3-0.9,0.5-1.4,0.5c-0.5,0-0.9-0.2-1.1-0.5
		c-0.3-0.3-0.4-0.7-0.4-1.3v-4h-1V247h1v-1.4l0.9-0.5v1.9h1.9v0.8H208.7z"/>
	<path d="M215.3,247h0.9v-0.9c0-0.6,0.1-1,0.4-1.3c0.3-0.3,0.7-0.5,1.1-0.5c0.5,0,1,0.2,1.4,0.5l-0.3,0.5c-0.3-0.2-0.6-0.2-0.9-0.2
		c-0.6,0-0.8,0.3-0.8,1v0.9h1.6v0.8h-1.6v5.6h-0.9v-5.6h-0.9V247z"/>
	<path d="M226.2,250.2c0,1-0.3,1.8-1,2.5c-0.6,0.6-1.3,0.9-2.1,0.9c-1,0-1.7-0.4-2.3-1.1c-0.5-0.6-0.7-1.4-0.7-2.2
		c0-1,0.3-1.9,0.9-2.5c0.6-0.6,1.3-0.9,2.1-0.9c1,0,1.8,0.4,2.3,1.1C226,248.6,226.2,249.3,226.2,250.2z M221.1,250.2
		c0,0.8,0.2,1.5,0.6,1.9c0.4,0.4,0.8,0.6,1.4,0.6c0.6,0,1.1-0.2,1.5-0.7c0.4-0.5,0.6-1.1,0.6-1.9c0-0.8-0.2-1.4-0.6-1.9
		c-0.4-0.4-0.8-0.7-1.4-0.7c-0.6,0-1.1,0.2-1.5,0.7C221.3,248.8,221.1,249.4,221.1,250.2z"/>
	<path d="M233.1,247v6.4h-0.7l-0.1-0.7l0,0c-0.6,0.6-1.3,0.9-2.1,0.9c-0.7,0-1.2-0.2-1.6-0.7c-0.4-0.5-0.6-1.1-0.6-2V247h0.9v3.6
		c0,1.4,0.5,2.1,1.5,2.1c0.3,0,0.6-0.1,1-0.2c0.3-0.2,0.6-0.4,0.8-0.6V247H233.1z"/>
	<path d="M240.6,253.4h-0.9v-3.7c0-1.3-0.6-2-1.7-2c-0.3,0-0.7,0.1-1,0.2c-0.3,0.2-0.6,0.4-0.8,0.6v4.9h-0.9V247h0.8l0.1,0.7h0
		c0.6-0.6,1.2-0.8,2.1-0.8c1.6,0,2.4,0.9,2.4,2.7V253.4z"/>
	<path d="M247.3,253.4l-0.2-0.7c-0.4,0.6-1.1,0.8-1.9,0.8c-0.9,0-1.7-0.3-2.2-1c-0.5-0.6-0.7-1.3-0.7-2.2c0-1.1,0.3-2,1-2.6
		c0.5-0.5,1.2-0.8,2-0.8c0.7,0,1.3,0.2,1.8,0.7v-2.7l0.9-0.5v9H247.3z M247.1,251.7v-3c-0.1-0.3-0.3-0.5-0.7-0.7
		c-0.3-0.2-0.7-0.3-1-0.3c-0.6,0-1.1,0.2-1.5,0.7c-0.4,0.5-0.6,1.1-0.6,1.9c0,0.9,0.2,1.5,0.6,2c0.4,0.4,0.8,0.6,1.4,0.6
		c0.4,0,0.7-0.1,1-0.3S247,252,247.1,251.7z"/>
	<path d="M259.3,250.2c0,1-0.3,1.8-1,2.5c-0.6,0.6-1.3,0.9-2.1,0.9c-1,0-1.7-0.4-2.3-1.1c-0.5-0.6-0.7-1.4-0.7-2.2
		c0-1,0.3-1.9,0.9-2.5c0.6-0.6,1.3-0.9,2.1-0.9c1,0,1.8,0.4,2.3,1.1C259,248.6,259.3,249.3,259.3,250.2z M254.2,250.2
		c0,0.8,0.2,1.5,0.6,1.9c0.4,0.4,0.8,0.6,1.4,0.6c0.6,0,1.1-0.2,1.5-0.7c0.4-0.5,0.6-1.1,0.6-1.9c0-0.8-0.2-1.4-0.6-1.9
		c-0.4-0.4-0.8-0.7-1.4-0.7c-0.6,0-1.1,0.2-1.5,0.7C254.4,248.8,254.2,249.4,254.2,250.2z"/>
	<path d="M266.4,253.4h-0.9v-3.7c0-1.3-0.6-2-1.7-2c-0.3,0-0.7,0.1-1,0.2c-0.3,0.2-0.6,0.4-0.8,0.6v4.9H261V247h0.8l0.1,0.7h0
		c0.6-0.6,1.2-0.8,2.1-0.8c1.6,0,2.4,0.9,2.4,2.7V253.4z"/>
	<path d="M54.1,264.6l0,4c0,0.7,0.3,1,0.8,1c0.3,0,0.6-0.1,0.9-0.2l0.3,0.5c-0.5,0.3-0.9,0.5-1.4,0.5c-0.5,0-0.9-0.2-1.1-0.5
		c-0.3-0.3-0.4-0.7-0.4-1.3v-4h-1v-0.8h1v-1.4l0.9-0.5v1.9H56v0.8H54.1z"/>
	<path d="M63.1,270.2h-0.9v-3.7c0-1.3-0.6-2-1.8-2c-0.3,0-0.6,0.1-1,0.2c-0.3,0.2-0.6,0.4-0.7,0.6v4.9h-0.9v-8.5l0.9-0.5v3.3
		c0.6-0.6,1.3-0.8,2-0.8c1.6,0,2.4,0.9,2.4,2.7V270.2z"/>
	<path d="M65.2,261.7c0-0.2,0.1-0.3,0.2-0.4c0.1-0.1,0.3-0.2,0.4-0.2s0.3,0.1,0.4,0.2c0.1,0.1,0.2,0.3,0.2,0.4
		c0,0.2-0.1,0.3-0.2,0.4c-0.1,0.1-0.3,0.2-0.4,0.2c-0.2,0-0.3-0.1-0.4-0.2S65.2,261.9,65.2,261.7z M66.3,263.8v6.4h-0.9v-6.4H66.3z"
		/>
	<path d="M71.8,264.8c-0.5-0.2-1-0.4-1.5-0.4c-0.4,0-0.7,0.1-0.9,0.2c-0.2,0.2-0.3,0.4-0.3,0.7c0,0.3,0.1,0.5,0.3,0.7
		c0.2,0.2,0.6,0.3,1.1,0.5c0.8,0.2,1.3,0.5,1.6,0.8c0.3,0.3,0.4,0.7,0.4,1.2c0,0.6-0.2,1-0.6,1.3c-0.4,0.3-0.9,0.5-1.6,0.5
		c-0.9,0-1.6-0.2-2.2-0.7c0,0,0.1-0.1,0.1-0.2c0.1-0.1,0.1-0.2,0.2-0.3c0.5,0.3,1.1,0.4,1.8,0.4c1,0,1.5-0.4,1.5-1.1
		c0-0.3-0.1-0.5-0.3-0.7c-0.2-0.2-0.6-0.3-1.2-0.5c-1.3-0.4-2-1-2-1.9c0-0.5,0.2-0.9,0.6-1.2c0.4-0.3,0.9-0.5,1.5-0.5
		c0.7,0,1.4,0.2,1.9,0.6L71.8,264.8z"/>
	<path d="M81,264.8c-0.5-0.2-1-0.4-1.5-0.4c-0.4,0-0.7,0.1-0.9,0.2c-0.2,0.2-0.3,0.4-0.3,0.7c0,0.3,0.1,0.5,0.3,0.7
		c0.2,0.2,0.6,0.3,1.1,0.5c0.8,0.2,1.3,0.5,1.6,0.8c0.3,0.3,0.4,0.7,0.4,1.2c0,0.6-0.2,1-0.6,1.3c-0.4,0.3-0.9,0.5-1.6,0.5
		c-0.9,0-1.6-0.2-2.2-0.7c0,0,0.1-0.1,0.1-0.2c0.1-0.1,0.1-0.2,0.2-0.3c0.5,0.3,1.1,0.4,1.8,0.4c1,0,1.5-0.4,1.5-1.1
		c0-0.3-0.1-0.5-0.3-0.7c-0.2-0.2-0.6-0.3-1.2-0.5c-1.3-0.4-2-1-2-1.9c0-0.5,0.2-0.9,0.6-1.2c0.4-0.3,0.9-0.5,1.5-0.5
		c0.7,0,1.4,0.2,1.9,0.6L81,264.8z"/>
	<path d="M88.7,267.3h-4.5c0,0.7,0.3,1.2,0.7,1.6c0.4,0.4,1,0.6,1.7,0.6c0.6,0,1.1-0.2,1.7-0.5l0.3,0.6c-0.6,0.5-1.4,0.7-2.2,0.7
		c-1,0-1.8-0.3-2.4-1c-0.6-0.6-0.8-1.4-0.8-2.3c0-1,0.3-1.8,0.9-2.5c0.5-0.6,1.2-0.9,2-0.9c0.9,0,1.7,0.4,2.2,1.1
		c0.4,0.6,0.6,1.3,0.6,2.2V267.3z M84.1,266.5h3.6c0-0.7-0.2-1.2-0.5-1.6s-0.7-0.6-1.3-0.6c-0.5,0-0.9,0.2-1.3,0.6
		C84.3,265.4,84.1,265.9,84.1,266.5z"/>
	<path d="M94.6,264.3l-0.8,0.5c-0.3-0.3-0.7-0.4-1-0.4c-0.5,0-1,0.3-1.4,0.8v4.9h-0.9v-6.4h0.8l0.1,0.7h0c0.6-0.6,1.1-0.8,1.7-0.8
		C93.7,263.6,94.2,263.9,94.6,264.3z"/>
	<path d="M98.4,270.2h-1l-2.4-6.4h1l1.9,5.2l1.9-5.2h1L98.4,270.2z"/>
	<path d="M107.2,267.3h-4.5c0,0.7,0.3,1.2,0.7,1.6c0.4,0.4,1,0.6,1.7,0.6c0.6,0,1.1-0.2,1.7-0.5l0.3,0.6c-0.6,0.5-1.4,0.7-2.2,0.7
		c-1,0-1.8-0.3-2.4-1c-0.6-0.6-0.8-1.4-0.8-2.3c0-1,0.3-1.8,0.9-2.5c0.5-0.6,1.2-0.9,2-0.9c0.9,0,1.7,0.4,2.2,1.1
		c0.4,0.6,0.6,1.3,0.6,2.2V267.3z M102.7,266.5h3.6c0-0.7-0.2-1.2-0.5-1.6s-0.7-0.6-1.3-0.6c-0.5,0-0.9,0.2-1.3,0.6
		C102.9,265.4,102.7,265.9,102.7,266.5z"/>
	<path d="M113.2,264.3l-0.8,0.5c-0.3-0.3-0.7-0.4-1-0.4c-0.5,0-1,0.3-1.4,0.8v4.9H109v-6.4h0.8l0.1,0.7h0c0.6-0.6,1.1-0.8,1.7-0.8
		C112.3,263.6,112.8,263.9,113.2,264.3z"/>
	<path d="M115.8,269.6C115.8,269.6,115.8,269.6,115.8,269.6c0,0.4-0.2,0.6-0.6,0.6c-0.4,0-0.6-0.2-0.6-0.6c0-0.4,0.2-0.6,0.6-0.6
		S115.8,269.2,115.8,269.6z"/>
	<path class="st39" d="M120.8,262.2v-0.9h6.7v0.9h-2.9v8h-1v-8H120.8z"/>
	<path class="st39" d="M134.3,270.2h-0.9v-3.7c0-1.3-0.6-2-1.8-2c-0.3,0-0.6,0.1-1,0.2c-0.3,0.2-0.6,0.4-0.7,0.6v4.9h-0.9v-8.5
		l0.9-0.5v3.3c0.6-0.6,1.3-0.8,2-0.8c1.6,0,2.4,0.9,2.4,2.7V270.2z"/>
	<path class="st39" d="M141,270.2h-0.7l-0.1-0.7c-0.6,0.6-1.3,0.9-2.1,0.9c-0.6,0-1.2-0.2-1.5-0.5c-0.4-0.4-0.6-0.8-0.6-1.4
		c0-1.5,1.1-2.2,3.2-2.2h1v-0.1c0-1.1-0.5-1.7-1.6-1.7c-0.6,0-1.2,0.2-1.8,0.6l-0.3-0.5c0.6-0.6,1.4-0.9,2.4-0.9
		c0.7,0,1.3,0.2,1.7,0.7s0.6,1.1,0.6,2V270.2z M140.1,266.9h-0.9c-1.5,0-2.3,0.5-2.3,1.4c0,0.4,0.1,0.7,0.4,0.9
		c0.2,0.2,0.6,0.3,1,0.3c0.4,0,0.7-0.1,1.1-0.3c0.3-0.2,0.6-0.4,0.7-0.7V266.9z"/>
	<path class="st39" d="M144.6,264.6l0,4c0,0.7,0.3,1,0.8,1c0.3,0,0.6-0.1,0.9-0.2l0.3,0.5c-0.5,0.3-0.9,0.5-1.4,0.5
		c-0.5,0-0.9-0.2-1.1-0.5c-0.3-0.3-0.4-0.7-0.4-1.3v-4h-1v-0.8h1v-1.4l0.9-0.5v1.9h1.9v0.8H144.6z"/>
	<path class="st39" d="M148.7,262.6c-0.4,0-0.6-0.2-0.6-0.6c0,0,0,0,0,0c0-0.2,0.1-0.4,0.2-0.5s0.3-0.2,0.5-0.2
		c0.5,0,0.7,0.3,0.7,0.9v1.5l-0.4,0.2v-1.2H148.7z"/>
	<path class="st39" d="M154.9,264.8c-0.5-0.2-1-0.4-1.5-0.4c-0.4,0-0.7,0.1-0.9,0.2c-0.2,0.2-0.3,0.4-0.3,0.7c0,0.3,0.1,0.5,0.3,0.7
		c0.2,0.2,0.6,0.3,1.1,0.5c0.8,0.2,1.3,0.5,1.6,0.8c0.3,0.3,0.4,0.7,0.4,1.2c0,0.6-0.2,1-0.6,1.3c-0.4,0.3-0.9,0.5-1.6,0.5
		c-0.9,0-1.6-0.2-2.2-0.7c0,0,0.1-0.1,0.1-0.2c0.1-0.1,0.1-0.2,0.2-0.3c0.5,0.3,1.1,0.4,1.8,0.4c1,0,1.5-0.4,1.5-1.1
		c0-0.3-0.1-0.5-0.3-0.7c-0.2-0.2-0.6-0.3-1.2-0.5c-1.3-0.4-2-1-2-1.9c0-0.5,0.2-0.9,0.6-1.2c0.4-0.3,0.9-0.5,1.5-0.5
		c0.7,0,1.4,0.2,1.9,0.6L154.9,264.8z"/>
	<path class="st39" d="M165.4,270.2h-0.7l-0.1-0.7c-0.6,0.6-1.3,0.9-2.1,0.9c-0.6,0-1.2-0.2-1.5-0.5c-0.4-0.4-0.6-0.8-0.6-1.4
		c0-1.5,1.1-2.2,3.2-2.2h1v-0.1c0-1.1-0.5-1.7-1.6-1.7c-0.6,0-1.2,0.2-1.8,0.6l-0.3-0.5c0.6-0.6,1.4-0.9,2.4-0.9
		c0.7,0,1.3,0.2,1.7,0.7s0.6,1.1,0.6,2V270.2z M164.4,266.9h-0.9c-1.5,0-2.3,0.5-2.3,1.4c0,0.4,0.1,0.7,0.4,0.9
		c0.2,0.2,0.6,0.3,1,0.3c0.4,0,0.7-0.1,1.1-0.3c0.3-0.2,0.6-0.4,0.7-0.7V266.9z"/>
	<path class="st39" d="M168.5,261.1v9h-0.9v-8.5L168.5,261.1z"/>
	<path class="st39" d="M171.6,261.1v9h-0.9v-8.5L171.6,261.1z"/>
	<path class="st39" d="M179.4,270.2h-1l-2.1-6.4h1l1.6,5.3l1.5-5.3h1.1l1.5,5.3l1.6-5.3h1l-2.1,6.4h-1l-1.5-5.2L179.4,270.2z"/>
	<path class="st39" d="M192,267.3h-4.5c0,0.7,0.3,1.2,0.7,1.6c0.4,0.4,1,0.6,1.7,0.6c0.6,0,1.1-0.2,1.7-0.5l0.3,0.6
		c-0.6,0.5-1.4,0.7-2.2,0.7c-1,0-1.8-0.3-2.4-1c-0.6-0.6-0.8-1.4-0.8-2.3c0-1,0.3-1.8,0.9-2.5c0.5-0.6,1.2-0.9,2-0.9
		c0.9,0,1.7,0.4,2.2,1.1c0.4,0.6,0.6,1.3,0.6,2.2V267.3z M187.4,266.5h3.6c0-0.7-0.2-1.2-0.5-1.6s-0.7-0.6-1.3-0.6
		c-0.5,0-0.9,0.2-1.3,0.6C187.7,265.4,187.5,265.9,187.4,266.5z"/>
	<path class="st39" d="M201.6,263.8l-2.8,2.5l3.1,3.9h-1.1l-2.8-3.5v3.5h-0.9v-8.5l0.9-0.5v4.8l2.3-2.1H201.6z"/>
	<path class="st39" d="M208.7,270.2h-0.9v-3.7c0-1.3-0.6-2-1.7-2c-0.3,0-0.7,0.1-1,0.2c-0.3,0.2-0.6,0.4-0.8,0.6v4.9h-0.9v-6.4h0.8
		l0.1,0.7h0c0.6-0.6,1.2-0.8,2.1-0.8c1.6,0,2.4,0.9,2.4,2.7V270.2z"/>
	<path class="st39" d="M216.5,267c0,1-0.3,1.8-1,2.5c-0.6,0.6-1.3,0.9-2.1,0.9c-1,0-1.7-0.4-2.3-1.1c-0.5-0.6-0.7-1.4-0.7-2.2
		c0-1,0.3-1.9,0.9-2.5c0.6-0.6,1.3-0.9,2.1-0.9c1,0,1.8,0.4,2.3,1.1C216.3,265.4,216.5,266.1,216.5,267z M211.4,267
		c0,0.8,0.2,1.5,0.6,1.9c0.4,0.4,0.8,0.6,1.4,0.6c0.6,0,1.1-0.2,1.5-0.7c0.4-0.5,0.6-1.1,0.6-1.9c0-0.8-0.2-1.4-0.6-1.9
		c-0.4-0.4-0.8-0.7-1.4-0.7c-0.6,0-1.1,0.2-1.5,0.7C211.6,265.6,211.4,266.2,211.4,267z"/>
	<path class="st39" d="M220.5,270.2h-1l-2.1-6.4h1l1.6,5.3l1.5-5.3h1.1l1.5,5.3l1.6-5.3h1l-2.1,6.4h-1l-1.5-5.2L220.5,270.2z"/>
	<path class="st39" d="M229.3,269.6C229.3,269.6,229.3,269.6,229.3,269.6c0,0.4-0.2,0.6-0.6,0.6c-0.4,0-0.6-0.2-0.6-0.6
		c0-0.4,0.2-0.6,0.6-0.6S229.3,269.2,229.3,269.6z"/>
</g>
</svg>
