<?xml version="1.0" encoding="UTF-8"?>
<svg xmlns="http://www.w3.org/2000/svg" version="1.1" xmlns:xlink="http://www.w3.org/1999/xlink" viewBox="0 0 2500 2500">
  <defs>
    <style>
      .cls-1 {
        fill: url(#linear-gradient-2);
      }

      .cls-2 {
        fill: #ffab03;
      }

      .cls-3 {
        fill: #979aa0;
      }

      .cls-4, .cls-5, .cls-6 {
        fill: #fff;
      }

      .cls-7 {
        fill: #48494b;
      }

      .cls-8 {
        fill: url(#linear-gradient-4);
      }

      .cls-9 {
        fill: #333435;
      }

      .cls-10 {
        fill: url(#linear-gradient-3);
      }

      .cls-5 {
        opacity: .37;
      }

      .cls-11 {
        fill: url(#linear-gradient-5);
      }

      .cls-12 {
        fill: #888b8f;
      }

      .cls-13 {
        fill: #efeff4;
      }

      .cls-14 {
        fill: url(#linear-gradient-8);
      }

      .cls-15 {
        fill: url(#linear-gradient-7);
      }

      .cls-16 {
        fill: url(#linear-gradient-9);
      }

      .cls-17 {
        fill: url(#linear-gradient-6);
      }

      .cls-18 {
        fill: #c6c9d3;
      }

      .cls-19 {
        fill: #b9bcc5;
      }

      .cls-6 {
        opacity: .7;
      }

      .cls-20 {
        fill: url(#linear-gradient);
      }

      .cls-21 {
        fill: #d7d9e0;
      }

      .cls-22 {
        fill: #74767b;
      }
    </style>
    <linearGradient id="linear-gradient" x1="-565.4" y1="2091.35" x2="-527.76" y2="2091.35" gradientTransform="translate(1225.01) rotate(-180) scale(1 -1)" gradientUnits="userSpaceOnUse">
      <stop offset="0" stop-color="#fff"/>
      <stop offset="1" stop-color="#efeff4"/>
    </linearGradient>
    <linearGradient id="linear-gradient-2" x1="-701.04" y1="2089.42" x2="-668.55" y2="2089.42" xlink:href="#linear-gradient"/>
    <linearGradient id="linear-gradient-3" x1="-11512.56" y1="-635.09" x2="-11934.67" y2="-95.03" gradientTransform="translate(-2418.63 -9769.09) rotate(-108.26) scale(1 -1)" xlink:href="#linear-gradient"/>
    <linearGradient id="linear-gradient-4" x1="-11455.1" y1="-590.17" x2="-11877.21" y2="-50.12" gradientTransform="translate(-2418.63 -9769.09) rotate(-108.26) scale(1 -1)" xlink:href="#linear-gradient"/>
    <linearGradient id="linear-gradient-5" x1="-9018.19" y1="2719.64" x2="-9090.79" y2="3033.38" gradientTransform="translate(-7606.45 753.34) rotate(164.98) scale(1 -1)" xlink:href="#linear-gradient"/>
    <linearGradient id="linear-gradient-6" x1="1277.03" y1="543.85" x2="1011.74" y2="672.77" gradientTransform="translate(985.13 71.93) rotate(19.08)" xlink:href="#linear-gradient"/>
    <linearGradient id="linear-gradient-7" x1="1291.35" y1="573.31" x2="1026.06" y2="702.24" gradientTransform="translate(985.13 71.93) rotate(19.08)" xlink:href="#linear-gradient"/>
    <linearGradient id="linear-gradient-8" x1="2066.4" y1="1098.99" x2="1904.99" y2="1009.56" gradientTransform="matrix(1,0,0,1,0,0)" xlink:href="#linear-gradient"/>
    <linearGradient id="linear-gradient-9" x1="2063.68" y1="1103.89" x2="1902.27" y2="1014.46" gradientTransform="matrix(1,0,0,1,0,0)" xlink:href="#linear-gradient"/>
  </defs>
  <!-- Generator: Adobe Illustrator 28.6.0, SVG Export Plug-In . SVG Version: 1.2.0 Build 709)  -->
  <g>
    <g id="Illustration">
      <g>
        <path class="cls-13" d="M1936.93,1906.37c-36.9,38.84-71.81,63.89-99.39,83.68-324.23,232.64-707.88,164.83-789.42,148.27-120.4-24.45-353.14-71.73-521.41-269.6-254.57-299.37-214.93-771.02-17.47-1082.37,36.12-56.95,226.91-373.04,614.69-423.73,234.68-30.68,508.25,31.2,706.35,197.17,415.85,348.4,386.24,1052.22,106.64,1346.58Z"/>
        <g>
          <path class="cls-18" d="M1485.34,1823.77c220.74-49.65,832.94-287.31,619.54-1382.2-6.06-31.09-49.34-34.08-59.43-4.06-47.26,140.63-134.79,382.84-249.66,495.71-355.9,349.68-395.9,680.07-393.23,825.49.79,43.07,40.77,74.51,82.8,65.06Z"/>
          <path class="cls-5" d="M1453.07,1799.69l-6.98-8.38c260.66-216.92,406.98-479.36,483.83-661.33,83.25-197.12,105.11-344.63,105.32-346.1l10.8,1.55c-.21,1.48-22.28,150.38-106.07,348.79-49.2,116.49-109.76,227.09-179.99,328.71-87.81,127.05-191.07,240.35-306.92,336.76Z"/>
        </g>
        <g>
          <path class="cls-21" d="M1810.74,343.88c77.65,160.77,485.04,1113.25-485.41,1625.67,0,0-455.87-563.5,455.91-1628.4,7.98-9.32,24.42-7.77,29.49,2.73Z"/>
          <path class="cls-5" d="M1760.52,516c1.6,30.11,2.19,60.18,2.45,90.27.22,30.09-.06,60.18-.75,90.26-1.38,60.16-4.53,120.29-9.33,180.28-9.73,119.96-26.11,239.5-51.56,357.25-25.49,117.66-59.91,233.76-107.94,344.47-23.99,55.32-51.56,109.18-83.27,160.57-15.96,25.62-32.72,50.78-50.83,74.98-18.14,24.17-37.33,47.56-57.61,69.99-1.87,2.07-5.05,2.23-7.12.36-2.06-1.87-2.23-5.05-.36-7.12h.01s.03-.05.03-.05c20.13-22.1,39.21-45.16,57.26-69.01,18.03-23.88,34.73-48.74,50.66-74.08,31.64-50.84,59.24-104.2,83.31-159.1,48.19-109.86,82.95-225.35,108.83-342.54,25.84-117.28,42.67-236.49,52.86-356.19,5.03-59.86,8.42-119.87,10.04-179.94.82-30.03,1.22-60.07,1.11-90.11-.14-30.03-.61-60.1-2.08-90.05v-.03c-.06-1.18.85-2.18,2.03-2.24,1.18-.06,2.18.84,2.24,2.02Z"/>
        </g>
        <g>
          <polygon class="cls-9" points="1128.4 1555.84 1098.94 1820.06 1440.75 1820.06 1396.23 1555.84 1128.4 1555.84"/>
          <path class="cls-7" d="M411.41,773.9v726.86c0,59.79,47.65,108.69,107.42,110.23,265.49,6.85,1194.03,23.45,1446.76,19.72,43.44-.64,78.62-35.4,79.88-78.82,4.87-168.86,12.79-574.91-16.5-763.43-6.17-39.7-39.68-69.39-79.83-70.67-222.44-7.12-1206.76-29.71-1459.37-24.04-43.57.98-78.35,36.57-78.35,80.14Z"/>
          <path class="cls-19" d="M457.02,770.36v690.57c0,34.91,28.02,63.36,62.93,63.88l1409.28,17.41c34.61.52,62.98-27.33,63.11-61.94l2.36-684.4c.09-24.75-19.62-45.03-44.37-45.63l-1442.84-29.15c-27.67-.67-50.47,21.57-50.47,49.25Z"/>
          <path class="cls-22" d="M2002.95,1570.83h-.04l-1545.93-26.34c-1.25-.02-2.24-1.05-2.22-2.3.02-1.23,1.03-2.22,2.25-2.22h.04l1545.93,26.34c1.25.02,2.24,1.05,2.22,2.3-.02,1.23-1.03,2.22-2.25,2.22Z"/>
          <path class="cls-9" d="M1514.37,1874.12h-500.26c-13.59,0-23.8-9.67-21.17-20.07l6.42-25.39c1.93-7.63,10.33-13.24,20.31-13.55l482.27-15.05c10.42-.32,19.65,5.21,21.92,13.14l11.57,40.44c3.01,10.51-7.25,20.48-21.06,20.48Z"/>
          <path class="cls-4" d="M1283.41,1822.62c-1.23,0-2.24-.99-2.26-2.22-.02-1.25.98-2.27,2.22-2.29l20.67-.3c1.27-.05,2.27.98,2.29,2.22.02,1.25-.98,2.27-2.22,2.29l-20.67.3h-.03Z"/>
          <path class="cls-4" d="M1011.47,1860.75c-.12,0-.24,0-.36-.03-1.23-.2-2.07-1.35-1.87-2.58l2.95-18.47c1.63-10.22,10.33-17.75,20.68-17.9l219.19-3.2c1.28.02,2.27.98,2.29,2.22.02,1.25-.98,2.27-2.22,2.29l-219.19,3.2c-8.15.12-15.01,6.05-16.29,14.1l-2.95,18.46c-.18,1.11-1.14,1.9-2.23,1.9Z"/>
        </g>
        <g>
          <g>
            <path class="cls-3" d="M1787.35,2063.41h-997.66c-8.5,0-15.38-6.89-15.38-15.38v-180.4s1027.1-3.56,1027.1-3.56v185.28c0,7.77-6.3,14.06-14.06,14.06Z"/>
            <path class="cls-12" d="M775.68,1864.93l152.3-117.51c9.07-7,20.19-10.79,31.64-10.79h725.17c9.96,0,19.37,4.53,25.59,12.31l89.7,112.32c3.19,3.99.35,9.89-4.76,9.89h-1017.52c-3.31,0-4.75-4.2-2.12-6.22Z"/>
            <circle class="cls-19" cx="1747.03" cy="1931.79" r="21.24"/>
          </g>
          <path class="cls-9" d="M1737.5,1847.29l-153.09,40.14-152.73,93.92-148.77-6.73-219.67,17.23,220.79-23.94,145.58.09s-41.08-74.68-33.22-74.1c7.86.59,48.75,69.6,48.75,69.6l120.73-78.13-64.38-20.83,30.5-80.36-12.03,77.5,62.97,16.29,154.55-30.7Z"/>
        </g>
        <g>
          <g>
            <path class="cls-22" d="M1234.42,832.91c8.8-1.31,17.75-2.25,26.61-2.79,1.22-.08,2.35-.41,3.36-.94,2.77-1.47,4.58-4.47,4.37-7.81-.28-4.55-4.2-8.02-8.75-7.74-9.33.57-18.75,1.56-28.02,2.94-4.51.67-7.63,4.87-6.95,9.38.67,4.51,4.87,7.62,9.38,6.95Z"/>
            <path class="cls-22" d="M1021.95,951.24c-3.74-2.62-8.88-1.72-11.51,2.02-5.37,7.66-10.47,15.64-15.17,23.72-2.29,3.94-.95,9,2.99,11.29,2.56,1.49,5.59,1.44,8.03.15,1.32-.7,2.46-1.76,3.26-3.14,4.46-7.68,9.31-15.26,14.41-22.54,2.62-3.73,1.71-8.89-2.02-11.5Z"/>
            <path class="cls-22" d="M958.76,1153.97c-4.55.28-8.02,4.18-7.75,8.74.56,9.34,1.53,18.76,2.89,28.01.66,4.51,4.86,7.63,9.37,6.97.96-.14,1.86-.44,2.67-.88,3-1.59,4.82-4.95,4.3-8.5-1.29-8.78-2.21-17.73-2.74-26.6-.27-4.55-4.19-8.02-8.74-7.75Z"/>
            <path class="cls-22" d="M985.85,1013.49c-4.22-1.73-9.05.3-10.77,4.52-3.54,8.67-6.76,17.58-9.54,26.49-1.36,4.35,1.06,8.99,5.41,10.35,2.19.69,4.46.41,6.34-.59,1.85-.98,3.33-2.67,4.01-4.83,2.65-8.46,5.7-16.93,9.07-25.17,1.72-4.22-.3-9.04-4.52-10.77Z"/>
            <path class="cls-22" d="M1166.68,850.96c8.29-3.23,16.81-6.15,25.32-8.67.54-.16,1.06-.37,1.54-.63,3.4-1.8,5.17-5.8,4.04-9.63-1.29-4.37-5.89-6.87-10.26-5.58-8.96,2.65-17.92,5.72-26.64,9.12-4.26,1.64-6.35,6.45-4.69,10.7,1.66,4.25,6.45,6.35,10.7,4.69Z"/>
            <path class="cls-22" d="M964.42,1082.2c-4.5-.75-8.75,2.29-9.51,6.79-1.54,9.22-2.7,18.63-3.44,27.96-.36,4.55,3.03,8.53,7.58,8.89,1.63.13,3.18-.22,4.52-.93,2.41-1.28,4.13-3.72,4.37-6.64.71-8.86,1.81-17.8,3.27-26.56.75-4.5-2.29-8.76-6.79-9.51Z"/>
            <path class="cls-22" d="M969.29,1225.15c-4.39,1.3-6.88,5.87-5.6,10.25,2.62,8.95,5.67,17.91,9.06,26.65,1.65,4.25,6.44,6.36,10.69,4.71.31-.12.61-.26.89-.41,3.65-1.93,5.35-6.33,3.82-10.28-3.22-8.3-6.12-16.82-8.61-25.32-1.28-4.37-5.87-6.88-10.25-5.6Z"/>
            <path class="cls-22" d="M1049.14,930.68c.79-.42,1.52-.98,2.16-1.66,6.06-6.49,12.47-12.8,19.06-18.74,3.39-3.06,3.65-8.28.6-11.67-3.06-3.39-8.27-3.64-11.67-.6-6.94,6.26-13.69,12.9-20.07,19.74-3.11,3.34-2.93,8.56.4,11.67,2.64,2.47,6.48,2.86,9.51,1.26Z"/>
            <path class="cls-22" d="M1103.81,883.96c.26-.14.51-.29.76-.45,7.35-4.97,15.01-9.69,22.78-14.02,3.99-2.22,5.41-7.25,3.19-11.24-2.19-3.93-7.12-5.37-11.08-3.27-.05.03-.1.06-.15.09-8.18,4.56-16.24,9.52-23.98,14.75-3.78,2.56-4.77,7.69-2.22,11.47,2.38,3.53,7.02,4.63,10.71,2.67Z"/>
            <path class="cls-22" d="M1006.55,1295.32c-2.19-3.94-7.18-5.49-11.14-3.39-.05.03-.09.05-.14.08-4.03,2.14-5.37,7.34-3.15,11.33,4.55,8.2,9.62,16.51,14.83,24.25,2.38,3.54,6.99,4.58,10.68,2.62.25-.13.44-.4.68-.57,3.79-2.55,4.8-7.66,2.25-11.44-4.95-7.35-9.68-15.09-14.01-22.88Z"/>
            <path class="cls-22" d="M1326.69,824.55c.54-4.53-2.69-8.64-7.21-9.18-4.45-.53-8.98-.99-13.47-1.34-4.55-.37-8.53,3.03-8.89,7.58-.36,4.55,3.03,8.52,7.58,8.88,4.27.34,8.58.77,12.81,1.28,1.74.21,3.41-.14,4.85-.9,2.31-1.22,4-3.52,4.34-6.31Z"/>
          </g>
          <path class="cls-22" d="M1310.75,1454.9c-8.7.85-17.54,1.33-26.28,1.45-4.57.06-8.21,3.8-8.15,8.36.06,4.56,3.8,8.21,8.36,8.15,9.2-.12,18.51-.63,27.67-1.52,1.11-.11,2.14-.43,3.07-.92,2.87-1.52,4.68-4.67,4.35-8.1-.44-4.54-4.48-7.86-9.02-7.42Z"/>
          <g>
            <path class="cls-22" d="M1560.84,962.57c2.48,3.28,6.93,4.19,10.45,2.32.38-.2.76-.44,1.11-.71,3.64-2.75,4.36-7.93,1.61-11.57-2.7-3.58-5.53-7.16-8.39-10.64-2.9-3.52-8.09-4.04-11.62-1.13-3.52,2.9-4.03,8.1-1.13,11.62,2.72,3.31,5.4,6.71,7.96,10.11Z"/>
            <path class="cls-22" d="M1616.68,1051.61c-4.35,1.31-6.85,5.92-5.53,10.29,2.52,8.38,4.71,16.95,6.51,25.49.94,4.46,5.32,7.32,9.78,6.38.78-.16,1.51-.43,2.17-.78,3.17-1.68,4.98-5.31,4.2-9-1.89-8.99-4.2-18.02-6.85-26.84-1.31-4.37-5.92-6.85-10.29-5.53Z"/>
            <path class="cls-22" d="M1631.23,1120.93c-4.54.32-7.98,4.27-7.66,8.82.61,8.71.85,17.56.72,26.31-.07,4.56,3.57,8.31,8.13,8.38,1.44.02,2.8-.33,3.99-.96,2.57-1.37,4.35-4.06,4.39-7.18.14-9.21-.12-18.53-.76-27.71-.32-4.55-4.27-7.98-8.82-7.66Z"/>
            <path class="cls-22" d="M1602.92,1265.32c-3.17,8.14-6.72,16.25-10.56,24.11-2,4.1-.3,9.04,3.79,11.05,2.47,1.21,5.25,1.07,7.5-.13,1.49-.79,2.75-2.04,3.54-3.67,4.04-8.27,7.78-16.81,11.12-25.37,1.65-4.25-.45-9.04-4.7-10.69-4.26-1.66-9.04.45-10.69,4.7Z"/>
            <path class="cls-22" d="M1526.56,1379.12c-6.35,6.02-13.03,11.83-19.84,17.28-3.56,2.85-4.15,8.04-1.3,11.61,2.52,3.15,6.88,3.97,10.32,2.14.45-.24.88-.52,1.29-.85,7.18-5.74,14.21-11.86,20.9-18.2,3.31-3.14,3.45-8.37.31-11.68-3.14-3.31-8.36-3.44-11.67-.31Z"/>
            <path class="cls-22" d="M1571.02,1326.47c-4.88,7.27-10.11,14.41-15.56,21.22-2.85,3.56-2.27,8.76,1.29,11.61,2.65,2.12,6.21,2.34,9.04.85.97-.51,1.85-1.23,2.57-2.14,5.74-7.17,11.25-14.68,16.38-22.34,2.54-3.79,1.53-8.92-2.26-11.46-3.79-2.54-8.92-1.53-11.46,2.26Z"/>
            <path class="cls-22" d="M1630.15,1191.76c-4.51-.69-8.72,2.41-9.41,6.92-1.32,8.63-3.02,17.32-5.06,25.84-1.06,4.44,1.67,8.89,6.11,9.95,2.04.49,4.08.18,5.79-.73,2.02-1.07,3.59-2.97,4.16-5.37,2.15-8.96,3.94-18.11,5.33-27.19.69-4.51-2.41-8.72-6.92-9.41Z"/>
            <path class="cls-22" d="M1408.78,1449.37c-8.32,2.74-16.84,5.16-25.33,7.19-4.43,1.05-7.17,5.52-6.11,9.95,1.06,4.43,5.52,7.17,9.95,6.11,8.94-2.14,17.91-4.69,26.66-7.57.45-.15.89-.34,1.29-.55,3.49-1.85,5.24-6,3.96-9.88-1.43-4.33-6.1-6.68-10.43-5.25Z"/>
            <path class="cls-22" d="M1471.57,1420.73c-7.46,4.44-15.23,8.63-23.17,12.51-4.08,1.98-5.8,6.95-3.8,11.05,2,4.1,6.95,5.8,11.05,3.8,3.44-1.68,6.84-3.41,10.2-5.19,4.79-2.54,9.56-5.22,14.17-7.97,3.92-2.33,5.21-7.4,2.87-11.32-2.33-3.92-7.39-5.2-11.32-2.87Z"/>
            <path class="cls-22" d="M1598.63,990.31c-2.23-3.98-7.25-5.51-11.24-3.18-3.98,2.22-5.41,7.26-3.18,11.24,1.13,2.02,2.24,4.06,3.33,6.11,3.01,5.68,5.89,11.52,8.56,17.38,1.89,4.15,6.79,5.98,10.94,4.1.16-.07.31-.15.46-.23,3.83-2.03,5.46-6.72,3.64-10.71-2.8-6.16-5.83-12.32-9-18.29-1.15-2.16-2.32-4.3-3.5-6.43Z"/>
          </g>
          <path class="cls-22" d="M1241.58,1453.93c-4.21-.53-8.49-1.16-12.73-1.86-4.5-.75-8.75,2.28-9.51,6.78-.75,4.5,2.28,8.76,6.78,9.51,4.46.75,8.96,1.41,13.4,1.96,1.75.22,3.44-.13,4.89-.9,2.29-1.22,3.98-3.5,4.33-6.27.57-4.53-2.64-8.65-7.17-9.22Z"/>
          <g>
            <path class="cls-22" d="M1532.53,1023.26l-46.88,2.58c-12.56-17.7-27.69-32.98-44.61-45.6l-56.63,22.94-35.36,57.67,56.7,78.15-101.18,16.49-50.11,55.35,23.22,75.62-64.15.22-16.91,25.02-3.1,46.73c-.11,1.64.84,3.17,2.35,3.81l51.94,21.86c1.52.64,3.27.24,4.37-.98l31.34-34.99c21.63,3.68,44,3.93,66.3.4l30.92,35.33c1.09,1.24,2.84,1.65,4.36,1.03l52.18-21.27c1.52-.62,2.49-2.14,2.4-3.79l-2.58-46.88c18.41-13.07,34.23-28.88,47.13-46.63l46.88,3.11c1.64.11,3.17-.84,3.81-2.35l21.86-51.94c.64-1.52.25-3.27-.98-4.37l-34.99-31.34c3.68-21.63,3.93-44,.4-66.3l35.33-30.92c1.24-1.08,1.65-2.84,1.03-4.36l-21.27-52.18c-.62-1.52-2.14-2.49-3.79-2.4Z"/>
            <path class="cls-13" d="M1343.56,1180.11c-17.69,13.02-42.03,10.57-56.9-4.8l-8.87,9.81c17.51,17.54,44.65,21.69,66.56,10.06,2.42-1.28,4.77-2.76,7.04-4.43,15.3-11.26,23.28-28.82,23.03-46.51l-13.25,2.13c-.39,12.9-6.44,25.51-17.62,33.73Z"/>
            <path class="cls-13" d="M1441.1,1078.44c-14.38-27.08-37.11-48.44-65.3-61.22l-3.48,5.68c27.2,12.14,49.12,32.61,62.95,58.65,2.12,3.99,4.05,8.12,5.78,12.37,9.87,24.21,12.04,49.68,7.66,73.68-7.87,43.14-36.91,81.52-80.45,99.25-8.76,3.57-17.89,6.21-27.14,7.85-1.79.32-3,2.03-2.68,3.83.06.35.18.68.34.98.66,1.23,2.05,1.96,3.49,1.7.55-.1,1.1-.2,1.65-.3.28-.05.56-.11.85-.16.1-.02.2-.04.3-.06,7.28-1.44,14.47-3.47,21.47-6.06,1.42-.53,2.83-1.07,4.23-1.65,4.45-1.81,8.78-3.84,12.96-6.06,28.23-14.99,50.27-39.02,62.84-68.88,14.43-34.29,14.65-72.15.61-106.6-1.82-4.46-3.84-8.79-6.07-12.98Z"/>
          </g>
          <g>
            <path class="cls-22" d="M1223.67,1260.68l-22.13-72.05,50.11-55.35,98.58-16.07c1.19-.19,1.76-1.58,1.05-2.56l-55.15-76.02,35.36-57.67,56.63-22.94c-.68-.51-1.34-1.04-2.03-1.54l3.12-46.88c.11-1.64-.84-3.17-2.35-3.81l-51.94-21.86c-1.52-.64-3.27-.24-4.37.98l-31.35,34.99c-21.63-3.68-44-3.93-66.3-.4l-30.93-35.33c-1.08-1.24-2.84-1.65-4.36-1.03l-52.18,21.27c-1.53.62-2.49,2.14-2.4,3.79l2.58,46.88c-18.41,13.06-34.24,28.88-47.13,46.63l-46.88-3.11c-1.64-.11-3.17.84-3.81,2.35l-21.86,51.94c-.64,1.52-.24,3.27.98,4.37l34.99,31.35c-3.68,21.63-3.93,44-.4,66.3l-35.33,30.93c-1.24,1.08-1.65,2.84-1.03,4.36l21.27,52.18c.62,1.53,2.14,2.49,3.79,2.4l46.88-2.58c13.06,18.41,28.88,34.23,46.63,47.13v.15s16.9-25.02,16.9-25.02l60.42-.21c1.86,0,3.18-1.81,2.64-3.58Z"/>
            <path class="cls-13" d="M1233.74,1153.1c-1.34-1.39-2.64-2.85-3.82-4.45-14.19-19.29-10.04-46.53,9.25-60.72,1.75-1.29,3.57-2.43,5.45-3.43,8.18-4.34,17.5-5.94,26.82-4.52,11.47,1.75,21.57,7.85,28.45,17.2,5.97,8.11,8.65,17.62,8.37,26.99l13.25-2.13c-.16-11.39-3.73-22.83-10.98-32.69-8.97-12.19-22.14-20.15-37.1-22.43-14.95-2.28-29.91,1.4-42.09,10.37-25.16,18.51-30.57,54.03-12.06,79.19,1.71,2.33,3.61,4.44,5.59,6.43l8.87-9.81Z"/>
            <path class="cls-13" d="M1319.31,993.41c-34.29-14.43-72.15-14.65-106.6-.61-71.1,28.98-105.4,110.42-76.41,181.55,1.79,4.38,3.79,8.66,6,12.81,9.56,18,22.96,33.72,39.28,45.96,1.46,1.1,3.53.8,4.63-.66.79-1.06.86-2.44.28-3.53-.22-.42-.53-.79-.93-1.09-15.55-11.66-28.3-26.63-37.41-43.78-2.1-3.96-4.01-8.03-5.71-12.21-27.61-67.74,5.02-145.3,72.79-172.93,32.82-13.37,68.88-13.17,101.54.58.9.38,1.77.79,2.66,1.19l3.48-5.68c-1.19-.54-2.37-1.09-3.58-1.6Z"/>
          </g>
        </g>
        <g>
          <g>
            <circle class="cls-4" cx="762.85" cy="667.25" r="250.53" transform="translate(-248.38 734.85) rotate(-45)"/>
            <circle class="cls-2" cx="762.85" cy="667.25" r="242.2" transform="translate(-248.38 734.85) rotate(-45)"/>
            <path class="cls-6" d="M962.57,569.2c.39,0,.78-.09,1.15-.27,1.26-.64,1.77-2.18,1.13-3.44-38.72-76.72-116.12-124.37-202-124.37-13.69,0-27.42,1.23-40.79,3.67-1.39.25-2.31,1.58-2.06,2.98.25,1.39,1.58,2.32,2.98,2.06,13.07-2.38,26.49-3.59,39.88-3.59,83.93,0,159.58,46.58,197.43,121.56.45.89,1.35,1.41,2.29,1.41Z"/>
            <circle class="cls-4" cx="757.57" cy="672.53" r="204.99" transform="translate(-253.66 732.67) rotate(-45)"/>
          </g>
          <g>
            <path class="cls-2" d="M770.26,712.39l-23.2-.55c-6.47-.15-11.82-5.68-12.15-12.19l-8.49-163.44c-.18-3.37,1.04-6.15,3.35-8.42,2.31-2.28,5.51-3.01,8.86-2.78l39.95,2.78c3.27.23,6.4,1.31,8.65,3.87,2.24,2.56,3.42,5.62,3.25,8.91l-8.26,160.46c-.33,6.42-5.57,11.51-11.94,11.36Z"/>
            <path class="cls-2" d="M734.46,752.31c5.79-5.53,13.94-8.21,24.42-8.04,10.8.17,18.99,3.02,24.6,8.53,5.59,5.5,8.38,13.53,8.38,24.11s-2.85,18.1-8.57,23.69c-5.73,5.61-13.86,8.42-24.41,8.42s-18.47-2.9-24.33-8.72c-5.87-5.83-8.81-13.81-8.81-23.93s2.91-18.53,8.72-24.07Z"/>
          </g>
        </g>
        <g>
          <g>
            <rect class="cls-9" x="368.23" y="1137.75" width="558.54" height="964.82" rx="59.24" ry="59.24"/>
            <rect class="cls-22" x="393.77" y="1167.74" width="507.43" height="905.33" rx="59.24" ry="59.24"/>
            <path class="cls-9" d="M495.41,1166.43h307.46v6.66c0,12.47-10.12,22.59-22.59,22.59h-262.28c-12.47,0-22.59-10.12-22.59-22.59v-6.66h0Z"/>
            <path class="cls-19" d="M564.06,1170.36h177.32c2.79,0,5.06,2.27,5.06,5.06v.58c0,2.79-2.27,5.06-5.06,5.06h-177.32c-2.79,0-5.06-2.27-5.06-5.06v-.58c0-2.79,2.27-5.06,5.06-5.06Z"/>
          </g>
          <path class="cls-9" d="M393.77,1357.71l110.29-22.4,115.8-95.77,102.27,40.57,153.92,22.88-155.41-13.97-100.77-30.85s20.43,110.45,15.05,107.99-26.29-105.14-26.29-105.14l-91.95,81,42.34,41.97-29.73,103.08,16.63-103.08-41.85-35.5-110.29,9.23Z"/>
          <path class="cls-9" d="M647.49,1556.18l67.17,106.7,108.87-17.03,45.4-56.74-45.4,63.71-118.19,22.9-57.85,77.31,110.72,106.44s26.31,106.39,25.32,102.19c-.99-4.2-40.8-97.75-40.8-97.75l-46.66,27.83,35.02-40.34s-97.08-95.73-101.56-98.38c-4.48-2.65-100.45,67.16-100.26,58.39s90.59-72.93,90.59-72.93l79.24-75.61-51.61-106.7Z"/>
        </g>
        <g>
          <path class="cls-9" d="M1786.81,2091.45s4.39,24.84,6.54,49.43c.84,9.61-6.57,17.96-16.21,18.36-32.75,1.36-102.8,4.02-127.94,2.89-3.78-.17-6.25-4.04-4.85-7.55h0c1.17-2.94,3.43-5.33,6.31-6.65l115.71-53.18,20.43-3.3Z"/>
          <path class="cls-20" d="M1790.41,2076.85l-3.53,29.72s-20.27,9.44-34.11-1.19l8.39-33.11,29.24,4.59Z"/>
          <path class="cls-9" d="M1787.76,1518.2c1.52,7.76,8.17,387.24-32.39,557.29-.66,2.77.74,5.63,3.39,6.71,6.22,2.54,18.42,6.22,33.04,6.71,4.53.15,8.59-2.79,9.86-7.14,11.59-39.46,67.16-237.14,74.4-425.98,8.1-211.01,0-7.18,0-7.18l-4.75-130.43-83.55.02Z"/>
          <path class="cls-9" d="M1919.92,2104.41s6.99,12.54,13.75,45.87c1.22,6.02-2.98,11.78-9.1,12.38-10.81,1.06-27.46,2.43-40.8,2.34-6.15-.04-10.94-5.39-10.2-11.5,1.48-12.16,6.08-32.12,20.29-47.68l26.05-1.41Z"/>
          <path class="cls-1" d="M1926.05,2066.19l-8.24,44.94s-8.15,6.06-24.26,1.67l3.93-48.35,28.56,1.75Z"/>
          <path class="cls-9" d="M1948.31,1529.85c33.18,200.21-7.2,494.85-20.81,552.51-.83,3.53-3.68,6.24-7.26,6.83-6.08,1.01-16.08,1.83-25.95-1.04-3.4-.99-5.79-4.05-5.93-7.59-1.83-46.62,1.46-332.83-29.45-445.95-1.57-5.73-5.07-10.73-9.91-14.17l-60-42.65-4.6-68.95,163.91,21Z"/>
          <g>
            <g>
              <g>
                <g>
                  <path class="cls-2" d="M1652.94,1244.45c5.04,35.87,10.37,44.11,14.5,44.32,13.17.68,10.51-80.19,58.66-121.09,30.42-25.84,71.96-27.96,104.55-24.95-15.21,54.54-30.42,109.08-45.62,163.63-6.64,16.3-35.6,82.2-101.11,102.21-13.34,4.07-33.19,10.13-51.65,2.2-36.44-15.66-53.53-79.86-37.24-160.23,7.66-2.85,18.26-5.88,57.9-6.08Z"/>
                  <path class="cls-10" d="M1664.55,1104.58l-6.03,34.09c-9.69,41.69-10.61,76.44-5.58,105.78-8.32.34-17.06.93-26.16,1.83-11.23,1.11-21.82,2.57-31.74,4.25,5.24-42.4,33.45-112.81,33.45-112.81,17.02-24.56,19.04-8.58,36.06-33.14Z"/>
                </g>
                <path class="cls-8" d="M1595.63,1032.76c6.83-.18,13.37,2.75,17.78,7.98l43,50.96s7.83-1.6,8.56-16.59c.73-14.99,16.65-16.79,16.65-16.79,0,0-2.3,20.9-6.67,51.84-2.5,17.69-12.96,30.61-21.46,38.43l-24.88-8.56c-22.82-32.62-36.99-68.57-44.86-106.95l11.87-.31Z"/>
              </g>
              <path class="cls-2" d="M2000.94,1171.39c-2.87-.75-22.45-20.99-25.4-21.55-48.28-9.2-168.78-41.65-249.43,17.84-.2,1.72-.33,3.09-.41,4.23-.78,1.06-1.85,2.84-3.33,5.69-7.62,14.76-16.76,29.11-27.22,42.51,2.3,2.28,4.22,4.97,5.61,7.95,19.38,41.51,92.84,207.3,79.93,308.69-.67,5.24,2.9,10.06,8.13,10.78,28.52,3.94,113.45,13.56,157.32-4.56,2.55-1.05,4.19-3.56,4.15-6.32-.29-20.34.57-108.62,32.94-215.04,1.21-3.97,2.19-7.99,2.98-12.06.4.82.77,1.63,1.16,2.44l13.57-140.61Z"/>
              <path class="cls-2" d="M1927.27,1140.64c90.03,6.58,108.85,58.03,171.06,26.57l-11.02,96.35c-23.07,25.48-57.91,42.83-101.8,49.34l-58.25-172.26Z"/>
            </g>
            <g>
              <path class="cls-11" d="M1865.75,1053.5c15.43,30.75,21.87,62.07,23.8,91.23-3.32,1.24-47.6,31.95-77.23,2.22,6.34-20.4,5.29-51.12,3.68-82.63l49.76-10.82Z"/>
              <g>
                <path class="cls-17" d="M1785.43,972.66c-.85,1.37-22.98,105.72-22.98,105.72l59.85,11.37,35.67-95.79s-58.34-44.28-72.54-21.3Z"/>
                <path class="cls-9" d="M1835.12,1002.48c1.6,2.19,2.1,4.98,1.36,7.59l-14.61,51.14c-.22.78-.54,1.51-.97,2.19-2.36,3.77-10.84,15.18-22.27,5.81-9.74-7.98-18.81-15.18-26.93-16.98-4.74-1.05-9.41,2.06-10.4,6.81-2.04,9.8-5.76,29.65-6.58,47.76-.21,4.54,3.16,8.45,7.66,9,11.9,1.47,35.21,3.64,54.73,1.19,3.21-.4,5.92-2.53,7.08-5.54,5.12-13.26,19.63-50.38,25.33-60.23,5.3-9.15,19.39-10.01,25.87-9.9,2.46.04,4.81-.92,6.51-2.7,5.12-5.31,13.32-17.33-.59-30.22-3.46-3.2-3.6-8.67-.47-12.19,5.61-6.31,10.75-16.71.05-28.45-10.83-11.88-23.91-9.71-32.3-6.32-3.71,1.5-8.15.53-10.58-2.65-1.08-1.42-2.74-2.42-5.28-2.27-4.79.3-8.9-3.06-9.22-7.85-.56-8.22-4.44-18.05-18.74-21.56-26.24-6.44-40.77,19.42-41.22,38.07-.45,18.66,28.39,24.02,45.01,21.75,12.21-1.67,22.15,9.48,26.56,15.52Z"/>
                <path class="cls-15" d="M1840.55,1070.64s5.57-33.04,18.88-35.43c13.31-2.4,27.03,7.82,14.81,26.72-15.2,23.51-33.68,8.72-33.68,8.72Z"/>
              </g>
            </g>
            <g>
              <path class="cls-14" d="M1862.5,951.79c-2.32-.09-4.84.13-7.62.71-6.33,1.34-14.75,4.59-12.56,10.68,3.3,9.14,20.4.6,29.51,15.33,8.02,12.98,1.46,27.08,3.91,41.07,1.19,6.81,5.57,16.91,11.65,20.89,2.72,1.78,24.19,5.18,25.37,1.37,0,0,5.97-19.36,5.97-19.37,5.37-17.42-15.26-46.45-25.9-58.19-8.22-9.07-19.36-12.04-30.33-12.49Z"/>
              <g>
                <path class="cls-16" d="M1882.85,1021.71l20.54,17.1c39.39,16.75,68,36.49,88.74,57.85,7.51-14.12,19.66-30.45,39.04-43.19-39.7-19.56-69.26-27.68-69.26-27.68-80.13-32.22-79.07-4.07-79.07-4.07Z"/>
                <path class="cls-2" d="M1992.13,1096.66c64.75,66.68,45.83,32.8,46.35,89.64.19,21.19,18.58,102.11,18.58,102.11,198.03-85.55,32.77-202.32-25.89-234.94-19.38,12.74-31.53,29.07-39.04,43.19Z"/>
              </g>
            </g>
          </g>
        </g>
      </g>
    </g>
  </g>
</svg>