<?xml version="1.0" encoding="utf-8"?>
<!-- Generator: Adobe Illustrator 27.3.1, SVG Export Plug-In . SVG Version: 6.00 Build 0)  -->
<svg version="1.1" id="Layer_1" xmlns="http://www.w3.org/2000/svg" xmlns:xlink="http://www.w3.org/1999/xlink" x="0px" y="0px"
	 viewBox="0 0 635.8 488.6" style="enable-background:new 0 0 635.8 488.6;" xml:space="preserve">
<style type="text/css">
	.st0{fill-rule:evenodd;clip-rule:evenodd;fill:#9FB2D9;}
	.st1{fill-rule:evenodd;clip-rule:evenodd;fill:#E1E8F6;}
	.st2{fill-rule:evenodd;clip-rule:evenodd;fill:#C0CDEA;}
	.st3{fill:#FFAB03;}
	.st4{fill:#6B6B6B;}
	.st5{opacity:0.72;fill:#6B6B6B;enable-background:new    ;}
	.st6{opacity:0.72;}
	.st7{fill:#F68895;}
	.st8{fill:#57585B;}
	.st9{fill:#DB8C00;}
	.st10{fill:#C48017;}
	.st11{fill:#DDE1F4;}
	.st12{fill:#8B5A2A;}
	.st13{fill:#9A6A38;}
	.st14{fill:#4A4B4C;}
	.st15{fill:#FFAB00;}
	.st16{fill:#EFDCDC;}
	.st17{fill:#3A3582;}
	.st18{fill-rule:evenodd;clip-rule:evenodd;fill:#57585B;}
	.st19{fill-rule:evenodd;clip-rule:evenodd;fill:#4A4B4C;}
	.st20{fill-rule:evenodd;clip-rule:evenodd;fill:#2C2C2E;}
	.st21{fill:#FFFFFF;}
	.st22{fill:#E4E1E8;}
	.st23{fill-rule:evenodd;clip-rule:evenodd;fill:#D64C47;}
	.st24{fill:#191919;}
	.st25{fill:#1BAD00;}
	.st26{opacity:0.93;}
	.st27{opacity:0.59;}
	.st28{opacity:0.25;}
</style>
<path class="st0" d="M308.5,61.6c0.1-0.6-0.3-1.1-0.9-1.1c-0.6-0.1-1.1,0.3-1.1,0.9c0,0.1,0,0.1,0,0.2v2.5h-2.4
	c-0.6,0.1-1,0.6-0.9,1.1c0,0.4,0.4,0.9,0.9,0.9h2.4v2.5c0.1,0.6,0.6,1,1.1,0.9c0.4,0,0.9-0.4,0.9-0.9v-2.5h2.4
	c0.6,0.1,1.1-0.3,1.1-0.9c0.1-0.6-0.3-1.1-0.9-1.1c-0.1,0-0.1,0-0.2,0h-2.4L308.5,61.6L308.5,61.6z"/>
<path class="st1" d="M125.9,377.1H71.4C42,377.2,18.1,401,18.1,430.4l0,0c0.1,29.4,23.9,53.3,53.3,53.3h461.1
	c47.5,0,86.4-38.9,86.4-86.4l0,0c0-47.5-38.9-86.4-86.4-86.4l0,0c-20.2-0.1-36.4-16.4-36.5-36.5l0,0c0.1-20.2,16.4-36.4,36.5-36.5
	h43.9c21-0.1,37.9-17,38-38l0,0c0-20.9-17-37.8-38-37.9h-55.6c-8.2,0-14.7-6.6-14.8-14.8l0,0c0-8.2,6.6-14.7,14.8-14.8h9.8
	c5.6,0,10.2-4.5,10.2-10.2l0,0c0-5.6-4.5-10.2-10.2-10.2h-64.3c-13.5,0-15.1,16-49.3,16h-79.3c-7.4,0-13.3,6-13.3,13.4l0,0
	c0,7.4,6,13.3,13.3,13.4h12.8c10.6,0,19.3,8.6,19.3,19.3l0,0c0,10.6-8.6,19.3-19.3,19.3H312c-52,0-59.3,13.5-68.4,40.6
	s-56.3,29.2-56.3,29.2h-64.7c-16.1,0-29.1,13-29.1,29.1l0,0c0,16.1,13,29.1,29.1,29.1h3.4c15.4,0,27.9,12.5,28,28l0,0
	C153.8,364.5,141.4,377.1,125.9,377.1z M570.3,93.5c-6.2,0-11.2-5-11.2-11.2C559,76,564.1,71,570.3,71s11.2,5,11.2,11.2l0,0
	C581.5,88.4,576.5,93.5,570.3,93.5z"/>
<path class="st2" d="M601.4,248"/>
<path class="st0" d="M613.8,300.2c0-0.6-0.5-1.1-1.1-1.1s-1.1,0.5-1.1,1.1v2.7h-2.7c-0.6,0-1.1,0.5-1.1,1.1s0.5,1.1,1.1,1.1l0,0h2.7
	v2.7c0,0.6,0.5,1.1,1.1,1.1s1.1-0.5,1.1-1.1v-2.7h2.7c0.6,0,1.1-0.5,1.1-1.1s-0.5-1.1-1.1-1.1h-2.7V300.2z"/>
<path class="st0" d="M613.1,364.4c0-0.7-0.6-1.2-1.2-1.2s-1.2,0.6-1.2,1.2v3h-3c-0.7,0.1-1.2,0.7-1.1,1.5c0.1,0.7,0.6,1.1,1.1,1.1h3
	v3c0,0.7,0.6,1.2,1.2,1.2s1.2-0.6,1.2-1.2v-3h3c0.7,0.1,1.3-0.4,1.5-1.1c0.1-0.7-0.4-1.3-1.1-1.5c-0.1,0-0.1,0-0.2,0h-3v-3H613.1z"
	/>
<path class="st0" d="M536.2,98.8c0.1-0.7-0.4-1.3-1.1-1.5c-0.7-0.1-1.3,0.4-1.5,1.1c0,0.1,0,0.1,0,0.2v3.1h-3
	c-0.7,0-1.2,0.6-1.2,1.2s0.6,1.2,1.2,1.2l0,0h3v3.1c0.1,0.7,0.7,1.2,1.5,1.1c0.7-0.1,1.1-0.6,1.1-1.1v-3h3c0.7,0,1.2-0.6,1.2-1.2
	c0-0.7-0.6-1.2-1.2-1.2h-3V98.8z"/>
<path class="st0" d="M391.1,50.8c0-0.7-0.6-1.2-1.2-1.2s-1.2,0.6-1.2,1.2v3h-3c-0.7,0-1.2,0.6-1.2,1.2c0,0.7,0.6,1.2,1.2,1.2l0,0h3
	v3c0,0.7,0.6,1.2,1.2,1.2s1.2-0.6,1.2-1.2l0,0v-3h3c0.7,0,1.2-0.6,1.2-1.2c0-0.7-0.6-1.2-1.2-1.2h-3V50.8z"/>
<path class="st0" d="M32.5,306.3c-0.1-0.7-0.7-1.2-1.5-1.1c-0.7,0.1-1.1,0.6-1.1,1.1v3h-3c-0.7,0.1-1.2,0.7-1.1,1.5
	c0.1,0.7,0.6,1.1,1.1,1.1h2.9v3c0.1,0.7,0.7,1.2,1.5,1.1c0.7-0.1,1.1-0.6,1.1-1.1v-3h3c0.7-0.1,1.2-0.7,1.1-1.5
	c-0.1-0.7-0.6-1.1-1.1-1.1h-3L32.5,306.3z"/>
<path class="st0" d="M157.4,140.9c0-0.7-0.6-1.2-1.2-1.2s-1.2,0.6-1.2,1.2l0,0v3h-3c-0.7,0-1.2,0.6-1.2,1.2c0,0.7,0.6,1.2,1.2,1.2
	l0,0h3v3c0,0.7,0.6,1.2,1.2,1.2s1.2-0.6,1.2-1.2l0,0v-3h3c0.7,0,1.2-0.6,1.2-1.2c0-0.7-0.6-1.2-1.2-1.2l0,0h-3V140.9z"/>
<path class="st0" d="M10.7,428.3c0-0.7-0.6-1.2-1.2-1.2s-1.2,0.6-1.2,1.2v3h-3c-0.7,0.1-1.2,0.7-1.1,1.5c0.1,0.7,0.6,1.1,1.1,1.1h3
	v3c0,0.7,0.6,1.2,1.2,1.2s1.2-0.6,1.2-1.2v-3h3c0.7-0.1,1.2-0.7,1.1-1.5c-0.1-0.7-0.6-1.1-1.1-1.1h-3V428.3z"/>
<g>
	<g>
		<path class="st3" d="M371.2,276.9L261,172.6c-2.1-2-2.2-5.3-0.2-7.4l57.2-60.5c2-2.1,5.3-2.2,7.4-0.2l110.3,104.3
			c2.1,2,2.2,5.3,0.2,7.4l-57.2,60.5C376.7,278.8,373.3,278.9,371.2,276.9z"/>
		
			<rect x="355.2" y="92.3" transform="matrix(0.687 -0.7266 0.7266 0.687 -11.9578 319.1342)" class="st4" width="18.6" height="162.3"/>
		
			<rect x="328.3" y="126.4" transform="matrix(0.687 -0.7266 0.7266 0.687 -22.8501 298.9574)" class="st5" width="14.6" height="99.3"/>
		<path class="st5" d="M285.6,180.4l-9-8.5c-1.6-1.5-1.7-4-0.2-5.6l7.3-7.7c1.5-1.6,4-1.7,5.6-0.2l9,8.5c1.6,1.5,1.7,4,0.2,5.6
			l-7.3,7.7C289.7,181.8,287.2,181.9,285.6,180.4z"/>
		<g class="st6">
			<g>
				<path class="st7" d="M384.7,251l-71.6-67.7c-0.4-0.4-0.4-1,0-1.5l0,0c0.4-0.4,1-0.4,1.5,0l71.6,67.7c0.4,0.4,0.4,1,0,1.5l0,0
					C385.7,251.4,385.1,251.4,384.7,251z"/>
				<path class="st7" d="M378.8,257.3l-71.6-67.7c-0.4-0.4-0.4-1,0-1.5l0,0c0.4-0.4,1-0.4,1.5,0l71.6,67.7c0.4,0.4,0.4,1,0,1.5l0,0
					C379.8,257.6,379.2,257.6,378.8,257.3z"/>
				<path class="st7" d="M373.1,263.3l-71.6-67.7c-0.4-0.4-0.4-1,0-1.5l0,0c0.4-0.4,1-0.4,1.5,0l71.6,67.7c0.4,0.4,0.4,1,0,1.5l0,0
					C374.1,263.7,373.5,263.7,373.1,263.3z"/>
			</g>
		</g>
	</g>
	<g>
		<path class="st8" d="M528.2,398.6l0.1,25.4c0,1.9,1.5,3.4,3.4,3.4l46.3-0.1c1.9,0,3.4-1.5,3.4-3.4l-0.1-25.4
			c0-1.9-1.5-3.4-3.4-3.4h-12.2v-3.3c0-1.6-1.3-3-3-3h-15.9c-1.6,0-3,1.3-3,3v3.3h-12.2C529.7,395.2,528.2,396.7,528.2,398.6z
			 M562.8,395.1h-16v-3.3l0,0h15.9l0,0L562.8,395.1z"/>
		
			<rect x="528.3" y="407" transform="matrix(1 -2.859632e-03 2.859632e-03 1 -1.1631 1.5883)" class="st9" width="53.1" height="1"/>
	</g>
	<path class="st10" d="M414.1,440.6h1.1c-1,0-1.5,0.1-1.5,0.1L414.1,440.6z"/>
	<g>
		<path class="st3" d="M564.4,470.7v6.4c0,1.9-1.6,3.5-3.5,3.5H430.6c-1.9,0-3.5-1.6-3.5-3.5v-6.4c0-1.9,1.6-3.5,3.5-3.5H561
			C562.8,467.2,564.4,468.7,564.4,470.7z"/>
		<path class="st3" d="M585.9,457.3v6.4c0,1.9-1.6,3.5-3.5,3.5H452.1c-1.9,0-3.5-1.6-3.5-3.5v-6.4c0-1.9,1.6-3.5,3.5-3.5h130.3
			C584.3,453.9,585.9,455.4,585.9,457.3z"/>
		<path class="st3" d="M591.7,430.8v6.4c0,1.9-1.6,3.5-3.5,3.5H457.8c-1.9,0-3.5-1.6-3.5-3.5v-6.4c0-1.9,1.6-3.5,3.5-3.5h130.4
			C590.1,427.3,591.7,428.9,591.7,430.8z"/>
		<path class="st3" d="M571.7,444v6.4c0,1.9-1.6,3.5-3.5,3.5H437.8c-1.9,0-3.5-1.6-3.5-3.5V444c0-1.9,1.6-3.5,3.5-3.5h130.4
			C570.1,440.6,571.7,442.1,571.7,444z"/>
		<path class="st9" d="M564.4,470.7v6.4c0,1.9-1.6,3.5-3.5,3.5H543c-6-8.6-26.4-12.1-46.3-13.3h64.2
			C562.8,467.2,564.4,468.7,564.4,470.7z"/>
		<path class="st9" d="M533.8,453.9c-37.3,0-56.3,9.1-63.1,13.3h-18.5c-1.9,0-3.5-1.6-3.5-3.5v-6.4c0-1.9,1.6-3.5,3.5-3.5h81.6
			V453.9z"/>
		<path class="st9" d="M457.8,427.3h70.4c-23.4,0.1-55.6,12-56.7,13.2l-0.1,0.1h-13.7c-1.9,0-3.5-1.6-3.5-3.5v-6.4
			C454.3,428.9,455.9,427.3,457.8,427.3z"/>
	</g>
	<path class="st11" d="M486.1,427.3c-0.3,0-0.5,0-0.8,0H486.1z"/>
	<g>
		<path class="st12" d="M416.5,333.1l-4.4-3.1c0,0-1.8-10.3-13.3-10.7c0,0-4.7,0.2-3.1,3.3c1.6,3.1,1.4,1.8,3.5,6.2
			c2.1,4.5,6.1,7.8,9.6,7.9l3.8,1.7L416.5,333.1z"/>
		<path class="st9" d="M412.2,329.9l-3.1,5.6c0,0,42.5,39.1,48.9,33.6c0,0,36.6-46.7,31.9-71.2c-4.2-22.2-13.3-22.9-15-22.8
			c-0.2,0-0.3,0-0.3,0s-5.1-3.8-23.2,73C443.7,342.5,434.4,341,412.2,329.9z"/>
		<path class="st9" d="M358.3,471.7l-2.9,8.8h-29.2C326.2,480.5,333.7,468.7,358.3,471.7z"/>
		<path class="st12" d="M462.3,281.5c-2.9-7.5-3.9-12.1-3.9-12.1l12.6-15.2c2.8,16.8,15.1,22.7,15.1,22.7s-18.1,13.9-30.4,12.6
			C455.7,289.4,457.9,285.2,462.3,281.5z"/>
		<path class="st13" d="M454.8,269.8c0,0,19.8-0.7,19.2-13s1.5-20.7-11.1-20.8c-12.7-0.1-14.9,4.7-15.7,8.9
			C446.4,249,449.7,269.6,454.8,269.8z"/>
		<path d="M474.1,257.6c0,0-3.6-16-21.6-15c-12.3,0.6-7.1-10.8-6-12.7c0,0,9.5-0.1,19.3,0.1C486.2,230.3,475.7,254.8,474.1,257.6z"
			/>
		<path class="st3" d="M371.6,471.7l-2.9,8.8h-29.2C339.5,480.5,347,468.7,371.6,471.7z"/>
		<path class="st14" d="M509.9,377.8c0,0-49.6,8.1-66.2,11.3c-24.4,4.8-37.7,8.6-37.7,8.6l-67.3,74.6h25c0,0,55.9-36.1,63-45h61.5
			C488.3,427.3,527.9,420.5,509.9,377.8z"/>
		<path class="st15" d="M518.2,382.3c-20.8,10.1-43.9,16.4-51.8,18.3c-0.5,0.1-0.9,0-1.3-0.1c-0.7-0.3-1.2-1.1-1.1-2
			c0.1-1,0.2-2.4,0.3-4.3c0.1-5.2-0.5-13.5-3.6-25c0,0,0,0,0-0.1c-1.4-5-3.3-11.4-5.3-18.3c0-0.1,0-0.1,0-0.2
			c-1.4-4.9-2.8-10.1-3.9-15.3l0,0c-2-9.1-3.3-17.9-2.5-24.7c1-9.7,4.1-17.2,8-22.8c0,0,3.1-4.5,3.2-4.5c4.2-0.1,8.3-1.3,12.1-4.3
			c4.1-3.3,8.5-6.9,9.4-6.5c12.6,5.6,23.2,30.4,27.9,58.4c3.9,22.9,8.7,42,10.3,48.3C519.9,380.4,519.3,381.7,518.2,382.3z"/>
		<path class="st8" d="M393,314l6.9-4.7c0.1,0,0.1-0.1,0.2-0.1l1.2-0.5l6.5,19.9l-5.5,4.5l-1,0.4l0,0l0,0l0,0
			c-0.4,0.2-1-0.1-1.3-0.7l-7.1-17.5C392.5,314.8,392.6,314.3,393,314z"/>
		<path class="st14" d="M409.1,327.4l-6.5,5.5c-0.5,0.4-1.2,0.1-1.5-0.6l-7.1-17.5c-0.2-0.5-0.1-1.1,0.3-1.3l6.9-4.7
			c0.5-0.3,1.1,0,1.4,0.6l6.8,16.8C409.5,326.7,409.4,327.2,409.1,327.4z"/>
		<polygon class="st16" points="408,325.3 401.6,330.7 395.1,314.8 401.8,310.2 		"/>
		<path class="st17" d="M405.5,329c-0.1-0.3,0-0.7,0.3-0.8c0.2-0.1,0.5,0.1,0.6,0.4s0,0.7-0.3,0.8
			C405.8,329.4,405.5,329.3,405.5,329z"/>
		<g>
			<g>
				<path class="st3" d="M401.8,322.5c0.1,0.1,0.2,0.2,0.3,0.3s0.3,0.2,0.4,0.2s0.3,0.1,0.5,0.1c0.1,0,0.3,0,0.4-0.1
					c0.1,0,0.2-0.1,0.3-0.2s0.1-0.3,0.1-0.4c0-0.2-0.1-0.4-0.2-0.7h1.5c0.2,0.5,0.3,0.9,0.4,1.2c0,0.3,0,0.6-0.1,0.8
					c-0.1,0.2-0.3,0.4-0.5,0.5s-0.5,0.2-0.7,0.2l0.5,1.1h-0.8l-0.5-1.2c-0.3,0-0.7-0.1-1-0.2s-0.6-0.3-0.9-0.5
					c-0.3-0.2-0.5-0.4-0.7-0.7c-0.2-0.3-0.4-0.6-0.6-0.9c-0.2-0.4-0.3-0.7-0.3-1s0-0.5,0.1-0.7s0.3-0.4,0.5-0.6s0.4-0.3,0.7-0.5
					c0.2-0.1,0.3-0.2,0.4-0.3c0.1-0.1,0.2-0.2,0.2-0.3c0-0.1,0.1-0.2,0-0.3c0-0.1-0.1-0.2-0.1-0.4c-0.1-0.1-0.1-0.3-0.2-0.4
					c-0.1-0.1-0.2-0.2-0.3-0.3c-0.1-0.1-0.2-0.2-0.4-0.2c-0.1-0.1-0.3-0.1-0.4-0.1c-0.3,0-0.5,0.1-0.5,0.4c-0.1,0.2,0,0.6,0.2,1
					h-1.5c-0.2-0.4-0.3-0.7-0.3-1.1c0-0.3,0-0.6,0-0.8c0.1-0.2,0.2-0.4,0.4-0.6s0.4-0.2,0.7-0.3l-0.6-1.3h0.8l0.6,1.2
					c0.3,0,0.7,0.1,1,0.2s0.6,0.3,0.9,0.5c0.3,0.2,0.5,0.4,0.7,0.7c0.2,0.3,0.4,0.6,0.6,0.9c0.2,0.4,0.3,0.7,0.3,1s0,0.5-0.1,0.7
					s-0.3,0.4-0.5,0.6s-0.5,0.3-0.7,0.5c-0.2,0.1-0.3,0.2-0.4,0.3c-0.1,0.1-0.2,0.2-0.2,0.3c0,0.1-0.1,0.2,0,0.3
					c0,0.1,0.1,0.3,0.1,0.4C401.7,322.2,401.7,322.3,401.8,322.5z"/>
			</g>
		</g>
		<path class="st13" d="M416.5,339.6l-4.4-3.1c0,0-1.8-10.3-13.3-10.7c0,0-4.7,0.2-3.1,3.3c1.6,3.1,1.4,1.8,3.5,6.2
			c2.1,4.5,6.1,7.8,9.6,7.9l3.8,1.7L416.5,339.6z"/>
		<path class="st9" d="M482.9,365.6c-0.2,7.9-7.3,24.1-18.7,28.4c0.1-5.2-0.5-13.5-3.6-25c0,0,0,0,0-0.1c-1.4-5-3.3-11.4-5.3-18.3
			l20.8-30.3C476.1,320.4,483.1,357.1,482.9,365.6z"/>
		<path class="st8" d="M518.2,382.3c0,0-28.9,0.4-66.3,8.8c-13.7,3.1-42.8,9.5-42.8,9.5l-61.7,71.7h25c0,0,55.9-36.1,63-45h61.5
			C497,427.3,536.2,425,518.2,382.3z"/>
		<path class="st9" d="M481.7,314.7c0,0-15,30.1-16.6,31.8c-1.3,1.3-7.5,3.3-9.9,4.1c-1.4-4.9-2.8-10.1-3.9-15.3l0,0
			c0,0,3.9-6.4,5.8-13c1.9-6.5,12-21.8,12-21.8l7.8,5.1L481.7,314.7z"/>
		<path class="st3" d="M412.8,336.5l-3.7,7.1c0,0,42.5,39.1,48.9,33.6c0,0,36.6-46.7,31.9-71.2c-4.2-22.2-13.3-22.9-15-22.8
			c-0.2,0-0.3,0-0.3,0s-5.1-3.8-23.2,73C443.7,350.6,435.1,347.6,412.8,336.5z"/>
	</g>
</g>
<g>
	<path class="st18" d="M249.3,404.6h-58.9c-0.5,0-1,0.3-1,1l-10.5,74.7c0,0.3,0.2,0.7,0.5,1h0.2H260c0.3,0,0.7-0.3,0.7-0.7v-0.2
		l-10.5-74.7C250.1,404.9,249.6,404.6,249.3,404.6z"/>
	<path class="st19" d="M284.4,474.3H157.3c-4.7,0-8.5,1.5-8.5,3.4l0,0c0,1.9,3.7,3.4,8.5,3.4h127.1c4.7,0,8.5-1.5,8.5-3.4l0,0
		C292.9,475.9,289,474.3,284.4,474.3z"/>
	<path class="st14" d="M66.8,239.7h281.8c2.5,0,4.3,1.8,4.3,4.3v188.3c0,2.5-1.8,4.3-4.3,4.3H66.8c-2.5,0-4.3-1.8-4.3-4.3l0,0V244.1
		C62.3,241.6,64.3,239.7,66.8,239.7L66.8,239.7z"/>
	<path class="st8" d="M80.4,239.7h281.8c2.5,0,4.3,1.8,4.3,4.3l0,0v188.5c0,2.5-1.8,4.3-4.3,4.3H80.4c-2.5,0-4.3-1.8-4.3-4.3V244.1
		C76.1,241.6,78.2,239.7,80.4,239.7z"/>
	<path class="st20" d="M359.9,242.6h-277c-1.5,0-2.8,1.3-2.8,2.8v169.9c0,1.2,0.7,1.8,1.8,1.8h279.2c1.2,0,1.8-0.7,1.8-1.8V245.4
		C362.9,243.9,361.6,242.6,359.9,242.6L359.9,242.6z"/>
	<rect x="88.1" y="250.6" class="st21" width="266.4" height="158.2"/>
	<path class="st19" d="M196.7,446.5l-2.8,24.8h-12.6l4-34.3h69.5l1,8.7h-57.9C197.2,445.2,196.9,445.8,196.7,446.5z"/>
	<rect x="88.1" y="250.6" class="st4" width="267.4" height="9.2"/>
	<rect x="89.7" y="252.7" class="st22" width="67.2" height="5.2"/>
	<path class="st23" d="M153.6,256.4c0.5,0,1.2-0.5,1.2-1.2c0-0.5-0.5-1.2-1.2-1.2s-1.2,0.5-1.2,1.2l0,0
		C152.6,255.9,153.1,256.4,153.6,256.4z"/>
	<path class="st23" d="M150.3,256.4c0.5,0,1.2-0.5,1.2-1.2c0-0.5-0.5-1.2-1.2-1.2c-0.5,0-1.2,0.5-1.2,1.2l0,0
		C149.1,255.9,149.6,256.4,150.3,256.4z"/>
	<path class="st23" d="M146.8,256.4c0.5,0,1.2-0.5,1.2-1.2c0-0.5-0.5-1.2-1.2-1.2s-1.2,0.5-1.2,1.2l0,0
		C145.6,255.9,146.1,256.4,146.8,256.4z"/>
	<rect x="160.3" y="252.7" class="st22" width="67.2" height="5.2"/>
	<path class="st23" d="M224.1,256.4c0.5,0,1.2-0.7,1-1.3c0-0.5-0.5-1-1-1s-1.3,0.3-1.3,1s0.3,1.3,1,1.3
		C224,256.4,224,256.4,224.1,256.4z"/>
	<path class="st23" d="M220.5,256.4c0.5,0,1.2-0.7,1-1.3c0-0.5-0.5-1-1-1s-1.3,0.3-1.3,1s0.3,1.3,1,1.3
		C220.3,256.4,220.5,256.4,220.5,256.4z"/>
	<path class="st23" d="M217.2,256.4c0.5,0,1.2-0.5,1.2-1.2c0-0.5-0.5-1.2-1.2-1.2c-0.5,0-1.2,0.5-1.2,1.2l0,0
		C215.8,255.9,216.5,256.4,217.2,256.4z"/>
	<g>
		<g>
			<path class="st24" d="M216,401.7c-31.6,0-57.4-25.7-57.4-57.4s25.7-57.4,57.4-57.4s57.4,25.7,57.4,57.4S247.6,401.7,216,401.7z
				 M216,290.3c-29.8,0-54.1,24.3-54.1,54.1c0,29.8,24.3,54.1,54.1,54.1s54.1-24.3,54.1-54.1C270.1,314.5,245.8,290.3,216,290.3z"/>
		</g>
	</g>
	<path class="st25" d="M177.4,323.8c0,0,22.7,40,34.8,63.8c0,0,33-82.7,53.1-110.4c0,0-37.7,32.4-58,65.3
		C207.4,342.6,193.8,333.9,177.4,323.8z"/>
</g>
<g>
	<g class="st26">
		<g>
			<path class="st3" d="M251.3,217.2c0-0.6,0-1.1-0.2-1.6c-0.1-0.5-0.4-0.9-0.8-1.3c-0.4-0.4-0.8-0.8-1.4-1.1s-1.3-0.7-2.2-1
				c-1.5-0.6-2.8-1.2-4-1.9c-1.2-0.6-2.2-1.4-3-2.2s-1.4-1.7-1.9-2.7c-0.4-1-0.6-2.2-0.5-3.6c0.1-1.2,0.3-2.3,0.8-3.3s1.1-1.8,2-2.5
				c0.8-0.7,1.8-1.2,2.9-1.6c1.1-0.4,2.4-0.6,3.8-0.7l0.3-4.5l3.7,0.2l-0.3,4.6c1.3,0.2,2.5,0.7,3.5,1.2c1,0.6,1.9,1.3,2.6,2.2
				c0.7,0.9,1.2,1.9,1.6,3.1c0.3,1.2,0.5,2.5,0.4,3.9L252,204c0.1-1.7-0.2-3-0.9-3.9c-0.7-0.9-1.7-1.4-3-1.4c-0.7,0-1.3,0-1.8,0.2
				s-0.9,0.4-1.3,0.7c-0.3,0.3-0.6,0.7-0.8,1.1c-0.2,0.4-0.3,0.9-0.3,1.5c0,0.5,0,1,0.1,1.4s0.4,0.8,0.7,1.2
				c0.4,0.4,0.8,0.8,1.4,1.1c0.6,0.4,1.3,0.7,2.2,1.1c1.4,0.6,2.8,1.3,3.9,1.9c1.2,0.7,2.2,1.4,3,2.2s1.4,1.7,1.9,2.8
				c0.4,1,0.6,2.2,0.5,3.6c-0.1,1.2-0.4,2.4-0.8,3.3c-0.5,1-1.2,1.8-2,2.5s-1.8,1.2-3,1.6c-1.1,0.4-2.4,0.6-3.8,0.6l-0.2,4.2
				l-3.6-0.2l0.2-4.2c-1.3-0.2-2.5-0.5-3.6-1c-1.2-0.5-2.2-1.2-3-2c-0.9-0.9-1.5-1.9-2-3.2c-0.5-1.2-0.7-2.7-0.6-4.4l6.6,0.4
				c-0.1,1,0,1.9,0.3,2.5c0.2,0.7,0.6,1.2,1,1.7c0.4,0.4,1,0.7,1.6,0.9s1.2,0.3,1.8,0.4c0.7,0,1.3,0,1.9-0.2s1-0.4,1.4-0.7
				s0.7-0.7,0.9-1.1C251.2,218.2,251.3,217.7,251.3,217.2z"/>
		</g>
	</g>
	<g class="st27">
		<g>
			<path class="st3" d="M219.3,195.3c0-0.4-0.1-0.8-0.3-1.1c-0.2-0.3-0.4-0.6-0.7-0.8c-0.3-0.2-0.7-0.4-1.1-0.6
				c-0.4-0.2-1-0.3-1.6-0.5c-1.1-0.2-2-0.5-2.9-0.8s-1.7-0.7-2.3-1.1c-0.7-0.4-1.2-1-1.6-1.7s-0.7-1.5-0.8-2.4
				c-0.1-0.8,0-1.6,0.2-2.3s0.6-1.4,1.1-1.9c0.5-0.6,1.1-1.1,1.8-1.5c0.7-0.4,1.6-0.7,2.5-0.9l-0.4-3.1l2.5-0.3l0.4,3.2
				c0.9,0,1.8,0.2,2.5,0.4c0.8,0.3,1.5,0.7,2,1.2c0.6,0.5,1.1,1.1,1.4,1.9c0.4,0.8,0.6,1.6,0.7,2.6l-4.5,0.5c-0.1-1.2-0.5-2-1.1-2.5
				s-1.3-0.7-2.2-0.6c-0.5,0.1-0.9,0.2-1.2,0.3c-0.3,0.2-0.6,0.4-0.8,0.6c-0.2,0.3-0.3,0.5-0.4,0.9c-0.1,0.3-0.1,0.7,0,1
				c0,0.4,0.1,0.7,0.3,1c0.1,0.3,0.4,0.5,0.6,0.7c0.3,0.2,0.7,0.4,1.1,0.6c0.4,0.2,1,0.3,1.7,0.5c1.1,0.3,2,0.5,2.9,0.8
				s1.6,0.7,2.3,1.1c0.7,0.5,1.2,1,1.6,1.7s0.7,1.5,0.8,2.4c0.1,0.9,0,1.6-0.2,2.4c-0.2,0.7-0.6,1.4-1.1,1.9c-0.5,0.6-1.1,1-1.8,1.4
				c-0.7,0.4-1.6,0.7-2.5,0.9l0.3,2.9l-2.5,0.3l-0.3-2.9c-0.9,0-1.7-0.1-2.6-0.3c-0.8-0.2-1.6-0.5-2.3-1c-0.7-0.5-1.3-1.1-1.7-1.9
				c-0.5-0.8-0.8-1.8-0.9-2.9l4.5-0.5c0.1,0.7,0.2,1.3,0.5,1.7c0.2,0.4,0.5,0.8,0.9,1s0.7,0.4,1.2,0.5c0.4,0.1,0.9,0.1,1.3,0
				c0.5-0.1,0.9-0.2,1.3-0.3c0.4-0.2,0.6-0.4,0.9-0.6c0.2-0.3,0.4-0.5,0.5-0.9C219.3,196,219.4,195.7,219.3,195.3z"/>
		</g>
	</g>
	<g class="st28">
		<g>
			<path class="st3" d="M234.4,162.7c0.1-0.3,0.1-0.6,0-0.8c0-0.2-0.1-0.5-0.3-0.7c-0.1-0.2-0.3-0.4-0.6-0.7c-0.3-0.2-0.6-0.4-1-0.7
				c-0.7-0.4-1.3-0.8-1.8-1.2s-1-0.8-1.3-1.3s-0.6-1-0.7-1.5s-0.1-1.1,0-1.8c0.1-0.6,0.4-1.1,0.7-1.5c0.3-0.4,0.7-0.8,1.2-1.1
				s1-0.5,1.6-0.6s1.2-0.1,1.9,0l0.5-2.2l1.8,0.4l-0.5,2.2c0.6,0.2,1.2,0.5,1.6,0.9c0.5,0.4,0.8,0.8,1.1,1.3c0.3,0.5,0.4,1,0.5,1.6
				s0,1.2-0.1,1.9l-3.2-0.7c0.2-0.8,0.1-1.5-0.1-2c-0.3-0.5-0.7-0.8-1.3-0.9c-0.3-0.1-0.6-0.1-0.9-0.1s-0.5,0.1-0.7,0.2
				c-0.2,0.1-0.3,0.3-0.5,0.5c-0.1,0.2-0.2,0.4-0.3,0.7c-0.1,0.3-0.1,0.5,0,0.7c0,0.2,0.1,0.4,0.3,0.7c0.1,0.2,0.3,0.4,0.6,0.7
				c0.3,0.2,0.6,0.5,1,0.7c0.7,0.4,1.2,0.8,1.8,1.3c0.5,0.4,1,0.9,1.3,1.3c0.3,0.5,0.6,1,0.7,1.5s0.1,1.1,0,1.8
				c-0.1,0.6-0.4,1.1-0.7,1.6c-0.3,0.4-0.7,0.8-1.2,1c-0.5,0.3-1,0.4-1.6,0.5s-1.2,0.1-1.9,0l-0.5,2L230,168l0.5-2
				c-0.6-0.2-1.2-0.5-1.7-0.8s-1-0.7-1.3-1.2c-0.4-0.5-0.6-1.1-0.7-1.7c-0.1-0.7-0.1-1.4,0.1-2.2l3.2,0.7c-0.1,0.5-0.1,0.9-0.1,1.3
				c0.1,0.4,0.2,0.7,0.4,0.9c0.2,0.2,0.4,0.4,0.7,0.6c0.3,0.1,0.6,0.3,0.9,0.3c0.3,0.1,0.7,0.1,0.9,0.1c0.3,0,0.5-0.1,0.7-0.2
				c0.2-0.1,0.4-0.3,0.5-0.5C234.2,163.2,234.3,163,234.4,162.7z"/>
		</g>
	</g>
</g>
</svg>
