<?xml version="1.0" encoding="utf-8"?>
<!-- Generator: Adobe Illustrator 27.3.1, SVG Export Plug-In . SVG Version: 6.00 Build 0)  -->
<svg version="1.1" id="Layer_1" xmlns="http://www.w3.org/2000/svg" xmlns:xlink="http://www.w3.org/1999/xlink" x="0px" y="0px"
	 viewBox="0 0 863.4 488.6" style="enable-background:new 0 0 863.4 488.6;" xml:space="preserve">
<style type="text/css">
	.st0{opacity:0.1;}
	.st1{fill:none;}
	.st2{fill-rule:evenodd;clip-rule:evenodd;fill:#231F20;}
	.st3{fill-rule:evenodd;clip-rule:evenodd;fill:#9FB2D9;}
	.st4{fill-rule:evenodd;clip-rule:evenodd;fill:#E1E8F6;}
	.st5{fill-rule:evenodd;clip-rule:evenodd;fill:#00000F;}
	.st6{fill-rule:evenodd;clip-rule:evenodd;fill:#C0CDEA;}
	.st7{fill:none;stroke:#FFAB03;stroke-width:4.03;stroke-miterlimit:10;}
	.st8{fill:#57585B;}
	.st9{fill:#FFAB03;}
	.st10{fill:#6B6B6B;}
	.st11{opacity:0.72;fill:#6B6B6B;}
	.st12{opacity:0.72;}
	.st13{fill:#F68895;}
	.st14{fill:#DB8C00;}
	.st15{fill:#C48017;}
	.st16{fill:#DDE1F4;}
	.st17{fill:#8B5A2A;}
	.st18{fill:#9A6A38;}
	.st19{fill:#4A4B4C;}
	.st20{fill:#FFAB00;}
	.st21{fill:#EFDCDC;}
	.st22{fill:#3A3582;}
	.st23{fill:#1BAD00;}
	.st24{fill-rule:evenodd;clip-rule:evenodd;fill:#57585B;}
	.st25{fill-rule:evenodd;clip-rule:evenodd;fill:#4A4B4C;}
	.st26{fill-rule:evenodd;clip-rule:evenodd;fill:#2C2C2E;}
	.st27{fill:#FFFFFF;}
	.st28{fill:#E4E1E8;}
	.st29{fill-rule:evenodd;clip-rule:evenodd;fill:#D64C47;}
	.st30{fill:#191919;}
	.st31{opacity:0.93;}
	.st32{opacity:0.59;}
	.st33{opacity:0.25;}
</style>
<g class="st0">
	<g>
		<g>
			<g>
				<g>
					<g>
						<rect x="273.5" y="38.1" class="st1" width="15" height="12.5"/>
					</g>
					<rect x="280" y="47.5" class="st2" width="1.5" height="2.3"/>
					<rect x="280" y="43.3" class="st2" width="1.5" height="2.3"/>
					<rect x="280" y="39.2" class="st2" width="1.5" height="2.3"/>
				</g>
			</g>
			<g>
				<g>
					<g>
						<rect x="273.5" y="50.7" class="st1" width="15" height="12.5"/>
					</g>
					<rect x="280" y="60.1" class="st2" width="1.5" height="2.3"/>
					<rect x="280" y="55.9" class="st2" width="1.5" height="2.3"/>
					<rect x="280" y="51.7" class="st2" width="1.5" height="2.3"/>
				</g>
			</g>
			<g>
				<g>
					<g>
						<rect x="273.5" y="63.2" class="st1" width="15" height="12.5"/>
					</g>
					<rect x="280" y="72.6" class="st2" width="1.5" height="2.3"/>
					<rect x="280" y="68.4" class="st2" width="1.5" height="2.3"/>
					<rect x="280" y="64.3" class="st2" width="1.5" height="2.3"/>
				</g>
			</g>
			<g>
				<g>
					<g>
						<rect x="273.5" y="75.8" class="st1" width="15" height="12.5"/>
					</g>
					<rect x="280" y="85.1" class="st2" width="1.5" height="2.3"/>
					<rect x="280" y="81" class="st2" width="1.5" height="2.3"/>
					<rect x="280" y="76.8" class="st2" width="1.5" height="2.3"/>
				</g>
			</g>
			<g>
				<g>
					<g>
						<rect x="273.5" y="88.4" class="st1" width="15" height="12.5"/>
					</g>
					<rect x="280" y="97.7" class="st2" width="1.5" height="2.3"/>
					<rect x="280" y="93.5" class="st2" width="1.5" height="2.3"/>
					<rect x="280" y="89.4" class="st2" width="1.5" height="2.3"/>
				</g>
			</g>
			<g>
				<g>
					<g>
						<rect x="273.5" y="101" class="st1" width="15" height="12.5"/>
					</g>
					<rect x="280" y="110.2" class="st2" width="1.5" height="2.3"/>
					<rect x="280" y="106.1" class="st2" width="1.5" height="2.3"/>
					<rect x="280" y="101.9" class="st2" width="1.5" height="2.3"/>
				</g>
			</g>
			<g>
				<g>
					<g>
						<rect x="273.5" y="113.5" class="st1" width="15" height="12.5"/>
					</g>
					<rect x="280" y="122.8" class="st2" width="1.5" height="2.3"/>
					<rect x="280" y="118.6" class="st2" width="1.5" height="2.3"/>
					<rect x="280" y="114.5" class="st2" width="1.5" height="2.3"/>
				</g>
			</g>
			<g>
				<g>
					<g>
						<rect x="273.5" y="126.1" class="st1" width="15" height="12.5"/>
					</g>
					<rect x="280" y="135.3" class="st2" width="1.5" height="2.3"/>
					<rect x="280" y="131.2" class="st2" width="1.5" height="2.3"/>
					<rect x="280" y="127" class="st2" width="1.5" height="2.3"/>
				</g>
			</g>
			<g>
				<g>
					<g>
						<rect x="273.5" y="138.6" class="st1" width="15" height="12.5"/>
					</g>
					<rect x="280" y="147.9" class="st2" width="1.5" height="2.3"/>
					<rect x="280" y="143.7" class="st2" width="1.5" height="2.3"/>
					<rect x="280" y="139.6" class="st2" width="1.5" height="2.3"/>
				</g>
			</g>
			<g>
				<g>
					<g>
						<rect x="273.5" y="151.2" class="st1" width="15" height="12.5"/>
					</g>
					<rect x="280" y="160.4" class="st2" width="1.5" height="2.3"/>
					<rect x="280" y="156.3" class="st2" width="1.5" height="2.3"/>
					<rect x="280" y="152.1" class="st2" width="1.5" height="2.3"/>
				</g>
			</g>
			<g>
				<g>
					<g>
						<rect x="273.5" y="163.7" class="st1" width="15" height="12.5"/>
					</g>
					<rect x="280" y="173" class="st2" width="1.5" height="2.3"/>
					<rect x="280" y="168.8" class="st2" width="1.5" height="2.3"/>
					<rect x="280" y="164.6" class="st2" width="1.5" height="2.3"/>
				</g>
			</g>
			<g>
				<g>
					<g>
						<rect x="273.5" y="176.3" class="st1" width="15" height="12.5"/>
					</g>
					<rect x="280" y="185.5" class="st2" width="1.5" height="2.3"/>
					<rect x="280" y="181.4" class="st2" width="1.5" height="2.3"/>
					<rect x="280" y="177.2" class="st2" width="1.5" height="2.3"/>
				</g>
			</g>
			<g>
				<g>
					<g>
						<rect x="273.5" y="188.8" class="st1" width="15" height="12.5"/>
					</g>
					<rect x="280" y="198.1" class="st2" width="1.5" height="2.3"/>
					<rect x="280" y="193.9" class="st2" width="1.5" height="2.3"/>
					<rect x="280" y="189.7" class="st2" width="1.5" height="2.3"/>
				</g>
			</g>
			<g>
				<g>
					<g>
						<rect x="273.5" y="201.4" class="st1" width="15" height="12.5"/>
					</g>
					<rect x="280" y="210.6" class="st2" width="1.5" height="2.3"/>
					<rect x="280" y="206.5" class="st2" width="1.5" height="2.3"/>
					<rect x="280" y="202.3" class="st2" width="1.5" height="2.3"/>
				</g>
			</g>
			<g>
				<g>
					<g>
						<rect x="273.5" y="213.9" class="st1" width="15" height="12.5"/>
					</g>
					<rect x="280" y="223.2" class="st2" width="1.5" height="2.3"/>
					<rect x="280" y="219" class="st2" width="1.5" height="2.3"/>
					<rect x="280" y="214.8" class="st2" width="1.5" height="2.3"/>
				</g>
			</g>
			<g>
				<g>
					<g>
						<rect x="273.5" y="226.5" class="st1" width="15" height="12.5"/>
					</g>
					<rect x="280" y="235.7" class="st2" width="1.5" height="2.3"/>
					<rect x="280" y="231.6" class="st2" width="1.5" height="2.3"/>
					<rect x="280" y="227.4" class="st2" width="1.5" height="2.3"/>
				</g>
			</g>
			<g>
				<g>
					<g>
						<rect x="273.5" y="239" class="st1" width="15" height="12.5"/>
					</g>
					<rect x="280" y="248.3" class="st2" width="1.5" height="2.3"/>
					<rect x="280" y="244.1" class="st2" width="1.5" height="2.3"/>
					<rect x="280" y="239.9" class="st2" width="1.5" height="2.3"/>
				</g>
			</g>
			<g>
				<g>
					<g>
						<rect x="273.5" y="251.6" class="st1" width="15" height="12.5"/>
					</g>
					<rect x="280" y="260.8" class="st2" width="1.5" height="2.3"/>
					<rect x="280" y="256.6" class="st2" width="1.5" height="2.3"/>
					<rect x="280" y="252.5" class="st2" width="1.5" height="2.3"/>
				</g>
			</g>
			<g>
				<g>
					<g>
						<rect x="273.5" y="264.1" class="st1" width="15" height="12.5"/>
					</g>
					<rect x="280" y="273.4" class="st2" width="1.5" height="2.3"/>
					<rect x="280" y="269.2" class="st2" width="1.5" height="2.3"/>
					<rect x="280" y="265" class="st2" width="1.5" height="2.3"/>
				</g>
			</g>
			<g>
				<g>
					<g>
						<rect x="273.5" y="276.7" class="st1" width="15" height="12.5"/>
					</g>
					<rect x="280" y="285.9" class="st2" width="1.5" height="2.3"/>
					<rect x="280" y="281.7" class="st2" width="1.5" height="2.3"/>
					<rect x="280" y="277.6" class="st2" width="1.5" height="2.3"/>
				</g>
			</g>
			<g>
				<g>
					<g>
						<rect x="273.5" y="289.2" class="st1" width="15" height="12.5"/>
					</g>
					<rect x="280" y="298.5" class="st2" width="1.5" height="2.3"/>
					<rect x="280" y="294.3" class="st2" width="1.5" height="2.3"/>
					<rect x="280" y="290.1" class="st2" width="1.5" height="2.3"/>
				</g>
			</g>
			<g>
				<g>
					<g>
						<rect x="273.5" y="301.8" class="st1" width="15" height="12.5"/>
					</g>
					<rect x="280" y="311" class="st2" width="1.5" height="2.3"/>
					<rect x="280" y="306.8" class="st2" width="1.5" height="2.3"/>
					<rect x="280" y="302.7" class="st2" width="1.5" height="2.3"/>
				</g>
			</g>
			<g>
				<g>
					<g>
						<rect x="273.5" y="314.3" class="st1" width="15" height="12.5"/>
					</g>
					<rect x="280" y="323.6" class="st2" width="1.5" height="2.3"/>
					<rect x="280" y="319.4" class="st2" width="1.5" height="2.3"/>
					<rect x="280" y="315.2" class="st2" width="1.5" height="2.3"/>
				</g>
			</g>
			<g>
				<g>
					<g>
						<rect x="273.5" y="326.9" class="st1" width="15" height="12.5"/>
					</g>
					<rect x="280" y="336.1" class="st2" width="1.5" height="2.3"/>
					<rect x="280" y="331.9" class="st2" width="1.5" height="2.3"/>
					<rect x="280" y="327.8" class="st2" width="1.5" height="2.3"/>
				</g>
			</g>
			<g>
				<g>
					<g>
						<rect x="273.5" y="339.4" class="st1" width="15" height="12.5"/>
					</g>
					<rect x="280" y="348.7" class="st2" width="1.5" height="2.3"/>
					<rect x="280" y="344.5" class="st2" width="1.5" height="2.3"/>
					<rect x="280" y="340.3" class="st2" width="1.5" height="2.3"/>
				</g>
			</g>
			<g>
				<g>
					<g>
						<rect x="273.5" y="352" class="st1" width="15" height="12.5"/>
					</g>
					<rect x="280" y="361.2" class="st2" width="1.5" height="2.3"/>
					<rect x="280" y="357" class="st2" width="1.5" height="2.3"/>
					<rect x="280" y="352.9" class="st2" width="1.5" height="2.3"/>
				</g>
			</g>
			<g>
				<g>
					<g>
						<rect x="273.5" y="364.5" class="st1" width="15" height="12.5"/>
					</g>
					<rect x="280" y="373.8" class="st2" width="1.5" height="2.3"/>
					<rect x="280" y="369.6" class="st2" width="1.5" height="2.3"/>
					<rect x="280" y="365.4" class="st2" width="1.5" height="2.3"/>
				</g>
			</g>
			<g>
				<g>
					<g>
						<rect x="273.5" y="377.1" class="st1" width="15" height="12.5"/>
					</g>
					<rect x="280" y="386.4" class="st2" width="1.5" height="2.3"/>
					<rect x="280" y="382.2" class="st2" width="1.5" height="2.3"/>
					<rect x="280" y="378" class="st2" width="1.5" height="2.3"/>
				</g>
			</g>
			<g>
				<g>
					<g>
						<rect x="273.5" y="389.6" class="st1" width="15" height="12.5"/>
					</g>
					<rect x="280" y="399" class="st2" width="1.5" height="2.3"/>
					<rect x="280" y="394.8" class="st2" width="1.5" height="2.3"/>
					<rect x="280" y="390.6" class="st2" width="1.5" height="2.3"/>
				</g>
			</g>
			<g>
				<g>
					<g>
						<rect x="273.5" y="402.1" class="st1" width="15" height="12.5"/>
					</g>
					<rect x="280" y="411.5" class="st2" width="1.5" height="2.3"/>
					<rect x="280" y="407.3" class="st2" width="1.5" height="2.3"/>
					<rect x="280" y="403.2" class="st2" width="1.5" height="2.3"/>
				</g>
			</g>
			<g>
				<g>
					<g>
						<rect x="273.5" y="414.7" class="st1" width="15" height="12.5"/>
					</g>
					<rect x="280" y="424.1" class="st2" width="1.5" height="2.3"/>
					<rect x="280" y="419.9" class="st2" width="1.5" height="2.3"/>
					<rect x="280" y="415.7" class="st2" width="1.5" height="2.3"/>
				</g>
			</g>
			<g>
				<g>
					<g>
						<rect x="273.5" y="427.2" class="st1" width="15" height="12.5"/>
					</g>
					<rect x="280" y="436.6" class="st2" width="1.5" height="2.3"/>
					<rect x="280" y="432.4" class="st2" width="1.5" height="2.3"/>
					<rect x="280" y="428.3" class="st2" width="1.5" height="2.3"/>
				</g>
			</g>
			<g>
				<g>
					<g>
						<rect x="273.5" y="439.8" class="st1" width="15" height="12.5"/>
					</g>
					<rect x="280" y="449.2" class="st2" width="1.5" height="2.3"/>
					<rect x="280" y="445" class="st2" width="1.5" height="2.3"/>
					<rect x="280" y="440.8" class="st2" width="1.5" height="2.3"/>
				</g>
			</g>
			<g>
				<g>
					<g>
						<rect x="273.5" y="452.3" class="st1" width="15" height="12.5"/>
					</g>
					<rect x="280" y="461.7" class="st2" width="1.5" height="2.3"/>
					<rect x="280" y="457.5" class="st2" width="1.5" height="2.3"/>
					<rect x="280" y="453.4" class="st2" width="1.5" height="2.3"/>
				</g>
			</g>
		</g>
	</g>
</g>
<path class="st3" d="M536.1,61.6c0.1-0.6-0.3-1.1-0.9-1.1c-0.6-0.1-1.1,0.3-1.1,0.9c0,0.1,0,0.1,0,0.2v2.5h-2.4
	c-0.6,0.1-1,0.6-0.9,1.1c0,0.4,0.4,0.9,0.9,0.9h2.4v2.5c0.1,0.6,0.6,1,1.1,0.9c0.4,0,0.9-0.4,0.9-0.9v-2.5h2.4
	c0.6,0.1,1.1-0.3,1.1-0.9c0.1-0.6-0.3-1.1-0.9-1.1c-0.1,0-0.1,0-0.2,0h-2.4L536.1,61.6L536.1,61.6z"/>
<path class="st4" d="M353.5,377.1H299c-29.4,0.1-53.3,23.9-53.3,53.3l0,0c0.1,29.4,23.9,53.3,53.3,53.3h461.1
	c47.5,0,86.4-38.9,86.4-86.4l0,0c0-47.5-38.9-86.4-86.4-86.4l0,0c-20.2-0.1-36.4-16.4-36.5-36.5l0,0c0.1-20.2,16.4-36.4,36.5-36.5
	H804c21-0.1,37.9-17,38-38l0,0c0-20.9-17-37.8-38-37.9h-55.6c-8.2,0-14.7-6.6-14.8-14.8l0,0c0-8.2,6.6-14.7,14.8-14.8h9.8
	c5.6,0,10.2-4.5,10.2-10.2l0,0c0-5.6-4.5-10.2-10.2-10.2h-64.3c-13.5,0-15.1,16-49.3,16h-79.3c-7.4,0-13.3,6-13.3,13.4l0,0
	c0,7.4,6,13.3,13.3,13.4h12.8c10.6,0,19.3,8.6,19.3,19.3l0,0c0,10.6-8.6,19.3-19.3,19.3h-38.5c-52,0-59.3,13.5-68.4,40.6
	c-9.1,27.1-56.3,29.2-56.3,29.2h-64.7c-16.1,0-29.1,13-29.1,29.1l0,0c0,16.1,13,29.1,29.1,29.1h3.4c15.4,0,27.9,12.5,28,28l0,0
	C381.4,364.5,369,377.1,353.5,377.1z M797.9,93.5c-6.2,0-11.2-5-11.2-11.2c-0.1-6.3,5-11.3,11.2-11.3s11.2,5,11.2,11.2l0,0
	C809.1,88.4,804.1,93.5,797.9,93.5z"/>
<path class="st5" d="M48.6,488.5h-5.5c-2.3,0-4.2-1.8-4.2-4.1l0,0l0,0c0-2.3,1.9-4.1,4.1-4.1h5.5c2.3,0,4.1,1.9,4.1,4.1l0,0
	C52.7,486.6,50.9,488.5,48.6,488.5z"/>
<path class="st5" d="M59.3,488.6h787.9c3,0,5.4-1.9,5.4-4.1l0,0c0-2.3-2.5-4.1-5.4-4.1H59.3c-3,0-5.4,1.9-5.4,4.1l0,0
	C53.8,486.7,56.3,488.6,59.3,488.6z"/>
<path class="st6" d="M829,248"/>
<path class="st3" d="M841.4,300.2c0-0.6-0.5-1.1-1.1-1.1s-1.1,0.5-1.1,1.1v2.7h-2.7c-0.6,0-1.1,0.5-1.1,1.1s0.5,1.1,1.1,1.1l0,0h2.7
	v2.7c0,0.6,0.5,1.1,1.1,1.1s1.1-0.5,1.1-1.1v-2.7h2.7c0.6,0,1.1-0.5,1.1-1.1s-0.5-1.1-1.1-1.1h-2.7V300.2z"/>
<path class="st3" d="M840.7,364.4c0-0.7-0.6-1.2-1.2-1.2s-1.2,0.6-1.2,1.2v3h-3c-0.7,0.1-1.2,0.7-1.1,1.5c0.1,0.7,0.6,1.1,1.1,1.1h3
	v3c0,0.7,0.6,1.2,1.2,1.2s1.2-0.6,1.2-1.2v-3h3c0.7,0.1,1.3-0.4,1.5-1.1c0.1-0.7-0.4-1.3-1.1-1.5c-0.1,0-0.1,0-0.2,0h-3v-3H840.7z"
	/>
<path class="st3" d="M763.8,98.8c0.1-0.7-0.4-1.3-1.1-1.5c-0.7-0.1-1.3,0.4-1.5,1.1c0,0.1,0,0.1,0,0.2v3.1h-3
	c-0.7,0-1.2,0.6-1.2,1.2s0.6,1.2,1.2,1.2l0,0h3v3.1c0.1,0.7,0.7,1.2,1.5,1.1c0.7-0.1,1.1-0.6,1.1-1.1v-3h3c0.7,0,1.2-0.6,1.2-1.2
	c0-0.7-0.6-1.2-1.2-1.2h-3V98.8z"/>
<path class="st3" d="M618.7,50.8c0-0.7-0.6-1.2-1.2-1.2s-1.2,0.6-1.2,1.2v3h-3c-0.7,0-1.2,0.6-1.2,1.2c0,0.7,0.6,1.2,1.2,1.2l0,0h3
	v3c0,0.7,0.6,1.2,1.2,1.2s1.2-0.6,1.2-1.2l0,0v-3h3c0.7,0,1.2-0.6,1.2-1.2c0-0.7-0.6-1.2-1.2-1.2h-3V50.8z"/>
<path class="st3" d="M260.1,306.3c-0.1-0.7-0.7-1.2-1.5-1.1c-0.7,0.1-1.1,0.6-1.1,1.1v3h-3c-0.7,0.1-1.2,0.7-1.1,1.5
	c0.1,0.7,0.6,1.1,1.1,1.1h2.9v3c0.1,0.7,0.7,1.2,1.5,1.1c0.7-0.1,1.1-0.6,1.1-1.1v-3h3c0.7-0.1,1.2-0.7,1.1-1.5
	c-0.1-0.7-0.6-1.1-1.1-1.1h-3L260.1,306.3z"/>
<path class="st3" d="M385,140.9c0-0.7-0.6-1.2-1.2-1.2s-1.2,0.6-1.2,1.2l0,0v3h-3c-0.7,0-1.2,0.6-1.2,1.2c0,0.7,0.6,1.2,1.2,1.2l0,0
	h3v3c0,0.7,0.6,1.2,1.2,1.2s1.2-0.6,1.2-1.2l0,0v-3h3c0.7,0,1.2-0.6,1.2-1.2c0-0.7-0.6-1.2-1.2-1.2l0,0h-3V140.9z"/>
<path class="st3" d="M238.3,428.3c0-0.7-0.6-1.2-1.2-1.2s-1.2,0.6-1.2,1.2v3h-3c-0.7,0.1-1.2,0.7-1.1,1.5c0.1,0.7,0.6,1.1,1.1,1.1h3
	v3c0,0.7,0.6,1.2,1.2,1.2s1.2-0.6,1.2-1.2v-3h3c0.7-0.1,1.2-0.7,1.1-1.5c-0.1-0.7-0.6-1.1-1.1-1.1h-3V428.3z"/>
<path class="st3" d="M123.6,335.4c0-0.7-0.6-1.2-1.2-1.2c-0.7,0-1.2,0.6-1.2,1.2v3H118c-0.7-0.1-1.3,0.4-1.5,1.1
	c-0.1,0.7,0.4,1.3,1.1,1.5c0.1,0,0.1,0,0.2,0h3v3c0,0.7,0.6,1.2,1.2,1.2c0.7,0,1.2-0.6,1.2-1.2v-3h3c0.7-0.1,1.2-0.7,1.1-1.5
	c-0.1-0.7-0.6-1.1-1.1-1.1h-2.8v-3H123.6z"/>
<path class="st7" d="M203.9,88.5l-16.5-15.7l-5.8-5.5c-2.1-2.1-4.6-3-7.2-2.9L64.5,71.7C60,72,56.4,76,54.8,81.5
	c-0.8,2.7-1.1,5.6-0.9,8.5l1.6,24.5c0.2,2.9,0.8,5.6,1.9,8.3c2.4,5.3,6.5,8.7,10.9,8.5l110-7.2c2.5-0.2,4.8-1.5,6.7-3.8l5-6.2
	l14.3-17.6C206.2,94.4,205.9,90.3,203.9,88.5z"/>
<path class="st8" d="M148.4,66.6c-3.4-1-92.9,0.7-93.5,3.6c-2.1,8.4-3.2,17.1-3.3,25.8c0.1,8.6,1.2,17.1,3.4,25.4
	c0.7,2.8,90.2,4.5,93.5,3.6c10-2.7,19.7-6.3,29.2-10.6c9-4.3,17.6-9.2,25.7-15c2.7-1.9,2.7-5.3,0-7.2c-8.1-5.8-16.7-10.7-25.7-15
	C168.2,72.9,158.4,69.3,148.4,66.6z"/>
<path class="st7" d="M68.5,131.4l110-7.2c2.5-0.2,4.8-1.5,6.7-3.8l5-6.2l14.3-17.7c1.7-2.1,1.4-6.1-0.5-8l-16.5-15.7l-5.8-5.5
	c-2.1-2.1-4.6-3-7.2-2.9"/>
<path class="st9" d="M154.3,112.6c-0.5-10.6-0.5-21.3,0-31.8C154.8,91.3,154.8,102,154.3,112.6z"/>
<g>
	<path class="st9" d="M69.5,88.3h6.2c1.8,0,3.2,0.4,4,1.3c0.9,0.9,1.3,2.1,1.3,3.8c0,2.6-1,4.3-3.1,4.9l3.2,6.8H79l-3-6.4h-4.7v6.4
		h-1.9L69.5,88.3L69.5,88.3z M75.8,97c2.3,0,3.4-1.2,3.4-3.5c0-2.4-1.2-3.5-3.5-3.5h-4.4v7C71.4,97,75.8,97,75.8,97z"/>
	<path class="st9" d="M85.6,104.7c-0.8-0.4-1.3-1.1-1.6-2c-0.3-0.9-0.5-2.1-0.5-3.6s0.2-2.8,0.5-3.7s0.9-1.6,1.6-2.1
		c0.8-0.4,1.8-0.7,3-0.7c1.3,0,2.3,0.2,3,0.7c0.7,0.4,1.3,1.1,1.6,2.1c0.4,0.9,0.5,2.1,0.5,3.7c0,1.5-0.2,2.7-0.5,3.6
		c-0.3,0.9-0.9,1.6-1.6,2s-1.8,0.7-3.1,0.7C87.3,105.3,86.3,105.1,85.6,104.7z M90.7,103.3c0.5-0.3,0.8-0.8,1-1.5S92,100.2,92,99
		c0-1.3-0.1-2.2-0.3-2.9c-0.2-0.7-0.5-1.2-1-1.5s-1.2-0.4-2-0.4c-0.9,0-1.6,0.1-2,0.4c-0.4,0.3-0.8,0.8-1,1.5s-0.3,1.6-0.3,2.9
		c0,1.2,0.1,2.1,0.3,2.8c0.2,0.7,0.5,1.2,1,1.5s1.2,0.4,2.1,0.4C89.6,103.8,90.3,103.6,90.7,103.3z"/>
	<path class="st9" d="M97.1,104.9l-0.9-0.1l0.2-1.5c2.2,0.3,3.9,0.4,5,0.4c2.4,0,3.6-1.2,3.6-3.4c0-0.6-0.1-1.1-0.3-1.5
		c-0.2-0.4-0.6-0.7-1.1-0.9s-1.3-0.4-2.3-0.6c-1.3-0.3-2.4-0.6-3.1-1s-1.3-0.9-1.6-1.5c-0.4-0.6-0.5-1.4-0.5-2.4
		c0-3,1.8-4.5,5.4-4.5c1.3,0,2.9,0.2,5.1,0.5l-0.2,1.6c-2.3-0.3-3.9-0.4-4.8-0.4c-2.4,0-3.6,0.9-3.6,2.7c0,0.7,0.1,1.2,0.4,1.6
		c0.2,0.4,0.6,0.7,1.2,0.9c0.5,0.2,1.5,0.5,2.7,0.7c1.2,0.3,2.1,0.6,2.8,0.9c0.7,0.4,1.2,0.8,1.5,1.3s0.5,1.3,0.5,2.2
		c0,3.5-1.8,5.2-5.3,5.2C100.4,105.3,98.9,105.2,97.1,104.9z"/>
	<path class="st9" d="M109.9,104.4c-0.6-0.6-0.9-1.5-0.9-2.7s0.3-2,0.9-2.6c0.6-0.5,1.5-0.9,2.9-1l3.8-0.4v-1c0-1.5-0.7-2.3-2-2.3
		s-2.9,0.1-4.8,0.3l-0.1-1.4c1.8-0.4,3.3-0.5,4.7-0.5c1.4,0,2.4,0.3,3,0.9c0.6,0.6,0.9,1.6,0.9,3v6.2c0.1,0.6,0.5,1,1.4,1.1
		l-0.1,1.5c-1.3,0-2.2-0.3-2.9-1c-1.5,0.7-2.9,1-4.4,1C111.3,105.3,110.5,105,109.9,104.4z M116,103.2l0.5-0.2v-4l-3.6,0.4
		c-0.7,0.1-1.3,0.3-1.6,0.6c-0.3,0.4-0.5,0.9-0.5,1.6c0,1.5,0.6,2.2,1.8,2.2C113.8,103.8,114.9,103.6,116,103.2z"/>
	<path class="st9" d="M122.1,104.4c-0.6-0.6-0.9-1.5-0.9-2.7s0.3-2,0.9-2.6c0.6-0.5,1.5-0.9,2.9-1l3.8-0.4v-1c0-1.5-0.7-2.3-2-2.3
		s-2.9,0.1-4.8,0.3l-0.1-1.4c1.8-0.4,3.3-0.5,4.7-0.5s2.4,0.3,3,0.9s0.9,1.6,0.9,3v6.2c0.1,0.6,0.5,1,1.4,1.1l-0.1,1.5
		c-1.3,0-2.2-0.3-2.9-1c-1.5,0.7-2.9,1-4.4,1C123.5,105.3,122.7,105,122.1,104.4z M128.2,103.2l0.5-0.2v-4l-3.6,0.4
		c-0.7,0.1-1.3,0.3-1.6,0.6c-0.3,0.4-0.5,0.9-0.5,1.6c0,1.5,0.6,2.2,1.8,2.2C126,103.8,127.1,103.6,128.2,103.2z"/>
	<path class="st9" d="M134.6,104.9l-0.9-0.1l0.2-1.6c2.2,0.3,3.9,0.4,5,0.4c2.4,0,3.6-1.2,3.6-3.4c0-0.6-0.1-1.1-0.3-1.5
		s-0.6-0.7-1.1-0.9s-1.3-0.4-2.3-0.6c-1.3-0.3-2.4-0.6-3.1-1s-1.3-0.9-1.6-1.5c-0.4-0.6-0.5-1.4-0.5-2.4c0-3,1.8-4.5,5.4-4.5
		c1.3,0,2.9,0.2,5.1,0.5l-0.2,1.6c-2.3-0.3-3.9-0.4-4.8-0.4c-2.4,0-3.6,0.9-3.6,2.7c0,0.7,0.1,1.2,0.4,1.6c0.2,0.4,0.6,0.7,1.2,0.9
		c0.5,0.2,1.5,0.5,2.7,0.7c1.2,0.3,2.1,0.6,2.8,0.9c0.7,0.4,1.2,0.8,1.5,1.3s0.5,1.3,0.5,2.2c0,3.5-1.8,5.2-5.3,5.2
		C137.9,105.3,136.4,105.2,134.6,104.9z"/>
</g>
<g>
	<g>
		<path class="st9" d="M598.8,276.9L488.6,172.6c-2.1-2-2.2-5.3-0.2-7.4l57.2-60.5c2-2.1,5.3-2.2,7.4-0.2l110.3,104.3
			c2.1,2,2.2,5.3,0.2,7.4l-57.2,60.5C604.3,278.8,600.9,278.9,598.8,276.9z"/>
		
			<rect x="511" y="164.2" transform="matrix(0.7266 0.687 -0.687 0.7266 281.067 -359.4236)" class="st10" width="162.3" height="18.6"/>
		
			<rect x="513.6" y="168.7" transform="matrix(0.7266 0.687 -0.687 0.7266 274.9148 -338.8298)" class="st11" width="99.3" height="14.6"/>
		<path class="st11" d="M513.2,180.4l-9-8.5c-1.6-1.5-1.7-4-0.2-5.6l7.3-7.7c1.5-1.6,4-1.7,5.6-0.2l9,8.5c1.6,1.5,1.7,4,0.2,5.6
			l-7.3,7.7C517.3,181.8,514.8,181.9,513.2,180.4z"/>
		<g class="st12">
			<g>
				<path class="st13" d="M612.3,251l-71.6-67.7c-0.4-0.4-0.4-1,0-1.5l0,0c0.4-0.4,1-0.4,1.5,0l71.6,67.7c0.4,0.4,0.4,1,0,1.5l0,0
					C613.3,251.4,612.7,251.4,612.3,251z"/>
				<path class="st13" d="M606.4,257.3l-71.6-67.7c-0.4-0.4-0.4-1,0-1.5l0,0c0.4-0.4,1-0.4,1.5,0l71.6,67.7c0.4,0.4,0.4,1,0,1.5l0,0
					C607.4,257.6,606.8,257.6,606.4,257.3z"/>
				<path class="st13" d="M600.7,263.3l-71.6-67.7c-0.4-0.4-0.4-1,0-1.5l0,0c0.4-0.4,1-0.4,1.5,0l71.6,67.7c0.4,0.4,0.4,1,0,1.5l0,0
					C601.7,263.7,601.1,263.7,600.7,263.3z"/>
			</g>
		</g>
	</g>
	<g>
		<path class="st8" d="M755.8,398.6l0.1,25.4c0,1.9,1.5,3.4,3.4,3.4l46.3-0.1c1.9,0,3.4-1.5,3.4-3.4l-0.1-25.4
			c0-1.9-1.5-3.4-3.4-3.4l-12.2,0l0-3.3c0-1.6-1.3-3-3-3l-15.9,0c-1.6,0-3,1.3-3,3l0,3.3l-12.2,0
			C757.3,395.2,755.8,396.7,755.8,398.6z M790.4,395.1l-16,0l0-3.3c0,0,0,0,0,0l15.9,0c0,0,0,0,0,0L790.4,395.1z"/>
		
			<rect x="755.8" y="407" transform="matrix(-1 2.859644e-03 -2.859644e-03 -1 1565.9913 812.7831)" class="st14" width="53.1" height="1"/>
	</g>
	<path class="st15" d="M641.7,440.6h1.1c-1,0-1.5,0.1-1.5,0.1L641.7,440.6z"/>
	<g>
		<path class="st9" d="M792,470.7v6.4c0,1.9-1.6,3.5-3.5,3.5H658.2c-1.9,0-3.5-1.6-3.5-3.5v-6.4c0-1.9,1.6-3.5,3.5-3.5h130.4
			C790.4,467.2,792,468.7,792,470.7z"/>
		<path class="st9" d="M813.5,457.3v6.4c0,1.9-1.6,3.5-3.5,3.5H679.7c-1.9,0-3.5-1.6-3.5-3.5v-6.4c0-1.9,1.6-3.5,3.5-3.5H810
			C811.9,453.9,813.5,455.4,813.5,457.3z"/>
		<path class="st9" d="M819.3,430.8v6.4c0,1.9-1.6,3.5-3.5,3.5H685.4c-1.9,0-3.5-1.6-3.5-3.5v-6.4c0-1.9,1.6-3.5,3.5-3.5h130.4
			C817.7,427.3,819.3,428.9,819.3,430.8z"/>
		<path class="st9" d="M799.3,444v6.4c0,1.9-1.6,3.5-3.5,3.5H665.4c-1.9,0-3.5-1.6-3.5-3.5V444c0-1.9,1.6-3.5,3.5-3.5h130.4
			C797.7,440.6,799.3,442.1,799.3,444z"/>
		<path class="st14" d="M792,470.7v6.4c0,1.9-1.6,3.5-3.5,3.5h-17.9c-6-8.6-26.4-12.1-46.3-13.3h64.2
			C790.4,467.2,792,468.7,792,470.7z"/>
		<path class="st14" d="M761.4,453.9c-37.3,0-56.3,9.1-63.1,13.3h-18.5c-1.9,0-3.5-1.6-3.5-3.5v-6.4c0-1.9,1.6-3.5,3.5-3.5H761.4z"
			/>
		<path class="st14" d="M685.4,427.3h70.4c-23.4,0.1-55.6,12-56.7,13.2l-0.1,0.1h-13.7c-1.9,0-3.5-1.6-3.5-3.5v-6.4
			C681.9,428.9,683.5,427.3,685.4,427.3z"/>
	</g>
	<path class="st16" d="M713.7,427.3c-0.3,0-0.5,0-0.8,0H713.7z"/>
	<g>
		<path class="st17" d="M644.1,333.1l-4.4-3.1c0,0-1.8-10.3-13.3-10.7c0,0-4.7,0.2-3.1,3.3c1.6,3.1,1.4,1.8,3.5,6.2
			c2.1,4.5,6.1,7.8,9.6,7.9l3.8,1.7L644.1,333.1z"/>
		<path class="st14" d="M639.8,329.9l-3.1,5.6c0,0,42.5,39.1,48.9,33.6c0,0,36.6-46.7,31.9-71.2c-4.2-22.2-13.3-22.9-15-22.8
			c-0.2,0-0.3,0-0.3,0s-5.1-3.8-23.2,73C671.3,342.5,662,341,639.8,329.9z"/>
		<path class="st14" d="M585.9,471.7l-2.9,8.8h-29.2C553.8,480.5,561.3,468.7,585.9,471.7z"/>
		<path class="st17" d="M689.9,281.5c-2.9-7.5-3.9-12.1-3.9-12.1l12.6-15.2c2.8,16.8,15.1,22.7,15.1,22.7s-18.1,13.9-30.4,12.6
			C683.3,289.4,685.5,285.2,689.9,281.5z"/>
		<path class="st18" d="M682.4,269.8c0,0,19.8-0.7,19.2-13c-0.6-12.3,1.5-20.7-11.1-20.8c-12.7-0.1-14.9,4.7-15.7,8.9
			C674,249,677.3,269.6,682.4,269.8z"/>
		<path d="M701.7,257.6c0,0-3.6-16-21.6-15c-12.3,0.6-7.1-10.8-6-12.7c0,0,9.5-0.1,19.3,0.1C713.8,230.3,703.3,254.8,701.7,257.6z"
			/>
		<path class="st9" d="M599.2,471.7l-2.9,8.8h-29.2C567.1,480.5,574.6,468.7,599.2,471.7z"/>
		<path class="st19" d="M737.5,377.8c0,0-49.6,8.1-66.2,11.3c-24.4,4.8-37.7,8.6-37.7,8.6l-67.3,74.6h25c0,0,55.9-36.1,63-45h61.5
			C715.9,427.3,755.5,420.5,737.5,377.8z"/>
		<path class="st20" d="M745.8,382.3c-20.8,10.1-43.9,16.4-51.8,18.3c-0.5,0.1-0.9,0-1.3-0.1c-0.7-0.3-1.2-1.1-1.1-2
			c0.1-1,0.2-2.4,0.3-4.3c0.1-5.2-0.5-13.5-3.6-25c0,0,0,0,0-0.1c-1.4-5-3.3-11.4-5.3-18.3c0-0.1,0-0.1,0-0.2
			c-1.4-4.9-2.8-10.1-3.9-15.3l0,0c-2-9.1-3.3-17.9-2.5-24.7c1-9.7,4.1-17.2,8-22.8c0,0,3.1-4.5,3.2-4.5c4.2-0.1,8.3-1.3,12.1-4.3
			c4.1-3.3,8.5-6.9,9.4-6.5c12.6,5.6,23.2,30.4,27.9,58.4c3.9,22.9,8.7,42,10.3,48.3C747.5,380.4,746.9,381.7,745.8,382.3z"/>
		<path class="st8" d="M620.6,314l6.9-4.7c0.1,0,0.1-0.1,0.2-0.1l1.2-0.5l6.5,19.9l-5.5,4.5l-1,0.4c0,0,0,0,0,0l0,0l0,0
			c-0.4,0.2-1-0.1-1.3-0.7l-7.1-17.5C620.1,314.8,620.2,314.3,620.6,314z"/>
		<path class="st19" d="M636.7,327.4l-6.5,5.5c-0.5,0.4-1.2,0.1-1.5-0.6l-7.1-17.5c-0.2-0.5-0.1-1.1,0.3-1.3l6.9-4.7
			c0.5-0.3,1.1,0,1.4,0.6l6.8,16.8C637.1,326.7,637,327.2,636.7,327.4z"/>
		<polygon class="st21" points="635.6,325.3 629.2,330.7 622.7,314.8 629.4,310.2 		"/>
		<path class="st22" d="M633.1,329c-0.1-0.3,0-0.7,0.3-0.8c0.2-0.1,0.5,0.1,0.6,0.4c0.1,0.3,0,0.7-0.3,0.8
			C633.4,329.4,633.1,329.3,633.1,329z"/>
		<g>
			<g>
				<path class="st9" d="M629.4,322.5c0.1,0.1,0.2,0.2,0.3,0.3s0.3,0.2,0.4,0.2s0.3,0.1,0.5,0.1c0.1,0,0.3,0,0.4-0.1
					c0.1,0,0.2-0.1,0.3-0.2c0.1-0.1,0.1-0.3,0.1-0.4c0-0.2-0.1-0.4-0.2-0.7l1.5,0c0.2,0.5,0.3,0.9,0.4,1.2c0,0.3,0,0.6-0.1,0.8
					c-0.1,0.2-0.3,0.4-0.5,0.5c-0.2,0.1-0.5,0.2-0.7,0.2l0.5,1.1l-0.8,0l-0.5-1.2c-0.3,0-0.7-0.1-1-0.2c-0.3-0.1-0.6-0.3-0.9-0.5
					c-0.3-0.2-0.5-0.4-0.7-0.7c-0.2-0.3-0.4-0.6-0.6-0.9c-0.2-0.4-0.3-0.7-0.3-1c0-0.3,0-0.5,0.1-0.7c0.1-0.2,0.3-0.4,0.5-0.6
					c0.2-0.2,0.4-0.3,0.7-0.5c0.2-0.1,0.3-0.2,0.4-0.3c0.1-0.1,0.2-0.2,0.2-0.3c0-0.1,0.1-0.2,0-0.3c0-0.1-0.1-0.2-0.1-0.4
					c-0.1-0.1-0.1-0.3-0.2-0.4c-0.1-0.1-0.2-0.2-0.3-0.3c-0.1-0.1-0.2-0.2-0.4-0.2c-0.1-0.1-0.3-0.1-0.4-0.1c-0.3,0-0.5,0.1-0.5,0.4
					c-0.1,0.2,0,0.6,0.2,1l-1.5,0c-0.2-0.4-0.3-0.7-0.3-1.1c0-0.3,0-0.6,0-0.8c0.1-0.2,0.2-0.4,0.4-0.6s0.4-0.2,0.7-0.3l-0.6-1.3
					l0.8,0l0.6,1.2c0.3,0,0.7,0.1,1,0.2c0.3,0.1,0.6,0.3,0.9,0.5c0.3,0.2,0.5,0.4,0.7,0.7c0.2,0.3,0.4,0.6,0.6,0.9
					c0.2,0.4,0.3,0.7,0.3,1c0,0.3,0,0.5-0.1,0.7c-0.1,0.2-0.3,0.4-0.5,0.6c-0.2,0.2-0.5,0.3-0.7,0.5c-0.2,0.1-0.3,0.2-0.4,0.3
					c-0.1,0.1-0.2,0.2-0.2,0.3c0,0.1-0.1,0.2,0,0.3c0,0.1,0.1,0.3,0.1,0.4C629.3,322.2,629.3,322.3,629.4,322.5z"/>
			</g>
		</g>
		<path class="st18" d="M644.1,339.6l-4.4-3.1c0,0-1.8-10.3-13.3-10.7c0,0-4.7,0.2-3.1,3.3c1.6,3.1,1.4,1.8,3.5,6.2
			c2.1,4.5,6.1,7.8,9.6,7.9l3.8,1.7L644.1,339.6z"/>
		<path class="st14" d="M710.5,365.6c-0.2,7.9-7.3,24.1-18.7,28.4c0.1-5.2-0.5-13.5-3.6-25c0,0,0,0,0-0.1c-1.4-5-3.3-11.4-5.3-18.3
			l20.8-30.3C703.7,320.4,710.7,357.1,710.5,365.6z"/>
		<path class="st8" d="M745.8,382.3c0,0-28.9,0.4-66.3,8.8c-13.7,3.1-42.8,9.5-42.8,9.5L575,472.3h25c0,0,55.9-36.1,63-45h61.5
			C724.6,427.3,763.8,425,745.8,382.3z"/>
		<path class="st14" d="M709.3,314.7c0,0-15,30.1-16.6,31.8c-1.3,1.3-7.5,3.3-9.9,4.1c-1.4-4.9-2.8-10.1-3.9-15.3l0,0
			c0,0,3.9-6.4,5.8-13c1.9-6.5,12-21.8,12-21.8l7.8,5.1L709.3,314.7z"/>
		<path class="st9" d="M640.4,336.5l-3.7,7.1c0,0,42.5,39.1,48.9,33.6c0,0,36.6-46.7,31.9-71.2c-4.2-22.2-13.3-22.9-15-22.8
			c-0.2,0-0.3,0-0.3,0s-5.1-3.8-23.2,73C671.3,350.6,662.7,347.6,640.4,336.5z"/>
	</g>
</g>
<g>
	<path d="M55.2,171.1v-8.9c0.8-0.1,1.5-0.2,2.2-0.2c2.1,0,3.1,0.9,3.1,2.7c0,0.9-0.3,1.6-0.9,2.1c-0.5,0.4-1.2,0.6-2.1,0.6
		c-0.4,0-0.8,0-1.2-0.1v3.7H55.2z M56.2,163v3.6c0.3,0.1,0.7,0.1,1.2,0.1c1.3,0,2-0.6,2-1.9c0-1.2-0.7-1.9-2-1.9
		C56.9,162.9,56.5,163,56.2,163z"/>
	<path d="M66.9,171.1h-0.7l-0.1-0.7c-0.6,0.6-1.3,0.9-2.1,0.9c-0.6,0-1.2-0.2-1.5-0.5c-0.4-0.4-0.6-0.8-0.6-1.4
		c0-1.5,1.1-2.2,3.2-2.2h1v-0.1c0-1.1-0.5-1.7-1.6-1.7c-0.6,0-1.2,0.2-1.8,0.6l-0.3-0.5c0.6-0.6,1.4-0.9,2.4-0.9
		c0.7,0,1.3,0.2,1.7,0.7s0.6,1.1,0.6,2V171.1z M66,167.8h-0.9c-1.5,0-2.3,0.5-2.3,1.4c0,0.4,0.1,0.7,0.4,0.9c0.2,0.2,0.6,0.3,1,0.3
		c0.4,0,0.7-0.1,1.1-0.3c0.3-0.2,0.6-0.4,0.7-0.7V167.8z"/>
	<path d="M74.2,164.8l-2.8,7.3c-0.4,1.1-1,1.7-1.7,1.7c-0.5,0-0.9-0.2-1.4-0.5l0.3-0.5c0.3,0.2,0.6,0.3,0.8,0.3
		c0.5,0,0.9-0.4,1.2-1.3l0.3-0.6h-0.2l-2.5-6.4h1l2,5.4l2-5.4H74.2z"/>
	<path d="M85,171.1H84v-3.6c0-1.4-0.6-2.1-1.7-2.1c-0.6,0-1.2,0.3-1.7,0.8c0.1,0.3,0.1,0.7,0.1,1.1v3.8h-0.9v-3.7c0-1.3-0.6-2-1.7-2
		c-0.3,0-0.6,0.1-0.9,0.2c-0.3,0.2-0.6,0.4-0.7,0.6v4.9h-0.9v-6.4h0.8l0.1,0.7h0c0.6-0.6,1.3-0.8,2-0.8c0.9,0,1.6,0.3,1.9,1
		c0.6-0.7,1.4-1,2.3-1c0.8,0,1.4,0.2,1.8,0.7c0.4,0.5,0.6,1.1,0.6,2V171.1z"/>
	<path d="M92.2,168.3h-4.5c0,0.7,0.3,1.2,0.7,1.6c0.4,0.4,1,0.6,1.7,0.6c0.6,0,1.1-0.2,1.7-0.5l0.3,0.6c-0.6,0.5-1.4,0.7-2.2,0.7
		c-1,0-1.8-0.3-2.4-1c-0.6-0.6-0.8-1.4-0.8-2.3c0-1,0.3-1.8,0.9-2.5c0.5-0.6,1.2-0.9,2-0.9c0.9,0,1.7,0.4,2.2,1.1
		c0.4,0.6,0.6,1.3,0.6,2.2V168.3z M87.7,167.5h3.6c0-0.7-0.2-1.2-0.5-1.6s-0.7-0.6-1.3-0.6c-0.5,0-0.9,0.2-1.3,0.6
		C87.9,166.4,87.7,166.9,87.7,167.5z"/>
	<path d="M99.4,171.1h-0.9v-3.7c0-1.3-0.6-2-1.7-2c-0.3,0-0.7,0.1-1,0.2c-0.3,0.2-0.6,0.4-0.8,0.6v4.9H94v-6.4h0.8l0.1,0.7h0
		c0.6-0.6,1.2-0.8,2.1-0.8c1.6,0,2.4,0.9,2.4,2.7V171.1z"/>
	<path d="M102.9,165.6l0,4c0,0.7,0.3,1,0.8,1c0.3,0,0.6-0.1,0.9-0.2l0.3,0.5c-0.5,0.3-0.9,0.5-1.4,0.5c-0.5,0-0.9-0.2-1.1-0.5
		c-0.3-0.3-0.4-0.7-0.4-1.3v-4h-1v-0.8h1v-1.4l0.9-0.5v1.9h1.9v0.8H102.9z"/>
	<path class="st23" d="M109.6,170.4l0.4-0.6c0.7,0.4,1.4,0.6,2.2,0.6c0.6,0,1-0.1,1.4-0.4c0.3-0.3,0.5-0.7,0.5-1.2
		c0-0.9-0.6-1.5-1.7-1.9c-1-0.3-1.7-0.7-2.1-1.1s-0.6-0.9-0.6-1.5c0-0.7,0.3-1.2,0.8-1.7c0.5-0.4,1.1-0.6,1.9-0.6
		c0.9,0,1.7,0.2,2.4,0.7l-0.5,0.6c-0.6-0.3-1.2-0.5-1.9-0.5c-0.5,0-1,0.1-1.3,0.3c-0.3,0.2-0.5,0.6-0.5,1c0,0.6,0.5,1.1,1.5,1.5
		c1.1,0.4,1.9,0.9,2.3,1.3c0.4,0.4,0.7,1,0.7,1.7c0,0.8-0.3,1.5-0.9,1.9c-0.5,0.4-1.1,0.6-1.9,0.6
		C111.4,171.3,110.5,171,109.6,170.4z"/>
	<path class="st23" d="M122.2,164.8v6.4h-0.7l-0.1-0.7l0,0c-0.6,0.6-1.3,0.9-2.1,0.9c-0.7,0-1.2-0.2-1.6-0.7c-0.4-0.5-0.6-1.1-0.6-2
		v-3.8h0.9v3.6c0,1.4,0.5,2.1,1.5,2.1c0.3,0,0.6-0.1,1-0.2c0.3-0.2,0.6-0.4,0.8-0.6v-4.8H122.2z"/>
	<path class="st23" d="M129.2,165.3l-0.3,0.5c-0.5-0.3-1-0.4-1.6-0.4c-0.8,0-1.4,0.3-1.8,0.8c-0.4,0.5-0.6,1.1-0.6,1.8
		c0,0.8,0.2,1.4,0.7,1.9c0.4,0.4,1,0.6,1.7,0.6c0.6,0,1.1-0.2,1.6-0.5l0.3,0.6c-0.5,0.5-1.2,0.7-2.1,0.7c-1,0-1.8-0.3-2.4-1
		c-0.5-0.6-0.8-1.4-0.8-2.3c0-1,0.3-1.9,1-2.5c0.6-0.6,1.3-0.9,2.1-0.9C127.9,164.6,128.6,164.9,129.2,165.3z"/>
	<path class="st23" d="M135.8,165.3l-0.3,0.5c-0.5-0.3-1-0.4-1.6-0.4c-0.8,0-1.4,0.3-1.8,0.8c-0.4,0.5-0.6,1.1-0.6,1.8
		c0,0.8,0.2,1.4,0.7,1.9c0.4,0.4,1,0.6,1.7,0.6c0.6,0,1.1-0.2,1.6-0.5l0.3,0.6c-0.5,0.5-1.2,0.7-2.1,0.7c-1,0-1.8-0.3-2.4-1
		c-0.5-0.6-0.8-1.4-0.8-2.3c0-1,0.3-1.9,1-2.5c0.6-0.6,1.3-0.9,2.1-0.9C134.5,164.6,135.2,164.9,135.8,165.3z"/>
	<path class="st23" d="M142.7,168.3h-4.5c0,0.7,0.3,1.2,0.7,1.6c0.4,0.4,1,0.6,1.7,0.6c0.6,0,1.1-0.2,1.7-0.5l0.3,0.6
		c-0.6,0.5-1.4,0.7-2.2,0.7c-1,0-1.8-0.3-2.4-1c-0.6-0.6-0.8-1.4-0.8-2.3c0-1,0.3-1.8,0.9-2.5c0.5-0.6,1.2-0.9,2-0.9
		c0.9,0,1.7,0.4,2.2,1.1c0.4,0.6,0.6,1.3,0.6,2.2V168.3z M138.2,167.5h3.6c0-0.7-0.2-1.2-0.5-1.6s-0.7-0.6-1.3-0.6
		c-0.5,0-0.9,0.2-1.3,0.6C138.4,166.4,138.2,166.9,138.2,167.5z"/>
	<path class="st23" d="M147.8,165.7c-0.5-0.2-1-0.4-1.5-0.4c-0.4,0-0.7,0.1-0.9,0.2c-0.2,0.2-0.3,0.4-0.3,0.7c0,0.3,0.1,0.5,0.3,0.7
		c0.2,0.2,0.6,0.3,1.1,0.5c0.8,0.2,1.3,0.5,1.6,0.8c0.3,0.3,0.4,0.7,0.4,1.2c0,0.6-0.2,1-0.6,1.3c-0.4,0.3-0.9,0.5-1.6,0.5
		c-0.9,0-1.6-0.2-2.2-0.7c0,0,0.1-0.1,0.1-0.2c0.1-0.1,0.1-0.2,0.2-0.3c0.5,0.3,1.1,0.4,1.8,0.4c1,0,1.5-0.4,1.5-1.1
		c0-0.3-0.1-0.5-0.3-0.7c-0.2-0.2-0.6-0.3-1.2-0.5c-1.3-0.4-2-1-2-1.9c0-0.5,0.2-0.9,0.6-1.2c0.4-0.3,0.9-0.5,1.5-0.5
		c0.7,0,1.4,0.2,1.9,0.6L147.8,165.7z"/>
	<path class="st23" d="M153.6,165.7c-0.5-0.2-1-0.4-1.5-0.4c-0.4,0-0.7,0.1-0.9,0.2c-0.2,0.2-0.3,0.4-0.3,0.7c0,0.3,0.1,0.5,0.3,0.7
		c0.2,0.2,0.6,0.3,1.1,0.5c0.8,0.2,1.3,0.5,1.6,0.8c0.3,0.3,0.4,0.7,0.4,1.2c0,0.6-0.2,1-0.6,1.3c-0.4,0.3-0.9,0.5-1.6,0.5
		c-0.9,0-1.6-0.2-2.2-0.7c0,0,0.1-0.1,0.1-0.2c0.1-0.1,0.1-0.2,0.2-0.3c0.5,0.3,1.1,0.4,1.8,0.4c1,0,1.5-0.4,1.5-1.1
		c0-0.3-0.1-0.5-0.3-0.7c-0.2-0.2-0.6-0.3-1.2-0.5c-1.3-0.4-2-1-2-1.9c0-0.5,0.2-0.9,0.6-1.2c0.4-0.3,0.9-0.5,1.5-0.5
		c0.7,0,1.4,0.2,1.9,0.6L153.6,165.7z"/>
	<path class="st23" d="M155.6,164.8h0.9v-0.9c0-0.6,0.1-1,0.4-1.3c0.3-0.3,0.7-0.5,1.1-0.5c0.5,0,1,0.2,1.4,0.5l-0.3,0.5
		c-0.3-0.2-0.6-0.2-0.9-0.2c-0.6,0-0.8,0.3-0.8,1v0.9h1.6v0.8h-1.6v5.6h-0.9v-5.6h-0.9V164.8z"/>
	<path class="st23" d="M165.9,164.8v6.4h-0.7l-0.1-0.7l0,0c-0.6,0.6-1.3,0.9-2.1,0.9c-0.7,0-1.2-0.2-1.6-0.7c-0.4-0.5-0.6-1.1-0.6-2
		v-3.8h0.9v3.6c0,1.4,0.5,2.1,1.5,2.1c0.3,0,0.6-0.1,1-0.2c0.3-0.2,0.6-0.4,0.8-0.6v-4.8H165.9z"/>
	<path class="st23" d="M169,162.1v9h-0.9v-8.5L169,162.1z"/>
	<path class="st23" d="M172.2,170.6C172.2,170.7,172.2,170.7,172.2,170.6c0,0.4-0.2,0.6-0.6,0.6c-0.4,0-0.6-0.2-0.6-0.6
		c0-0.4,0.2-0.6,0.6-0.6S172.2,170.3,172.2,170.6z M171.2,169.1v-6.8h0.9v6.8H171.2z"/>
	<path class="st23" d="M54.2,196.8v-0.9h6.7v0.9H58v8h-1v-8H54.2z"/>
	<path class="st23" d="M67.7,204.7h-0.9V201c0-1.3-0.6-2-1.8-2c-0.3,0-0.6,0.1-1,0.2c-0.3,0.2-0.6,0.4-0.7,0.6v4.9h-0.9v-8.5
		l0.9-0.5v3.3c0.6-0.6,1.3-0.8,2-0.8c1.6,0,2.4,0.9,2.4,2.7V204.7z"/>
	<path class="st23" d="M74.5,204.7h-0.7l-0.1-0.7c-0.6,0.6-1.3,0.9-2.1,0.9c-0.6,0-1.2-0.2-1.5-0.5c-0.4-0.4-0.6-0.8-0.6-1.4
		c0-1.5,1.1-2.2,3.2-2.2h1v-0.1c0-1.1-0.5-1.7-1.6-1.7c-0.6,0-1.2,0.2-1.8,0.6l-0.3-0.5c0.6-0.6,1.4-0.9,2.4-0.9
		c0.7,0,1.3,0.2,1.7,0.7s0.6,1.1,0.6,2V204.7z M73.6,201.4h-0.9c-1.5,0-2.3,0.5-2.3,1.4c0,0.4,0.1,0.7,0.4,0.9
		c0.2,0.2,0.6,0.3,1,0.3c0.4,0,0.7-0.1,1.1-0.3c0.3-0.2,0.6-0.4,0.7-0.7V201.4z"/>
	<path class="st23" d="M82,204.7h-0.9V201c0-1.3-0.6-2-1.7-2c-0.3,0-0.7,0.1-1,0.2c-0.3,0.2-0.6,0.4-0.8,0.6v4.9h-0.9v-6.4h0.8
		l0.1,0.7h0c0.6-0.6,1.2-0.8,2.1-0.8c1.6,0,2.4,0.9,2.4,2.7V204.7z"/>
	<path class="st23" d="M88.6,198.4l-2.8,2.5l3.1,3.9h-1.1l-2.8-3.5v3.5h-0.9v-8.5l0.9-0.5v4.8l2.3-2.1H88.6z"/>
	<path class="st23" d="M102.1,198.4l-2.8,7.3c-0.4,1.1-1,1.7-1.7,1.7c-0.5,0-0.9-0.2-1.4-0.5l0.3-0.5c0.3,0.2,0.6,0.3,0.8,0.3
		c0.5,0,0.9-0.4,1.2-1.3l0.3-0.6h-0.2l-2.5-6.4h1l2,5.4l2-5.4H102.1z"/>
	<path class="st23" d="M109.1,201.6c0,1-0.3,1.8-1,2.5c-0.6,0.6-1.3,0.9-2.1,0.9c-1,0-1.7-0.4-2.3-1.1c-0.5-0.6-0.7-1.4-0.7-2.2
		c0-1,0.3-1.9,0.9-2.5c0.6-0.6,1.3-0.9,2.1-0.9c1,0,1.8,0.4,2.3,1.1C108.9,199.9,109.1,200.7,109.1,201.6z M104,201.6
		c0,0.8,0.2,1.5,0.6,1.9c0.4,0.4,0.8,0.6,1.4,0.6c0.6,0,1.1-0.2,1.5-0.7c0.4-0.5,0.6-1.1,0.6-1.9c0-0.8-0.2-1.4-0.6-1.9
		c-0.4-0.4-0.8-0.7-1.4-0.7c-0.6,0-1.1,0.2-1.5,0.7C104.2,200.2,104,200.8,104,201.6z"/>
	<path class="st23" d="M116,198.4v6.4h-0.7l-0.1-0.7l0,0c-0.6,0.6-1.3,0.9-2.1,0.9c-0.7,0-1.2-0.2-1.6-0.7c-0.4-0.5-0.6-1.1-0.6-2
		v-3.8h0.9v3.6c0,1.4,0.5,2.1,1.5,2.1c0.3,0,0.6-0.1,1-0.2c0.3-0.2,0.6-0.4,0.8-0.6v-4.8H116z"/>
	<path d="M124.4,198.4h0.9v-0.9c0-0.6,0.1-1,0.4-1.3c0.3-0.3,0.7-0.5,1.1-0.5c0.5,0,1,0.2,1.4,0.5l-0.3,0.5
		c-0.3-0.2-0.6-0.2-0.9-0.2c-0.6,0-0.8,0.3-0.8,1v0.9h1.6v0.8h-1.6v5.6h-0.9v-5.6h-0.9V198.4z"/>
	<path d="M135.3,201.6c0,1-0.3,1.8-1,2.5c-0.6,0.6-1.3,0.9-2.1,0.9c-1,0-1.7-0.4-2.3-1.1c-0.5-0.6-0.7-1.4-0.7-2.2
		c0-1,0.3-1.9,0.9-2.5c0.6-0.6,1.3-0.9,2.1-0.9c1,0,1.8,0.4,2.3,1.1C135.1,199.9,135.3,200.7,135.3,201.6z M130.2,201.6
		c0,0.8,0.2,1.5,0.6,1.9c0.4,0.4,0.8,0.6,1.4,0.6c0.6,0,1.1-0.2,1.5-0.7c0.4-0.5,0.6-1.1,0.6-1.9c0-0.8-0.2-1.4-0.6-1.9
		c-0.4-0.4-0.8-0.7-1.4-0.7c-0.6,0-1.1,0.2-1.5,0.7C130.4,200.2,130.2,200.8,130.2,201.6z"/>
	<path d="M141.2,198.9l-0.8,0.5c-0.3-0.3-0.7-0.4-1-0.4c-0.5,0-1,0.3-1.4,0.8v4.9h-0.9v-6.4h0.8l0.1,0.7h0c0.6-0.6,1.1-0.8,1.7-0.8
		C140.3,198.2,140.9,198.5,141.2,198.9z"/>
	<path d="M154.3,198.4l-2.8,7.3c-0.4,1.1-1,1.7-1.7,1.7c-0.5,0-0.9-0.2-1.4-0.5l0.3-0.5c0.3,0.2,0.6,0.3,0.8,0.3
		c0.5,0,0.9-0.4,1.2-1.3l0.3-0.6h-0.2l-2.5-6.4h1l2,5.4l2-5.4H154.3z"/>
	<path d="M161.3,201.6c0,1-0.3,1.8-1,2.5c-0.6,0.6-1.3,0.9-2.1,0.9c-1,0-1.7-0.4-2.3-1.1c-0.5-0.6-0.7-1.4-0.7-2.2
		c0-1,0.3-1.9,0.9-2.5c0.6-0.6,1.3-0.9,2.1-0.9c1,0,1.8,0.4,2.3,1.1C161.1,199.9,161.3,200.7,161.3,201.6z M156.2,201.6
		c0,0.8,0.2,1.5,0.6,1.9c0.4,0.4,0.8,0.6,1.4,0.6c0.6,0,1.1-0.2,1.5-0.7c0.4-0.5,0.6-1.1,0.6-1.9c0-0.8-0.2-1.4-0.6-1.9
		c-0.4-0.4-0.8-0.7-1.4-0.7c-0.6,0-1.1,0.2-1.5,0.7C156.4,200.2,156.2,200.8,156.2,201.6z"/>
	<path d="M168.2,198.4v6.4h-0.7l-0.1-0.7l0,0c-0.6,0.6-1.3,0.9-2.1,0.9c-0.7,0-1.2-0.2-1.6-0.7c-0.4-0.5-0.6-1.1-0.6-2v-3.8h0.9v3.6
		c0,1.4,0.5,2.1,1.5,2.1c0.3,0,0.6-0.1,1-0.2c0.3-0.2,0.6-0.4,0.8-0.6v-4.8H168.2z"/>
	<path d="M174.5,198.9l-0.8,0.5c-0.3-0.3-0.7-0.4-1-0.4c-0.5,0-1,0.3-1.4,0.8v4.9h-0.9v-6.4h0.8l0.1,0.7h0c0.6-0.6,1.1-0.8,1.7-0.8
		C173.7,198.2,174.2,198.5,174.5,198.9z"/>
	<path d="M182.6,198.4h0.7l0.1,0.7c0.5-0.6,1.2-0.9,2.1-0.9c0.9,0,1.6,0.3,2.2,1c0.4,0.6,0.7,1.3,0.7,2.2c0,1.1-0.3,2-1,2.7
		c-0.5,0.5-1.2,0.8-1.9,0.8c-0.8,0-1.5-0.3-1.9-0.8v3.1h-0.9V198.4z M183.5,200.1v3c0.1,0.3,0.3,0.5,0.7,0.7c0.3,0.2,0.7,0.3,1,0.3
		c0.6,0,1.2-0.2,1.6-0.7c0.4-0.5,0.6-1.1,0.6-1.9c0-0.9-0.2-1.5-0.6-2c-0.4-0.4-0.8-0.6-1.4-0.6c-0.4,0-0.7,0.1-1.1,0.3
		C183.9,199.5,183.7,199.8,183.5,200.1z"/>
	<path d="M194.8,204.7h-0.7l-0.1-0.7c-0.6,0.6-1.3,0.9-2.1,0.9c-0.6,0-1.2-0.2-1.5-0.5c-0.4-0.4-0.6-0.8-0.6-1.4
		c0-1.5,1.1-2.2,3.2-2.2h1v-0.1c0-1.1-0.5-1.7-1.6-1.7c-0.6,0-1.2,0.2-1.8,0.6l-0.3-0.5c0.6-0.6,1.4-0.9,2.4-0.9
		c0.7,0,1.3,0.2,1.7,0.7s0.6,1.1,0.6,2V204.7z M193.9,201.4H193c-1.5,0-2.3,0.5-2.3,1.4c0,0.4,0.1,0.7,0.4,0.9
		c0.2,0.2,0.6,0.3,1,0.3c0.4,0,0.7-0.1,1.1-0.3c0.3-0.2,0.6-0.4,0.7-0.7V201.4z"/>
	<path d="M202,198.4l-2.8,7.3c-0.4,1.1-1,1.7-1.7,1.7c-0.5,0-0.9-0.2-1.4-0.5l0.3-0.5c0.3,0.2,0.6,0.3,0.8,0.3
		c0.5,0,0.9-0.4,1.2-1.3l0.3-0.6h-0.2l-2.5-6.4h1l2,5.4l2-5.4H202z"/>
	<path d="M212.9,204.7h-0.9v-3.6c0-1.4-0.6-2.1-1.7-2.1c-0.6,0-1.2,0.3-1.7,0.8c0.1,0.3,0.1,0.7,0.1,1.1v3.8h-0.9v-3.7
		c0-1.3-0.6-2-1.7-2c-0.3,0-0.6,0.1-0.9,0.2c-0.3,0.2-0.6,0.4-0.7,0.6v4.9h-0.9v-6.4h0.8l0.1,0.7h0c0.6-0.6,1.3-0.8,2-0.8
		c0.9,0,1.6,0.3,1.9,1c0.6-0.7,1.4-1,2.3-1c0.8,0,1.4,0.2,1.8,0.7c0.4,0.5,0.6,1.1,0.6,2V204.7z"/>
	<path d="M220.1,201.9h-4.5c0,0.7,0.3,1.2,0.7,1.6c0.4,0.4,1,0.6,1.7,0.6c0.6,0,1.1-0.2,1.7-0.5l0.3,0.6c-0.6,0.5-1.4,0.7-2.2,0.7
		c-1,0-1.8-0.3-2.4-1c-0.6-0.6-0.8-1.4-0.8-2.3c0-1,0.3-1.8,0.9-2.5c0.5-0.6,1.2-0.9,2-0.9c0.9,0,1.7,0.4,2.2,1.1
		c0.4,0.6,0.6,1.3,0.6,2.2V201.9z M215.6,201.1h3.6c0-0.7-0.2-1.2-0.5-1.6s-0.7-0.6-1.3-0.6c-0.5,0-0.9,0.2-1.3,0.6
		C215.8,200,215.6,200.5,215.6,201.1z"/>
	<path d="M227.2,204.7h-0.9V201c0-1.3-0.6-2-1.7-2c-0.3,0-0.7,0.1-1,0.2c-0.3,0.2-0.6,0.4-0.8,0.6v4.9h-0.9v-6.4h0.8l0.1,0.7h0
		c0.6-0.6,1.2-0.8,2.1-0.8c1.6,0,2.4,0.9,2.4,2.7V204.7z"/>
	<path d="M230.8,199.2l0,4c0,0.7,0.3,1,0.8,1c0.3,0,0.6-0.1,0.9-0.2l0.3,0.5c-0.5,0.3-0.9,0.5-1.4,0.5c-0.5,0-0.9-0.2-1.1-0.5
		c-0.3-0.3-0.4-0.7-0.4-1.3v-4h-1v-0.8h1V197l0.9-0.5v1.9h1.9v0.8H230.8z"/>
	<path d="M235.8,204.2C235.8,204.2,235.8,204.2,235.8,204.2c0,0.4-0.2,0.6-0.6,0.6c-0.4,0-0.6-0.2-0.6-0.6c0-0.4,0.2-0.6,0.6-0.6
		S235.8,203.8,235.8,204.2z"/>
	<path d="M54.1,212.7h1.1l2.4,4.5l2.4-4.5h1.1l-3,5.4v3.5h-1v-3.5L54.1,212.7z"/>
	<path d="M68.1,218.4c0,1-0.3,1.8-1,2.5c-0.6,0.6-1.3,0.9-2.1,0.9c-1,0-1.7-0.4-2.3-1.1c-0.5-0.6-0.7-1.4-0.7-2.2
		c0-1,0.3-1.9,0.9-2.5c0.6-0.6,1.3-0.9,2.1-0.9c1,0,1.8,0.4,2.3,1.1C67.9,216.7,68.1,217.5,68.1,218.4z M63,218.4
		c0,0.8,0.2,1.5,0.6,1.9c0.4,0.4,0.8,0.6,1.4,0.6c0.6,0,1.1-0.2,1.5-0.7c0.4-0.5,0.6-1.1,0.6-1.9c0-0.8-0.2-1.4-0.6-1.9
		c-0.4-0.4-0.8-0.7-1.4-0.7c-0.6,0-1.1,0.2-1.5,0.7C63.2,217,63,217.6,63,218.4z"/>
	<path d="M75,215.2v6.4h-0.7l-0.1-0.7l0,0c-0.6,0.6-1.3,0.9-2.1,0.9c-0.7,0-1.2-0.2-1.6-0.7c-0.4-0.5-0.6-1.1-0.6-2v-3.8h0.9v3.6
		c0,1.4,0.5,2.1,1.5,2.1c0.3,0,0.6-0.1,1-0.2c0.3-0.2,0.6-0.4,0.8-0.6v-4.8H75z"/>
	<path d="M81.3,215.7l-0.8,0.5c-0.3-0.3-0.7-0.4-1-0.4c-0.5,0-1,0.3-1.4,0.8v4.9h-0.9v-6.4H78l0.1,0.7h0c0.6-0.6,1.1-0.8,1.7-0.8
		C80.5,215,81,215.3,81.3,215.7z"/>
	<path d="M91.7,218.4c0,1-0.3,1.8-1,2.5c-0.6,0.6-1.3,0.9-2.1,0.9c-1,0-1.7-0.4-2.3-1.1c-0.5-0.6-0.7-1.4-0.7-2.2
		c0-1,0.3-1.9,0.9-2.5c0.6-0.6,1.3-0.9,2.1-0.9c1,0,1.8,0.4,2.3,1.1C91.5,216.7,91.7,217.5,91.7,218.4z M86.6,218.4
		c0,0.8,0.2,1.5,0.6,1.9c0.4,0.4,0.8,0.6,1.4,0.6c0.6,0,1.1-0.2,1.5-0.7c0.4-0.5,0.6-1.1,0.6-1.9c0-0.8-0.2-1.4-0.6-1.9
		c-0.4-0.4-0.8-0.7-1.4-0.7c-0.6,0-1.1,0.2-1.5,0.7C86.8,217,86.6,217.6,86.6,218.4z"/>
	<path d="M97.6,215.7l-0.8,0.5c-0.3-0.3-0.7-0.4-1-0.4c-0.5,0-1,0.3-1.4,0.8v4.9h-0.9v-6.4h0.8l0.1,0.7h0c0.6-0.6,1.1-0.8,1.7-0.8
		C96.8,215,97.3,215.3,97.6,215.7z"/>
	<path d="M103.6,221.5l-0.2-0.7c-0.4,0.6-1.1,0.8-1.9,0.8c-0.9,0-1.7-0.3-2.2-1c-0.5-0.6-0.7-1.3-0.7-2.2c0-1.1,0.3-2,1-2.6
		c0.5-0.5,1.2-0.8,2-0.8c0.7,0,1.3,0.2,1.8,0.7v-2.7l0.9-0.5v9H103.6z M103.3,219.9v-3c-0.1-0.3-0.3-0.5-0.7-0.7
		c-0.3-0.2-0.7-0.3-1-0.3c-0.6,0-1.1,0.2-1.5,0.7c-0.4,0.5-0.6,1.1-0.6,1.9c0,0.9,0.2,1.5,0.6,2c0.4,0.4,0.8,0.6,1.4,0.6
		c0.4,0,0.7-0.1,1-0.3C103,220.4,103.2,220.2,103.3,219.9z"/>
	<path d="M111.6,218.7h-4.5c0,0.7,0.3,1.2,0.7,1.6c0.4,0.4,1,0.6,1.7,0.6c0.6,0,1.1-0.2,1.7-0.5l0.3,0.6c-0.6,0.5-1.4,0.7-2.2,0.7
		c-1,0-1.8-0.3-2.4-1c-0.6-0.6-0.8-1.4-0.8-2.3c0-1,0.3-1.8,0.9-2.5c0.5-0.6,1.2-0.9,2-0.9c0.9,0,1.7,0.4,2.2,1.1
		c0.4,0.6,0.6,1.3,0.6,2.2V218.7z M107.1,217.9h3.6c0-0.7-0.2-1.2-0.5-1.6s-0.7-0.6-1.3-0.6c-0.5,0-0.9,0.2-1.3,0.6
		C107.3,216.8,107.1,217.3,107.1,217.9z"/>
	<path d="M117.5,215.7l-0.8,0.5c-0.3-0.3-0.7-0.4-1-0.4c-0.5,0-1,0.3-1.4,0.8v4.9h-0.9v-6.4h0.8l0.1,0.7h0c0.6-0.6,1.1-0.8,1.7-0.8
		C116.7,215,117.2,215.3,117.5,215.7z"/>
	<path d="M122.1,213.1c0-0.2,0.1-0.3,0.2-0.4c0.1-0.1,0.3-0.2,0.4-0.2s0.3,0.1,0.4,0.2c0.1,0.1,0.2,0.3,0.2,0.4
		c0,0.2-0.1,0.3-0.2,0.4c-0.1,0.1-0.3,0.2-0.4,0.2c-0.2,0-0.3-0.1-0.4-0.2S122.1,213.3,122.1,213.1z M123.2,215.2v6.4h-0.9v-6.4
		H123.2z"/>
	<path d="M128.8,216.1c-0.5-0.2-1-0.4-1.5-0.4c-0.4,0-0.7,0.1-0.9,0.2c-0.2,0.2-0.3,0.4-0.3,0.7c0,0.3,0.1,0.5,0.3,0.7
		c0.2,0.2,0.6,0.3,1.1,0.5c0.8,0.2,1.3,0.5,1.6,0.8c0.3,0.3,0.4,0.7,0.4,1.2c0,0.6-0.2,1-0.6,1.3c-0.4,0.3-0.9,0.5-1.6,0.5
		c-0.9,0-1.6-0.2-2.2-0.7c0,0,0.1-0.1,0.1-0.2c0.1-0.1,0.1-0.2,0.2-0.3c0.5,0.3,1.1,0.4,1.8,0.4c1,0,1.5-0.4,1.5-1.1
		c0-0.3-0.1-0.5-0.3-0.7c-0.2-0.2-0.6-0.3-1.2-0.5c-1.3-0.4-2-1-2-1.9c0-0.5,0.2-0.9,0.6-1.2c0.4-0.3,0.9-0.5,1.5-0.5
		c0.7,0,1.4,0.2,1.9,0.6L128.8,216.1z"/>
	<path d="M139.4,215.7l-0.3,0.5c-0.5-0.3-1-0.4-1.6-0.4c-0.8,0-1.4,0.3-1.8,0.8c-0.4,0.5-0.6,1.1-0.6,1.8c0,0.8,0.2,1.4,0.7,1.9
		c0.4,0.4,1,0.6,1.7,0.6c0.6,0,1.1-0.2,1.6-0.5l0.3,0.6c-0.5,0.5-1.2,0.7-2.1,0.7c-1,0-1.8-0.3-2.4-1c-0.5-0.6-0.8-1.4-0.8-2.3
		c0-1,0.3-1.9,1-2.5c0.6-0.6,1.3-0.9,2.1-0.9C138.2,215,138.9,215.3,139.4,215.7z"/>
	<path d="M146.9,218.4c0,1-0.3,1.8-1,2.5c-0.6,0.6-1.3,0.9-2.1,0.9c-1,0-1.7-0.4-2.3-1.1c-0.5-0.6-0.7-1.4-0.7-2.2
		c0-1,0.3-1.9,0.9-2.5c0.6-0.6,1.3-0.9,2.1-0.9c1,0,1.8,0.4,2.3,1.1C146.7,216.7,146.9,217.5,146.9,218.4z M141.8,218.4
		c0,0.8,0.2,1.5,0.6,1.9c0.4,0.4,0.8,0.6,1.4,0.6c0.6,0,1.1-0.2,1.5-0.7c0.4-0.5,0.6-1.1,0.6-1.9c0-0.8-0.2-1.4-0.6-1.9
		c-0.4-0.4-0.8-0.7-1.4-0.7c-0.6,0-1.1,0.2-1.5,0.7C142,217,141.8,217.6,141.8,218.4z"/>
	<path d="M154,221.5h-0.9v-3.7c0-1.3-0.6-2-1.7-2c-0.3,0-0.7,0.1-1,0.2c-0.3,0.2-0.6,0.4-0.8,0.6v4.9h-0.9v-6.4h0.8l0.1,0.7h0
		c0.6-0.6,1.2-0.8,2.1-0.8c1.6,0,2.4,0.9,2.4,2.7V221.5z"/>
	<path d="M160.9,215.9h-3.4v5.6h-0.9v-5.6h-0.9v-0.8h0.9v-0.9c0-0.6,0.1-1,0.4-1.3c0.3-0.3,0.7-0.5,1.1-0.5c0.5,0,1,0.2,1.4,0.5
		l-0.3,0.5c-0.3-0.2-0.6-0.2-0.9-0.2c-0.6,0-0.8,0.3-0.8,1v0.9h4.4v6.4h-0.9V215.9z M160.8,213.1c0-0.2,0.1-0.3,0.2-0.4
		c0.1-0.1,0.3-0.2,0.4-0.2s0.3,0.1,0.4,0.2c0.1,0.1,0.2,0.3,0.2,0.4c0,0.2-0.1,0.3-0.2,0.4s-0.3,0.2-0.4,0.2c-0.2,0-0.3-0.1-0.4-0.2
		S160.8,213.3,160.8,213.1z"/>
	<path d="M168.2,215.7l-0.8,0.5c-0.3-0.3-0.7-0.4-1-0.4c-0.5,0-1,0.3-1.4,0.8v4.9h-0.9v-6.4h0.8l0.1,0.7h0c0.6-0.6,1.1-0.8,1.7-0.8
		C167.4,215,167.9,215.3,168.2,215.7z"/>
	<path d="M179.1,221.5h-0.9v-3.6c0-1.4-0.6-2.1-1.7-2.1c-0.6,0-1.2,0.3-1.7,0.8c0.1,0.3,0.1,0.7,0.1,1.1v3.8h-0.9v-3.7
		c0-1.3-0.6-2-1.7-2c-0.3,0-0.6,0.1-0.9,0.2c-0.3,0.2-0.6,0.4-0.7,0.6v4.9h-0.9v-6.4h0.8l0.1,0.7h0c0.6-0.6,1.3-0.8,2-0.8
		c0.9,0,1.6,0.3,1.9,1c0.6-0.7,1.4-1,2.3-1c0.8,0,1.4,0.2,1.8,0.7c0.4,0.5,0.6,1.1,0.6,2V221.5z"/>
	<path d="M186.4,218.7h-4.5c0,0.7,0.3,1.2,0.7,1.6c0.4,0.4,1,0.6,1.7,0.6c0.6,0,1.1-0.2,1.7-0.5l0.3,0.6c-0.6,0.5-1.4,0.7-2.2,0.7
		c-1,0-1.8-0.3-2.4-1c-0.6-0.6-0.8-1.4-0.8-2.3c0-1,0.3-1.8,0.9-2.5c0.5-0.6,1.2-0.9,2-0.9c0.9,0,1.7,0.4,2.2,1.1
		c0.4,0.6,0.6,1.3,0.6,2.2V218.7z M181.8,217.9h3.6c0-0.7-0.2-1.2-0.5-1.6s-0.7-0.6-1.3-0.6c-0.5,0-0.9,0.2-1.3,0.6
		C182.1,216.8,181.9,217.3,181.8,217.9z"/>
	<path d="M192.7,221.5l-0.2-0.7c-0.4,0.6-1.1,0.8-1.9,0.8c-0.9,0-1.7-0.3-2.2-1c-0.5-0.6-0.7-1.3-0.7-2.2c0-1.1,0.3-2,1-2.6
		c0.5-0.5,1.2-0.8,2-0.8c0.7,0,1.3,0.2,1.8,0.7v-2.7l0.9-0.5v9H192.7z M192.5,219.9v-3c-0.1-0.3-0.3-0.5-0.7-0.7
		c-0.3-0.2-0.7-0.3-1-0.3c-0.6,0-1.1,0.2-1.5,0.7c-0.4,0.5-0.6,1.1-0.6,1.9c0,0.9,0.2,1.5,0.6,2c0.4,0.4,0.8,0.6,1.4,0.6
		c0.4,0,0.7-0.1,1-0.3C192.1,220.4,192.3,220.2,192.5,219.9z"/>
	<path d="M196.9,221C196.9,221,196.9,221,196.9,221c0,0.4-0.2,0.6-0.6,0.6c-0.4,0-0.6-0.2-0.6-0.6c0-0.4,0.2-0.6,0.6-0.6
		S196.9,220.6,196.9,221z"/>
</g>
<g>
	<path class="st24" d="M476.9,404.6H418c-0.5,0-1,0.3-1,1l-10.5,74.7c0,0.3,0.2,0.7,0.5,1h0.2h80.4c0.3,0,0.7-0.3,0.7-0.7v-0.2
		l-10.5-74.7C477.7,404.9,477.2,404.6,476.9,404.6z"/>
	<path class="st25" d="M512,474.3H384.9c-4.7,0-8.5,1.5-8.5,3.4l0,0c0,1.9,3.7,3.4,8.5,3.4H512c4.7,0,8.5-1.5,8.5-3.4l0,0
		C520.5,475.9,516.6,474.3,512,474.3z"/>
	<path class="st19" d="M294.4,239.7h281.8c2.5,0,4.3,1.8,4.3,4.3v188.3c0,2.5-1.8,4.3-4.3,4.3H294.4c-2.5,0-4.3-1.8-4.3-4.3l0,0
		V244.1C289.9,241.6,291.9,239.7,294.4,239.7L294.4,239.7z"/>
	<path class="st8" d="M308,239.7h281.8c2.5,0,4.3,1.8,4.3,4.3l0,0v188.5c0,2.5-1.8,4.3-4.3,4.3H308c-2.5,0-4.3-1.8-4.3-4.3V244.1
		C303.7,241.6,305.8,239.7,308,239.7z"/>
	<path class="st26" d="M587.5,242.6h-277c-1.5,0-2.8,1.3-2.8,2.8v169.9c0,1.2,0.7,1.8,1.8,1.8h279.2c1.2,0,1.8-0.7,1.8-1.8V245.4
		C590.5,243.9,589.2,242.6,587.5,242.6L587.5,242.6z"/>
	<rect x="315.7" y="250.6" class="st27" width="266.4" height="158.2"/>
	<path class="st25" d="M424.3,446.5l-2.8,24.8h-12.6l4-34.3h69.5l1,8.7h-57.9C424.8,445.2,424.5,445.8,424.3,446.5z"/>
	<rect x="315.7" y="250.6" class="st10" width="267.4" height="9.2"/>
	<rect x="317.3" y="252.7" class="st28" width="67.2" height="5.2"/>
	<path class="st29" d="M381.2,256.4c0.5,0,1.2-0.5,1.2-1.2c0-0.5-0.5-1.2-1.2-1.2c-0.7,0-1.2,0.5-1.2,1.2l0,0
		C380.2,255.9,380.7,256.4,381.2,256.4z"/>
	<path class="st29" d="M377.9,256.4c0.5,0,1.2-0.5,1.2-1.2c0-0.5-0.5-1.2-1.2-1.2c-0.5,0-1.2,0.5-1.2,1.2l0,0
		C376.7,255.9,377.2,256.4,377.9,256.4z"/>
	<path class="st29" d="M374.4,256.4c0.5,0,1.2-0.5,1.2-1.2c0-0.5-0.5-1.2-1.2-1.2s-1.2,0.5-1.2,1.2l0,0
		C373.2,255.9,373.7,256.4,374.4,256.4z"/>
	<rect x="387.9" y="252.7" class="st28" width="67.2" height="5.2"/>
	<path class="st29" d="M451.7,256.4c0.5,0,1.2-0.7,1-1.3c0-0.5-0.5-1-1-1s-1.3,0.3-1.3,1s0.3,1.3,1,1.3
		C451.6,256.4,451.6,256.4,451.7,256.4z"/>
	<path class="st29" d="M448.1,256.4c0.5,0,1.2-0.7,1-1.3c0-0.5-0.5-1-1-1c-0.5,0-1.3,0.3-1.3,1s0.3,1.3,1,1.3
		C447.9,256.4,448.1,256.4,448.1,256.4z"/>
	<path class="st29" d="M444.8,256.4c0.5,0,1.2-0.5,1.2-1.2c0-0.5-0.5-1.2-1.2-1.2c-0.5,0-1.2,0.5-1.2,1.2l0,0
		C443.4,255.9,444.1,256.4,444.8,256.4z"/>
	<g>
		<g>
			<path class="st30" d="M443.6,401.7c-31.6,0-57.4-25.7-57.4-57.4s25.7-57.4,57.4-57.4s57.4,25.7,57.4,57.4
				S475.2,401.7,443.6,401.7z M443.6,290.3c-29.8,0-54.1,24.3-54.1,54.1c0,29.8,24.3,54.1,54.1,54.1s54.1-24.3,54.1-54.1
				C497.7,314.5,473.4,290.3,443.6,290.3z"/>
		</g>
	</g>
	<path class="st23" d="M405,323.8c0,0,22.7,40,34.8,63.8c0,0,33-82.7,53.1-110.4c0,0-37.7,32.4-58,65.3
		C435,342.6,421.4,333.9,405,323.8z"/>
</g>
<g>
	<g class="st31">
		<g>
			<path class="st9" d="M478.9,217.2c0-0.6,0-1.1-0.2-1.6c-0.1-0.5-0.4-0.9-0.8-1.3c-0.4-0.4-0.8-0.8-1.4-1.1
				c-0.6-0.3-1.3-0.7-2.2-1c-1.5-0.6-2.8-1.2-4-1.9c-1.2-0.6-2.2-1.4-3-2.2c-0.8-0.8-1.4-1.7-1.9-2.7c-0.4-1-0.6-2.2-0.5-3.6
				c0.1-1.2,0.3-2.3,0.8-3.3c0.5-1,1.1-1.8,2-2.5c0.8-0.7,1.8-1.2,2.9-1.6c1.1-0.4,2.4-0.6,3.8-0.7l0.3-4.5l3.7,0.2l-0.3,4.6
				c1.3,0.2,2.5,0.7,3.5,1.2c1,0.6,1.9,1.3,2.6,2.2c0.7,0.9,1.2,1.9,1.6,3.1c0.3,1.2,0.5,2.5,0.4,3.9l-6.6-0.4
				c0.1-1.7-0.2-3-0.9-3.9c-0.7-0.9-1.7-1.4-3-1.4c-0.7,0-1.3,0-1.8,0.2c-0.5,0.2-0.9,0.4-1.3,0.7c-0.3,0.3-0.6,0.7-0.8,1.1
				c-0.2,0.4-0.3,0.9-0.3,1.5c0,0.5,0,1,0.1,1.4c0.1,0.4,0.4,0.8,0.7,1.2c0.4,0.4,0.8,0.8,1.4,1.1c0.6,0.4,1.3,0.7,2.2,1.1
				c1.4,0.6,2.8,1.3,3.9,1.9c1.2,0.7,2.2,1.4,3,2.2c0.8,0.8,1.4,1.7,1.9,2.8c0.4,1,0.6,2.2,0.5,3.6c-0.1,1.2-0.4,2.4-0.8,3.3
				c-0.5,1-1.2,1.8-2,2.5c-0.8,0.7-1.8,1.2-3,1.6c-1.1,0.4-2.4,0.6-3.8,0.6l-0.2,4.2l-3.6-0.2l0.2-4.2c-1.3-0.2-2.5-0.5-3.6-1
				c-1.2-0.5-2.2-1.2-3-2c-0.9-0.9-1.5-1.9-2-3.2c-0.5-1.2-0.7-2.7-0.6-4.4l6.6,0.4c-0.1,1,0,1.9,0.3,2.5c0.2,0.7,0.6,1.2,1,1.7
				c0.4,0.4,1,0.7,1.6,0.9c0.6,0.2,1.2,0.3,1.8,0.4c0.7,0,1.3,0,1.9-0.2c0.6-0.2,1-0.4,1.4-0.7c0.4-0.3,0.7-0.7,0.9-1.1
				C478.8,218.2,478.9,217.7,478.9,217.2z"/>
		</g>
	</g>
	<g class="st32">
		<g>
			<path class="st9" d="M446.9,195.3c0-0.4-0.1-0.8-0.3-1.1c-0.2-0.3-0.4-0.6-0.7-0.8c-0.3-0.2-0.7-0.4-1.1-0.6
				c-0.4-0.2-1-0.3-1.6-0.5c-1.1-0.2-2-0.5-2.9-0.8c-0.9-0.3-1.7-0.7-2.3-1.1c-0.7-0.4-1.2-1-1.6-1.7c-0.4-0.7-0.7-1.5-0.8-2.4
				c-0.1-0.8,0-1.6,0.2-2.3c0.2-0.7,0.6-1.4,1.1-1.9c0.5-0.6,1.1-1.1,1.8-1.5c0.7-0.4,1.6-0.7,2.5-0.9l-0.4-3.1l2.5-0.3l0.4,3.2
				c0.9,0,1.8,0.2,2.5,0.4c0.8,0.3,1.5,0.7,2,1.2c0.6,0.5,1.1,1.1,1.4,1.9c0.4,0.8,0.6,1.6,0.7,2.6l-4.5,0.5c-0.1-1.2-0.5-2-1.1-2.5
				c-0.6-0.5-1.3-0.7-2.2-0.6c-0.5,0.1-0.9,0.2-1.2,0.3c-0.3,0.2-0.6,0.4-0.8,0.6c-0.2,0.3-0.3,0.5-0.4,0.9c-0.1,0.3-0.1,0.7,0,1
				c0,0.4,0.1,0.7,0.3,1c0.1,0.3,0.4,0.5,0.6,0.7c0.3,0.2,0.7,0.4,1.1,0.6c0.4,0.2,1,0.3,1.7,0.5c1.1,0.3,2,0.5,2.9,0.8
				c0.9,0.3,1.6,0.7,2.3,1.1c0.7,0.5,1.2,1,1.6,1.7c0.4,0.7,0.7,1.5,0.8,2.4c0.1,0.9,0,1.6-0.2,2.4c-0.2,0.7-0.6,1.4-1.1,1.9
				c-0.5,0.6-1.1,1-1.8,1.4c-0.7,0.4-1.6,0.7-2.5,0.9l0.3,2.9l-2.5,0.3l-0.3-2.9c-0.9,0-1.7-0.1-2.6-0.3c-0.8-0.2-1.6-0.5-2.3-1
				c-0.7-0.5-1.3-1.1-1.7-1.9c-0.5-0.8-0.8-1.8-0.9-2.9l4.5-0.5c0.1,0.7,0.2,1.3,0.5,1.7c0.2,0.4,0.5,0.8,0.9,1
				c0.4,0.2,0.7,0.4,1.2,0.5c0.4,0.1,0.9,0.1,1.3,0c0.5-0.1,0.9-0.2,1.3-0.3c0.4-0.2,0.6-0.4,0.9-0.6c0.2-0.3,0.4-0.5,0.5-0.9
				C446.9,196,447,195.7,446.9,195.3z"/>
		</g>
	</g>
	<g class="st33">
		<g>
			<path class="st9" d="M462,162.7c0.1-0.3,0.1-0.6,0-0.8c0-0.2-0.1-0.5-0.3-0.7c-0.1-0.2-0.3-0.4-0.6-0.7c-0.3-0.2-0.6-0.4-1-0.7
				c-0.7-0.4-1.3-0.8-1.8-1.2c-0.5-0.4-1-0.8-1.3-1.3c-0.3-0.5-0.6-1-0.7-1.5c-0.1-0.5-0.1-1.1,0-1.8c0.1-0.6,0.4-1.1,0.7-1.5
				c0.3-0.4,0.7-0.8,1.2-1.1c0.5-0.3,1-0.5,1.6-0.6c0.6-0.1,1.2-0.1,1.9,0l0.5-2.2l1.8,0.4l-0.5,2.2c0.6,0.2,1.2,0.5,1.6,0.9
				c0.5,0.4,0.8,0.8,1.1,1.3c0.3,0.5,0.4,1,0.5,1.6c0.1,0.6,0,1.2-0.1,1.9l-3.2-0.7c0.2-0.8,0.1-1.5-0.1-2c-0.3-0.5-0.7-0.8-1.3-0.9
				c-0.3-0.1-0.6-0.1-0.9-0.1c-0.3,0-0.5,0.1-0.7,0.2c-0.2,0.1-0.3,0.3-0.5,0.5c-0.1,0.2-0.2,0.4-0.3,0.7c-0.1,0.3-0.1,0.5,0,0.7
				c0,0.2,0.1,0.4,0.3,0.7c0.1,0.2,0.3,0.4,0.6,0.7c0.3,0.2,0.6,0.5,1,0.7c0.7,0.4,1.2,0.8,1.8,1.3c0.5,0.4,1,0.9,1.3,1.3
				c0.3,0.5,0.6,1,0.7,1.5c0.1,0.5,0.1,1.1,0,1.8c-0.1,0.6-0.4,1.1-0.7,1.6c-0.3,0.4-0.7,0.8-1.2,1c-0.5,0.3-1,0.4-1.6,0.5
				c-0.6,0.1-1.2,0.1-1.9,0l-0.5,2l-1.8-0.4l0.5-2c-0.6-0.2-1.2-0.5-1.7-0.8c-0.5-0.3-1-0.7-1.3-1.2c-0.4-0.5-0.6-1.1-0.7-1.7
				c-0.1-0.7-0.1-1.4,0.1-2.2l3.2,0.7c-0.1,0.5-0.1,0.9-0.1,1.3c0.1,0.4,0.2,0.7,0.4,0.9c0.2,0.2,0.4,0.4,0.7,0.6
				c0.3,0.1,0.6,0.3,0.9,0.3c0.3,0.1,0.7,0.1,0.9,0.1c0.3,0,0.5-0.1,0.7-0.2c0.2-0.1,0.4-0.3,0.5-0.5
				C461.8,163.2,461.9,163,462,162.7z"/>
		</g>
	</g>
</g>
</svg>
