<svg id="Layer_1" data-name="Layer 1" xmlns="http://www.w3.org/2000/svg" viewBox="0 0 270.19 120.67"><defs><style>.cls-1{fill:none;stroke:#ffab03;stroke-miterlimit:10;stroke-width:4.03px;}.cls-2{fill:#57585b;}.cls-3{fill:#ffab03;}</style></defs><path class="cls-1" d="M12.06,44.81l27.2-25.76,9.5-9c3.55-3.36,7.66-5,11.75-4.75l181.1,11.94c7.35.48,13.35,7,16,16.21a40.52,40.52,0,0,1,1.45,14l-2.66,40.34a40.47,40.47,0,0,1-3.27,13.65c-3.88,8.78-10.68,14.45-18,14L54,103.44c-4.09-.27-7.95-2.47-11-6.26L34.78,87,11.19,57.9C8.42,54.48,8.86,47.84,12.06,44.81Z"/><path class="cls-2" d="M103.57,8.67c5.6-1.54,152.91,1.24,154.06,5.92A181.16,181.16,0,0,1,263,57.09,176.91,176.91,0,0,1,257.4,99c-1.18,4.64-148.46,7.4-154,5.87a315.81,315.81,0,0,1-48-17.45,276.18,276.18,0,0,1-42.31-24.7c-4.43-3.14-4.4-8.7,0-11.85A280,280,0,0,1,55.37,26.16,315.72,315.72,0,0,1,103.57,8.67Z"/><path class="cls-1" d="M235.14,115.38,54,103.44c-4.09-.27-7.95-2.47-11-6.26L34.78,87,11.19,57.9c-2.77-3.42-2.33-10.06.87-13.09l27.2-25.76,9.5-9c3.55-3.36,7.66-5,11.75-4.75"/><path class="cls-3" d="M93.83,84.41C93,67,93,49.37,93.83,32c.83,17.4.82,35,0,52.44Z"/><path class="cls-3" d="M157.19,67.16H136.32v1.63a7.71,7.71,0,0,1-1.49,4.92,8.36,8.36,0,0,1-3.69,2.73,12.4,12.4,0,0,1-4.45.84,13.55,13.55,0,0,1-4.8-.9,9.48,9.48,0,0,1-4-2.79,7.11,7.11,0,0,1-1.59-4.72,111.1,111.1,0,0,1,1.55-12.74l2.08.09a115,115,0,0,0-1.42,12.08,6.4,6.4,0,0,0,1.16,3.86,7.36,7.36,0,0,0,3,2.43,9.09,9.09,0,0,0,3.73.81,9,9,0,0,0,3.72-.81,7.66,7.66,0,0,0,2.94-2.31,5.51,5.51,0,0,0,1.14-3.45V46.74h2.12v6.54a39.67,39.67,0,0,1,3.33-3.72,12.46,12.46,0,0,1,3.49-2.33,11.33,11.33,0,0,1,4.62-.89q5.13,0,7.28,3.16a12.89,12.89,0,0,1,2.15,7.41ZM143.41,49.32A14.2,14.2,0,0,0,140,51.79q-1.35,1.37-2.86,3.2a11.13,11.13,0,0,1-.86,1v9.27h18.74V57.07a10.54,10.54,0,0,0-1.81-6.32,6.23,6.23,0,0,0-5.41-2.54A9,9,0,0,0,143.41,49.32Z"/><path class="cls-3" d="M169.39,65.28v1.88h-5.92V37.52h2.17V65.28Z"/><path class="cls-3" d="M169.39,65.28H179.6v1.88H169.39Z"/><path class="cls-3" d="M179.6,65.28h10.2v1.88H179.6Z"/><path class="cls-3" d="M216.85,49.5A12.89,12.89,0,0,1,219,56.91V67.16H189.8V65.28H196V46.74h2.12v6.54a39.67,39.67,0,0,1,3.33-3.72A12.32,12.32,0,0,1,205,47.23a11.28,11.28,0,0,1,4.61-.89Q214.71,46.34,216.85,49.5Zm-11.64-.18a14.34,14.34,0,0,0-3.36,2.47Q200.5,53.16,199,55a13.15,13.15,0,0,1-.86,1v9.27h18.74V57.07a10.55,10.55,0,0,0-1.82-6.32,6.22,6.22,0,0,0-5.41-2.54A9.07,9.07,0,0,0,205.21,49.32Z"/><path class="cls-3" d="M223.69,77.12V75.28c1.58.11,2.61.16,3.1.16a3.7,3.7,0,0,0,3.37-1.81,9.48,9.48,0,0,0,1.12-5V46.79h2.16v21.1q0,4.74-1.65,7.08a5.78,5.78,0,0,1-5.08,2.35C226.33,77.32,225.32,77.25,223.69,77.12Z"/><path class="cls-3" d="M227.76,38.17l-.21.16-5.35,3.59-.36-.85,1.73-1.31A5.28,5.28,0,0,1,222.33,38a2.37,2.37,0,0,1-.13-1.64,2.09,2.09,0,0,1,1.32-1.2,2.84,2.84,0,0,1,2.12-.15,2.58,2.58,0,0,1,1.47,1.57,4.27,4.27,0,0,1,.22.6Zm-4.42-.59a4.07,4.07,0,0,0,1.2,1.46l1.7-1.3a3.88,3.88,0,0,0-.25-.82,1.33,1.33,0,0,0-1.92-.89C223.29,36.36,223.05,36.88,223.34,37.58Z"/></svg>