<?xml version="1.0" encoding="utf-8"?>
<!-- Generator: Adobe Illustrator 26.0.0, SVG Export Plug-In . SVG Version: 6.00 Build 0)  -->
<svg version="1.1" id="Layer_1" xmlns="http://www.w3.org/2000/svg" xmlns:xlink="http://www.w3.org/1999/xlink" x="0px" y="0px"
	 viewBox="0 0 270.2 120.7" style="enable-background:new 0 0 270.2 120.7;" xml:space="preserve">
<style type="text/css">
	.st0{fill:none;stroke:#FFAB03;stroke-width:4.03;stroke-miterlimit:10;}
	.st1{fill:#57585B;}
	.st2{fill:#FFAB03;}
</style>
<path class="st0" d="M258.1,44.8l-27.2-25.8l-9.5-9c-3.5-3.4-7.6-5-11.8-4.8L28.6,17.2c-7.4,0.5-13.4,7-16,16.2
	c-1.3,4.5-1.8,9.3-1.4,14l2.7,40.3c0.3,4.7,1.3,9.3,3.2,13.6c3.9,8.8,10.7,14.4,18,14l181.1-11.9c4.1-0.3,7.9-2.5,11-6.3l8.3-10.2
	L259,57.9C261.8,54.5,261.3,47.8,258.1,44.8z"/>
<path class="st1" d="M166.6,8.7C161,7.1,13.7,9.9,12.6,14.6C9.1,28.5,7.3,42.8,7.2,57.1c0.2,14.1,2,28.2,5.6,41.9
	c1.2,4.6,148.5,7.4,154,5.9c16.4-4.5,32.5-10.3,48-17.5c14.8-7,29-15.2,42.3-24.7c4.4-3.1,4.4-8.7,0-11.9
	c-13.3-9.5-27.5-17.7-42.3-24.7C199.3,19,183.1,13.2,166.6,8.7z"/>
<path class="st0" d="M35.1,115.4l181.1-11.9c4.1-0.3,7.9-2.5,11-6.3l8.3-10.2L259,57.9c2.8-3.4,2.3-10.1-0.9-13.1l-27.2-25.8l-9.5-9
	c-3.5-3.4-7.6-5-11.8-4.8"/>
<path class="st2" d="M176.4,84.4c-0.8-17.4-0.8-35,0-52.4C177.2,49.4,177.2,67,176.4,84.4z"/>
<g>
	<path class="st2" d="M36.8,44.4H47c3,0,5.2,0.7,6.6,2.1c1.5,1.4,2.2,3.5,2.2,6.3c0,4.3-1.7,7-5.1,8l5.3,11.2h-3.4l-5-10.6h-7.8
		v10.6h-3.1V44.4z M47.1,58.7c3.8,0,5.6-1.9,5.6-5.8c0-3.9-1.9-5.8-5.7-5.8h-7.2v11.6H47.1z"/>
	<path class="st2" d="M63.2,71.4c-1.3-0.7-2.1-1.8-2.7-3.3c-0.5-1.5-0.8-3.5-0.8-5.9c0-2.5,0.3-4.6,0.8-6.1s1.5-2.7,2.7-3.4
		c1.3-0.7,2.9-1.1,5-1.1c2.1,0,3.8,0.4,5,1.1c1.2,0.7,2.1,1.8,2.7,3.4c0.6,1.5,0.8,3.5,0.8,6.1c0,2.5-0.3,4.4-0.8,5.9
		c-0.5,1.5-1.4,2.6-2.7,3.3c-1.2,0.7-2.9,1.1-5.1,1.1C66.1,72.5,64.4,72.1,63.2,71.4z M71.7,69.1c0.8-0.5,1.3-1.3,1.6-2.4
		c0.3-1.1,0.5-2.6,0.5-4.6c0-2.1-0.2-3.7-0.5-4.8c-0.3-1.1-0.9-1.9-1.6-2.4c-0.8-0.5-1.9-0.7-3.3-0.7c-1.4,0-2.6,0.2-3.3,0.7
		s-1.3,1.3-1.7,2.4c-0.3,1.1-0.5,2.7-0.5,4.8c0,1.9,0.2,3.5,0.5,4.6c0.3,1.1,0.9,1.9,1.6,2.4c0.8,0.5,1.9,0.7,3.4,0.7
		C69.8,69.9,70.9,69.6,71.7,69.1z"/>
	<path class="st2" d="M82.1,71.7l-1.4-0.2L81,69c3.7,0.5,6.4,0.7,8.3,0.7c3.9,0,5.9-1.9,5.9-5.6c0-1-0.2-1.8-0.5-2.4
		c-0.4-0.6-1-1.1-1.8-1.4c-0.9-0.4-2.1-0.7-3.8-1c-2.2-0.5-3.9-1-5.1-1.6c-1.2-0.6-2.1-1.4-2.7-2.4c-0.6-1-0.8-2.3-0.8-4
		c0-5,3-7.4,8.9-7.4c2.1,0,4.8,0.3,8.4,0.8l-0.3,2.6c-3.8-0.5-6.5-0.7-7.9-0.7c-4,0-6,1.5-6,4.5c0,1.1,0.2,2,0.6,2.6
		c0.4,0.6,1,1.1,2,1.5c0.9,0.4,2.4,0.8,4.4,1.2c2,0.5,3.5,1,4.6,1.5c1.1,0.6,1.9,1.3,2.4,2.2c0.5,0.9,0.8,2.1,0.8,3.7
		c0,5.7-2.9,8.5-8.8,8.5C87.6,72.4,85.1,72.2,82.1,71.7z"/>
	<path class="st2" d="M103.2,70.9c-1-1-1.4-2.5-1.4-4.5c0-1.9,0.5-3.3,1.5-4.3c1-0.9,2.5-1.5,4.7-1.7l6.3-0.6v-1.7
		c0-2.5-1.1-3.8-3.3-3.8c-2.2,0-4.8,0.2-7.9,0.5l-0.1-2.3c2.9-0.6,5.5-0.9,7.8-0.9c2.3,0,3.9,0.5,4.9,1.5c1,1,1.5,2.7,1.5,4.9v10.2
		c0.1,1,0.9,1.6,2.3,1.8l-0.1,2.4c-2.1,0-3.7-0.5-4.8-1.6c-2.4,1.1-4.8,1.6-7.2,1.6C105.6,72.5,104.2,71.9,103.2,70.9z M113.3,69
		l0.9-0.3v-6.6l-5.9,0.6c-1.2,0.1-2.1,0.5-2.6,1c-0.5,0.6-0.8,1.4-0.8,2.6c0,2.5,1,3.7,3,3.7C109.7,69.9,111.5,69.6,113.3,69z"/>
	<path class="st2" d="M123.3,70.9c-1-1-1.4-2.5-1.4-4.5c0-1.9,0.5-3.3,1.5-4.3c1-0.9,2.5-1.5,4.7-1.7l6.3-0.6v-1.7
		c0-2.5-1.1-3.8-3.3-3.8c-2.2,0-4.8,0.2-7.9,0.5l-0.1-2.3c2.9-0.6,5.5-0.9,7.8-0.9c2.3,0,3.9,0.5,4.9,1.5c1,1,1.5,2.7,1.5,4.9v10.2
		c0.1,1,0.9,1.6,2.3,1.8l-0.1,2.4c-2.1,0-3.7-0.5-4.8-1.6c-2.4,1.1-4.8,1.6-7.2,1.6C125.7,72.5,124.3,71.9,123.3,70.9z M133.3,69
		l0.9-0.3v-6.6l-5.9,0.6c-1.2,0.1-2.1,0.5-2.6,1c-0.5,0.6-0.8,1.4-0.8,2.6c0,2.5,1,3.7,3,3.7C129.8,69.9,131.6,69.6,133.3,69z"/>
	<path class="st2" d="M143.9,71.7l-1.4-0.2l0.3-2.6c3.7,0.5,6.4,0.7,8.3,0.7c3.9,0,5.9-1.9,5.9-5.6c0-1-0.2-1.8-0.5-2.4
		s-1-1.1-1.8-1.4c-0.9-0.4-2.1-0.7-3.8-1c-2.2-0.5-3.9-1-5.1-1.6c-1.2-0.6-2.1-1.4-2.7-2.4c-0.6-1-0.8-2.3-0.8-4c0-5,3-7.4,8.9-7.4
		c2.1,0,4.8,0.3,8.4,0.8l-0.3,2.6c-3.8-0.5-6.5-0.7-7.9-0.7c-4,0-6,1.5-6,4.5c0,1.1,0.2,2,0.6,2.6c0.4,0.6,1,1.1,2,1.5
		c0.9,0.4,2.4,0.8,4.4,1.2c2,0.5,3.5,1,4.6,1.5c1.1,0.6,1.9,1.3,2.4,2.2c0.5,0.9,0.8,2.1,0.8,3.7c0,5.7-2.9,8.5-8.8,8.5
		C149.4,72.4,146.9,72.2,143.9,71.7z"/>
</g>
</svg>
